<svg width="888" height="433"><g><path d="M326.579,216.296L327.092,215.676L327.108,214.875L328.248,214.594L328.805,213.764L328.219,212.496L327.362,212.583L326.858,211.67L325.853,211.021L326.276,210.282L325.161,208.626L325.706,208.577L324.562,206.189L323.64,204.888L322.217,206.297L322.422,207.205L320.692,207.523L319.565,207.342L319.323,205.64L319.511,205.371L318.979,204.137L319.175,203.315L318.716,202.394L318.77,201.572L320.061,200.217L320.032,199.457L320.553,199.408L320.34,197.206L319.917,197.157L319.614,196.261L319.819,193.911L319.708,192.977L317.794,193.481L316.031,193.242L315.843,191.974L316.687,191.821L315.818,190.396L314.223,190.801L314.022,190.45L313.186,190.755L313.215,189.586L312.903,189.335L313.166,187.369L312.723,185.96L312.784,185.25L313.354,185.279L313.469,185.902L314.522,185.754L314.617,185.151L316.691,184.531L316.359,183.879L315.223,183.681L314.789,182.537L316.101,182.058L317.597,181.145L317.888,181.752L319.946,180.736L320.098,181.029L322.057,180.224L321.795,179.658L322.836,179.055L322.947,179.394L325.013,178.753L325.177,178.233L324.619,177.2L323.656,176.362L325.321,175.61L324.783,174.636L326.284,174.342L325.353,173.925L325.62,172.946L326.624,172.439L326.391,171.695L327.801,170.985L328.088,170.217L326.805,169.713L327.104,168.932L326.505,168.986L325.153,168.23L325.259,167.103L324.357,166.904L324.369,166.43L325.817,166.181L327.03,164.819L328.826,164.806L329.014,164.055L329.695,164.307L329.17,163.497L329.223,162.58L327.977,162.568L326.21,162.101L324.833,161.209L324.464,160.234L324.693,158.533L328.694,156.546L329.322,156.827L330.207,156.377L330.703,157.017L331.322,156.426L332.839,156.678L334.561,155.931L336.106,154.927L335.93,153.854L336.106,152.697L338.759,150.273L341.075,149.744L341.227,148.716L342.096,147.795L344.457,146.366L344.65,146.919L344.24,147.468L345.839,147.716L346.331,147.423L347.696,147.44L347.946,146.865L349.168,146.952L349.311,145.68L348.672,145.329L349.947,143.334L350.66,143.264L350.463,141.678L351.197,141.93L352.271,141.327L352.349,142.293L353.132,143.536L353.312,145.655L354.423,145.416L353.726,146.105L354.095,147.08L354.87,146.886L355.321,146.2L355.952,146.13L356.03,144.999L356.625,144.809L356.374,146.882L358.338,146.46L358.42,145.796L359.429,144.982L360.101,144.904L360.068,143.912L360.527,143.483L361.462,144.565L362.692,144.206L362.757,143.764L363.901,143.066L363.717,142.467L364.893,142.678L365.385,142.372L366.574,142.942L366.935,142.021L367.784,142.673L369.292,142.083L369.28,141.323L369.85,141.038L369.956,140.274L369.682,139.233L370.469,138.25L371.436,137.961L371.334,137.304L372.756,137.102L373.224,138.143L374.228,138.709L374.614,137.152L375.651,137.114L376.155,137.973L375.61,138.114L375.573,139.246L376.692,139.27L376.524,138.357L377.729,137.68L378.405,137.68L380.271,136.28L382.529,134.979L386.732,136.293L388.06,136.801L392.2,138.766L400.789,143.57L401.043,144.201L400.358,145.548L400.465,146.337L402.047,147.336L404.7,149.286L409.295,153.498L412.759,156.187L417.97,160.486L423.172,164.282L426.985,167.544L430.441,171.286L430.806,170.353L429.063,169.572L429.371,169.081L431.859,170.266L433.757,171.534L433.565,171.885L431.453,170.848L430.843,171.662L434.934,175.511L439.882,177.688L446.31,179.373L456.305,181.859L459.056,183.156L461.273,184.697L484.534,200.486L491.311,204.991L494.283,207.024L496.226,208.828L500.543,214.032L520.024,243.793L532.864,258.116L541.907,266.628L543.51,269.705L560.413,288.926L565.098,295.328L569.485,306.058L573.429,322.454L574.99,333.791L575.659,345.991L575.212,354.602L574.318,358.671L571.789,362.916L567.472,366.906L562.749,371.461L562.635,372.973L562.971,374.439L567.169,384.029L559.498,388.184L553.87,378.057L551.123,375.897L547.933,375.463L515.293,374.534L510.98,374.41L495.627,374.241L482.099,374.005L472.437,374.761L458.551,378.577L444.252,383.963L433.745,388.77L422.414,395.304L406.963,404.246L401.252,408.429L387.953,421.654L385.723,422.521L383.456,423L377.582,422.884L367.062,422.062L362.229,422.381L361.331,415.698L360.982,415.293L361.056,414.096L360.462,413.902L360.277,412.539L359.876,412.473L359.638,411.378L360.4,410.465L359.99,409.474L360.958,408.838L360.888,407.611L361.458,406.657L360.958,405.761L361.286,405.389L360.786,404.093L361.286,403.564L360.318,402.651L359.925,403.143L358.305,401.524L356.846,399.558L353.415,397.761L352.927,397.299L351.213,396.572L349.741,395.486L349.266,392.768L348.803,391.314L348.155,390.336L347.946,388.873L347.479,388.225L347.118,388.568L345.523,385.487L344.264,385.152L341.85,385.161L340.247,386.057L339.972,386.928L340.313,389.377L339.321,389.468L337.812,387.581L337.554,386.812L337.127,387.539L336.197,387.519L336.029,388.337L335.336,388.89L334.311,389.117L332.749,389.926L331.663,389.014L331.605,388.188L331.068,388.576L329.437,388.807L328.641,389.514L328.625,388.361L327.19,388.146L326.268,387.539L323.742,387.366L322.709,388.241L322.144,387.729L321.356,388.101L320.114,388.109L318.847,387.643L317.638,387.548L315.81,385.103L316.642,384.252L318.179,384.38L318.569,384.099L318.413,382.712L319.048,376.814L319.643,374.976L320.278,373.704L321.766,371.73L321.766,370.028L321.418,370.755L320.836,370.536L320.438,369.471L320.938,368.983L320.053,367.959L319.573,368.343L318.897,368.083L316.818,367.847L315.965,368.203L316.58,367.368L316.704,365.456L317.675,364.093L316.97,363.098L316.646,363.457L315.08,362.648L314.613,361.764L313.948,362.668L312.145,363.383L311.403,363.065L310.05,361.462L310.058,360.715L304.974,363.585L301.002,363.577L299.092,364.808L299.432,365.427L299.006,365.63L299.543,367.348L297.858,368.099L295.033,369.648L295.664,371.676L294.545,371.428L294.078,370.656L293.028,370.978L293.557,371.61L293.123,371.953L292.803,373.159L292.36,373.365L292.77,373.943L294.148,373.452L294.509,374.992L292.426,375.554L292.053,373.989L290.11,370.52L285.633,368.665L285.494,368.025L284.461,368.438L283.292,369.755L282.263,371.292L281.406,370.218L279.656,372.944L278.569,372.527L279.111,371.502L278.049,370.47L279.025,369.483L278.041,369.227L278.295,368.401L279.143,367.141L279.967,367.079L280.586,365.188L281.218,365.444L281.538,364.655L282.419,364.494L283.153,362.999L283.608,362.957L284.235,362.078L285.186,362.573L285.674,361.917L284.485,361.082L285.789,359.538L286.043,358.741L285.367,358.212L286.49,356.498L285.617,355.932L286.49,355.131L287.281,355.639L287.084,354.912L287.703,354.512L286.974,353.995L287.576,353.264L286.732,352.604L286.4,351.914L284.518,352.087L283.694,351.831L283.759,350.059L282.727,349.828L279.426,349.531L279.156,348.069L278.434,347.424L279.082,346.07L279.127,345.235L279.984,344.698L280.845,344.814L280.865,343.934L282.005,344.31L282.579,343.588L282.595,342.782L280.947,342.704L281.136,341.184L281.255,334.051L281.488,333.01L280.505,331.837L279.971,330.739L280.308,330.64L280.283,328.686L279.881,328.666L279.713,327.133L279.045,327.063L278.795,325.969L279.701,325.8L279.066,324.379L279.389,323.97L278.721,322.475L279.225,321.186L280.472,321.075L281.398,320.562L281.414,319.505L281.943,319.295L281.493,318.316L281.054,318.44L280.402,315.301L279.656,314.376L279.726,313.227L278.451,313.471L278.25,312.744L278.902,312.591L278.914,310.419L278.61,309.027L278.869,308.792L278.295,307.987L278.155,306.644L276.487,306.628L276.233,306.062L272.461,306.041L270.399,305.888L270.883,304.802L270.719,304.451L269.595,304.146L268.952,301.767L267.152,301.188L266.824,301.593L266.246,301.292L266.132,302.973L266.849,303.336L266.496,305.529L262.466,305.711L262.303,306.306L263.582,308.148L262.991,308.499L261.725,308.148L261.015,307.545L259.72,307.445L259.474,308.011L257.1,307.198L255.009,307.966L254.694,307.247L254.727,305.769L252.164,305.579L251.927,304.571L252.156,302.824L252.345,298.644L251.685,297.971L250.885,295.914L250.939,295.006L250.418,294.279L250.16,293.052L250.176,291.413L250.557,289.893L251.427,287.332L251.648,284.631L253.124,284.573L253.156,283.896L252.255,282.657L252.386,282.12L251.554,281.678L250.787,281.777L250.41,280.381L249.455,279.179L249.651,278.374L249.172,278.151L249.114,279.142L248.069,279.221L245.298,278.643L245.56,277.738L244.687,277.916L244.871,277.201L243.851,277.069L243.666,277.564L242.863,277.544L242.793,278.139L241.661,277.998L241.145,277.077L239.899,277.081L239.025,276.206L239.353,274.244L240.034,273.967L240.628,272.873L241.727,272.101L243.092,270.391L243.215,268.982L243.609,267.826L244.81,266.335L246.245,265.22L251.529,264.762L253.353,265.398L256.752,264.716L260.708,262.92L267.284,264.006L276.503,266.261L278.668,265.753L283.391,265.67L286.699,265.435L287.974,263.985L287.814,263.246L288.818,263.138L289.126,262.106L289.614,262.069L289.733,262.973L291.003,262.643L291.897,263.291L291.938,264.307L292.643,264.468L293.578,263.783L294.451,261.499L293.496,261.016L293.475,260.02L294.591,259.413L294.64,258.57L295.734,258.368L296.07,259.711L297.71,259.731L298.165,259L299.695,258.88L300.158,259.669L300.727,259.632L300.625,260.442L301.629,260.404L301.232,259.17L302.49,258.748L303.019,257.522L303.958,257.046L303.671,256.328L303.888,255.609L302.978,255.923L302.81,255.39L304.06,254.948L303.499,252.958L302.589,253.202L302.634,252.136L303.486,251.88L303.134,250.922L302.302,249.803L302.248,249.117L303.536,248.638L303.359,248.109L301.732,248.625L301.519,247.936L302.384,247.568L301.99,246.61L302.068,245.726L302.642,245.648L302.531,245.082L301.92,244.929L301.769,244.342L300.941,244.462L300.887,243.698L301.654,243.925L301.24,242.381L300.592,238.635L299.715,234.224L299.764,233.431L300.33,233.324L300.309,232.113L301.056,232.068L301.117,231.374L300.289,231.362L299.707,230.767L299.305,229.685L300.088,229.474L299.99,228.169L300.219,226.819L299.424,227.129L298.251,226.608L299.227,226.699L299.514,222.747L299.895,219.31L301.502,219.245L302.695,218.885L304.958,218.534L305.471,218.059L306.176,216.618L305.237,216.085L306.221,212.516L306.996,211.459L306.873,211.096L307.824,211.03L308.697,212.306L309.378,212.723L310.382,216.432L312.337,217.328L311.862,216.75L312.698,216.275L314.01,214.536L315.154,213.322L316.42,213.371L316.736,213.016L318.109,213.619L317.904,214.065L318.757,214.722L319.889,215.102L320.073,214.668L321.947,215.569L321.82,215.969L322.869,216.263L323.378,215.944L323.41,216.7L325.591,216.713ZM568.784,98.651L572.637,128.912L574.293,135.037L574.839,141.533L573.654,147.183L570.739,151.561L566.455,154.134L556.731,159.074L551.939,161.725L546.954,163.303L543.83,163.765L541.337,163.811L538.652,163.575L534.175,163.332L530.51,162.692L527.218,161.973L522.787,160.511L506.352,153.589L496.456,148.839L482.591,142.24L478.979,141.15L469.555,139.246L465.762,138.535L463.372,137.879L460.753,136.759L442.731,128.383L420.176,113.4L409.279,107.894L403.552,107.638L400.227,108.01L397.85,109.588L390.995,120.743L383.145,114.35L366.492,98.911L334.282,62.712L324.099,51.218L323.135,50.739L316.187,49.429L325.247,39.645L334.766,28.155L340.317,23.043L347.679,18.913L352.624,16.707L355.583,15.204L359.556,12.982L364.2,11.276L367.099,10.599L370.264,10L372.76,10.074L374.38,10.429L376.503,11.454L390.134,20.218L392.225,21.853L394.779,23.604L397.829,27.85L398.936,29.171L400.801,31.823L402.576,33.037L403.999,36.056L402.404,36.771L405.356,42.313L406.791,44.164L408.471,45.898L412.571,47.62L413.858,48.533L415.576,49.338L418.101,50.103L421.836,50.45L425.062,51.395L428.252,51.449L432.519,54.765L433.093,55.05L436.545,55.971L437.037,56.62L440.3,57.607L440.505,58.367L443.272,60.564L443.826,60.42L447.847,64.12L451.832,66.263L455.878,67.664L456.169,68.048L458.059,68.832L458.428,67.486L458.97,67.507L461.626,68.427L466.222,70.683L467.972,71.24L470.735,70.794L492.147,78.976L522.381,86.534L542.965,91.952ZM510.898,204.719L508.566,204.207L506.59,202.956L505.561,201.217L502.732,195.191L500.813,193.163L499.665,192.192L495.882,189.322L483.719,181.797L470.26,173.326L458.58,166.161L455.321,164.195L449.979,161.25L445.913,156.852L443.35,153.994L441.436,152.148L439.706,150.661L437.377,149.116L433.642,146.993L431.663,145.172L431.359,144.214L431.433,142.678L432.642,141.447L433.667,141.12L434.905,141.232L443.395,142.694L447.06,143.863L448.532,144.854L450.143,149.711L451.033,151.66L453.156,154.27L453.903,154.82L458.105,156.199L460.023,156.641L464.574,158.458L479.931,164.125L484.194,164.769L486.818,165.422L490.097,166.896L494.636,169.44L496.283,170.134L498.698,170.667L500.084,171.22L503.486,173.587L505.589,175.375L508.102,176.907L509.504,178.208L511.402,180.567L513.559,183.507L514.44,185.089L514.883,186.386L515.067,189.227L515.953,192.49L516.092,196.013L515.912,197.892L516.769,204.665L516.158,205.698L514.49,205.355L512.854,204.422ZM647.462,167.119L648.45,166.347L648.975,167.032L647.917,167.549ZM517.654,188.571L517.298,186.146L516.445,184.197L515.01,181.459L515.322,180.455L516.174,180.248L518.15,180.199L522.275,180.418L524.427,181.107L525.505,181.847L526.493,182.165L530.572,182.491L532.724,183.598L534.385,184.288L537.882,185.452L550.471,190.826L561.868,195.373L576.561,198.144L588.211,200.019L599.104,200.118L610.505,200.911L612.067,202.91L612.276,205.751L607.122,221.301L604.929,223.536L601.838,222.887L597.333,219.682L580.951,214.35L568.96,215.139L556.129,214.053L546.839,211.286L543.547,210.989L536.582,209.985L535.053,209.981L533.843,210.716L532.724,210.873L529.092,209.811L527.038,208.357L526.579,207.647L523.8,205.694L521.02,202.637L519.089,199.895L518.237,198.42L518.06,197.157L517.925,193.469ZM466.135,158.165L463.135,157.595L462.245,157.166L456.436,153.473L454.112,151.569L451.64,148.662L451.119,147.873L451.029,146.688L451.422,146.291L454.296,146.225L456.772,146.655L458.789,147.159L460.687,147.984L462.188,149.059L465.582,152.214L467.48,154.076L468.493,155.402L468.862,156.476L468.185,157.839L467.451,158.128ZM407.053,420.741L407.619,420.889L407.09,421.381ZM559.367,237.396L560.355,234.327L561.667,232.791L563.499,232.241L567.017,232.287L570.399,233.043L573.051,234.273L578.627,235.492L579.356,236.727L579.82,239.279L579.643,245.47L579.225,246.862L575.97,254.763L574.843,256.237L568.985,256.915L567.484,257.356L565.984,257.36L564.201,256.762L562.134,254.032L560.777,250.86L559.838,247.25L559.183,243.256L558.949,240.08ZM405.811,417.552L407.037,417.623L407.713,418.366L406.668,418.961L404.933,418.11L404.93,417.503ZM541.493,228.64L543.641,228.041L545.839,228.206L551.172,230.123L553.562,231.052L554.497,232.477L554.73,234.447L554.12,240.853L553.234,243.81L552.156,244.685L550.701,244.851L549.204,244.359L547.101,242.224L543.453,237.557L542.239,235.653L541.468,233.898L540.977,230.201ZM401.187,412.919L401.929,413.084L401.142,413.571Z" fill="#eee" opacity="0.5"></path><path d="M326.579,216.296L327.092,215.676L327.108,214.875L328.248,214.594L328.805,213.764L328.219,212.496L327.362,212.583L326.858,211.67L325.853,211.021L326.276,210.282L325.161,208.626L325.706,208.577L324.562,206.189L323.64,204.888L322.217,206.297L322.422,207.205L320.692,207.523L319.565,207.342L319.323,205.64L319.511,205.371L318.979,204.137L319.175,203.315L318.716,202.394L318.77,201.572L320.061,200.217L320.032,199.457L320.553,199.408L320.34,197.206L319.917,197.157L319.614,196.261L319.819,193.911L319.708,192.977L317.794,193.481L316.031,193.242L315.843,191.974L316.687,191.821L315.818,190.396L314.223,190.801L314.022,190.45L313.186,190.755L313.215,189.586L312.903,189.335L313.166,187.369L312.723,185.96L312.784,185.25L313.354,185.279L313.469,185.902L314.522,185.754L314.617,185.151L316.691,184.531L316.359,183.879L315.223,183.681L314.789,182.537L316.101,182.058L317.597,181.145L317.888,181.752L319.946,180.736L320.098,181.029L322.057,180.224L321.795,179.658L322.836,179.055L322.947,179.394L325.013,178.753L325.177,178.233L324.619,177.2L323.656,176.362L325.321,175.61L324.783,174.636L326.284,174.342L325.353,173.925L325.62,172.946L326.624,172.439L326.391,171.695L327.801,170.985L328.088,170.217L326.805,169.713L327.104,168.932L326.505,168.986L325.153,168.23L325.259,167.103L324.357,166.904L324.369,166.43L325.817,166.181L327.03,164.819L328.826,164.806L329.014,164.055L329.695,164.307L329.17,163.497L329.223,162.58L327.977,162.568L326.21,162.101L324.833,161.209L324.464,160.234L324.693,158.533L328.694,156.546L329.322,156.827L330.207,156.377L330.703,157.017L331.322,156.426L332.839,156.678L334.561,155.931L336.106,154.927L335.93,153.854L336.106,152.697L338.759,150.273L341.075,149.744L341.227,148.716L342.096,147.795L344.457,146.366L344.65,146.919L344.24,147.468L345.839,147.716L346.331,147.423L347.696,147.44L347.946,146.865L349.168,146.952L349.311,145.68L348.672,145.329L349.947,143.334L350.66,143.264L350.463,141.678L351.197,141.93L352.271,141.327L352.349,142.293L353.132,143.536L353.312,145.655L354.423,145.416L353.726,146.105L354.095,147.08L354.87,146.886L355.321,146.2L355.952,146.13L356.03,144.999L356.625,144.809L356.374,146.882L358.338,146.46L358.42,145.796L359.429,144.982L360.101,144.904L360.068,143.912L360.527,143.483L361.462,144.565L362.692,144.206L362.757,143.764L363.901,143.066L363.717,142.467L364.893,142.678L365.385,142.372L366.574,142.942L366.935,142.021L367.784,142.673L369.292,142.083L369.28,141.323L369.85,141.038L369.956,140.274L369.682,139.233L370.469,138.25L371.436,137.961L371.334,137.304L372.756,137.102L373.224,138.143L374.228,138.709L374.614,137.152L375.651,137.114L376.155,137.973L375.61,138.114L375.573,139.246L376.692,139.27L376.524,138.357L377.729,137.68L378.405,137.68L380.271,136.28L382.529,134.979L386.732,136.293L388.06,136.801L392.2,138.766L400.789,143.57L401.043,144.201L400.358,145.548L400.465,146.337L402.047,147.336L404.7,149.286L409.295,153.498L412.759,156.187L417.97,160.486L423.172,164.282L426.985,167.544L430.441,171.286L430.806,170.353L429.063,169.572L429.371,169.081L431.859,170.266L433.757,171.534L433.565,171.885L431.453,170.848L430.843,171.662L434.934,175.511L439.882,177.688L446.31,179.373L456.305,181.859L459.056,183.156L461.273,184.697L484.534,200.486L491.311,204.991L494.283,207.024L496.226,208.828L500.543,214.032L520.024,243.793L532.864,258.116L541.907,266.628L543.51,269.705L560.413,288.926L565.098,295.328L569.485,306.058L573.429,322.454L574.99,333.791L575.659,345.991L575.212,354.602L574.318,358.671L571.789,362.916L567.472,366.906L562.749,371.461L562.635,372.973L562.971,374.439L567.169,384.029L559.498,388.184L553.87,378.057L551.123,375.897L547.933,375.463L515.293,374.534L510.98,374.41L495.627,374.241L482.099,374.005L472.437,374.761L458.551,378.577L444.252,383.963L433.745,388.77L422.414,395.304L406.963,404.246L401.252,408.429L387.953,421.654L385.723,422.521L383.456,423L377.582,422.884L367.062,422.062L362.229,422.381L361.331,415.698L360.982,415.293L361.056,414.096L360.462,413.902L360.277,412.539L359.876,412.473L359.638,411.378L360.4,410.465L359.99,409.474L360.958,408.838L360.888,407.611L361.458,406.657L360.958,405.761L361.286,405.389L360.786,404.093L361.286,403.564L360.318,402.651L359.925,403.143L358.305,401.524L356.846,399.558L353.415,397.761L352.927,397.299L351.213,396.572L349.741,395.486L349.266,392.768L348.803,391.314L348.155,390.336L347.946,388.873L347.479,388.225L347.118,388.568L345.523,385.487L344.264,385.152L341.85,385.161L340.247,386.057L339.972,386.928L340.313,389.377L339.321,389.468L337.812,387.581L337.554,386.812L337.127,387.539L336.197,387.519L336.029,388.337L335.336,388.89L334.311,389.117L332.749,389.926L331.663,389.014L331.605,388.188L331.068,388.576L329.437,388.807L328.641,389.514L328.625,388.361L327.19,388.146L326.268,387.539L323.742,387.366L322.709,388.241L322.144,387.729L321.356,388.101L320.114,388.109L318.847,387.643L317.638,387.548L315.81,385.103L316.642,384.252L318.179,384.38L318.569,384.099L318.413,382.712L319.048,376.814L319.643,374.976L320.278,373.704L321.766,371.73L321.766,370.028L321.418,370.755L320.836,370.536L320.438,369.471L320.938,368.983L320.053,367.959L319.573,368.343L318.897,368.083L316.818,367.847L315.965,368.203L316.58,367.368L316.704,365.456L317.675,364.093L316.97,363.098L316.646,363.457L315.08,362.648L314.613,361.764L313.948,362.668L312.145,363.383L311.403,363.065L310.05,361.462L310.058,360.715L304.974,363.585L301.002,363.577L299.092,364.808L299.432,365.427L299.006,365.63L299.543,367.348L297.858,368.099L295.033,369.648L295.664,371.676L294.545,371.428L294.078,370.656L293.028,370.978L293.557,371.61L293.123,371.953L292.803,373.159L292.36,373.365L292.77,373.943L294.148,373.452L294.509,374.992L292.426,375.554L292.053,373.989L290.11,370.52L285.633,368.665L285.494,368.025L284.461,368.438L283.292,369.755L282.263,371.292L281.406,370.218L279.656,372.944L278.569,372.527L279.111,371.502L278.049,370.47L279.025,369.483L278.041,369.227L278.295,368.401L279.143,367.141L279.967,367.079L280.586,365.188L281.218,365.444L281.538,364.655L282.419,364.494L283.153,362.999L283.608,362.957L284.235,362.078L285.186,362.573L285.674,361.917L284.485,361.082L285.789,359.538L286.043,358.741L285.367,358.212L286.49,356.498L285.617,355.932L286.49,355.131L287.281,355.639L287.084,354.912L287.703,354.512L286.974,353.995L287.576,353.264L286.732,352.604L286.4,351.914L284.518,352.087L283.694,351.831L283.759,350.059L282.727,349.828L279.426,349.531L279.156,348.069L278.434,347.424L279.082,346.07L279.127,345.235L279.984,344.698L280.845,344.814L280.865,343.934L282.005,344.31L282.579,343.588L282.595,342.782L280.947,342.704L281.136,341.184L281.255,334.051L281.488,333.01L280.505,331.837L279.971,330.739L280.308,330.64L280.283,328.686L279.881,328.666L279.713,327.133L279.045,327.063L278.795,325.969L279.701,325.8L279.066,324.379L279.389,323.97L278.721,322.475L279.225,321.186L280.472,321.075L281.398,320.562L281.414,319.505L281.943,319.295L281.493,318.316L281.054,318.44L280.402,315.301L279.656,314.376L279.726,313.227L278.451,313.471L278.25,312.744L278.902,312.591L278.914,310.419L278.61,309.027L278.869,308.792L278.295,307.987L278.155,306.644L276.487,306.628L276.233,306.062L272.461,306.041L270.399,305.888L270.883,304.802L270.719,304.451L269.595,304.146L268.952,301.767L267.152,301.188L266.824,301.593L266.246,301.292L266.132,302.973L266.849,303.336L266.496,305.529L262.466,305.711L262.303,306.306L263.582,308.148L262.991,308.499L261.725,308.148L261.015,307.545L259.72,307.445L259.474,308.011L257.1,307.198L255.009,307.966L254.694,307.247L254.727,305.769L252.164,305.579L251.927,304.571L252.156,302.824L252.345,298.644L251.685,297.971L250.885,295.914L250.939,295.006L250.418,294.279L250.16,293.052L250.176,291.413L250.557,289.893L251.427,287.332L251.648,284.631L253.124,284.573L253.156,283.896L252.255,282.657L252.386,282.12L251.554,281.678L250.787,281.777L250.41,280.381L249.455,279.179L249.651,278.374L249.172,278.151L249.114,279.142L248.069,279.221L245.298,278.643L245.56,277.738L244.687,277.916L244.871,277.201L243.851,277.069L243.666,277.564L242.863,277.544L242.793,278.139L241.661,277.998L241.145,277.077L239.899,277.081L239.025,276.206L239.353,274.244L240.034,273.967L240.628,272.873L241.727,272.101L243.092,270.391L243.215,268.982L243.609,267.826L244.81,266.335L246.245,265.22L251.529,264.762L253.353,265.398L256.752,264.716L260.708,262.92L267.284,264.006L276.503,266.261L278.668,265.753L283.391,265.67L286.699,265.435L287.974,263.985L287.814,263.246L288.818,263.138L289.126,262.106L289.614,262.069L289.733,262.973L291.003,262.643L291.897,263.291L291.938,264.307L292.643,264.468L293.578,263.783L294.451,261.499L293.496,261.016L293.475,260.02L294.591,259.413L294.64,258.57L295.734,258.368L296.07,259.711L297.71,259.731L298.165,259L299.695,258.88L300.158,259.669L300.727,259.632L300.625,260.442L301.629,260.404L301.232,259.17L302.49,258.748L303.019,257.522L303.958,257.046L303.671,256.328L303.888,255.609L302.978,255.923L302.81,255.39L304.06,254.948L303.499,252.958L302.589,253.202L302.634,252.136L303.486,251.88L303.134,250.922L302.302,249.803L302.248,249.117L303.536,248.638L303.359,248.109L301.732,248.625L301.519,247.936L302.384,247.568L301.99,246.61L302.068,245.726L302.642,245.648L302.531,245.082L301.92,244.929L301.769,244.342L300.941,244.462L300.887,243.698L301.654,243.925L301.24,242.381L300.592,238.635L299.715,234.224L299.764,233.431L300.33,233.324L300.309,232.113L301.056,232.068L301.117,231.374L300.289,231.362L299.707,230.767L299.305,229.685L300.088,229.474L299.99,228.169L300.219,226.819L299.424,227.129L298.251,226.608L299.227,226.699L299.514,222.747L299.895,219.31L301.502,219.245L302.695,218.885L304.958,218.534L305.471,218.059L306.176,216.618L305.237,216.085L306.221,212.516L306.996,211.459L306.873,211.096L307.824,211.03L308.697,212.306L309.378,212.723L310.382,216.432L312.337,217.328L311.862,216.75L312.698,216.275L314.01,214.536L315.154,213.322L316.42,213.371L316.736,213.016L318.109,213.619L317.904,214.065L318.757,214.722L319.889,215.102L320.073,214.668L321.947,215.569L321.82,215.969L322.869,216.263L323.378,215.944L323.41,216.7L325.591,216.713ZM568.784,98.651L572.637,128.912L574.293,135.037L574.839,141.533L573.654,147.183L570.739,151.561L566.455,154.134L556.731,159.074L551.939,161.725L546.954,163.303L543.83,163.765L541.337,163.811L538.652,163.575L534.175,163.332L530.51,162.692L527.218,161.973L522.787,160.511L506.352,153.589L496.456,148.839L482.591,142.24L478.979,141.15L469.555,139.246L465.762,138.535L463.372,137.879L460.753,136.759L442.731,128.383L420.176,113.4L409.279,107.894L403.552,107.638L400.227,108.01L397.85,109.588L390.995,120.743L383.145,114.35L366.492,98.911L334.282,62.712L324.099,51.218L323.135,50.739L316.187,49.429L325.247,39.645L334.766,28.155L340.317,23.043L347.679,18.913L352.624,16.707L355.583,15.204L359.556,12.982L364.2,11.276L367.099,10.599L370.264,10L372.76,10.074L374.38,10.429L376.503,11.454L390.134,20.218L392.225,21.853L394.779,23.604L397.829,27.85L398.936,29.171L400.801,31.823L402.576,33.037L403.999,36.056L402.404,36.771L405.356,42.313L406.791,44.164L408.471,45.898L412.571,47.62L413.858,48.533L415.576,49.338L418.101,50.103L421.836,50.45L425.062,51.395L428.252,51.449L432.519,54.765L433.093,55.05L436.545,55.971L437.037,56.62L440.3,57.607L440.505,58.367L443.272,60.564L443.826,60.42L447.847,64.12L451.832,66.263L455.878,67.664L456.169,68.048L458.059,68.832L458.428,67.486L458.97,67.507L461.626,68.427L466.222,70.683L467.972,71.24L470.735,70.794L492.147,78.976L522.381,86.534L542.965,91.952ZM510.898,204.719L508.566,204.207L506.59,202.956L505.561,201.217L502.732,195.191L500.813,193.163L499.665,192.192L495.882,189.322L483.719,181.797L470.26,173.326L458.58,166.161L455.321,164.195L449.979,161.25L445.913,156.852L443.35,153.994L441.436,152.148L439.706,150.661L437.377,149.116L433.642,146.993L431.663,145.172L431.359,144.214L431.433,142.678L432.642,141.447L433.667,141.12L434.905,141.232L443.395,142.694L447.06,143.863L448.532,144.854L450.143,149.711L451.033,151.66L453.156,154.27L453.903,154.82L458.105,156.199L460.023,156.641L464.574,158.458L479.931,164.125L484.194,164.769L486.818,165.422L490.097,166.896L494.636,169.44L496.283,170.134L498.698,170.667L500.084,171.22L503.486,173.587L505.589,175.375L508.102,176.907L509.504,178.208L511.402,180.567L513.559,183.507L514.44,185.089L514.883,186.386L515.067,189.227L515.953,192.49L516.092,196.013L515.912,197.892L516.769,204.665L516.158,205.698L514.49,205.355L512.854,204.422ZM647.462,167.119L648.45,166.347L648.975,167.032L647.917,167.549ZM517.654,188.571L517.298,186.146L516.445,184.197L515.01,181.459L515.322,180.455L516.174,180.248L518.15,180.199L522.275,180.418L524.427,181.107L525.505,181.847L526.493,182.165L530.572,182.491L532.724,183.598L534.385,184.288L537.882,185.452L550.471,190.826L561.868,195.373L576.561,198.144L588.211,200.019L599.104,200.118L610.505,200.911L612.067,202.91L612.276,205.751L607.122,221.301L604.929,223.536L601.838,222.887L597.333,219.682L580.951,214.35L568.96,215.139L556.129,214.053L546.839,211.286L543.547,210.989L536.582,209.985L535.053,209.981L533.843,210.716L532.724,210.873L529.092,209.811L527.038,208.357L526.579,207.647L523.8,205.694L521.02,202.637L519.089,199.895L518.237,198.42L518.06,197.157L517.925,193.469ZM466.135,158.165L463.135,157.595L462.245,157.166L456.436,153.473L454.112,151.569L451.64,148.662L451.119,147.873L451.029,146.688L451.422,146.291L454.296,146.225L456.772,146.655L458.789,147.159L460.687,147.984L462.188,149.059L465.582,152.214L467.48,154.076L468.493,155.402L468.862,156.476L468.185,157.839L467.451,158.128ZM407.053,420.741L407.619,420.889L407.09,421.381ZM559.367,237.396L560.355,234.327L561.667,232.791L563.499,232.241L567.017,232.287L570.399,233.043L573.051,234.273L578.627,235.492L579.356,236.727L579.82,239.279L579.643,245.47L579.225,246.862L575.97,254.763L574.843,256.237L568.985,256.915L567.484,257.356L565.984,257.36L564.201,256.762L562.134,254.032L560.777,250.86L559.838,247.25L559.183,243.256L558.949,240.08ZM405.811,417.552L407.037,417.623L407.713,418.366L406.668,418.961L404.933,418.11L404.93,417.503ZM541.493,228.64L543.641,228.041L545.839,228.206L551.172,230.123L553.562,231.052L554.497,232.477L554.73,234.447L554.12,240.853L553.234,243.81L552.156,244.685L550.701,244.851L549.204,244.359L547.101,242.224L543.453,237.557L542.239,235.653L541.468,233.898L540.977,230.201ZM401.187,412.919L401.929,413.084L401.142,413.571Z" stroke="#747569" stroke-width="1" stroke-dasharray="3,3" fill="none"></path><path d="M326.579,216.296L327.092,215.676L327.108,214.875L328.248,214.594L328.805,213.764L328.219,212.496L327.362,212.583L326.858,211.67L325.853,211.021L326.276,210.282L325.161,208.626L325.706,208.577L324.562,206.189L323.64,204.888L322.217,206.297L322.422,207.205L320.692,207.523L319.565,207.342L319.323,205.64L319.511,205.371L318.979,204.137L319.175,203.315L318.716,202.394L318.77,201.572L320.061,200.217L320.032,199.457L320.553,199.408L320.34,197.206L319.917,197.157L319.614,196.261L319.819,193.911L319.708,192.977L317.794,193.481L316.031,193.242L315.843,191.974L316.687,191.821L315.818,190.396L314.223,190.801L314.022,190.45L313.186,190.755L313.215,189.586L312.903,189.335L313.166,187.369L312.723,185.96L312.784,185.25L313.354,185.279L313.469,185.902L314.522,185.754L314.617,185.151L316.691,184.531L316.359,183.879L315.223,183.681L314.789,182.537L316.101,182.058L317.597,181.145L317.888,181.752L319.946,180.736L320.098,181.029L322.057,180.224L321.795,179.658L322.836,179.055L322.947,179.394L325.013,178.753L325.177,178.233L324.619,177.2L323.656,176.362L325.321,175.61L324.783,174.636L326.284,174.342L325.353,173.925L325.62,172.946L326.624,172.439L326.391,171.695L327.801,170.985L328.088,170.217L326.805,169.713L327.104,168.932L326.505,168.986L325.153,168.23L325.259,167.103L324.357,166.904L324.369,166.43L325.817,166.181L327.03,164.819L328.826,164.806L329.014,164.055L329.695,164.307L329.17,163.497L329.223,162.58L327.977,162.568L326.21,162.101L324.833,161.209L324.464,160.234L324.693,158.533L328.694,156.546L329.322,156.827L330.207,156.377L330.703,157.017L331.322,156.426L332.839,156.678L334.561,155.931L336.106,154.927L335.93,153.854L336.106,152.697L338.759,150.273L341.075,149.744L341.227,148.716L342.096,147.795L344.457,146.366L344.65,146.919L344.24,147.468L345.839,147.716L346.331,147.423L347.696,147.44L347.946,146.865L349.168,146.952L349.311,145.68L348.672,145.329L349.947,143.334L350.66,143.264L350.463,141.678L351.197,141.93L352.271,141.327L352.349,142.293L353.132,143.536L353.312,145.655L354.423,145.416L353.726,146.105L354.095,147.08L354.87,146.886L355.321,146.2L355.952,146.13L356.03,144.999L356.625,144.809L356.374,146.882L358.338,146.46L358.42,145.796L359.429,144.982L360.101,144.904L360.068,143.912L360.527,143.483L361.462,144.565L362.692,144.206L362.757,143.764L363.901,143.066L363.717,142.467L364.893,142.678L365.385,142.372L366.574,142.942L366.935,142.021L367.784,142.673L369.292,142.083L369.28,141.323L369.85,141.038L369.956,140.274L369.682,139.233L370.469,138.25L371.436,137.961L371.334,137.304L372.756,137.102L373.224,138.143L374.228,138.709L374.614,137.152L375.651,137.114L376.155,137.973L375.61,138.114L375.573,139.246L376.692,139.27L376.524,138.357L377.729,137.68L378.405,137.68L380.271,136.28L382.529,134.979L386.732,136.293L388.06,136.801L392.2,138.766L400.789,143.57L401.043,144.201L400.358,145.548L400.465,146.337L402.047,147.336L404.7,149.286L409.295,153.498L412.759,156.187L417.97,160.486L423.172,164.282L426.985,167.544L430.441,171.286L430.806,170.353L429.063,169.572L429.371,169.081L431.859,170.266L433.757,171.534L433.565,171.885L431.453,170.848L430.843,171.662L434.934,175.511L439.882,177.688L446.31,179.373L456.305,181.859L459.056,183.156L461.273,184.697L484.534,200.486L491.311,204.991L494.283,207.024L496.226,208.828L500.543,214.032L520.024,243.793L532.864,258.116L541.907,266.628L543.51,269.705L560.413,288.926L565.098,295.328L569.485,306.058L573.429,322.454L574.99,333.791L575.659,345.991L575.212,354.602L574.318,358.671L571.789,362.916L567.472,366.906L562.749,371.461L562.635,372.973L562.971,374.439L567.169,384.029L559.498,388.184L553.87,378.057L551.123,375.897L547.933,375.463L515.293,374.534L510.98,374.41L495.627,374.241L482.099,374.005L472.437,374.761L458.551,378.577L444.252,383.963L433.745,388.77L422.414,395.304L406.963,404.246L401.252,408.429L387.953,421.654L385.723,422.521L383.456,423L377.582,422.884L367.062,422.062L362.229,422.381L361.331,415.698L360.982,415.293L361.056,414.096L360.462,413.902L360.277,412.539L359.876,412.473L359.638,411.378L360.4,410.465L359.99,409.474L360.958,408.838L360.888,407.611L361.458,406.657L360.958,405.761L361.286,405.389L360.786,404.093L361.286,403.564L360.318,402.651L359.925,403.143L358.305,401.524L356.846,399.558L353.415,397.761L352.927,397.299L351.213,396.572L349.741,395.486L349.266,392.768L348.803,391.314L348.155,390.336L347.946,388.873L347.479,388.225L347.118,388.568L345.523,385.487L344.264,385.152L341.85,385.161L340.247,386.057L339.972,386.928L340.313,389.377L339.321,389.468L337.812,387.581L337.554,386.812L337.127,387.539L336.197,387.519L336.029,388.337L335.336,388.89L334.311,389.117L332.749,389.926L331.663,389.014L331.605,388.188L331.068,388.576L329.437,388.807L328.641,389.514L328.625,388.361L327.19,388.146L326.268,387.539L323.742,387.366L322.709,388.241L322.144,387.729L321.356,388.101L320.114,388.109L318.847,387.643L317.638,387.548L315.81,385.103L316.642,384.252L318.179,384.38L318.569,384.099L318.413,382.712L319.048,376.814L319.643,374.976L320.278,373.704L321.766,371.73L321.766,370.028L321.418,370.755L320.836,370.536L320.438,369.471L320.938,368.983L320.053,367.959L319.573,368.343L318.897,368.083L316.818,367.847L315.965,368.203L316.58,367.368L316.704,365.456L317.675,364.093L316.97,363.098L316.646,363.457L315.08,362.648L314.613,361.764L313.948,362.668L312.145,363.383L311.403,363.065L310.05,361.462L310.058,360.715L304.974,363.585L301.002,363.577L299.092,364.808L299.432,365.427L299.006,365.63L299.543,367.348L297.858,368.099L295.033,369.648L295.664,371.676L294.545,371.428L294.078,370.656L293.028,370.978L293.557,371.61L293.123,371.953L292.803,373.159L292.36,373.365L292.77,373.943L294.148,373.452L294.509,374.992L292.426,375.554L292.053,373.989L290.11,370.52L285.633,368.665L285.494,368.025L284.461,368.438L283.292,369.755L282.263,371.292L281.406,370.218L279.656,372.944L278.569,372.527L279.111,371.502L278.049,370.47L279.025,369.483L278.041,369.227L278.295,368.401L279.143,367.141L279.967,367.079L280.586,365.188L281.218,365.444L281.538,364.655L282.419,364.494L283.153,362.999L283.608,362.957L284.235,362.078L285.186,362.573L285.674,361.917L284.485,361.082L285.789,359.538L286.043,358.741L285.367,358.212L286.49,356.498L285.617,355.932L286.49,355.131L287.281,355.639L287.084,354.912L287.703,354.512L286.974,353.995L287.576,353.264L286.732,352.604L286.4,351.914L284.518,352.087L283.694,351.831L283.759,350.059L282.727,349.828L279.426,349.531L279.156,348.069L278.434,347.424L279.082,346.07L279.127,345.235L279.984,344.698L280.845,344.814L280.865,343.934L282.005,344.31L282.579,343.588L282.595,342.782L280.947,342.704L281.136,341.184L281.255,334.051L281.488,333.01L280.505,331.837L279.971,330.739L280.308,330.64L280.283,328.686L279.881,328.666L279.713,327.133L279.045,327.063L278.795,325.969L279.701,325.8L279.066,324.379L279.389,323.97L278.721,322.475L279.225,321.186L280.472,321.075L281.398,320.562L281.414,319.505L281.943,319.295L281.493,318.316L281.054,318.44L280.402,315.301L279.656,314.376L279.726,313.227L278.451,313.471L278.25,312.744L278.902,312.591L278.914,310.419L278.61,309.027L278.869,308.792L278.295,307.987L278.155,306.644L276.487,306.628L276.233,306.062L272.461,306.041L270.399,305.888L270.883,304.802L270.719,304.451L269.595,304.146L268.952,301.767L267.152,301.188L266.824,301.593L266.246,301.292L266.132,302.973L266.849,303.336L266.496,305.529L262.466,305.711L262.303,306.306L263.582,308.148L262.991,308.499L261.725,308.148L261.015,307.545L259.72,307.445L259.474,308.011L257.1,307.198L255.009,307.966L254.694,307.247L254.727,305.769L252.164,305.579L251.927,304.571L252.156,302.824L252.345,298.644L251.685,297.971L250.885,295.914L250.939,295.006L250.418,294.279L250.16,293.052L250.176,291.413L250.557,289.893L251.427,287.332L251.648,284.631L253.124,284.573L253.156,283.896L252.255,282.657L252.386,282.12L251.554,281.678L250.787,281.777L250.41,280.381L249.455,279.179L249.651,278.374L249.172,278.151L249.114,279.142L248.069,279.221L245.298,278.643L245.56,277.738L244.687,277.916L244.871,277.201L243.851,277.069L243.666,277.564L242.863,277.544L242.793,278.139L241.661,277.998L241.145,277.077L239.899,277.081L239.025,276.206L239.353,274.244L240.034,273.967L240.628,272.873L241.727,272.101L243.092,270.391L243.215,268.982L243.609,267.826L244.81,266.335L246.245,265.22L251.529,264.762L253.353,265.398L256.752,264.716L260.708,262.92L267.284,264.006L276.503,266.261L278.668,265.753L283.391,265.67L286.699,265.435L287.974,263.985L287.814,263.246L288.818,263.138L289.126,262.106L289.614,262.069L289.733,262.973L291.003,262.643L291.897,263.291L291.938,264.307L292.643,264.468L293.578,263.783L294.451,261.499L293.496,261.016L293.475,260.02L294.591,259.413L294.64,258.57L295.734,258.368L296.07,259.711L297.71,259.731L298.165,259L299.695,258.88L300.158,259.669L300.727,259.632L300.625,260.442L301.629,260.404L301.232,259.17L302.49,258.748L303.019,257.522L303.958,257.046L303.671,256.328L303.888,255.609L302.978,255.923L302.81,255.39L304.06,254.948L303.499,252.958L302.589,253.202L302.634,252.136L303.486,251.88L303.134,250.922L302.302,249.803L302.248,249.117L303.536,248.638L303.359,248.109L301.732,248.625L301.519,247.936L302.384,247.568L301.99,246.61L302.068,245.726L302.642,245.648L302.531,245.082L301.92,244.929L301.769,244.342L300.941,244.462L300.887,243.698L301.654,243.925L301.24,242.381L300.592,238.635L299.715,234.224L299.764,233.431L300.33,233.324L300.309,232.113L301.056,232.068L301.117,231.374L300.289,231.362L299.707,230.767L299.305,229.685L300.088,229.474L299.99,228.169L300.219,226.819L299.424,227.129L298.251,226.608L299.227,226.699L299.514,222.747L299.895,219.31L301.502,219.245L302.695,218.885L304.958,218.534L305.471,218.059L306.176,216.618L305.237,216.085L306.221,212.516L306.996,211.459L306.873,211.096L307.824,211.03L308.697,212.306L309.378,212.723L310.382,216.432L312.337,217.328L311.862,216.75L312.698,216.275L314.01,214.536L315.154,213.322L316.42,213.371L316.736,213.016L318.109,213.619L317.904,214.065L318.757,214.722L319.889,215.102L320.073,214.668L321.947,215.569L321.82,215.969L322.869,216.263L323.378,215.944L323.41,216.7L325.591,216.713ZM568.784,98.651L572.637,128.912L574.293,135.037L574.839,141.533L573.654,147.183L570.739,151.561L566.455,154.134L556.731,159.074L551.939,161.725L546.954,163.303L543.83,163.765L541.337,163.811L538.652,163.575L534.175,163.332L530.51,162.692L527.218,161.973L522.787,160.511L506.352,153.589L496.456,148.839L482.591,142.24L478.979,141.15L469.555,139.246L465.762,138.535L463.372,137.879L460.753,136.759L442.731,128.383L420.176,113.4L409.279,107.894L403.552,107.638L400.227,108.01L397.85,109.588L390.995,120.743L383.145,114.35L366.492,98.911L334.282,62.712L324.099,51.218L323.135,50.739L316.187,49.429L325.247,39.645L334.766,28.155L340.317,23.043L347.679,18.913L352.624,16.707L355.583,15.204L359.556,12.982L364.2,11.276L367.099,10.599L370.264,10L372.76,10.074L374.38,10.429L376.503,11.454L390.134,20.218L392.225,21.853L394.779,23.604L397.829,27.85L398.936,29.171L400.801,31.823L402.576,33.037L403.999,36.056L402.404,36.771L405.356,42.313L406.791,44.164L408.471,45.898L412.571,47.62L413.858,48.533L415.576,49.338L418.101,50.103L421.836,50.45L425.062,51.395L428.252,51.449L432.519,54.765L433.093,55.05L436.545,55.971L437.037,56.62L440.3,57.607L440.505,58.367L443.272,60.564L443.826,60.42L447.847,64.12L451.832,66.263L455.878,67.664L456.169,68.048L458.059,68.832L458.428,67.486L458.97,67.507L461.626,68.427L466.222,70.683L467.972,71.24L470.735,70.794L492.147,78.976L522.381,86.534L542.965,91.952ZM510.898,204.719L508.566,204.207L506.59,202.956L505.561,201.217L502.732,195.191L500.813,193.163L499.665,192.192L495.882,189.322L483.719,181.797L470.26,173.326L458.58,166.161L455.321,164.195L449.979,161.25L445.913,156.852L443.35,153.994L441.436,152.148L439.706,150.661L437.377,149.116L433.642,146.993L431.663,145.172L431.359,144.214L431.433,142.678L432.642,141.447L433.667,141.12L434.905,141.232L443.395,142.694L447.06,143.863L448.532,144.854L450.143,149.711L451.033,151.66L453.156,154.27L453.903,154.82L458.105,156.199L460.023,156.641L464.574,158.458L479.931,164.125L484.194,164.769L486.818,165.422L490.097,166.896L494.636,169.44L496.283,170.134L498.698,170.667L500.084,171.22L503.486,173.587L505.589,175.375L508.102,176.907L509.504,178.208L511.402,180.567L513.559,183.507L514.44,185.089L514.883,186.386L515.067,189.227L515.953,192.49L516.092,196.013L515.912,197.892L516.769,204.665L516.158,205.698L514.49,205.355L512.854,204.422ZM647.462,167.119L648.45,166.347L648.975,167.032L647.917,167.549ZM517.654,188.571L517.298,186.146L516.445,184.197L515.01,181.459L515.322,180.455L516.174,180.248L518.15,180.199L522.275,180.418L524.427,181.107L525.505,181.847L526.493,182.165L530.572,182.491L532.724,183.598L534.385,184.288L537.882,185.452L550.471,190.826L561.868,195.373L576.561,198.144L588.211,200.019L599.104,200.118L610.505,200.911L612.067,202.91L612.276,205.751L607.122,221.301L604.929,223.536L601.838,222.887L597.333,219.682L580.951,214.35L568.96,215.139L556.129,214.053L546.839,211.286L543.547,210.989L536.582,209.985L535.053,209.981L533.843,210.716L532.724,210.873L529.092,209.811L527.038,208.357L526.579,207.647L523.8,205.694L521.02,202.637L519.089,199.895L518.237,198.42L518.06,197.157L517.925,193.469ZM466.135,158.165L463.135,157.595L462.245,157.166L456.436,153.473L454.112,151.569L451.64,148.662L451.119,147.873L451.029,146.688L451.422,146.291L454.296,146.225L456.772,146.655L458.789,147.159L460.687,147.984L462.188,149.059L465.582,152.214L467.48,154.076L468.493,155.402L468.862,156.476L468.185,157.839L467.451,158.128ZM407.053,420.741L407.619,420.889L407.09,421.381ZM559.367,237.396L560.355,234.327L561.667,232.791L563.499,232.241L567.017,232.287L570.399,233.043L573.051,234.273L578.627,235.492L579.356,236.727L579.82,239.279L579.643,245.47L579.225,246.862L575.97,254.763L574.843,256.237L568.985,256.915L567.484,257.356L565.984,257.36L564.201,256.762L562.134,254.032L560.777,250.86L559.838,247.25L559.183,243.256L558.949,240.08ZM405.811,417.552L407.037,417.623L407.713,418.366L406.668,418.961L404.933,418.11L404.93,417.503ZM541.493,228.64L543.641,228.041L545.839,228.206L551.172,230.123L553.562,231.052L554.497,232.477L554.73,234.447L554.12,240.853L553.234,243.81L552.156,244.685L550.701,244.851L549.204,244.359L547.101,242.224L543.453,237.557L542.239,235.653L541.468,233.898L540.977,230.201ZM401.187,412.919L401.929,413.084L401.142,413.571Z" stroke="#333" stroke-width="2" stroke-dasharray="none" fill="none"></path></g></svg>