<svg width="888" height="433"><g><path d="M591.049,186.119L591.493,187.779L593.611,187.375L594.63,187.54L595.697,189.043L596.17,190.505L596.948,190.831L596.984,192.343L597.514,194.829L598.3,195.515L598.047,196.176L599.469,196.304L600.997,197.262L600.28,198.964L600.39,200.351L600.944,201.743L600.875,203.238L603.095,204.857L604.569,206.253L604.83,207.748L604.386,208.938L605.156,211.015L606.712,210.995L609.152,210.02L609.144,209.227L610.423,209.396L611.959,208.062L612.496,209.086L613.274,214.129L613.201,214.802L614.093,216.529L613.641,219.16L614.338,219.998L614.729,222.03L615.27,222.125L615.926,223.43L616.721,223.405L617.613,222.641L620.285,222.583L622.786,224.029L623.409,223.81L624.13,225.421L620.986,226.197L621.153,228.32L622.562,228.931L624.016,230.084L621.369,230.608L621.739,232.244L622.309,232.149L622.253,234.049L623.084,233.941L624.904,232.752L626.852,234.131L626.277,235.217L625.589,235.122L623.719,236.655L624.024,237.345L621.572,236.832L621.694,237.968L620.876,236.981L619.902,236.927L619.283,237.832L618.342,236.89L617.446,237.741L616.342,237.658L615.829,238.17L617.042,240.054L617.682,241.916L615.947,243.548L616.639,244.052L615.714,245.01L616.953,244.956L616.851,246.009L615.886,246.257L615.433,247.124L611.836,247.847L611.897,247.323L610.407,246.059L609.49,246.616L608.553,246.249L607.355,247.009L606.455,249.826L605.302,251.011L605.306,251.626L603.033,250.998L601.131,252.956L601.327,254.059L600.878,254.951L600.011,254.596L599.412,253.328L598.157,252.824L597.212,253.047L595.99,252.233L595.229,253.063L593.839,253.435L593.408,254.294L592.047,255.529L591.966,256.364L591.147,256.781L591.163,257.788L588.585,257.293L588.544,258.776L589.118,259.932L587.228,261.609L587.098,262.36L587.986,262.327L587.415,263.996L585.92,264.64L586.116,264.041L584.804,263.31L584.291,260.795L583.545,260.535L582.796,261.497L583.749,262.488L583.199,263.537L581.639,263.649L580.983,263.009L578.303,262.174L578.629,262.653L577.871,264.236L574.555,265.582L572.543,265.223L570.714,263.451L568.429,263.608L567.679,262.645L564.111,262.761L564.005,264.425L563.21,265.318L563.223,264.368L561.003,264.686L561.194,265.549L559.976,265.904L559.353,266.586L557.568,266.771L557.833,268.423L557.455,268.861L554.962,269.315L553.894,271.104L552.701,272L552.99,273.239L552.094,273.293L552.273,274.218L551.503,273.623L550.953,274.127L549.65,273.929L547.568,274.267L547.466,273.673L545.845,272.491L544.635,272L541.999,272.471L541.454,269.518L540.598,269.708L540.02,268.812L536.773,271.339L536.724,269.505L535.286,269.943L535.518,268.931L534.129,268.642L533.429,267.903L532.663,269.803L531.457,270.505L530.732,268.498L529.209,268.795L528.223,269.737L526.06,270.183L524.206,270.133L522.817,271.314L521.689,271.228L519.737,268.675L518.255,267.891L518.116,268.667L514.613,268.853L514.658,269.543L512.906,270.055L512.988,271.744L512.531,272.012L512.372,274.664L511.456,274.016L509.134,273.698L508.527,274.54L506.437,273.656L506.572,273.107L504.881,273.02L504.156,273.623L504.091,274.957L502.975,278.195L502.722,278.918L503.753,281.128L503.68,283.717L502.001,286.381L501.94,287.888L500.608,289.52L500.164,291.667L501.235,293.059L504.694,294.658L505.081,295.207L505.228,298.131L505.04,300.105L505.004,304.64L505.407,306.722L505.496,309.464L505.961,310.629L507.452,312.045L509.285,312.888L509.305,311.124L510.083,311.116L510.095,309.918L510.873,309.898L511.032,312.033L511.79,312.706L513.09,312.582L513.79,313.107L515.664,316.237L516.153,315.973L517.68,317.79L518.711,317.679L519.831,320.367L521.236,320.76L521.342,321.524L522.406,321.99L523.795,321.941L523.73,321.189L525.163,321.35L527.469,324.394L528.61,324.877L529.433,324.006L528.52,322.172L528.504,320.421L529.978,319.822L531.351,320.76L533.001,323.68L533.579,327.355L533.445,329.069L533.759,329.776L536.309,332.233L534.736,332.369L535.417,334.401L537.857,334.806L538.435,336.19L537.307,336.367L537.645,338.098L536.875,338.395L535.608,337.383L534.537,337.272L532.186,337.569L531.168,338.759L532.027,340.489L530.023,342.22L529.571,341.096L528.308,341.881L528.259,344.012L529.351,343.818L530.524,346.354L530.773,347.419L530.044,347.614L530.475,348.956L531.143,348.91L531.205,350.054L530.202,350.013L528.402,350.546L527.909,351.368L525.538,351.533L524.605,353.317L525.445,354.37L525.302,356.221L526.756,359.037L526.662,359.719L525.583,360.285L525.99,361.119L528.52,360.38L529.714,362.333L528.968,362.639L529.253,363.708L526.231,364.555L524.691,364.233L522.732,365.237L520.939,365.489L520.259,366.281L518.206,366.207L518.491,369.928L516.1,371.275L516.418,372.105L515.016,372.134L515.208,372.712L513.717,373.629L514.112,374.401L513.611,374.918L515.965,377.672L515.122,377.858L515.371,378.994L513.354,379.783L513.15,378.948L512.283,378.49L510.368,379.622L508.881,380.183L506.531,380.629L507.081,382.748L506.409,382.637L506.665,384.293L505.647,384.251L505.565,384.937L504.229,384.966L503.586,383.504L503.451,381.918L501.195,379.799L498.482,378.251L497.569,379.039L496.376,379.407L494.942,378.453L494.881,377.495L493.968,377.206L493.255,377.792L492.143,377.842L490.807,378.713L490.037,377.866L489.141,377.966L489.499,380.658L492.559,382.529L492.567,383.021L493.858,383.797L494.27,385.049L489.992,386.333L489.133,385.577L488.827,384.441L488.298,384.458L487.846,382.95L486.835,383.673L483.149,382.438L483.161,382.05L481.67,381.976L480.582,382.591L480.754,383.103L478.582,383.516L478.391,382.765L476.452,382.075L476.415,383.31L475.038,383.405L473.515,382.872L473.45,381.55L472.802,381.447L472.761,379.729L472.085,379.803L471.808,378.519L471.034,378.312L471.054,377.049L469.942,377.09L469.543,378.325L468.264,378.593L467.959,377.908L465.465,377.354L465.502,378.321L462.883,378.292L462.891,379.213L463.604,380.32L462.915,380.476L463.013,382.19L462.17,382.86L461.168,382.913L459.669,384.268L458.646,384.173L458.634,382.381L458.003,382.934L458.182,384.941L456.052,384.123L456.003,383.603L454.801,384.169L454.919,384.859L454.182,385.763L454.552,386.771L453.876,387.878L454.011,389.067L455.131,389.038L455.347,390.133L454.011,390.393L453.815,391.764L452.292,392.012L452.1,393.276L451.607,393.338L451.685,395.663L448.047,395.861L447.99,395.052L444.853,395.147L444.381,394.767L445.195,397.001L445.758,397.645L445.79,399.595L443.965,399.88L443.143,400.569L443.134,401.577L441.049,401.321L441.024,401.87L438.543,401.66L437.867,401.862L438.327,402.659L438.425,404.448L438.886,404.468L439.097,406.063L436.991,406.678L436.735,405.897L435.358,406.1L435.065,404.431L435.244,402.816L434.743,402.217L432.751,402.325L431.639,401.437L431.077,401.767L431.109,404.923L431.973,405.497L432.229,406.533L434.209,406.942L435.02,409.412L434.164,409.42L433.643,411.527L432.816,412.315L432.971,413.08L435.146,412.303L435.883,411.638L436.397,413.269L435.496,413.286L436.079,414.558L437.114,414.062L437.623,412.869L439.158,413.051L439.142,413.889L440.059,414.541L440.034,417.358L441.077,419.279L441.212,420.34L440.429,420.505L440.368,421.546L437.814,422.195L437.26,423L435.553,421.959L432.303,421.108L430.518,421.162L428.983,420.443L428.331,420.989L425.41,420.654L424.286,420.761L423.194,419.944L421.039,419.778L420.852,420.439L417.801,419.402L416.07,417.903L415.968,417.098L414.986,416.495L414.966,415.26L413.96,414.587L413.556,413.463L412.436,412.336L412.11,411.287L407.808,410.085L407.043,410.75L406.334,409.767L405.104,409.693L402.888,408.425L402.716,407.169L402.093,406.017L400.529,404.795L400.7,403.481L400.081,402.436L400.655,402.168L401.001,400.912L400.484,400.945L400.664,398.508L399.881,395.18L400.598,394.118L399.979,393.817L399.519,392.367L398.358,392.408L398.704,391.281L397.323,392.02L396.631,391.343L395.726,388.621L393.18,388.923L392.818,387.535L391.938,386.738L390.899,386.808L390.989,386.077L389.767,386.482L389.803,385.974L388.569,385.59L387.135,385.817L387.107,386.857L384.887,387.448L382.21,387.485L381.787,390.095L379.676,390.612L379.607,391.157L378.039,391.446L378.027,391.012L376.316,390.736L376.304,389.633L375.363,389.864L374.809,390.707L373.346,390.628L373.252,389.216L372.389,388.336L372.515,389.323L371.892,389.575L360.286,390.385L359.064,390.294L359.044,389.711L357.467,389.459L357.753,386.478L356.669,386.837L355.378,386.308L355.312,387.58L354.706,387.584L354.127,389.055L351.707,389.088L352.05,387.539L350.836,386.713L350.889,384.863L348.445,384.384L348.18,385.586L348.388,390.157L347.691,390.665L346.587,390.624L346.33,392.239L345.516,392.012L344.375,393.168L343.874,391.863L342.986,391.793L342.738,390.042L341.556,389.695L341.577,389.009L340.554,388.989L340.587,387.919L339.976,387.89L339.821,386.308L339.006,385.837L339.051,384.966L337.874,384.85L337.792,383.979L335.597,383.508L335.148,383.083L334.489,385.817L335.047,386.255L334.867,387.332L336.204,387.601L335.458,389.819L335.65,390.157L334.696,391.665L332.387,390.897L331.222,391.413L331.882,392.929L331.812,394.358L330.973,394.511L330.765,395.762L329.967,395.65L329.845,396.406L327.963,396.225L327.771,396.914L326.61,396.848L326.549,395.968L325.767,396.295L324.492,394.667L323.69,395.816L322.948,395.857L322.651,397.625L321.897,398.058L319.274,398.124L319.217,399.603L318.422,399.917L318.117,400.846L317.429,400.788L317.543,402.263L318.382,402.899L318.447,403.816L317.534,403.878L317.999,404.984L319.429,405.303L319.274,406.777L317.864,406.157L312.259,405.844L310.764,405.943L309.383,405.063L309.115,405.344L307.338,404.551L308.002,405.786L307.595,406.314L306.931,404.807L305.786,405.042L304.434,404.654L302.764,401.796L302.287,399.392L301.762,398.628L301.827,397.1L299.419,396.398L299.456,397.468L298.413,397.571L298.144,394.73L297.537,393.301L296.185,392.64L293.957,392.582L292.661,391.942L293.114,391.025L293.932,390.728L293.798,388.538L292.926,388.266L293.081,386.383L292.115,385.077L292.12,383.537L291.346,382.364L288.999,381.137L287.871,379.436L287.891,380.857L287.447,381.947L285.883,383.273L284.518,383.041L283.215,383.562L282.828,382.451L281.483,382.314L281.068,383.876L279.781,383.446L278.318,382.265L277.161,383.008L275.756,383.285L274.685,383.074L274.477,383.859L273.255,384.14L272.021,385.97L269.246,385.424L269.638,384.165L268.35,383.388L267.825,381.872L265.865,380.914L265.352,379.737L264.204,378.552L262.867,379.176L261.727,380.402L261.849,381.117L261.205,382.566L259.967,383.562L258.814,384.012L258.916,385.044L258.354,385.519L257.608,381.996L258.044,379.878L259.808,378.139L259.474,377.652L259.226,374.843L259.621,373.187L258.338,372.865L257.486,372.068L256.553,370.11L254.618,370.003L254.207,370.841L251.062,370.564L250.956,369.581L251.857,367.351L253.559,365.918L252.663,364.737L253.246,363.56L253.062,362.647L254.158,361.416L254.545,361.623L255.205,360.202L255.103,358.959L253.812,357.559L253.348,357.637L253.963,356.097L253.539,354.267L253.079,349.596L253.71,348.15L251.804,347.238L249.514,347.258L248.765,347.75L247.013,346.618L243.396,344.652L242.471,341.819L242.667,340.278L241.791,339.737L241.033,340.32L240.679,339.411L241.84,338.804L242.406,337.152L244.219,336.297L246.044,337.23L247.021,337.185L250.545,334.732L251.983,332.993L253.763,333.658L254.728,334.918L256.944,336.694L257.938,335.525L262.313,334.653L262.928,333.988L265.935,333.773L267.381,331.717L268.216,331.49L268.175,330.176L268.741,329.292L267.609,328.495L264.603,326.901L264.285,326.067L262.057,324.869L261.185,325.072L260.411,323.721L258.073,322.932L257.389,321.222L258.354,320.566L259.604,317.749L259.519,315.362L260.574,314.936L260.932,313.392L260.37,313.466L258.492,312.26L257.201,311.987L257.006,311.306L259.731,307.56L259.169,306.639L255.999,303.269L254.272,302.728L252.769,301.233L251.486,298.18L249.869,297.441L248.325,297.09L246.83,296.041L245.958,295.046L244.932,294.889L244.455,294.24L243.261,293.935L242.736,294.352L240.862,294.496L240.394,293.138L241.013,290.697L240.328,289.549L241.151,287.095L241.322,285.861L242.939,284.056L244.321,283.238L245.575,283.593L245.351,281.371L244.109,280.008L243.982,279.108L245.913,276.589L246.39,274.321L247.583,273.693L249.095,273.763L251.07,272.677L253.103,270.749L252.973,270.141L255.433,268.527L257.278,265.871L257.136,265.218L258.158,264.847L260.57,262.521L262.627,262.088L263.869,262.563L265.409,261.712L266.053,260.853L265.715,258.552L267.601,256.958L268.448,257.309L270.09,256.219L270.546,257.355L271.617,257.731L272.917,257.347L273.247,253.836L273.642,254.142L273.723,252.283L274.554,251.333L276.086,251.321L277.887,252.064L278.893,251.663L279.606,252.279L280.856,251.882L281.728,252.407L283.243,251.969L282.885,251.127L283.41,249.644L285.402,248.463L285.973,249.272L290.05,248.549L290.543,248.107L291.671,248.653L292.861,248.297L293.663,249.623L294.629,249.247L296.556,249.578L296.356,249.057L295.134,248.876L294.156,248.178L295.9,247.694L297.301,247.926L299.045,249.09L300.853,248.946L302.214,248.223L303.798,246.823L304.89,244.849L303.856,242.928L304.788,240.314L306.324,240.475L307.493,239.727L308.43,237.014L311.155,236.374L311.139,238.488L311.705,238.864L314.092,241.97L314.964,242.862L318.023,243.027L319.343,243.696L320.651,244.857L320.353,243.63L322.72,244.432L324.077,243.862L324.117,242.631L322.793,240.335L322.337,239.1L322.814,238.732L324.244,236.06L323.054,235.065L324.496,233.784L325.971,234.491L327.38,234.495L328.04,232.81L328.553,232.496L328.745,230.728L330.5,229.245L329.886,228.498L330.256,227.874L329.873,226.833L331.482,224.471L331.605,223.765L332.867,222.142L332.79,221.654L334.468,222.241L335.495,222.15L336.403,220.13L336.472,218.937L340.143,216.764L341.483,217.281L342.957,216.615L344.852,216.492L345.943,215.785L346.583,214.546L346.216,214.203L345.165,213.283L344.897,211.829L343.919,211.3L343.234,210.016L342.921,208.174L342.147,208.223L342.102,206.394L340.908,204.3L341.699,202.627L340.407,202.09L340.122,201.153L338.86,200.046L338.383,200.413L337.58,198.807L338.464,197.861L337.621,197.018L337.336,195.544L337.857,194.933L337.173,193.549L336.729,191.653L335.022,190.699L331.8,191.228L331.397,190.629L330.293,190.852L329.886,190.208L328.892,190.253L328.533,189.543L327.857,190.195L326.24,190.261L326.231,189.601L325.335,189.547L325.747,188.862L325.735,186.66L324.586,185.714L322.814,186.235L321.6,184.698L320.981,184.657L320.806,183.525L312.992,172.998L313.078,171.54L311.721,171.552L311.09,170.379L307.925,168.562L308.532,167.55L308.324,166.344L308.907,166.547L308.503,165.175L309.697,163.466L308.397,163.92L307.913,163.247L308.145,161.219L309.143,160.025L309.049,158.695L310.218,156.296L308.723,155.825L307.469,154.689L302.784,154.714L302.597,155.557L301.228,153.244L302.601,150.716L302.735,149.535L303.692,147.581L305.041,146.317L304.523,144.967L304.931,144.005L305.811,144.294L306.65,143.868L307.876,141.964L308.601,141.816L309.074,140.899L310.707,139.305L312.166,138.557L313.506,139.478L314.642,139.234L316.614,139.552L317.543,139.057L317.881,138.041L317.71,136.777L319.017,131.957L322.679,130.412L324.378,131.156L326.586,130.33L326.887,129.71L330.321,129.855L330.855,129.392L332.138,126.865L332.745,126.551L334.684,124.193L337.132,124.362L338.676,125.357L339.988,125.213L341.866,125.783L342.579,126.369L343.898,126.183L346.294,127.117L345.996,128.372L347.186,128.021L347.797,130.995L349.166,134.014L351.716,133.795L351.887,132.754L353.638,132.709L357.565,126.951L358.197,126.749L358.494,129.306L358.946,128.661L361.325,128.108L362.56,127.059L363.997,126.832L364.861,125.981L366.242,125.997L366.959,125.518L367.582,123.528L369.362,122.516L369.884,121.797L371.904,120.781L372.98,121.702L375.697,121.454L376.422,120.934L376.1,120.087L374.605,118.121L374.369,116.75L374.699,116.093L377.037,114.747L379.318,111.265L380.471,111.439L382.141,112.372L384.333,112.604L385.29,109.985L385.449,108.37L386.048,107.664L386.475,105.772L386.019,103.988L386.968,102.815L387.298,100.928L387.925,99.759L388.663,99.441L390.097,96.587L391.164,96.042L392.712,94.464L392.52,92.688L393.657,92.234L394.182,92.639L395.567,91.474L395.592,90.313L396.142,89.128L398.158,87.559L397.441,86.91L397.788,84.577L398.541,83.639L398.423,81.583L400.411,80.232L400.941,79.344L402.867,80.356L403.486,81.632L405.157,83.119L405.214,84.779L406.049,85.903L405.91,86.79L406.672,87.113L407.458,86.522L409.312,86.551L410.664,88.352L412.008,88.649L412.627,89.558L413.247,88.789L412.627,86.572L413.646,84.907L414.501,84.399L416.954,83.99L417.536,84.267L419.446,84.164L421.426,84.903L423.003,84.279L424.266,84.734L424.905,84.329L426.632,84.362L429.125,82.801L431.187,82.739L432.087,82.28L433.345,82.925L433.773,85.122L435.403,85.618L436.763,85.411L437.908,85.766L439.211,85.163L441.069,86.022L443.309,84.255L443.387,83.796L442.377,81.76L442.523,80.191L441.708,77.68L440.719,77.742L440.491,76.746L438.352,74.892L438.332,73.372L437.733,71.906L434.938,71.381L433.48,69.696L431.818,68.655L431.757,67.478L430.425,64.244L428.958,63.125L428.555,61.329L427.003,60.903L425.667,58.826L424.054,57.508L423.932,56.595L422.868,55.385L421.573,54.638L419.785,52.858L419.308,51.52L417.789,50.297L417.984,48.786L417.727,46.122L418.644,44.858L418.852,43.908L420.844,42.198L422.559,42.19L423.703,40.406L424.783,40.236L426.653,42.268L426.612,42.925L427.447,44.135L427.614,45.601L429.146,48.108L429.842,48.587L430.274,49.938L431.488,50.012L433.232,51.553L434.246,50.888L436.58,50.623L437.692,51.648L440.006,51.511L440.442,51.144L441.99,51.338L443.094,52.436L444.984,52.519L445.672,51.04L444.898,46.402L443.888,45.023L443.652,43.416L442.548,43.065L442.698,42.409L441.346,39.778L441.24,38.72L439.802,37.61L440.943,34.838L440.633,33.785L441.375,30.737L443.053,29.7L445.012,31.22L445.937,31.092L447.236,30.225L448.817,31.398L449.404,31.266L450.919,31.914L453.212,32.1L453.852,30.456L454.854,30.584L456.548,29.391L456.98,28.623L458.219,28.214L459.355,28.796L461.457,28.635L461.966,27.387L463.514,27.858L464.634,29.234L467.51,31.712L469.083,32.216L472.346,30.006L472.843,26.029L472.419,24.777L473.254,22.027L473.784,21.634L473.975,20.358L473.653,18.219L472.944,16.74L472.268,16.381L472.146,15.171L472.973,13.139L472.725,11.916L474.211,11.644L475.527,10L476.908,10.078L477.536,10.64L478.757,10.363L480.02,11.173L480.623,12.453L482.22,13.647L483.792,13.725L484.513,14.667L485.662,14.911L486.783,14.171L487.487,15.163L487.312,16.017L488.041,17.112L488.167,19.144L488.774,20.214L487.797,22.167L487.218,22.349L487.235,23.827L485.699,25.574L485.597,29.246L486.135,30.18L485.348,30.671L484.697,31.898L484.697,33.19L486.513,35.363L486.913,38.312L488.253,40.013L489.459,41.017L489.54,42.078L490.404,42.719L491.373,42.508L491.703,43.908L493.345,44.42L492.331,45.898L491.597,48.802L492.286,48.868L493.61,49.863L494.09,51.185L494.925,52.065L496.742,52.35L498.787,53.638L500.588,54.105L500.4,56.133L501.101,56.447L502.514,55.881L503.093,57.025L503.957,57.062L507.936,61.787L507.891,63.113L508.947,64.063L508.963,66.33L509.635,66.731L511.13,64.777L512.515,64.818L513.049,66.256L513.933,66.661L514.674,66.28L515.835,66.549L516.218,67.197L517.864,67.123L517.941,67.681L519.273,68.118L520.287,69.403L520.446,70.716L522.186,71.683L523.314,71.786L523.424,72.492L524.483,73.595L524.1,76.118L525.416,76.965L525.827,77.667L527.31,78.159L526.972,79.641L526.984,81.942L527.681,83.226L528.846,83.086L532.512,84.003L532.471,85.758L533.392,88.091L532.537,89.95L533.127,91.416L535.885,92.729L536.276,95.282L537.042,96.038L539.669,97.537L540.904,99.036L540.639,100.49L541.519,101.32L543.059,101.527L543.527,102.229L545.132,102.142L545.576,102.646L547.918,103.637L548.509,104.277L550.049,104.475L550.998,103.98L552.86,104.405L553.483,104.975L554.367,104.377L554.469,103.658L556.102,102.861L558.127,103.005L558.799,102.559L562.396,102.948L563.243,102.283L564.196,102.427L565.968,101.527L568.991,100.837L570.38,102.935L572.523,102.72L573.244,103.298L575.199,103.674L576.181,103.22L578.503,103.897L579.525,103.051L580.401,103.187L581.843,104.608L582.682,104.475L582.975,103.707L585.224,103.914L585.965,104.422L586.853,104.091L588.031,104.385L588.462,105.016L589.77,105.021L590.039,105.657L592.862,107.173L593.082,107.945L594.504,108.948L597.453,108.23L598.353,107.796L599.591,108.948L600.691,110.642L601.71,111.29L601.706,112.083L604.007,113.182L609.995,113.669L612.077,112.843L613.201,112.087L613.018,111.443L614.134,109.779L617.511,109.655L619.621,108.168L621.104,108.399L622.819,107.02L624.811,107.123L627.149,106.223L628.245,106.565L629.121,106.305L630.501,106.73L631.724,107.676L632.624,107.168L633.577,108.965L635.862,108.705L638.05,109.754L639.28,109.547L641.402,108.341L641.859,108.841L643.537,109.308L645.402,110.745L647.672,113.095L647.541,114.206L645.382,115.007L645.81,116.787L645.215,117.204L644.914,119.34L642.873,119.385L642.136,120.034L640.543,119.563L640.066,117.229L639.59,117.221L638.575,115.92L637.879,116.143L637.431,115.007L634.917,115.387L636.351,116.011L635.373,116.676L635.874,117.634L634.872,121.347L633.589,121.45L632.754,122.037L631.251,121.954L629.239,124.135L627.833,127.315L628.224,128.443L629.589,130.379L629.369,130.97L629.874,133.39L631.157,133.94L631.194,134.753L629.487,136.554L627.976,136.352L626.049,135.232L625.466,136.492L624.31,136.86L623.267,138.569L621.148,138.024L620.57,136.888L619.356,136.232L618.713,134.794L616.199,134.059L615.617,133.196L614.203,133.353L612.614,134.666L611.413,134.799L610.83,134.233L608.178,134.266L605.787,137.144L603.066,137.591L601.832,138.801L600.65,138.503L599.738,138.929L598.011,140.717L596.043,141.919L596.251,143.497L595.632,143.955L596.524,144.959L597.131,147.098L598.365,149.382L598.882,149.84L598.691,150.898L597.216,150.439L595.514,151.199L594.096,149.981L592.316,151.406L590.283,150.596L589.318,150.865L588.829,152.24L589.216,152.372L588.063,153.983L588.035,154.759L588.744,155.627L589.884,155.651L591.937,159.055L591.416,160.451L592.414,161.83L593.648,162.26L592.862,163.689L593.509,165.39L594.829,165.679L596.553,166.951L596.646,168.083L598.732,169.021L597.624,170.813L595.497,172.985L594.939,174.018L593.033,175.476L593.701,177.871L593.526,179.647L594.279,180.469L594.32,181.291L593.591,181.378L593.285,182.534L592.051,183.228L591.587,185.347Z" fill="#eee" opacity="0.5"></path><path d="M591.049,186.119L591.493,187.779L593.611,187.375L594.63,187.54L595.697,189.043L596.17,190.505L596.948,190.831L596.984,192.343L597.514,194.829L598.3,195.515L598.047,196.176L599.469,196.304L600.997,197.262L600.28,198.964L600.39,200.351L600.944,201.743L600.875,203.238L603.095,204.857L604.569,206.253L604.83,207.748L604.386,208.938L605.156,211.015L606.712,210.995L609.152,210.02L609.144,209.227L610.423,209.396L611.959,208.062L612.496,209.086L613.274,214.129L613.201,214.802L614.093,216.529L613.641,219.16L614.338,219.998L614.729,222.03L615.27,222.125L615.926,223.43L616.721,223.405L617.613,222.641L620.285,222.583L622.786,224.029L623.409,223.81L624.13,225.421L620.986,226.197L621.153,228.32L622.562,228.931L624.016,230.084L621.369,230.608L621.739,232.244L622.309,232.149L622.253,234.049L623.084,233.941L624.904,232.752L626.852,234.131L626.277,235.217L625.589,235.122L623.719,236.655L624.024,237.345L621.572,236.832L621.694,237.968L620.876,236.981L619.902,236.927L619.283,237.832L618.342,236.89L617.446,237.741L616.342,237.658L615.829,238.17L617.042,240.054L617.682,241.916L615.947,243.548L616.639,244.052L615.714,245.01L616.953,244.956L616.851,246.009L615.886,246.257L615.433,247.124L611.836,247.847L611.897,247.323L610.407,246.059L609.49,246.616L608.553,246.249L607.355,247.009L606.455,249.826L605.302,251.011L605.306,251.626L603.033,250.998L601.131,252.956L601.327,254.059L600.878,254.951L600.011,254.596L599.412,253.328L598.157,252.824L597.212,253.047L595.99,252.233L595.229,253.063L593.839,253.435L593.408,254.294L592.047,255.529L591.966,256.364L591.147,256.781L591.163,257.788L588.585,257.293L588.544,258.776L589.118,259.932L587.228,261.609L587.098,262.36L587.986,262.327L587.415,263.996L585.92,264.64L586.116,264.041L584.804,263.31L584.291,260.795L583.545,260.535L582.796,261.497L583.749,262.488L583.199,263.537L581.639,263.649L580.983,263.009L578.303,262.174L578.629,262.653L577.871,264.236L574.555,265.582L572.543,265.223L570.714,263.451L568.429,263.608L567.679,262.645L564.111,262.761L564.005,264.425L563.21,265.318L563.223,264.368L561.003,264.686L561.194,265.549L559.976,265.904L559.353,266.586L557.568,266.771L557.833,268.423L557.455,268.861L554.962,269.315L553.894,271.104L552.701,272L552.99,273.239L552.094,273.293L552.273,274.218L551.503,273.623L550.953,274.127L549.65,273.929L547.568,274.267L547.466,273.673L545.845,272.491L544.635,272L541.999,272.471L541.454,269.518L540.598,269.708L540.02,268.812L536.773,271.339L536.724,269.505L535.286,269.943L535.518,268.931L534.129,268.642L533.429,267.903L532.663,269.803L531.457,270.505L530.732,268.498L529.209,268.795L528.223,269.737L526.06,270.183L524.206,270.133L522.817,271.314L521.689,271.228L519.737,268.675L518.255,267.891L518.116,268.667L514.613,268.853L514.658,269.543L512.906,270.055L512.988,271.744L512.531,272.012L512.372,274.664L511.456,274.016L509.134,273.698L508.527,274.54L506.437,273.656L506.572,273.107L504.881,273.02L504.156,273.623L504.091,274.957L502.975,278.195L502.722,278.918L503.753,281.128L503.68,283.717L502.001,286.381L501.94,287.888L500.608,289.52L500.164,291.667L501.235,293.059L504.694,294.658L505.081,295.207L505.228,298.131L505.04,300.105L505.004,304.64L505.407,306.722L505.496,309.464L505.961,310.629L507.452,312.045L509.285,312.888L509.305,311.124L510.083,311.116L510.095,309.918L510.873,309.898L511.032,312.033L511.79,312.706L513.09,312.582L513.79,313.107L515.664,316.237L516.153,315.973L517.68,317.79L518.711,317.679L519.831,320.367L521.236,320.76L521.342,321.524L522.406,321.99L523.795,321.941L523.73,321.189L525.163,321.35L527.469,324.394L528.61,324.877L529.433,324.006L528.52,322.172L528.504,320.421L529.978,319.822L531.351,320.76L533.001,323.68L533.579,327.355L533.445,329.069L533.759,329.776L536.309,332.233L534.736,332.369L535.417,334.401L537.857,334.806L538.435,336.19L537.307,336.367L537.645,338.098L536.875,338.395L535.608,337.383L534.537,337.272L532.186,337.569L531.168,338.759L532.027,340.489L530.023,342.22L529.571,341.096L528.308,341.881L528.259,344.012L529.351,343.818L530.524,346.354L530.773,347.419L530.044,347.614L530.475,348.956L531.143,348.91L531.205,350.054L530.202,350.013L528.402,350.546L527.909,351.368L525.538,351.533L524.605,353.317L525.445,354.37L525.302,356.221L526.756,359.037L526.662,359.719L525.583,360.285L525.99,361.119L528.52,360.38L529.714,362.333L528.968,362.639L529.253,363.708L526.231,364.555L524.691,364.233L522.732,365.237L520.939,365.489L520.259,366.281L518.206,366.207L518.491,369.928L516.1,371.275L516.418,372.105L515.016,372.134L515.208,372.712L513.717,373.629L514.112,374.401L513.611,374.918L515.965,377.672L515.122,377.858L515.371,378.994L513.354,379.783L513.15,378.948L512.283,378.49L510.368,379.622L508.881,380.183L506.531,380.629L507.081,382.748L506.409,382.637L506.665,384.293L505.647,384.251L505.565,384.937L504.229,384.966L503.586,383.504L503.451,381.918L501.195,379.799L498.482,378.251L497.569,379.039L496.376,379.407L494.942,378.453L494.881,377.495L493.968,377.206L493.255,377.792L492.143,377.842L490.807,378.713L490.037,377.866L489.141,377.966L489.499,380.658L492.559,382.529L492.567,383.021L493.858,383.797L494.27,385.049L489.992,386.333L489.133,385.577L488.827,384.441L488.298,384.458L487.846,382.95L486.835,383.673L483.149,382.438L483.161,382.05L481.67,381.976L480.582,382.591L480.754,383.103L478.582,383.516L478.391,382.765L476.452,382.075L476.415,383.31L475.038,383.405L473.515,382.872L473.45,381.55L472.802,381.447L472.761,379.729L472.085,379.803L471.808,378.519L471.034,378.312L471.054,377.049L469.942,377.09L469.543,378.325L468.264,378.593L467.959,377.908L465.465,377.354L465.502,378.321L462.883,378.292L462.891,379.213L463.604,380.32L462.915,380.476L463.013,382.19L462.17,382.86L461.168,382.913L459.669,384.268L458.646,384.173L458.634,382.381L458.003,382.934L458.182,384.941L456.052,384.123L456.003,383.603L454.801,384.169L454.919,384.859L454.182,385.763L454.552,386.771L453.876,387.878L454.011,389.067L455.131,389.038L455.347,390.133L454.011,390.393L453.815,391.764L452.292,392.012L452.1,393.276L451.607,393.338L451.685,395.663L448.047,395.861L447.99,395.052L444.853,395.147L444.381,394.767L445.195,397.001L445.758,397.645L445.79,399.595L443.965,399.88L443.143,400.569L443.134,401.577L441.049,401.321L441.024,401.87L438.543,401.66L437.867,401.862L438.327,402.659L438.425,404.448L438.886,404.468L439.097,406.063L436.991,406.678L436.735,405.897L435.358,406.1L435.065,404.431L435.244,402.816L434.743,402.217L432.751,402.325L431.639,401.437L431.077,401.767L431.109,404.923L431.973,405.497L432.229,406.533L434.209,406.942L435.02,409.412L434.164,409.42L433.643,411.527L432.816,412.315L432.971,413.08L435.146,412.303L435.883,411.638L436.397,413.269L435.496,413.286L436.079,414.558L437.114,414.062L437.623,412.869L439.158,413.051L439.142,413.889L440.059,414.541L440.034,417.358L441.077,419.279L441.212,420.34L440.429,420.505L440.368,421.546L437.814,422.195L437.26,423L435.553,421.959L432.303,421.108L430.518,421.162L428.983,420.443L428.331,420.989L425.41,420.654L424.286,420.761L423.194,419.944L421.039,419.778L420.852,420.439L417.801,419.402L416.07,417.903L415.968,417.098L414.986,416.495L414.966,415.26L413.96,414.587L413.556,413.463L412.436,412.336L412.11,411.287L407.808,410.085L407.043,410.75L406.334,409.767L405.104,409.693L402.888,408.425L402.716,407.169L402.093,406.017L400.529,404.795L400.7,403.481L400.081,402.436L400.655,402.168L401.001,400.912L400.484,400.945L400.664,398.508L399.881,395.18L400.598,394.118L399.979,393.817L399.519,392.367L398.358,392.408L398.704,391.281L397.323,392.02L396.631,391.343L395.726,388.621L393.18,388.923L392.818,387.535L391.938,386.738L390.899,386.808L390.989,386.077L389.767,386.482L389.803,385.974L388.569,385.59L387.135,385.817L387.107,386.857L384.887,387.448L382.21,387.485L381.787,390.095L379.676,390.612L379.607,391.157L378.039,391.446L378.027,391.012L376.316,390.736L376.304,389.633L375.363,389.864L374.809,390.707L373.346,390.628L373.252,389.216L372.389,388.336L372.515,389.323L371.892,389.575L360.286,390.385L359.064,390.294L359.044,389.711L357.467,389.459L357.753,386.478L356.669,386.837L355.378,386.308L355.312,387.58L354.706,387.584L354.127,389.055L351.707,389.088L352.05,387.539L350.836,386.713L350.889,384.863L348.445,384.384L348.18,385.586L348.388,390.157L347.691,390.665L346.587,390.624L346.33,392.239L345.516,392.012L344.375,393.168L343.874,391.863L342.986,391.793L342.738,390.042L341.556,389.695L341.577,389.009L340.554,388.989L340.587,387.919L339.976,387.89L339.821,386.308L339.006,385.837L339.051,384.966L337.874,384.85L337.792,383.979L335.597,383.508L335.148,383.083L334.489,385.817L335.047,386.255L334.867,387.332L336.204,387.601L335.458,389.819L335.65,390.157L334.696,391.665L332.387,390.897L331.222,391.413L331.882,392.929L331.812,394.358L330.973,394.511L330.765,395.762L329.967,395.65L329.845,396.406L327.963,396.225L327.771,396.914L326.61,396.848L326.549,395.968L325.767,396.295L324.492,394.667L323.69,395.816L322.948,395.857L322.651,397.625L321.897,398.058L319.274,398.124L319.217,399.603L318.422,399.917L318.117,400.846L317.429,400.788L317.543,402.263L318.382,402.899L318.447,403.816L317.534,403.878L317.999,404.984L319.429,405.303L319.274,406.777L317.864,406.157L312.259,405.844L310.764,405.943L309.383,405.063L309.115,405.344L307.338,404.551L308.002,405.786L307.595,406.314L306.931,404.807L305.786,405.042L304.434,404.654L302.764,401.796L302.287,399.392L301.762,398.628L301.827,397.1L299.419,396.398L299.456,397.468L298.413,397.571L298.144,394.73L297.537,393.301L296.185,392.64L293.957,392.582L292.661,391.942L293.114,391.025L293.932,390.728L293.798,388.538L292.926,388.266L293.081,386.383L292.115,385.077L292.12,383.537L291.346,382.364L288.999,381.137L287.871,379.436L287.891,380.857L287.447,381.947L285.883,383.273L284.518,383.041L283.215,383.562L282.828,382.451L281.483,382.314L281.068,383.876L279.781,383.446L278.318,382.265L277.161,383.008L275.756,383.285L274.685,383.074L274.477,383.859L273.255,384.14L272.021,385.97L269.246,385.424L269.638,384.165L268.35,383.388L267.825,381.872L265.865,380.914L265.352,379.737L264.204,378.552L262.867,379.176L261.727,380.402L261.849,381.117L261.205,382.566L259.967,383.562L258.814,384.012L258.916,385.044L258.354,385.519L257.608,381.996L258.044,379.878L259.808,378.139L259.474,377.652L259.226,374.843L259.621,373.187L258.338,372.865L257.486,372.068L256.553,370.11L254.618,370.003L254.207,370.841L251.062,370.564L250.956,369.581L251.857,367.351L253.559,365.918L252.663,364.737L253.246,363.56L253.062,362.647L254.158,361.416L254.545,361.623L255.205,360.202L255.103,358.959L253.812,357.559L253.348,357.637L253.963,356.097L253.539,354.267L253.079,349.596L253.71,348.15L251.804,347.238L249.514,347.258L248.765,347.75L247.013,346.618L243.396,344.652L242.471,341.819L242.667,340.278L241.791,339.737L241.033,340.32L240.679,339.411L241.84,338.804L242.406,337.152L244.219,336.297L246.044,337.23L247.021,337.185L250.545,334.732L251.983,332.993L253.763,333.658L254.728,334.918L256.944,336.694L257.938,335.525L262.313,334.653L262.928,333.988L265.935,333.773L267.381,331.717L268.216,331.49L268.175,330.176L268.741,329.292L267.609,328.495L264.603,326.901L264.285,326.067L262.057,324.869L261.185,325.072L260.411,323.721L258.073,322.932L257.389,321.222L258.354,320.566L259.604,317.749L259.519,315.362L260.574,314.936L260.932,313.392L260.37,313.466L258.492,312.26L257.201,311.987L257.006,311.306L259.731,307.56L259.169,306.639L255.999,303.269L254.272,302.728L252.769,301.233L251.486,298.18L249.869,297.441L248.325,297.09L246.83,296.041L245.958,295.046L244.932,294.889L244.455,294.24L243.261,293.935L242.736,294.352L240.862,294.496L240.394,293.138L241.013,290.697L240.328,289.549L241.151,287.095L241.322,285.861L242.939,284.056L244.321,283.238L245.575,283.593L245.351,281.371L244.109,280.008L243.982,279.108L245.913,276.589L246.39,274.321L247.583,273.693L249.095,273.763L251.07,272.677L253.103,270.749L252.973,270.141L255.433,268.527L257.278,265.871L257.136,265.218L258.158,264.847L260.57,262.521L262.627,262.088L263.869,262.563L265.409,261.712L266.053,260.853L265.715,258.552L267.601,256.958L268.448,257.309L270.09,256.219L270.546,257.355L271.617,257.731L272.917,257.347L273.247,253.836L273.642,254.142L273.723,252.283L274.554,251.333L276.086,251.321L277.887,252.064L278.893,251.663L279.606,252.279L280.856,251.882L281.728,252.407L283.243,251.969L282.885,251.127L283.41,249.644L285.402,248.463L285.973,249.272L290.05,248.549L290.543,248.107L291.671,248.653L292.861,248.297L293.663,249.623L294.629,249.247L296.556,249.578L296.356,249.057L295.134,248.876L294.156,248.178L295.9,247.694L297.301,247.926L299.045,249.09L300.853,248.946L302.214,248.223L303.798,246.823L304.89,244.849L303.856,242.928L304.788,240.314L306.324,240.475L307.493,239.727L308.43,237.014L311.155,236.374L311.139,238.488L311.705,238.864L314.092,241.97L314.964,242.862L318.023,243.027L319.343,243.696L320.651,244.857L320.353,243.63L322.72,244.432L324.077,243.862L324.117,242.631L322.793,240.335L322.337,239.1L322.814,238.732L324.244,236.06L323.054,235.065L324.496,233.784L325.971,234.491L327.38,234.495L328.04,232.81L328.553,232.496L328.745,230.728L330.5,229.245L329.886,228.498L330.256,227.874L329.873,226.833L331.482,224.471L331.605,223.765L332.867,222.142L332.79,221.654L334.468,222.241L335.495,222.15L336.403,220.13L336.472,218.937L340.143,216.764L341.483,217.281L342.957,216.615L344.852,216.492L345.943,215.785L346.583,214.546L346.216,214.203L345.165,213.283L344.897,211.829L343.919,211.3L343.234,210.016L342.921,208.174L342.147,208.223L342.102,206.394L340.908,204.3L341.699,202.627L340.407,202.09L340.122,201.153L338.86,200.046L338.383,200.413L337.58,198.807L338.464,197.861L337.621,197.018L337.336,195.544L337.857,194.933L337.173,193.549L336.729,191.653L335.022,190.699L331.8,191.228L331.397,190.629L330.293,190.852L329.886,190.208L328.892,190.253L328.533,189.543L327.857,190.195L326.24,190.261L326.231,189.601L325.335,189.547L325.747,188.862L325.735,186.66L324.586,185.714L322.814,186.235L321.6,184.698L320.981,184.657L320.806,183.525L312.992,172.998L313.078,171.54L311.721,171.552L311.09,170.379L307.925,168.562L308.532,167.55L308.324,166.344L308.907,166.547L308.503,165.175L309.697,163.466L308.397,163.92L307.913,163.247L308.145,161.219L309.143,160.025L309.049,158.695L310.218,156.296L308.723,155.825L307.469,154.689L302.784,154.714L302.597,155.557L301.228,153.244L302.601,150.716L302.735,149.535L303.692,147.581L305.041,146.317L304.523,144.967L304.931,144.005L305.811,144.294L306.65,143.868L307.876,141.964L308.601,141.816L309.074,140.899L310.707,139.305L312.166,138.557L313.506,139.478L314.642,139.234L316.614,139.552L317.543,139.057L317.881,138.041L317.71,136.777L319.017,131.957L322.679,130.412L324.378,131.156L326.586,130.33L326.887,129.71L330.321,129.855L330.855,129.392L332.138,126.865L332.745,126.551L334.684,124.193L337.132,124.362L338.676,125.357L339.988,125.213L341.866,125.783L342.579,126.369L343.898,126.183L346.294,127.117L345.996,128.372L347.186,128.021L347.797,130.995L349.166,134.014L351.716,133.795L351.887,132.754L353.638,132.709L357.565,126.951L358.197,126.749L358.494,129.306L358.946,128.661L361.325,128.108L362.56,127.059L363.997,126.832L364.861,125.981L366.242,125.997L366.959,125.518L367.582,123.528L369.362,122.516L369.884,121.797L371.904,120.781L372.98,121.702L375.697,121.454L376.422,120.934L376.1,120.087L374.605,118.121L374.369,116.75L374.699,116.093L377.037,114.747L379.318,111.265L380.471,111.439L382.141,112.372L384.333,112.604L385.29,109.985L385.449,108.37L386.048,107.664L386.475,105.772L386.019,103.988L386.968,102.815L387.298,100.928L387.925,99.759L388.663,99.441L390.097,96.587L391.164,96.042L392.712,94.464L392.52,92.688L393.657,92.234L394.182,92.639L395.567,91.474L395.592,90.313L396.142,89.128L398.158,87.559L397.441,86.91L397.788,84.577L398.541,83.639L398.423,81.583L400.411,80.232L400.941,79.344L402.867,80.356L403.486,81.632L405.157,83.119L405.214,84.779L406.049,85.903L405.91,86.79L406.672,87.113L407.458,86.522L409.312,86.551L410.664,88.352L412.008,88.649L412.627,89.558L413.247,88.789L412.627,86.572L413.646,84.907L414.501,84.399L416.954,83.99L417.536,84.267L419.446,84.164L421.426,84.903L423.003,84.279L424.266,84.734L424.905,84.329L426.632,84.362L429.125,82.801L431.187,82.739L432.087,82.28L433.345,82.925L433.773,85.122L435.403,85.618L436.763,85.411L437.908,85.766L439.211,85.163L441.069,86.022L443.309,84.255L443.387,83.796L442.377,81.76L442.523,80.191L441.708,77.68L440.719,77.742L440.491,76.746L438.352,74.892L438.332,73.372L437.733,71.906L434.938,71.381L433.48,69.696L431.818,68.655L431.757,67.478L430.425,64.244L428.958,63.125L428.555,61.329L427.003,60.903L425.667,58.826L424.054,57.508L423.932,56.595L422.868,55.385L421.573,54.638L419.785,52.858L419.308,51.52L417.789,50.297L417.984,48.786L417.727,46.122L418.644,44.858L418.852,43.908L420.844,42.198L422.559,42.19L423.703,40.406L424.783,40.236L426.653,42.268L426.612,42.925L427.447,44.135L427.614,45.601L429.146,48.108L429.842,48.587L430.274,49.938L431.488,50.012L433.232,51.553L434.246,50.888L436.58,50.623L437.692,51.648L440.006,51.511L440.442,51.144L441.99,51.338L443.094,52.436L444.984,52.519L445.672,51.04L444.898,46.402L443.888,45.023L443.652,43.416L442.548,43.065L442.698,42.409L441.346,39.778L441.24,38.72L439.802,37.61L440.943,34.838L440.633,33.785L441.375,30.737L443.053,29.7L445.012,31.22L445.937,31.092L447.236,30.225L448.817,31.398L449.404,31.266L450.919,31.914L453.212,32.1L453.852,30.456L454.854,30.584L456.548,29.391L456.98,28.623L458.219,28.214L459.355,28.796L461.457,28.635L461.966,27.387L463.514,27.858L464.634,29.234L467.51,31.712L469.083,32.216L472.346,30.006L472.843,26.029L472.419,24.777L473.254,22.027L473.784,21.634L473.975,20.358L473.653,18.219L472.944,16.74L472.268,16.381L472.146,15.171L472.973,13.139L472.725,11.916L474.211,11.644L475.527,10L476.908,10.078L477.536,10.64L478.757,10.363L480.02,11.173L480.623,12.453L482.22,13.647L483.792,13.725L484.513,14.667L485.662,14.911L486.783,14.171L487.487,15.163L487.312,16.017L488.041,17.112L488.167,19.144L488.774,20.214L487.797,22.167L487.218,22.349L487.235,23.827L485.699,25.574L485.597,29.246L486.135,30.18L485.348,30.671L484.697,31.898L484.697,33.19L486.513,35.363L486.913,38.312L488.253,40.013L489.459,41.017L489.54,42.078L490.404,42.719L491.373,42.508L491.703,43.908L493.345,44.42L492.331,45.898L491.597,48.802L492.286,48.868L493.61,49.863L494.09,51.185L494.925,52.065L496.742,52.35L498.787,53.638L500.588,54.105L500.4,56.133L501.101,56.447L502.514,55.881L503.093,57.025L503.957,57.062L507.936,61.787L507.891,63.113L508.947,64.063L508.963,66.33L509.635,66.731L511.13,64.777L512.515,64.818L513.049,66.256L513.933,66.661L514.674,66.28L515.835,66.549L516.218,67.197L517.864,67.123L517.941,67.681L519.273,68.118L520.287,69.403L520.446,70.716L522.186,71.683L523.314,71.786L523.424,72.492L524.483,73.595L524.1,76.118L525.416,76.965L525.827,77.667L527.31,78.159L526.972,79.641L526.984,81.942L527.681,83.226L528.846,83.086L532.512,84.003L532.471,85.758L533.392,88.091L532.537,89.95L533.127,91.416L535.885,92.729L536.276,95.282L537.042,96.038L539.669,97.537L540.904,99.036L540.639,100.49L541.519,101.32L543.059,101.527L543.527,102.229L545.132,102.142L545.576,102.646L547.918,103.637L548.509,104.277L550.049,104.475L550.998,103.98L552.86,104.405L553.483,104.975L554.367,104.377L554.469,103.658L556.102,102.861L558.127,103.005L558.799,102.559L562.396,102.948L563.243,102.283L564.196,102.427L565.968,101.527L568.991,100.837L570.38,102.935L572.523,102.72L573.244,103.298L575.199,103.674L576.181,103.22L578.503,103.897L579.525,103.051L580.401,103.187L581.843,104.608L582.682,104.475L582.975,103.707L585.224,103.914L585.965,104.422L586.853,104.091L588.031,104.385L588.462,105.016L589.77,105.021L590.039,105.657L592.862,107.173L593.082,107.945L594.504,108.948L597.453,108.23L598.353,107.796L599.591,108.948L600.691,110.642L601.71,111.29L601.706,112.083L604.007,113.182L609.995,113.669L612.077,112.843L613.201,112.087L613.018,111.443L614.134,109.779L617.511,109.655L619.621,108.168L621.104,108.399L622.819,107.02L624.811,107.123L627.149,106.223L628.245,106.565L629.121,106.305L630.501,106.73L631.724,107.676L632.624,107.168L633.577,108.965L635.862,108.705L638.05,109.754L639.28,109.547L641.402,108.341L641.859,108.841L643.537,109.308L645.402,110.745L647.672,113.095L647.541,114.206L645.382,115.007L645.81,116.787L645.215,117.204L644.914,119.34L642.873,119.385L642.136,120.034L640.543,119.563L640.066,117.229L639.59,117.221L638.575,115.92L637.879,116.143L637.431,115.007L634.917,115.387L636.351,116.011L635.373,116.676L635.874,117.634L634.872,121.347L633.589,121.45L632.754,122.037L631.251,121.954L629.239,124.135L627.833,127.315L628.224,128.443L629.589,130.379L629.369,130.97L629.874,133.39L631.157,133.94L631.194,134.753L629.487,136.554L627.976,136.352L626.049,135.232L625.466,136.492L624.31,136.86L623.267,138.569L621.148,138.024L620.57,136.888L619.356,136.232L618.713,134.794L616.199,134.059L615.617,133.196L614.203,133.353L612.614,134.666L611.413,134.799L610.83,134.233L608.178,134.266L605.787,137.144L603.066,137.591L601.832,138.801L600.65,138.503L599.738,138.929L598.011,140.717L596.043,141.919L596.251,143.497L595.632,143.955L596.524,144.959L597.131,147.098L598.365,149.382L598.882,149.84L598.691,150.898L597.216,150.439L595.514,151.199L594.096,149.981L592.316,151.406L590.283,150.596L589.318,150.865L588.829,152.24L589.216,152.372L588.063,153.983L588.035,154.759L588.744,155.627L589.884,155.651L591.937,159.055L591.416,160.451L592.414,161.83L593.648,162.26L592.862,163.689L593.509,165.39L594.829,165.679L596.553,166.951L596.646,168.083L598.732,169.021L597.624,170.813L595.497,172.985L594.939,174.018L593.033,175.476L593.701,177.871L593.526,179.647L594.279,180.469L594.32,181.291L593.591,181.378L593.285,182.534L592.051,183.228L591.587,185.347Z" stroke="#747569" stroke-width="1" stroke-dasharray="3,3" fill="none"></path><path d="M591.049,186.119L591.493,187.779L593.611,187.375L594.63,187.54L595.697,189.043L596.17,190.505L596.948,190.831L596.984,192.343L597.514,194.829L598.3,195.515L598.047,196.176L599.469,196.304L600.997,197.262L600.28,198.964L600.39,200.351L600.944,201.743L600.875,203.238L603.095,204.857L604.569,206.253L604.83,207.748L604.386,208.938L605.156,211.015L606.712,210.995L609.152,210.02L609.144,209.227L610.423,209.396L611.959,208.062L612.496,209.086L613.274,214.129L613.201,214.802L614.093,216.529L613.641,219.16L614.338,219.998L614.729,222.03L615.27,222.125L615.926,223.43L616.721,223.405L617.613,222.641L620.285,222.583L622.786,224.029L623.409,223.81L624.13,225.421L620.986,226.197L621.153,228.32L622.562,228.931L624.016,230.084L621.369,230.608L621.739,232.244L622.309,232.149L622.253,234.049L623.084,233.941L624.904,232.752L626.852,234.131L626.277,235.217L625.589,235.122L623.719,236.655L624.024,237.345L621.572,236.832L621.694,237.968L620.876,236.981L619.902,236.927L619.283,237.832L618.342,236.89L617.446,237.741L616.342,237.658L615.829,238.17L617.042,240.054L617.682,241.916L615.947,243.548L616.639,244.052L615.714,245.01L616.953,244.956L616.851,246.009L615.886,246.257L615.433,247.124L611.836,247.847L611.897,247.323L610.407,246.059L609.49,246.616L608.553,246.249L607.355,247.009L606.455,249.826L605.302,251.011L605.306,251.626L603.033,250.998L601.131,252.956L601.327,254.059L600.878,254.951L600.011,254.596L599.412,253.328L598.157,252.824L597.212,253.047L595.99,252.233L595.229,253.063L593.839,253.435L593.408,254.294L592.047,255.529L591.966,256.364L591.147,256.781L591.163,257.788L588.585,257.293L588.544,258.776L589.118,259.932L587.228,261.609L587.098,262.36L587.986,262.327L587.415,263.996L585.92,264.64L586.116,264.041L584.804,263.31L584.291,260.795L583.545,260.535L582.796,261.497L583.749,262.488L583.199,263.537L581.639,263.649L580.983,263.009L578.303,262.174L578.629,262.653L577.871,264.236L574.555,265.582L572.543,265.223L570.714,263.451L568.429,263.608L567.679,262.645L564.111,262.761L564.005,264.425L563.21,265.318L563.223,264.368L561.003,264.686L561.194,265.549L559.976,265.904L559.353,266.586L557.568,266.771L557.833,268.423L557.455,268.861L554.962,269.315L553.894,271.104L552.701,272L552.99,273.239L552.094,273.293L552.273,274.218L551.503,273.623L550.953,274.127L549.65,273.929L547.568,274.267L547.466,273.673L545.845,272.491L544.635,272L541.999,272.471L541.454,269.518L540.598,269.708L540.02,268.812L536.773,271.339L536.724,269.505L535.286,269.943L535.518,268.931L534.129,268.642L533.429,267.903L532.663,269.803L531.457,270.505L530.732,268.498L529.209,268.795L528.223,269.737L526.06,270.183L524.206,270.133L522.817,271.314L521.689,271.228L519.737,268.675L518.255,267.891L518.116,268.667L514.613,268.853L514.658,269.543L512.906,270.055L512.988,271.744L512.531,272.012L512.372,274.664L511.456,274.016L509.134,273.698L508.527,274.54L506.437,273.656L506.572,273.107L504.881,273.02L504.156,273.623L504.091,274.957L502.975,278.195L502.722,278.918L503.753,281.128L503.68,283.717L502.001,286.381L501.94,287.888L500.608,289.52L500.164,291.667L501.235,293.059L504.694,294.658L505.081,295.207L505.228,298.131L505.04,300.105L505.004,304.64L505.407,306.722L505.496,309.464L505.961,310.629L507.452,312.045L509.285,312.888L509.305,311.124L510.083,311.116L510.095,309.918L510.873,309.898L511.032,312.033L511.79,312.706L513.09,312.582L513.79,313.107L515.664,316.237L516.153,315.973L517.68,317.79L518.711,317.679L519.831,320.367L521.236,320.76L521.342,321.524L522.406,321.99L523.795,321.941L523.73,321.189L525.163,321.35L527.469,324.394L528.61,324.877L529.433,324.006L528.52,322.172L528.504,320.421L529.978,319.822L531.351,320.76L533.001,323.68L533.579,327.355L533.445,329.069L533.759,329.776L536.309,332.233L534.736,332.369L535.417,334.401L537.857,334.806L538.435,336.19L537.307,336.367L537.645,338.098L536.875,338.395L535.608,337.383L534.537,337.272L532.186,337.569L531.168,338.759L532.027,340.489L530.023,342.22L529.571,341.096L528.308,341.881L528.259,344.012L529.351,343.818L530.524,346.354L530.773,347.419L530.044,347.614L530.475,348.956L531.143,348.91L531.205,350.054L530.202,350.013L528.402,350.546L527.909,351.368L525.538,351.533L524.605,353.317L525.445,354.37L525.302,356.221L526.756,359.037L526.662,359.719L525.583,360.285L525.99,361.119L528.52,360.38L529.714,362.333L528.968,362.639L529.253,363.708L526.231,364.555L524.691,364.233L522.732,365.237L520.939,365.489L520.259,366.281L518.206,366.207L518.491,369.928L516.1,371.275L516.418,372.105L515.016,372.134L515.208,372.712L513.717,373.629L514.112,374.401L513.611,374.918L515.965,377.672L515.122,377.858L515.371,378.994L513.354,379.783L513.15,378.948L512.283,378.49L510.368,379.622L508.881,380.183L506.531,380.629L507.081,382.748L506.409,382.637L506.665,384.293L505.647,384.251L505.565,384.937L504.229,384.966L503.586,383.504L503.451,381.918L501.195,379.799L498.482,378.251L497.569,379.039L496.376,379.407L494.942,378.453L494.881,377.495L493.968,377.206L493.255,377.792L492.143,377.842L490.807,378.713L490.037,377.866L489.141,377.966L489.499,380.658L492.559,382.529L492.567,383.021L493.858,383.797L494.27,385.049L489.992,386.333L489.133,385.577L488.827,384.441L488.298,384.458L487.846,382.95L486.835,383.673L483.149,382.438L483.161,382.05L481.67,381.976L480.582,382.591L480.754,383.103L478.582,383.516L478.391,382.765L476.452,382.075L476.415,383.31L475.038,383.405L473.515,382.872L473.45,381.55L472.802,381.447L472.761,379.729L472.085,379.803L471.808,378.519L471.034,378.312L471.054,377.049L469.942,377.09L469.543,378.325L468.264,378.593L467.959,377.908L465.465,377.354L465.502,378.321L462.883,378.292L462.891,379.213L463.604,380.32L462.915,380.476L463.013,382.19L462.17,382.86L461.168,382.913L459.669,384.268L458.646,384.173L458.634,382.381L458.003,382.934L458.182,384.941L456.052,384.123L456.003,383.603L454.801,384.169L454.919,384.859L454.182,385.763L454.552,386.771L453.876,387.878L454.011,389.067L455.131,389.038L455.347,390.133L454.011,390.393L453.815,391.764L452.292,392.012L452.1,393.276L451.607,393.338L451.685,395.663L448.047,395.861L447.99,395.052L444.853,395.147L444.381,394.767L445.195,397.001L445.758,397.645L445.79,399.595L443.965,399.88L443.143,400.569L443.134,401.577L441.049,401.321L441.024,401.87L438.543,401.66L437.867,401.862L438.327,402.659L438.425,404.448L438.886,404.468L439.097,406.063L436.991,406.678L436.735,405.897L435.358,406.1L435.065,404.431L435.244,402.816L434.743,402.217L432.751,402.325L431.639,401.437L431.077,401.767L431.109,404.923L431.973,405.497L432.229,406.533L434.209,406.942L435.02,409.412L434.164,409.42L433.643,411.527L432.816,412.315L432.971,413.08L435.146,412.303L435.883,411.638L436.397,413.269L435.496,413.286L436.079,414.558L437.114,414.062L437.623,412.869L439.158,413.051L439.142,413.889L440.059,414.541L440.034,417.358L441.077,419.279L441.212,420.34L440.429,420.505L440.368,421.546L437.814,422.195L437.26,423L435.553,421.959L432.303,421.108L430.518,421.162L428.983,420.443L428.331,420.989L425.41,420.654L424.286,420.761L423.194,419.944L421.039,419.778L420.852,420.439L417.801,419.402L416.07,417.903L415.968,417.098L414.986,416.495L414.966,415.26L413.96,414.587L413.556,413.463L412.436,412.336L412.11,411.287L407.808,410.085L407.043,410.75L406.334,409.767L405.104,409.693L402.888,408.425L402.716,407.169L402.093,406.017L400.529,404.795L400.7,403.481L400.081,402.436L400.655,402.168L401.001,400.912L400.484,400.945L400.664,398.508L399.881,395.18L400.598,394.118L399.979,393.817L399.519,392.367L398.358,392.408L398.704,391.281L397.323,392.02L396.631,391.343L395.726,388.621L393.18,388.923L392.818,387.535L391.938,386.738L390.899,386.808L390.989,386.077L389.767,386.482L389.803,385.974L388.569,385.59L387.135,385.817L387.107,386.857L384.887,387.448L382.21,387.485L381.787,390.095L379.676,390.612L379.607,391.157L378.039,391.446L378.027,391.012L376.316,390.736L376.304,389.633L375.363,389.864L374.809,390.707L373.346,390.628L373.252,389.216L372.389,388.336L372.515,389.323L371.892,389.575L360.286,390.385L359.064,390.294L359.044,389.711L357.467,389.459L357.753,386.478L356.669,386.837L355.378,386.308L355.312,387.58L354.706,387.584L354.127,389.055L351.707,389.088L352.05,387.539L350.836,386.713L350.889,384.863L348.445,384.384L348.18,385.586L348.388,390.157L347.691,390.665L346.587,390.624L346.33,392.239L345.516,392.012L344.375,393.168L343.874,391.863L342.986,391.793L342.738,390.042L341.556,389.695L341.577,389.009L340.554,388.989L340.587,387.919L339.976,387.89L339.821,386.308L339.006,385.837L339.051,384.966L337.874,384.85L337.792,383.979L335.597,383.508L335.148,383.083L334.489,385.817L335.047,386.255L334.867,387.332L336.204,387.601L335.458,389.819L335.65,390.157L334.696,391.665L332.387,390.897L331.222,391.413L331.882,392.929L331.812,394.358L330.973,394.511L330.765,395.762L329.967,395.65L329.845,396.406L327.963,396.225L327.771,396.914L326.61,396.848L326.549,395.968L325.767,396.295L324.492,394.667L323.69,395.816L322.948,395.857L322.651,397.625L321.897,398.058L319.274,398.124L319.217,399.603L318.422,399.917L318.117,400.846L317.429,400.788L317.543,402.263L318.382,402.899L318.447,403.816L317.534,403.878L317.999,404.984L319.429,405.303L319.274,406.777L317.864,406.157L312.259,405.844L310.764,405.943L309.383,405.063L309.115,405.344L307.338,404.551L308.002,405.786L307.595,406.314L306.931,404.807L305.786,405.042L304.434,404.654L302.764,401.796L302.287,399.392L301.762,398.628L301.827,397.1L299.419,396.398L299.456,397.468L298.413,397.571L298.144,394.73L297.537,393.301L296.185,392.64L293.957,392.582L292.661,391.942L293.114,391.025L293.932,390.728L293.798,388.538L292.926,388.266L293.081,386.383L292.115,385.077L292.12,383.537L291.346,382.364L288.999,381.137L287.871,379.436L287.891,380.857L287.447,381.947L285.883,383.273L284.518,383.041L283.215,383.562L282.828,382.451L281.483,382.314L281.068,383.876L279.781,383.446L278.318,382.265L277.161,383.008L275.756,383.285L274.685,383.074L274.477,383.859L273.255,384.14L272.021,385.97L269.246,385.424L269.638,384.165L268.35,383.388L267.825,381.872L265.865,380.914L265.352,379.737L264.204,378.552L262.867,379.176L261.727,380.402L261.849,381.117L261.205,382.566L259.967,383.562L258.814,384.012L258.916,385.044L258.354,385.519L257.608,381.996L258.044,379.878L259.808,378.139L259.474,377.652L259.226,374.843L259.621,373.187L258.338,372.865L257.486,372.068L256.553,370.11L254.618,370.003L254.207,370.841L251.062,370.564L250.956,369.581L251.857,367.351L253.559,365.918L252.663,364.737L253.246,363.56L253.062,362.647L254.158,361.416L254.545,361.623L255.205,360.202L255.103,358.959L253.812,357.559L253.348,357.637L253.963,356.097L253.539,354.267L253.079,349.596L253.71,348.15L251.804,347.238L249.514,347.258L248.765,347.75L247.013,346.618L243.396,344.652L242.471,341.819L242.667,340.278L241.791,339.737L241.033,340.32L240.679,339.411L241.84,338.804L242.406,337.152L244.219,336.297L246.044,337.23L247.021,337.185L250.545,334.732L251.983,332.993L253.763,333.658L254.728,334.918L256.944,336.694L257.938,335.525L262.313,334.653L262.928,333.988L265.935,333.773L267.381,331.717L268.216,331.49L268.175,330.176L268.741,329.292L267.609,328.495L264.603,326.901L264.285,326.067L262.057,324.869L261.185,325.072L260.411,323.721L258.073,322.932L257.389,321.222L258.354,320.566L259.604,317.749L259.519,315.362L260.574,314.936L260.932,313.392L260.37,313.466L258.492,312.26L257.201,311.987L257.006,311.306L259.731,307.56L259.169,306.639L255.999,303.269L254.272,302.728L252.769,301.233L251.486,298.18L249.869,297.441L248.325,297.09L246.83,296.041L245.958,295.046L244.932,294.889L244.455,294.24L243.261,293.935L242.736,294.352L240.862,294.496L240.394,293.138L241.013,290.697L240.328,289.549L241.151,287.095L241.322,285.861L242.939,284.056L244.321,283.238L245.575,283.593L245.351,281.371L244.109,280.008L243.982,279.108L245.913,276.589L246.39,274.321L247.583,273.693L249.095,273.763L251.07,272.677L253.103,270.749L252.973,270.141L255.433,268.527L257.278,265.871L257.136,265.218L258.158,264.847L260.57,262.521L262.627,262.088L263.869,262.563L265.409,261.712L266.053,260.853L265.715,258.552L267.601,256.958L268.448,257.309L270.09,256.219L270.546,257.355L271.617,257.731L272.917,257.347L273.247,253.836L273.642,254.142L273.723,252.283L274.554,251.333L276.086,251.321L277.887,252.064L278.893,251.663L279.606,252.279L280.856,251.882L281.728,252.407L283.243,251.969L282.885,251.127L283.41,249.644L285.402,248.463L285.973,249.272L290.05,248.549L290.543,248.107L291.671,248.653L292.861,248.297L293.663,249.623L294.629,249.247L296.556,249.578L296.356,249.057L295.134,248.876L294.156,248.178L295.9,247.694L297.301,247.926L299.045,249.09L300.853,248.946L302.214,248.223L303.798,246.823L304.89,244.849L303.856,242.928L304.788,240.314L306.324,240.475L307.493,239.727L308.43,237.014L311.155,236.374L311.139,238.488L311.705,238.864L314.092,241.97L314.964,242.862L318.023,243.027L319.343,243.696L320.651,244.857L320.353,243.63L322.72,244.432L324.077,243.862L324.117,242.631L322.793,240.335L322.337,239.1L322.814,238.732L324.244,236.06L323.054,235.065L324.496,233.784L325.971,234.491L327.38,234.495L328.04,232.81L328.553,232.496L328.745,230.728L330.5,229.245L329.886,228.498L330.256,227.874L329.873,226.833L331.482,224.471L331.605,223.765L332.867,222.142L332.79,221.654L334.468,222.241L335.495,222.15L336.403,220.13L336.472,218.937L340.143,216.764L341.483,217.281L342.957,216.615L344.852,216.492L345.943,215.785L346.583,214.546L346.216,214.203L345.165,213.283L344.897,211.829L343.919,211.3L343.234,210.016L342.921,208.174L342.147,208.223L342.102,206.394L340.908,204.3L341.699,202.627L340.407,202.09L340.122,201.153L338.86,200.046L338.383,200.413L337.58,198.807L338.464,197.861L337.621,197.018L337.336,195.544L337.857,194.933L337.173,193.549L336.729,191.653L335.022,190.699L331.8,191.228L331.397,190.629L330.293,190.852L329.886,190.208L328.892,190.253L328.533,189.543L327.857,190.195L326.24,190.261L326.231,189.601L325.335,189.547L325.747,188.862L325.735,186.66L324.586,185.714L322.814,186.235L321.6,184.698L320.981,184.657L320.806,183.525L312.992,172.998L313.078,171.54L311.721,171.552L311.09,170.379L307.925,168.562L308.532,167.55L308.324,166.344L308.907,166.547L308.503,165.175L309.697,163.466L308.397,163.92L307.913,163.247L308.145,161.219L309.143,160.025L309.049,158.695L310.218,156.296L308.723,155.825L307.469,154.689L302.784,154.714L302.597,155.557L301.228,153.244L302.601,150.716L302.735,149.535L303.692,147.581L305.041,146.317L304.523,144.967L304.931,144.005L305.811,144.294L306.65,143.868L307.876,141.964L308.601,141.816L309.074,140.899L310.707,139.305L312.166,138.557L313.506,139.478L314.642,139.234L316.614,139.552L317.543,139.057L317.881,138.041L317.71,136.777L319.017,131.957L322.679,130.412L324.378,131.156L326.586,130.33L326.887,129.71L330.321,129.855L330.855,129.392L332.138,126.865L332.745,126.551L334.684,124.193L337.132,124.362L338.676,125.357L339.988,125.213L341.866,125.783L342.579,126.369L343.898,126.183L346.294,127.117L345.996,128.372L347.186,128.021L347.797,130.995L349.166,134.014L351.716,133.795L351.887,132.754L353.638,132.709L357.565,126.951L358.197,126.749L358.494,129.306L358.946,128.661L361.325,128.108L362.56,127.059L363.997,126.832L364.861,125.981L366.242,125.997L366.959,125.518L367.582,123.528L369.362,122.516L369.884,121.797L371.904,120.781L372.98,121.702L375.697,121.454L376.422,120.934L376.1,120.087L374.605,118.121L374.369,116.75L374.699,116.093L377.037,114.747L379.318,111.265L380.471,111.439L382.141,112.372L384.333,112.604L385.29,109.985L385.449,108.37L386.048,107.664L386.475,105.772L386.019,103.988L386.968,102.815L387.298,100.928L387.925,99.759L388.663,99.441L390.097,96.587L391.164,96.042L392.712,94.464L392.52,92.688L393.657,92.234L394.182,92.639L395.567,91.474L395.592,90.313L396.142,89.128L398.158,87.559L397.441,86.91L397.788,84.577L398.541,83.639L398.423,81.583L400.411,80.232L400.941,79.344L402.867,80.356L403.486,81.632L405.157,83.119L405.214,84.779L406.049,85.903L405.91,86.79L406.672,87.113L407.458,86.522L409.312,86.551L410.664,88.352L412.008,88.649L412.627,89.558L413.247,88.789L412.627,86.572L413.646,84.907L414.501,84.399L416.954,83.99L417.536,84.267L419.446,84.164L421.426,84.903L423.003,84.279L424.266,84.734L424.905,84.329L426.632,84.362L429.125,82.801L431.187,82.739L432.087,82.28L433.345,82.925L433.773,85.122L435.403,85.618L436.763,85.411L437.908,85.766L439.211,85.163L441.069,86.022L443.309,84.255L443.387,83.796L442.377,81.76L442.523,80.191L441.708,77.68L440.719,77.742L440.491,76.746L438.352,74.892L438.332,73.372L437.733,71.906L434.938,71.381L433.48,69.696L431.818,68.655L431.757,67.478L430.425,64.244L428.958,63.125L428.555,61.329L427.003,60.903L425.667,58.826L424.054,57.508L423.932,56.595L422.868,55.385L421.573,54.638L419.785,52.858L419.308,51.52L417.789,50.297L417.984,48.786L417.727,46.122L418.644,44.858L418.852,43.908L420.844,42.198L422.559,42.19L423.703,40.406L424.783,40.236L426.653,42.268L426.612,42.925L427.447,44.135L427.614,45.601L429.146,48.108L429.842,48.587L430.274,49.938L431.488,50.012L433.232,51.553L434.246,50.888L436.58,50.623L437.692,51.648L440.006,51.511L440.442,51.144L441.99,51.338L443.094,52.436L444.984,52.519L445.672,51.04L444.898,46.402L443.888,45.023L443.652,43.416L442.548,43.065L442.698,42.409L441.346,39.778L441.24,38.72L439.802,37.61L440.943,34.838L440.633,33.785L441.375,30.737L443.053,29.7L445.012,31.22L445.937,31.092L447.236,30.225L448.817,31.398L449.404,31.266L450.919,31.914L453.212,32.1L453.852,30.456L454.854,30.584L456.548,29.391L456.98,28.623L458.219,28.214L459.355,28.796L461.457,28.635L461.966,27.387L463.514,27.858L464.634,29.234L467.51,31.712L469.083,32.216L472.346,30.006L472.843,26.029L472.419,24.777L473.254,22.027L473.784,21.634L473.975,20.358L473.653,18.219L472.944,16.74L472.268,16.381L472.146,15.171L472.973,13.139L472.725,11.916L474.211,11.644L475.527,10L476.908,10.078L477.536,10.64L478.757,10.363L480.02,11.173L480.623,12.453L482.22,13.647L483.792,13.725L484.513,14.667L485.662,14.911L486.783,14.171L487.487,15.163L487.312,16.017L488.041,17.112L488.167,19.144L488.774,20.214L487.797,22.167L487.218,22.349L487.235,23.827L485.699,25.574L485.597,29.246L486.135,30.18L485.348,30.671L484.697,31.898L484.697,33.19L486.513,35.363L486.913,38.312L488.253,40.013L489.459,41.017L489.54,42.078L490.404,42.719L491.373,42.508L491.703,43.908L493.345,44.42L492.331,45.898L491.597,48.802L492.286,48.868L493.61,49.863L494.09,51.185L494.925,52.065L496.742,52.35L498.787,53.638L500.588,54.105L500.4,56.133L501.101,56.447L502.514,55.881L503.093,57.025L503.957,57.062L507.936,61.787L507.891,63.113L508.947,64.063L508.963,66.33L509.635,66.731L511.13,64.777L512.515,64.818L513.049,66.256L513.933,66.661L514.674,66.28L515.835,66.549L516.218,67.197L517.864,67.123L517.941,67.681L519.273,68.118L520.287,69.403L520.446,70.716L522.186,71.683L523.314,71.786L523.424,72.492L524.483,73.595L524.1,76.118L525.416,76.965L525.827,77.667L527.31,78.159L526.972,79.641L526.984,81.942L527.681,83.226L528.846,83.086L532.512,84.003L532.471,85.758L533.392,88.091L532.537,89.95L533.127,91.416L535.885,92.729L536.276,95.282L537.042,96.038L539.669,97.537L540.904,99.036L540.639,100.49L541.519,101.32L543.059,101.527L543.527,102.229L545.132,102.142L545.576,102.646L547.918,103.637L548.509,104.277L550.049,104.475L550.998,103.98L552.86,104.405L553.483,104.975L554.367,104.377L554.469,103.658L556.102,102.861L558.127,103.005L558.799,102.559L562.396,102.948L563.243,102.283L564.196,102.427L565.968,101.527L568.991,100.837L570.38,102.935L572.523,102.72L573.244,103.298L575.199,103.674L576.181,103.22L578.503,103.897L579.525,103.051L580.401,103.187L581.843,104.608L582.682,104.475L582.975,103.707L585.224,103.914L585.965,104.422L586.853,104.091L588.031,104.385L588.462,105.016L589.77,105.021L590.039,105.657L592.862,107.173L593.082,107.945L594.504,108.948L597.453,108.23L598.353,107.796L599.591,108.948L600.691,110.642L601.71,111.29L601.706,112.083L604.007,113.182L609.995,113.669L612.077,112.843L613.201,112.087L613.018,111.443L614.134,109.779L617.511,109.655L619.621,108.168L621.104,108.399L622.819,107.02L624.811,107.123L627.149,106.223L628.245,106.565L629.121,106.305L630.501,106.73L631.724,107.676L632.624,107.168L633.577,108.965L635.862,108.705L638.05,109.754L639.28,109.547L641.402,108.341L641.859,108.841L643.537,109.308L645.402,110.745L647.672,113.095L647.541,114.206L645.382,115.007L645.81,116.787L645.215,117.204L644.914,119.34L642.873,119.385L642.136,120.034L640.543,119.563L640.066,117.229L639.59,117.221L638.575,115.92L637.879,116.143L637.431,115.007L634.917,115.387L636.351,116.011L635.373,116.676L635.874,117.634L634.872,121.347L633.589,121.45L632.754,122.037L631.251,121.954L629.239,124.135L627.833,127.315L628.224,128.443L629.589,130.379L629.369,130.97L629.874,133.39L631.157,133.94L631.194,134.753L629.487,136.554L627.976,136.352L626.049,135.232L625.466,136.492L624.31,136.86L623.267,138.569L621.148,138.024L620.57,136.888L619.356,136.232L618.713,134.794L616.199,134.059L615.617,133.196L614.203,133.353L612.614,134.666L611.413,134.799L610.83,134.233L608.178,134.266L605.787,137.144L603.066,137.591L601.832,138.801L600.65,138.503L599.738,138.929L598.011,140.717L596.043,141.919L596.251,143.497L595.632,143.955L596.524,144.959L597.131,147.098L598.365,149.382L598.882,149.84L598.691,150.898L597.216,150.439L595.514,151.199L594.096,149.981L592.316,151.406L590.283,150.596L589.318,150.865L588.829,152.24L589.216,152.372L588.063,153.983L588.035,154.759L588.744,155.627L589.884,155.651L591.937,159.055L591.416,160.451L592.414,161.83L593.648,162.26L592.862,163.689L593.509,165.39L594.829,165.679L596.553,166.951L596.646,168.083L598.732,169.021L597.624,170.813L595.497,172.985L594.939,174.018L593.033,175.476L593.701,177.871L593.526,179.647L594.279,180.469L594.32,181.291L593.591,181.378L593.285,182.534L592.051,183.228L591.587,185.347Z" stroke="#333" stroke-width="2" stroke-dasharray="none" fill="none"></path></g></svg>