<svg width="888" height="433"><g><path d="M522.667,225.294L522.307,228.032L522.945,229.272L524.765,229.904L525.622,229.474L527.914,229.425L528.634,230.759L531.679,228.35L530.714,226.797L531.462,226.19L531.964,226.934L531.681,227.805L533.077,227.359L533.503,227.975L531.699,230.556L531.066,232.816L530.349,232.696L529.555,234.261L530.691,235.278L530.484,236.186L531.005,236.459L532.153,236.009L532.072,235.335L533.205,234.803L534.318,235.856L536.436,235.381L538.319,235.36L539.159,236.459L538.998,237.504L540.963,238.136L541.55,239.189L542.41,238.367L546.754,238.483L547.892,238.834L549.377,238.789L550.181,239.367L552.886,239.119L554.058,239.623L554.104,240.689L555.064,242.948L556.013,243.431L556.217,244.2L557.792,243.919L558.369,244.679L558.463,245.831L560.474,245.658L562.437,246.967L563.447,246.277L563.919,244.947L564.611,245.439L565.229,246.657L564.613,248.528L565.907,249.26L565.55,250.016L566.193,251.602L571.236,253.593L571.448,253.812L571.604,258.789L571.44,259.813L566.239,259.978L565.826,262.874L565.443,262.56L555.025,265.943L554.244,270.102L552.616,274.01L545.302,279.169L535.142,286.154L532.771,290.049L530.403,294.432L529.272,297.976L528.7,302.036L529.014,307.881L530.586,313.238L531.207,317.546L531.548,324.775L532.077,326.076L540.078,328.257L540.3,329.963L539.047,333.949L535.879,335.085L532.86,342.664L533.154,344.469L532.934,346.84L530.579,350.719L528.077,350.81L525.799,350.331L517.627,347.472L515.784,348.703L512.686,352.681L500.847,355.192L494.928,355.415L492.739,357.121L492.805,366.832L494.313,369.377L497.521,370.897L508.34,372.636L509.713,373.458L510.631,375.251L510.534,388.241L510.164,390.872L508.337,393.049L494.737,397.762L493.328,399.204L492.014,401.909L491.412,405.891L480.718,407.853L476.142,408.997L475.527,408.225L474.091,408.022L473.223,409.48L472.526,409.976L473.067,411.459L470.755,412.132L469.826,412.017L470.334,410.728L469.642,410.79L469.754,409.522L468.366,409.828L467.458,408.964L466.284,408.952L465.824,408.01L464.41,408.584L461.315,408.171L461.8,409.542L460.776,410.179L459.921,409.613L452.574,412L449.402,414.573L448.365,413.776L446.704,415.201L448.21,415.891L445.783,418.436L440.658,420.794L440.625,416.536L437.971,416.949L438.591,419.402L437.225,420.538L437.169,421.571L436.406,420.753L432.364,420.827L430.575,422.492L429.237,423L428.737,422.752L428.446,420.827L427.665,419.179L426.098,419.13L426.216,421.356L423.72,421.918L421.173,422.723L420.826,421.389L418.878,422.855L417.62,420.286L417.355,420.27L416.293,417.436L416.834,417.432L420.601,416.23L420.405,415.511L416.091,416.878L415.989,415.862L417.406,413.446L419.534,412.715L419.243,411.728L420.073,411.583L419.96,410.315L419.401,408.997L417.628,407.828L415.882,407.696L415.482,406.556L414.65,406.544L415.762,404.809L413.59,404.912L414.458,403.739L414.583,402.285L413.601,401.765L412.059,401.992L411.319,402.768L410.814,405.09L409.487,405.176L409.594,405.957L408.925,407.052L406.871,407.18L406.266,408.341L405.845,407.944L404.482,407.931L402.698,408.679L402.364,408.171L399.692,408.055L399.638,410.075L399.026,410.724L397.275,411.372L396.93,412.624L394.707,412.335L394.154,412.872L393.755,414.805L391.864,414.937L391.933,415.957L389.744,415.47L389.606,414.553L388.766,413.657L389.532,413.396L389.494,412.219L387.682,412.351L387.513,410.786L384.734,410.542L384.458,408.287L383.363,403.727L382.656,403.727L382.705,402.909L381.733,402.872L381.005,401.851L381.87,401.496L381.819,399.278L382.935,394.416L384.096,392.909L383.175,392.958L383.198,392.351L381.5,392.037L381.222,391.446L379.665,391.566L379.813,390.042L378.627,391.025L378.667,389.588L379.112,387.861L379.793,386.857L379.237,386.684L374.242,388.15L374.002,390.67L371.835,390.554L369.937,390.108L370.241,389.278L362.104,390.757L361.359,390.748L361.055,391.649L358.279,391.678L357.523,391.273L357.62,393.049L355.816,393.157L356.474,391.397L354.433,391.723L353.103,392.603L351.745,392.996L348.216,392.896L347.897,392.417L347.879,389.893L347.203,387.795L347.815,385.205L347.379,384.358L346.184,384.152L346.871,381.046L346.365,377.192L345.031,377.411L344.799,378.295L336.114,377.568L333.036,376.998L332.035,377.39L332.035,378.596L330.686,379.009L330.775,378.485L329.713,378.46L328.991,377.935L327.36,378.142L326.694,376.068L325.967,375.023L323.591,375.176L323.726,373.094L324.532,368.918L322.843,368.765L322.927,367.997L321.906,367.886L322.674,365.056L323.491,365.168L323.552,364.482L322.549,364.329L323.162,362.859L322.121,362.442L323.394,360.104L323.58,358.199L324.114,358.249L324.512,356.597L323.113,356.527L322.986,355.717L323.54,351.727L319.234,351.467L319.086,340.715L316.396,340.723L316.417,332.309L316.766,332.288L316.802,330.574L317.938,330.591L318.338,329.62L319.14,326.344L319.219,323.912L319.655,323.944L320.265,321.792L321.447,321.185L321.528,320.52L322.475,320.467L323.432,317.91L324.384,317.282L324.736,314.994L325.152,315.051L325.477,312.668L325.219,311.206L325.995,310.706L326.046,308.178L324.609,307.484L324.614,306.406L325.53,303.659L326.306,303.597L328.613,304.49L328.955,303.63L329.708,303.874L330.185,302.899L330.226,301.685L331.206,301.474L331.303,300.846L333.156,301.251L332.959,302.201L330.869,302.354L330.555,303.688L331.392,303.085L333.136,302.664L334.189,303.515L337.255,303.507L337.818,304.518L339.602,303.849L341.608,303.882L345.049,303.597L345.023,302.879L347.154,302.602L346.83,301.404L347.545,301.181L346.822,298.913L348.313,298.265L349.002,298.475L349.254,296.968L349.967,297.129L350.725,295.295L351.393,295.423L351.865,293.643L352.84,293.812L353.621,290.875L354.28,290.883L354.571,288.95L356.109,289.388L356.939,287.116L357.393,286.869L356.204,286.794L355.954,285.923L356.959,285.811L356.056,282.279L355.372,282.354L355.117,280.441L354.223,279.326L351.35,278.364L346.858,278.624L346.057,277.686L346.039,273.82L345.549,273.456L345.779,271.738L345.567,270.825L345.562,267.054L345.11,266.025L344.411,266.079L344.173,263.58L347.157,263.093L347.902,263.386L347.708,260.09L348.611,260.094L348.782,261.168L349.392,261.028L349.599,262.234L350.201,261.453L351.1,261.577L350.699,260.705L350.969,259.826L349.834,259.442L349.65,257.545L349.181,258.004L348.091,257.455L347.93,254.32L348.491,253.948L347.154,250.569L348.035,250.313L347.739,247.199L347.294,245.228L346.258,245.352L345.569,244.889L345.444,243.721L346.263,243.588L346.457,242.498L349.517,241.8L349.117,239.776L350.056,239.627L350.497,237.496L350.053,235.29L350.577,235.166L350.53,233.836L349.025,233.229L347.93,233.588L347.292,233.088L347.027,231.717L347.346,230.284L347.986,230.309L347.711,229.42L346.986,229.139L345.01,229.941L345.263,231.069L344.543,231.539L342.928,233.518L342.545,232.477L341.756,233.216L339.174,233.667L338.035,229.04L339.985,228.425L340.251,227.078L338.737,227.648L337.563,226.917L337.096,225.24L338.15,225.381L340.754,225.1L340.634,224.179L341.425,223.295L340.815,220.961L341.154,220.251L340.284,219.519L340.098,218.148L341.06,217.673L340.858,216.261L341.22,215.48L342.014,215.748L343.454,215.43L343.558,214.699L345.11,212.902L345.83,212.667L345.776,211.374L347.029,212.138L347.95,210.391L346.639,209.742L345.5,209.837L344.12,208.251L342.555,208.726L342.571,209.391L341.251,209.152L339.796,210.164L338.776,209.404L338.717,207.685L336.645,206.211L335.626,206.438L335.083,207.698L333.664,206.719L332.929,207.4L332.245,205.686L333.304,206.479L333.319,204.843L332.638,203.906L332.112,203.993L331.834,202.886L330.885,202.762L331.591,201.271L333.518,200.932L333.403,200.403L335.797,199.924L335.7,199.251L337.581,198.743L336.933,195.289L335.756,194.253L336.77,194.063L336.315,191.948L338.513,191.456L338.028,187.793L338.505,187.834L337.821,186.058L337.14,186.413L337.372,187.507L336.632,187.247L334.853,187.425L334.253,187.053L334.047,185.508L333.398,185.57L332.796,183.303L331.336,182.576L331.635,180.866L332.252,180.75L332.099,179.891L333.329,178.193L333.1,177.908L335.044,177.032L335.277,175.81L335.874,175.694L333.738,173.468L333.291,171.448L334.529,170.589L335.246,170.708L334.376,169.738L334.669,169.25L333.661,169.097L335.532,167.957L335.05,168.957L335.22,169.965L336.308,170.039L335.953,168.969L336.645,168.474L336.014,166.19L337.357,165.438L338.194,165.884L338.393,166.689L340.34,165.925L340.1,164.83L340.912,164.653L338.643,161.989L339.123,161.497L338.742,160.75L340.182,159.862L339.996,159.308L341.348,159.275L341.045,158.474L343.349,157.177L343.076,153.587L345.056,153.657L345.684,152.906L347.44,152.65L349.331,151.679L350.822,151.993L353.736,151.175L353.463,150.142L354.18,149.845L353.603,148.61L354.851,148.292L354.606,146.788L355.655,145.818L355.665,144.099L358.58,144.029L359.032,144.793L359.568,144.095L362.043,143.992L362.385,145.743L361.579,144.971L360.864,146.846L360.782,148.882L362.158,150.997L361.032,151.373L361.073,152.794L363.296,153.905L362.888,155.756L363.34,157.61L364.585,159.436L365.904,158.143L366.65,159.13L366.502,161.097L366.966,161.2L369.388,159.948L372.111,159.213L372.764,158.218L374.247,156.879L377.511,157.705L378.966,158.37L382.011,159.197L386.058,160.824L387.878,161.902L390.257,162.84L390.698,163.934L392.408,164.12L392.461,164.86L395.169,165.934L394.802,164.727L396.864,165.665L397.617,164.963L399.082,164.558L400.263,163.72L399.533,163.087L400.419,162.418L400.975,161.142L403.772,161.105L403.806,160.019L404.724,159.589L404.684,158.94L403.066,158.321L403.101,157.433L402.116,157.445L402.012,155.723L401.154,155.128L401.287,153.756L402.236,153.794L402.514,152.261L403.262,152.166L402.81,148.866L403.308,148.283L402.92,143.665L403.372,143.633L403.081,142.352L402.167,142.769L402.032,141.794L403.091,141.361L402.548,140.237L401.493,140.576L401.146,139.944L400.08,140.105L400.475,138.515L400.184,136.784L401.455,136.747L401.43,136.123L402.512,136.367L401.713,133.897L403.818,132.98L406.011,132.971L406.424,132.021L407.532,132.22L407.932,131.034L409.208,131.018L409.989,130.051L407.422,127.131L405.237,125.499L404.883,122.348L402.82,121.29L400.891,122.009L400.825,119.555L401.675,119.489L400.672,116.928L401.19,115.859L401.835,116.846L402.713,116.507L402.706,115.4L407.1,114.756L407.955,114.97L407.407,113.112L408.854,112.744L409.007,113.231L410.263,112.645L410.467,113.525L411.225,113.302L412.661,113.711L412.766,114.553L413.812,113.632L415.908,112.909L419.639,113.917L418.7,112.74L419.325,110.766L420.152,110.588L417.801,106.263L416.362,106.412L415.816,107.552L414.68,107.279L414.106,108.291L412.649,107.366L411.36,107.436L411.064,106.639L408.716,105.957L407.447,106.003L406.2,104.946L405.14,105.231L405.317,104.264L404.717,103.855L404.291,104.846L402.946,104.884L402.647,104.33L403.961,103.322L403.339,102.232L402.895,103.33L402.234,103.384L401.897,102.459L400.94,101.93L400.171,102.694L399.886,102.244L401.062,99.34L399.316,97.634L399.587,96.217L400.906,95.598L401.141,94.466L398.497,93.888L398.074,92.116L396.984,91.909L397.117,91.418L399.457,90.782L398.804,88.601L399.618,87.89L400.429,88.353L400.771,87.399L398.908,85.135L399.676,85.726L401.105,84.276L402.211,83.958L402.565,83.148L402.277,81.244L403.693,81.261L404.357,82.231L405.059,80.641L404.862,77.775L406.646,77.403L407.215,76.659L407.169,75.519L408.527,73.983L408.08,71.232L408.443,69.6L407.606,68.084L407.769,66.907L406.587,65.854L406.684,64.21L406.401,61.921L406.758,60.471L405.761,59.183L405.454,57.712L405.886,56.837L407.381,57.105L407.445,55.928L409.356,56.25L410.63,56.048L412.24,56.391L413.187,55.837L412.59,54.738L411.722,54.11L411.329,52.702L410.719,52.008L411.722,51.306L410.954,49.91L410.998,48.476L413.473,48.964L413.465,47.997L414.259,47.58L414.336,46.791L415.647,45.581L416.066,44.755L417.408,44.391L418.141,43.59L419.32,44.379L420.234,44.164L421.443,44.651L422.025,45.874L422.86,46.217L423.291,45.354L423.059,44.333L424.937,42.4L427.134,43.007L427.127,42.417L428.242,41.269L429.11,38.555L430.266,37.819L431.169,38.175L432.055,37.634L433.494,38.852L433.433,39.36L436.904,38.666L437.34,37.828L438.272,37.584L438.374,36.568L437.177,36.626L438.07,35.696L437.402,35.213L439.076,33.635L438.458,31.843L437.289,30.021L437.782,29.525L439.499,29.901L439.714,28.786L440.62,29.695L441.219,28.823L442.159,28.877L442.947,29.827L442.83,28.732L445.198,29.224L444.902,28.559L446.709,27.08L447.37,27.175L447.924,26.126L446.048,24.792L444.287,25.94L443.488,26.043L443.542,24.213L443.008,24.329L442.636,23.313L443.159,21.925L443.366,22.47L445.19,22.214L443.787,21.107L442.424,20.512L442.266,18.468L445.298,17.716L444.601,16.163L446.017,14.391L447.043,14.82L447.485,15.618L448.651,14.283L449.366,13.974L448.855,12.334L449.514,11.004L451.504,11.21L452.112,11.59L452.903,11.202L453.781,10L455.93,10.128L457.492,11.185L458.027,11.144L460.171,12.416L460.409,12.929L461.723,12.776L462.282,14.358L463.206,15.039L465.125,15.428L466.217,16.349L467.968,16.225L469.79,15.754L470.377,15.915L474.042,14.944L474.846,16.146L475.517,15.742L477.357,15.898L478.34,16.782L478.745,18.311L478.281,19.628L477.395,20.339L477.306,21.76L478.296,22.024L478.967,22.97L478.858,24.3L479.478,25.044L479.031,25.502L479.639,28.315L480.254,28.472L481.088,29.996L481.938,30.847L484.299,30.132L485.95,32.871L486.545,33.437L487.571,33.478L487.545,35.023L488.122,36.196L489.809,35.882L490.153,37.617L491.021,38.584L490.845,39.753L493.504,40.715L493.195,41.153L494.066,44.999L494.895,45.391L493.522,46.353L493.157,47.985L492.512,48.575L493.397,49.786L494.941,49.426L495.505,48.274L496.049,48.518L496.878,47.415L498.088,49.571L498.157,52.033L498.986,51.165L500.665,51.855L501.168,49.071L502.21,48.89L503.616,49.55L504.356,49.117L505.083,51.12L507.01,52.582L508.613,52.421L509.24,53.198L511.252,52.896L512.581,52.066L513.321,52.669L513.862,54.206L512.911,54.197L513.081,55.341L513.814,56.006L515.621,55.977L515.891,57.055L517.188,57.733L516.591,59.488L515.491,60.418L513.832,61.314L511.879,60.55L511.693,63.747L511.096,64.524L511.292,65.346L511.172,67.675L513.37,69.65L513.862,69.014L513.755,67.75L514.276,67.13L515.537,67.551L516.098,66.42L518.372,66.428L518.694,68.444L519.025,67.803L520.158,68.377L520.123,69.142L521.12,69.712L520.347,70.819L521.008,73.016L520.077,73.735L519.166,76.796L519.27,78.708L518.27,80.455L516.438,79.514L515.858,79.749L514.819,78.894L513.485,80.744L512.67,80.521L510.698,78.741L509.251,79.286L508.084,78.964L507.378,77.118L506.528,77.134L504.991,75.92L504.131,75.631L502.064,75.697L500.803,76.122L500.178,77.233L499.507,77.143L498.124,78.382L495.959,78.394L494.885,79.03L491.228,79.014L490.069,79.877L487.836,79.398L486.223,78.266L487.012,77.407L486.958,76.486L486.129,76.465L484.646,75.205L484.008,73.735L482.671,73.508L482.053,72.971L481.188,73.64L480.111,73.71L479.524,73.078L478.549,73.4L477.806,74.412L476.956,73.95L477.125,73.264L474.124,72.463L473.606,73.561L472.324,72.843L472.365,74.66L473.978,76.758L474.175,77.882L472.598,79.373L472.097,81.637L471.748,81.624L471.464,83.855L470.405,83.888L469.849,85.288L468.963,84.85L468.088,85.28L467.371,86.655L467.621,88.469L470.071,89.464L469.423,90.645L469.405,91.666L467.981,91.467L465.931,92.066L466.153,92.876L467.838,92.636L467.672,94.144L467.976,95.049L466.674,94.503L466.016,95.528L466.628,95.701L467.172,98.237L468.44,97.907L468.813,98.857L469.231,103.735L470.88,106.28L471.694,108.49L472.266,108.275L473.685,110.294L473.876,109.452L474.404,110.063L474.32,111.439L473.378,111.868L473.611,113.128L472.284,112.604L472.957,115.842L474.458,115.317L476.26,118.39L476.826,121.199L478.105,121.393L476.63,122.43L475.55,122.339L475.591,123.967L475.262,124.999L474.417,125.85L473.95,127.044L475.586,128.201L474.746,130.27L473.947,130.096L472.638,130.886L473.419,130.84L474.445,131.774L475.701,130.369L476.523,132.083L477.982,131.778L479.1,132.236L479.378,132.922L480.583,133.698L483.304,134.384L482.482,135.144L483.592,136.718L482.836,137.057L482.183,136.387L481.79,138.122L481.068,137.92L480.963,138.981L479.869,139.076L479.971,139.973L481.287,140.262L480.325,140.906L481.903,140.898L482.635,141.567L482.857,143.034L484.534,144.347L486.876,144.198L488.015,144.938L489.176,144.768L490.557,145.425L491.013,146.445L492.083,145.334L492.905,145.747L493.282,146.921L492.34,148.424L493.458,149.225L493.624,150.076L494.872,149.857L494.079,150.981L495.393,151.898L494.796,153.319L496.079,154L496.919,153.699L496.771,155.045L496.028,155.979L496.809,157.499L496.358,158.804L496.572,159.601L495.73,161.208L494.076,160.518L493.757,161.572L494.025,162.753L493.642,163.257L492.31,162.827L491.968,163.141L492.463,164.294L491.616,165.264L491.848,166.941L490.118,166.722L489.776,168.581L488.681,169.42L487.841,168.495L487.657,169.292L488.199,172.105L489.059,171.468L490.128,169.502L490.998,169.172L491.059,170.638L491.478,171.754L493.665,171.497L494.561,172.96L494.548,173.654L493.606,175.14L494.538,176.194L495.508,176.078L497.544,174.455L497.948,172.753L499.423,172.518L500.219,172.955L501.671,174.698L503.976,175.81L504.486,176.466L504.425,177.701L503.639,178.519L502.365,178.664L500.768,177.582L500.181,178.751L500.918,179.949L502.079,180.485L503.567,180.44L504.461,181.031L504.511,182.704L504.226,183.877L504.537,185.174L505.872,187.123L507.291,185.897L509.067,185.657L510.024,184.604L511.31,182.604L509.656,179.63L509.6,177.97L509.968,176.405L511.93,176.314L512.862,175.925L513.242,174.678L511.874,172.658L515.603,170.316L517.052,170.287L519.668,170.758L520.531,169.816L522.039,169.643L524.938,171.175L526.666,172.315L529.07,172.604L530.517,172.237L531.334,172.695L531.73,171.952L532.452,172.018L534.506,170.845L537.482,172.485L539.077,172.146L540.437,172.633L543.262,174.236L546.123,175.405L546.861,176.38L546.323,177.838L545.131,179.023L543.842,181.142L543.689,182.679L542.972,184.182L542.316,184.228L542.316,185.198L541.484,185.901L541.466,187.115L542.428,187.631L542.247,188.809L542.857,189.234L542.78,190.519L542.173,191.531L540.205,192.092L539.914,197.061L539.041,197.611L539.817,197.933L540.42,200.085L540.131,201.151L538.276,201.965L537.898,202.547L536.349,202.444L535.599,205.434L534.894,205.426L535.18,215.988L530.522,216.834L530.722,218.326L532.835,217.999L533.422,219.49L533.044,222.531L534.024,224.084L532.582,225.248L531.523,223.477L530.941,223.898L528.999,224.323L525.62,224.414ZM515.197,218.64L509.884,216.232L502.825,216.95L503.312,221.494L497.835,222.043L497.386,217.516L497.064,215.876L496.059,215.785L494.415,216.43L494.658,216.975L492.249,217.376L491.942,218.759L490.809,219.164L490.674,217.71L490.028,217.751L489.898,216.723L486.731,217.07L486.764,216.107L486.2,215.633L486.159,214.637L484.335,214.059L484.411,214.806L483.538,215.141L482.316,217.471L479.473,217.776L478.648,217.677L478.715,218.722L478.189,219.47L476.617,219.652L476.729,220.494L475.369,220.606L476.158,222.304L475.216,223.039L473.544,223.361L473.761,224.162L472.595,224.315L471.919,225.121L472.281,227.632L471.699,227.942L470.808,226.909L470.198,227.165L470.643,228.202L469.201,229.201L470.78,231.589L471.6,231.213L472.087,233.865L478.388,232.754L483.189,231.172L483.607,232.155L485.381,231.696L485.81,232.622L487.208,232.316L487.333,233.857L490.712,232.469L491.991,232.328L492.001,233.567L491.133,234.369L492.075,235.418L492.81,237.586L493.627,237.735L493.627,239.416L496.074,239.012L497.105,237.244L497.412,229.053L500.533,228.718L501.408,229.024L504.039,230.589L511.259,229.842L518.773,224.393L518.357,220.106Z" fill="#eee" opacity="0.5"></path><path d="M522.667,225.294L522.307,228.032L522.945,229.272L524.765,229.904L525.622,229.474L527.914,229.425L528.634,230.759L531.679,228.35L530.714,226.797L531.462,226.19L531.964,226.934L531.681,227.805L533.077,227.359L533.503,227.975L531.699,230.556L531.066,232.816L530.349,232.696L529.555,234.261L530.691,235.278L530.484,236.186L531.005,236.459L532.153,236.009L532.072,235.335L533.205,234.803L534.318,235.856L536.436,235.381L538.319,235.36L539.159,236.459L538.998,237.504L540.963,238.136L541.55,239.189L542.41,238.367L546.754,238.483L547.892,238.834L549.377,238.789L550.181,239.367L552.886,239.119L554.058,239.623L554.104,240.689L555.064,242.948L556.013,243.431L556.217,244.2L557.792,243.919L558.369,244.679L558.463,245.831L560.474,245.658L562.437,246.967L563.447,246.277L563.919,244.947L564.611,245.439L565.229,246.657L564.613,248.528L565.907,249.26L565.55,250.016L566.193,251.602L571.236,253.593L571.448,253.812L571.604,258.789L571.44,259.813L566.239,259.978L565.826,262.874L565.443,262.56L555.025,265.943L554.244,270.102L552.616,274.01L545.302,279.169L535.142,286.154L532.771,290.049L530.403,294.432L529.272,297.976L528.7,302.036L529.014,307.881L530.586,313.238L531.207,317.546L531.548,324.775L532.077,326.076L540.078,328.257L540.3,329.963L539.047,333.949L535.879,335.085L532.86,342.664L533.154,344.469L532.934,346.84L530.579,350.719L528.077,350.81L525.799,350.331L517.627,347.472L515.784,348.703L512.686,352.681L500.847,355.192L494.928,355.415L492.739,357.121L492.805,366.832L494.313,369.377L497.521,370.897L508.34,372.636L509.713,373.458L510.631,375.251L510.534,388.241L510.164,390.872L508.337,393.049L494.737,397.762L493.328,399.204L492.014,401.909L491.412,405.891L480.718,407.853L476.142,408.997L475.527,408.225L474.091,408.022L473.223,409.48L472.526,409.976L473.067,411.459L470.755,412.132L469.826,412.017L470.334,410.728L469.642,410.79L469.754,409.522L468.366,409.828L467.458,408.964L466.284,408.952L465.824,408.01L464.41,408.584L461.315,408.171L461.8,409.542L460.776,410.179L459.921,409.613L452.574,412L449.402,414.573L448.365,413.776L446.704,415.201L448.21,415.891L445.783,418.436L440.658,420.794L440.625,416.536L437.971,416.949L438.591,419.402L437.225,420.538L437.169,421.571L436.406,420.753L432.364,420.827L430.575,422.492L429.237,423L428.737,422.752L428.446,420.827L427.665,419.179L426.098,419.13L426.216,421.356L423.72,421.918L421.173,422.723L420.826,421.389L418.878,422.855L417.62,420.286L417.355,420.27L416.293,417.436L416.834,417.432L420.601,416.23L420.405,415.511L416.091,416.878L415.989,415.862L417.406,413.446L419.534,412.715L419.243,411.728L420.073,411.583L419.96,410.315L419.401,408.997L417.628,407.828L415.882,407.696L415.482,406.556L414.65,406.544L415.762,404.809L413.59,404.912L414.458,403.739L414.583,402.285L413.601,401.765L412.059,401.992L411.319,402.768L410.814,405.09L409.487,405.176L409.594,405.957L408.925,407.052L406.871,407.18L406.266,408.341L405.845,407.944L404.482,407.931L402.698,408.679L402.364,408.171L399.692,408.055L399.638,410.075L399.026,410.724L397.275,411.372L396.93,412.624L394.707,412.335L394.154,412.872L393.755,414.805L391.864,414.937L391.933,415.957L389.744,415.47L389.606,414.553L388.766,413.657L389.532,413.396L389.494,412.219L387.682,412.351L387.513,410.786L384.734,410.542L384.458,408.287L383.363,403.727L382.656,403.727L382.705,402.909L381.733,402.872L381.005,401.851L381.87,401.496L381.819,399.278L382.935,394.416L384.096,392.909L383.175,392.958L383.198,392.351L381.5,392.037L381.222,391.446L379.665,391.566L379.813,390.042L378.627,391.025L378.667,389.588L379.112,387.861L379.793,386.857L379.237,386.684L374.242,388.15L374.002,390.67L371.835,390.554L369.937,390.108L370.241,389.278L362.104,390.757L361.359,390.748L361.055,391.649L358.279,391.678L357.523,391.273L357.62,393.049L355.816,393.157L356.474,391.397L354.433,391.723L353.103,392.603L351.745,392.996L348.216,392.896L347.897,392.417L347.879,389.893L347.203,387.795L347.815,385.205L347.379,384.358L346.184,384.152L346.871,381.046L346.365,377.192L345.031,377.411L344.799,378.295L336.114,377.568L333.036,376.998L332.035,377.39L332.035,378.596L330.686,379.009L330.775,378.485L329.713,378.46L328.991,377.935L327.36,378.142L326.694,376.068L325.967,375.023L323.591,375.176L323.726,373.094L324.532,368.918L322.843,368.765L322.927,367.997L321.906,367.886L322.674,365.056L323.491,365.168L323.552,364.482L322.549,364.329L323.162,362.859L322.121,362.442L323.394,360.104L323.58,358.199L324.114,358.249L324.512,356.597L323.113,356.527L322.986,355.717L323.54,351.727L319.234,351.467L319.086,340.715L316.396,340.723L316.417,332.309L316.766,332.288L316.802,330.574L317.938,330.591L318.338,329.62L319.14,326.344L319.219,323.912L319.655,323.944L320.265,321.792L321.447,321.185L321.528,320.52L322.475,320.467L323.432,317.91L324.384,317.282L324.736,314.994L325.152,315.051L325.477,312.668L325.219,311.206L325.995,310.706L326.046,308.178L324.609,307.484L324.614,306.406L325.53,303.659L326.306,303.597L328.613,304.49L328.955,303.63L329.708,303.874L330.185,302.899L330.226,301.685L331.206,301.474L331.303,300.846L333.156,301.251L332.959,302.201L330.869,302.354L330.555,303.688L331.392,303.085L333.136,302.664L334.189,303.515L337.255,303.507L337.818,304.518L339.602,303.849L341.608,303.882L345.049,303.597L345.023,302.879L347.154,302.602L346.83,301.404L347.545,301.181L346.822,298.913L348.313,298.265L349.002,298.475L349.254,296.968L349.967,297.129L350.725,295.295L351.393,295.423L351.865,293.643L352.84,293.812L353.621,290.875L354.28,290.883L354.571,288.95L356.109,289.388L356.939,287.116L357.393,286.869L356.204,286.794L355.954,285.923L356.959,285.811L356.056,282.279L355.372,282.354L355.117,280.441L354.223,279.326L351.35,278.364L346.858,278.624L346.057,277.686L346.039,273.82L345.549,273.456L345.779,271.738L345.567,270.825L345.562,267.054L345.11,266.025L344.411,266.079L344.173,263.58L347.157,263.093L347.902,263.386L347.708,260.09L348.611,260.094L348.782,261.168L349.392,261.028L349.599,262.234L350.201,261.453L351.1,261.577L350.699,260.705L350.969,259.826L349.834,259.442L349.65,257.545L349.181,258.004L348.091,257.455L347.93,254.32L348.491,253.948L347.154,250.569L348.035,250.313L347.739,247.199L347.294,245.228L346.258,245.352L345.569,244.889L345.444,243.721L346.263,243.588L346.457,242.498L349.517,241.8L349.117,239.776L350.056,239.627L350.497,237.496L350.053,235.29L350.577,235.166L350.53,233.836L349.025,233.229L347.93,233.588L347.292,233.088L347.027,231.717L347.346,230.284L347.986,230.309L347.711,229.42L346.986,229.139L345.01,229.941L345.263,231.069L344.543,231.539L342.928,233.518L342.545,232.477L341.756,233.216L339.174,233.667L338.035,229.04L339.985,228.425L340.251,227.078L338.737,227.648L337.563,226.917L337.096,225.24L338.15,225.381L340.754,225.1L340.634,224.179L341.425,223.295L340.815,220.961L341.154,220.251L340.284,219.519L340.098,218.148L341.06,217.673L340.858,216.261L341.22,215.48L342.014,215.748L343.454,215.43L343.558,214.699L345.11,212.902L345.83,212.667L345.776,211.374L347.029,212.138L347.95,210.391L346.639,209.742L345.5,209.837L344.12,208.251L342.555,208.726L342.571,209.391L341.251,209.152L339.796,210.164L338.776,209.404L338.717,207.685L336.645,206.211L335.626,206.438L335.083,207.698L333.664,206.719L332.929,207.4L332.245,205.686L333.304,206.479L333.319,204.843L332.638,203.906L332.112,203.993L331.834,202.886L330.885,202.762L331.591,201.271L333.518,200.932L333.403,200.403L335.797,199.924L335.7,199.251L337.581,198.743L336.933,195.289L335.756,194.253L336.77,194.063L336.315,191.948L338.513,191.456L338.028,187.793L338.505,187.834L337.821,186.058L337.14,186.413L337.372,187.507L336.632,187.247L334.853,187.425L334.253,187.053L334.047,185.508L333.398,185.57L332.796,183.303L331.336,182.576L331.635,180.866L332.252,180.75L332.099,179.891L333.329,178.193L333.1,177.908L335.044,177.032L335.277,175.81L335.874,175.694L333.738,173.468L333.291,171.448L334.529,170.589L335.246,170.708L334.376,169.738L334.669,169.25L333.661,169.097L335.532,167.957L335.05,168.957L335.22,169.965L336.308,170.039L335.953,168.969L336.645,168.474L336.014,166.19L337.357,165.438L338.194,165.884L338.393,166.689L340.34,165.925L340.1,164.83L340.912,164.653L338.643,161.989L339.123,161.497L338.742,160.75L340.182,159.862L339.996,159.308L341.348,159.275L341.045,158.474L343.349,157.177L343.076,153.587L345.056,153.657L345.684,152.906L347.44,152.65L349.331,151.679L350.822,151.993L353.736,151.175L353.463,150.142L354.18,149.845L353.603,148.61L354.851,148.292L354.606,146.788L355.655,145.818L355.665,144.099L358.58,144.029L359.032,144.793L359.568,144.095L362.043,143.992L362.385,145.743L361.579,144.971L360.864,146.846L360.782,148.882L362.158,150.997L361.032,151.373L361.073,152.794L363.296,153.905L362.888,155.756L363.34,157.61L364.585,159.436L365.904,158.143L366.65,159.13L366.502,161.097L366.966,161.2L369.388,159.948L372.111,159.213L372.764,158.218L374.247,156.879L377.511,157.705L378.966,158.37L382.011,159.197L386.058,160.824L387.878,161.902L390.257,162.84L390.698,163.934L392.408,164.12L392.461,164.86L395.169,165.934L394.802,164.727L396.864,165.665L397.617,164.963L399.082,164.558L400.263,163.72L399.533,163.087L400.419,162.418L400.975,161.142L403.772,161.105L403.806,160.019L404.724,159.589L404.684,158.94L403.066,158.321L403.101,157.433L402.116,157.445L402.012,155.723L401.154,155.128L401.287,153.756L402.236,153.794L402.514,152.261L403.262,152.166L402.81,148.866L403.308,148.283L402.92,143.665L403.372,143.633L403.081,142.352L402.167,142.769L402.032,141.794L403.091,141.361L402.548,140.237L401.493,140.576L401.146,139.944L400.08,140.105L400.475,138.515L400.184,136.784L401.455,136.747L401.43,136.123L402.512,136.367L401.713,133.897L403.818,132.98L406.011,132.971L406.424,132.021L407.532,132.22L407.932,131.034L409.208,131.018L409.989,130.051L407.422,127.131L405.237,125.499L404.883,122.348L402.82,121.29L400.891,122.009L400.825,119.555L401.675,119.489L400.672,116.928L401.19,115.859L401.835,116.846L402.713,116.507L402.706,115.4L407.1,114.756L407.955,114.97L407.407,113.112L408.854,112.744L409.007,113.231L410.263,112.645L410.467,113.525L411.225,113.302L412.661,113.711L412.766,114.553L413.812,113.632L415.908,112.909L419.639,113.917L418.7,112.74L419.325,110.766L420.152,110.588L417.801,106.263L416.362,106.412L415.816,107.552L414.68,107.279L414.106,108.291L412.649,107.366L411.36,107.436L411.064,106.639L408.716,105.957L407.447,106.003L406.2,104.946L405.14,105.231L405.317,104.264L404.717,103.855L404.291,104.846L402.946,104.884L402.647,104.33L403.961,103.322L403.339,102.232L402.895,103.33L402.234,103.384L401.897,102.459L400.94,101.93L400.171,102.694L399.886,102.244L401.062,99.34L399.316,97.634L399.587,96.217L400.906,95.598L401.141,94.466L398.497,93.888L398.074,92.116L396.984,91.909L397.117,91.418L399.457,90.782L398.804,88.601L399.618,87.89L400.429,88.353L400.771,87.399L398.908,85.135L399.676,85.726L401.105,84.276L402.211,83.958L402.565,83.148L402.277,81.244L403.693,81.261L404.357,82.231L405.059,80.641L404.862,77.775L406.646,77.403L407.215,76.659L407.169,75.519L408.527,73.983L408.08,71.232L408.443,69.6L407.606,68.084L407.769,66.907L406.587,65.854L406.684,64.21L406.401,61.921L406.758,60.471L405.761,59.183L405.454,57.712L405.886,56.837L407.381,57.105L407.445,55.928L409.356,56.25L410.63,56.048L412.24,56.391L413.187,55.837L412.59,54.738L411.722,54.11L411.329,52.702L410.719,52.008L411.722,51.306L410.954,49.91L410.998,48.476L413.473,48.964L413.465,47.997L414.259,47.58L414.336,46.791L415.647,45.581L416.066,44.755L417.408,44.391L418.141,43.59L419.32,44.379L420.234,44.164L421.443,44.651L422.025,45.874L422.86,46.217L423.291,45.354L423.059,44.333L424.937,42.4L427.134,43.007L427.127,42.417L428.242,41.269L429.11,38.555L430.266,37.819L431.169,38.175L432.055,37.634L433.494,38.852L433.433,39.36L436.904,38.666L437.34,37.828L438.272,37.584L438.374,36.568L437.177,36.626L438.07,35.696L437.402,35.213L439.076,33.635L438.458,31.843L437.289,30.021L437.782,29.525L439.499,29.901L439.714,28.786L440.62,29.695L441.219,28.823L442.159,28.877L442.947,29.827L442.83,28.732L445.198,29.224L444.902,28.559L446.709,27.08L447.37,27.175L447.924,26.126L446.048,24.792L444.287,25.94L443.488,26.043L443.542,24.213L443.008,24.329L442.636,23.313L443.159,21.925L443.366,22.47L445.19,22.214L443.787,21.107L442.424,20.512L442.266,18.468L445.298,17.716L444.601,16.163L446.017,14.391L447.043,14.82L447.485,15.618L448.651,14.283L449.366,13.974L448.855,12.334L449.514,11.004L451.504,11.21L452.112,11.59L452.903,11.202L453.781,10L455.93,10.128L457.492,11.185L458.027,11.144L460.171,12.416L460.409,12.929L461.723,12.776L462.282,14.358L463.206,15.039L465.125,15.428L466.217,16.349L467.968,16.225L469.79,15.754L470.377,15.915L474.042,14.944L474.846,16.146L475.517,15.742L477.357,15.898L478.34,16.782L478.745,18.311L478.281,19.628L477.395,20.339L477.306,21.76L478.296,22.024L478.967,22.97L478.858,24.3L479.478,25.044L479.031,25.502L479.639,28.315L480.254,28.472L481.088,29.996L481.938,30.847L484.299,30.132L485.95,32.871L486.545,33.437L487.571,33.478L487.545,35.023L488.122,36.196L489.809,35.882L490.153,37.617L491.021,38.584L490.845,39.753L493.504,40.715L493.195,41.153L494.066,44.999L494.895,45.391L493.522,46.353L493.157,47.985L492.512,48.575L493.397,49.786L494.941,49.426L495.505,48.274L496.049,48.518L496.878,47.415L498.088,49.571L498.157,52.033L498.986,51.165L500.665,51.855L501.168,49.071L502.21,48.89L503.616,49.55L504.356,49.117L505.083,51.12L507.01,52.582L508.613,52.421L509.24,53.198L511.252,52.896L512.581,52.066L513.321,52.669L513.862,54.206L512.911,54.197L513.081,55.341L513.814,56.006L515.621,55.977L515.891,57.055L517.188,57.733L516.591,59.488L515.491,60.418L513.832,61.314L511.879,60.55L511.693,63.747L511.096,64.524L511.292,65.346L511.172,67.675L513.37,69.65L513.862,69.014L513.755,67.75L514.276,67.13L515.537,67.551L516.098,66.42L518.372,66.428L518.694,68.444L519.025,67.803L520.158,68.377L520.123,69.142L521.12,69.712L520.347,70.819L521.008,73.016L520.077,73.735L519.166,76.796L519.27,78.708L518.27,80.455L516.438,79.514L515.858,79.749L514.819,78.894L513.485,80.744L512.67,80.521L510.698,78.741L509.251,79.286L508.084,78.964L507.378,77.118L506.528,77.134L504.991,75.92L504.131,75.631L502.064,75.697L500.803,76.122L500.178,77.233L499.507,77.143L498.124,78.382L495.959,78.394L494.885,79.03L491.228,79.014L490.069,79.877L487.836,79.398L486.223,78.266L487.012,77.407L486.958,76.486L486.129,76.465L484.646,75.205L484.008,73.735L482.671,73.508L482.053,72.971L481.188,73.64L480.111,73.71L479.524,73.078L478.549,73.4L477.806,74.412L476.956,73.95L477.125,73.264L474.124,72.463L473.606,73.561L472.324,72.843L472.365,74.66L473.978,76.758L474.175,77.882L472.598,79.373L472.097,81.637L471.748,81.624L471.464,83.855L470.405,83.888L469.849,85.288L468.963,84.85L468.088,85.28L467.371,86.655L467.621,88.469L470.071,89.464L469.423,90.645L469.405,91.666L467.981,91.467L465.931,92.066L466.153,92.876L467.838,92.636L467.672,94.144L467.976,95.049L466.674,94.503L466.016,95.528L466.628,95.701L467.172,98.237L468.44,97.907L468.813,98.857L469.231,103.735L470.88,106.28L471.694,108.49L472.266,108.275L473.685,110.294L473.876,109.452L474.404,110.063L474.32,111.439L473.378,111.868L473.611,113.128L472.284,112.604L472.957,115.842L474.458,115.317L476.26,118.39L476.826,121.199L478.105,121.393L476.63,122.43L475.55,122.339L475.591,123.967L475.262,124.999L474.417,125.85L473.95,127.044L475.586,128.201L474.746,130.27L473.947,130.096L472.638,130.886L473.419,130.84L474.445,131.774L475.701,130.369L476.523,132.083L477.982,131.778L479.1,132.236L479.378,132.922L480.583,133.698L483.304,134.384L482.482,135.144L483.592,136.718L482.836,137.057L482.183,136.387L481.79,138.122L481.068,137.92L480.963,138.981L479.869,139.076L479.971,139.973L481.287,140.262L480.325,140.906L481.903,140.898L482.635,141.567L482.857,143.034L484.534,144.347L486.876,144.198L488.015,144.938L489.176,144.768L490.557,145.425L491.013,146.445L492.083,145.334L492.905,145.747L493.282,146.921L492.34,148.424L493.458,149.225L493.624,150.076L494.872,149.857L494.079,150.981L495.393,151.898L494.796,153.319L496.079,154L496.919,153.699L496.771,155.045L496.028,155.979L496.809,157.499L496.358,158.804L496.572,159.601L495.73,161.208L494.076,160.518L493.757,161.572L494.025,162.753L493.642,163.257L492.31,162.827L491.968,163.141L492.463,164.294L491.616,165.264L491.848,166.941L490.118,166.722L489.776,168.581L488.681,169.42L487.841,168.495L487.657,169.292L488.199,172.105L489.059,171.468L490.128,169.502L490.998,169.172L491.059,170.638L491.478,171.754L493.665,171.497L494.561,172.96L494.548,173.654L493.606,175.14L494.538,176.194L495.508,176.078L497.544,174.455L497.948,172.753L499.423,172.518L500.219,172.955L501.671,174.698L503.976,175.81L504.486,176.466L504.425,177.701L503.639,178.519L502.365,178.664L500.768,177.582L500.181,178.751L500.918,179.949L502.079,180.485L503.567,180.44L504.461,181.031L504.511,182.704L504.226,183.877L504.537,185.174L505.872,187.123L507.291,185.897L509.067,185.657L510.024,184.604L511.31,182.604L509.656,179.63L509.6,177.97L509.968,176.405L511.93,176.314L512.862,175.925L513.242,174.678L511.874,172.658L515.603,170.316L517.052,170.287L519.668,170.758L520.531,169.816L522.039,169.643L524.938,171.175L526.666,172.315L529.07,172.604L530.517,172.237L531.334,172.695L531.73,171.952L532.452,172.018L534.506,170.845L537.482,172.485L539.077,172.146L540.437,172.633L543.262,174.236L546.123,175.405L546.861,176.38L546.323,177.838L545.131,179.023L543.842,181.142L543.689,182.679L542.972,184.182L542.316,184.228L542.316,185.198L541.484,185.901L541.466,187.115L542.428,187.631L542.247,188.809L542.857,189.234L542.78,190.519L542.173,191.531L540.205,192.092L539.914,197.061L539.041,197.611L539.817,197.933L540.42,200.085L540.131,201.151L538.276,201.965L537.898,202.547L536.349,202.444L535.599,205.434L534.894,205.426L535.18,215.988L530.522,216.834L530.722,218.326L532.835,217.999L533.422,219.49L533.044,222.531L534.024,224.084L532.582,225.248L531.523,223.477L530.941,223.898L528.999,224.323L525.62,224.414ZM515.197,218.64L509.884,216.232L502.825,216.95L503.312,221.494L497.835,222.043L497.386,217.516L497.064,215.876L496.059,215.785L494.415,216.43L494.658,216.975L492.249,217.376L491.942,218.759L490.809,219.164L490.674,217.71L490.028,217.751L489.898,216.723L486.731,217.07L486.764,216.107L486.2,215.633L486.159,214.637L484.335,214.059L484.411,214.806L483.538,215.141L482.316,217.471L479.473,217.776L478.648,217.677L478.715,218.722L478.189,219.47L476.617,219.652L476.729,220.494L475.369,220.606L476.158,222.304L475.216,223.039L473.544,223.361L473.761,224.162L472.595,224.315L471.919,225.121L472.281,227.632L471.699,227.942L470.808,226.909L470.198,227.165L470.643,228.202L469.201,229.201L470.78,231.589L471.6,231.213L472.087,233.865L478.388,232.754L483.189,231.172L483.607,232.155L485.381,231.696L485.81,232.622L487.208,232.316L487.333,233.857L490.712,232.469L491.991,232.328L492.001,233.567L491.133,234.369L492.075,235.418L492.81,237.586L493.627,237.735L493.627,239.416L496.074,239.012L497.105,237.244L497.412,229.053L500.533,228.718L501.408,229.024L504.039,230.589L511.259,229.842L518.773,224.393L518.357,220.106Z" stroke="#747569" stroke-width="1" stroke-dasharray="3,3" fill="none"></path><path d="M522.667,225.294L522.307,228.032L522.945,229.272L524.765,229.904L525.622,229.474L527.914,229.425L528.634,230.759L531.679,228.35L530.714,226.797L531.462,226.19L531.964,226.934L531.681,227.805L533.077,227.359L533.503,227.975L531.699,230.556L531.066,232.816L530.349,232.696L529.555,234.261L530.691,235.278L530.484,236.186L531.005,236.459L532.153,236.009L532.072,235.335L533.205,234.803L534.318,235.856L536.436,235.381L538.319,235.36L539.159,236.459L538.998,237.504L540.963,238.136L541.55,239.189L542.41,238.367L546.754,238.483L547.892,238.834L549.377,238.789L550.181,239.367L552.886,239.119L554.058,239.623L554.104,240.689L555.064,242.948L556.013,243.431L556.217,244.2L557.792,243.919L558.369,244.679L558.463,245.831L560.474,245.658L562.437,246.967L563.447,246.277L563.919,244.947L564.611,245.439L565.229,246.657L564.613,248.528L565.907,249.26L565.55,250.016L566.193,251.602L571.236,253.593L571.448,253.812L571.604,258.789L571.44,259.813L566.239,259.978L565.826,262.874L565.443,262.56L555.025,265.943L554.244,270.102L552.616,274.01L545.302,279.169L535.142,286.154L532.771,290.049L530.403,294.432L529.272,297.976L528.7,302.036L529.014,307.881L530.586,313.238L531.207,317.546L531.548,324.775L532.077,326.076L540.078,328.257L540.3,329.963L539.047,333.949L535.879,335.085L532.86,342.664L533.154,344.469L532.934,346.84L530.579,350.719L528.077,350.81L525.799,350.331L517.627,347.472L515.784,348.703L512.686,352.681L500.847,355.192L494.928,355.415L492.739,357.121L492.805,366.832L494.313,369.377L497.521,370.897L508.34,372.636L509.713,373.458L510.631,375.251L510.534,388.241L510.164,390.872L508.337,393.049L494.737,397.762L493.328,399.204L492.014,401.909L491.412,405.891L480.718,407.853L476.142,408.997L475.527,408.225L474.091,408.022L473.223,409.48L472.526,409.976L473.067,411.459L470.755,412.132L469.826,412.017L470.334,410.728L469.642,410.79L469.754,409.522L468.366,409.828L467.458,408.964L466.284,408.952L465.824,408.01L464.41,408.584L461.315,408.171L461.8,409.542L460.776,410.179L459.921,409.613L452.574,412L449.402,414.573L448.365,413.776L446.704,415.201L448.21,415.891L445.783,418.436L440.658,420.794L440.625,416.536L437.971,416.949L438.591,419.402L437.225,420.538L437.169,421.571L436.406,420.753L432.364,420.827L430.575,422.492L429.237,423L428.737,422.752L428.446,420.827L427.665,419.179L426.098,419.13L426.216,421.356L423.72,421.918L421.173,422.723L420.826,421.389L418.878,422.855L417.62,420.286L417.355,420.27L416.293,417.436L416.834,417.432L420.601,416.23L420.405,415.511L416.091,416.878L415.989,415.862L417.406,413.446L419.534,412.715L419.243,411.728L420.073,411.583L419.96,410.315L419.401,408.997L417.628,407.828L415.882,407.696L415.482,406.556L414.65,406.544L415.762,404.809L413.59,404.912L414.458,403.739L414.583,402.285L413.601,401.765L412.059,401.992L411.319,402.768L410.814,405.09L409.487,405.176L409.594,405.957L408.925,407.052L406.871,407.18L406.266,408.341L405.845,407.944L404.482,407.931L402.698,408.679L402.364,408.171L399.692,408.055L399.638,410.075L399.026,410.724L397.275,411.372L396.93,412.624L394.707,412.335L394.154,412.872L393.755,414.805L391.864,414.937L391.933,415.957L389.744,415.47L389.606,414.553L388.766,413.657L389.532,413.396L389.494,412.219L387.682,412.351L387.513,410.786L384.734,410.542L384.458,408.287L383.363,403.727L382.656,403.727L382.705,402.909L381.733,402.872L381.005,401.851L381.87,401.496L381.819,399.278L382.935,394.416L384.096,392.909L383.175,392.958L383.198,392.351L381.5,392.037L381.222,391.446L379.665,391.566L379.813,390.042L378.627,391.025L378.667,389.588L379.112,387.861L379.793,386.857L379.237,386.684L374.242,388.15L374.002,390.67L371.835,390.554L369.937,390.108L370.241,389.278L362.104,390.757L361.359,390.748L361.055,391.649L358.279,391.678L357.523,391.273L357.62,393.049L355.816,393.157L356.474,391.397L354.433,391.723L353.103,392.603L351.745,392.996L348.216,392.896L347.897,392.417L347.879,389.893L347.203,387.795L347.815,385.205L347.379,384.358L346.184,384.152L346.871,381.046L346.365,377.192L345.031,377.411L344.799,378.295L336.114,377.568L333.036,376.998L332.035,377.39L332.035,378.596L330.686,379.009L330.775,378.485L329.713,378.46L328.991,377.935L327.36,378.142L326.694,376.068L325.967,375.023L323.591,375.176L323.726,373.094L324.532,368.918L322.843,368.765L322.927,367.997L321.906,367.886L322.674,365.056L323.491,365.168L323.552,364.482L322.549,364.329L323.162,362.859L322.121,362.442L323.394,360.104L323.58,358.199L324.114,358.249L324.512,356.597L323.113,356.527L322.986,355.717L323.54,351.727L319.234,351.467L319.086,340.715L316.396,340.723L316.417,332.309L316.766,332.288L316.802,330.574L317.938,330.591L318.338,329.62L319.14,326.344L319.219,323.912L319.655,323.944L320.265,321.792L321.447,321.185L321.528,320.52L322.475,320.467L323.432,317.91L324.384,317.282L324.736,314.994L325.152,315.051L325.477,312.668L325.219,311.206L325.995,310.706L326.046,308.178L324.609,307.484L324.614,306.406L325.53,303.659L326.306,303.597L328.613,304.49L328.955,303.63L329.708,303.874L330.185,302.899L330.226,301.685L331.206,301.474L331.303,300.846L333.156,301.251L332.959,302.201L330.869,302.354L330.555,303.688L331.392,303.085L333.136,302.664L334.189,303.515L337.255,303.507L337.818,304.518L339.602,303.849L341.608,303.882L345.049,303.597L345.023,302.879L347.154,302.602L346.83,301.404L347.545,301.181L346.822,298.913L348.313,298.265L349.002,298.475L349.254,296.968L349.967,297.129L350.725,295.295L351.393,295.423L351.865,293.643L352.84,293.812L353.621,290.875L354.28,290.883L354.571,288.95L356.109,289.388L356.939,287.116L357.393,286.869L356.204,286.794L355.954,285.923L356.959,285.811L356.056,282.279L355.372,282.354L355.117,280.441L354.223,279.326L351.35,278.364L346.858,278.624L346.057,277.686L346.039,273.82L345.549,273.456L345.779,271.738L345.567,270.825L345.562,267.054L345.11,266.025L344.411,266.079L344.173,263.58L347.157,263.093L347.902,263.386L347.708,260.09L348.611,260.094L348.782,261.168L349.392,261.028L349.599,262.234L350.201,261.453L351.1,261.577L350.699,260.705L350.969,259.826L349.834,259.442L349.65,257.545L349.181,258.004L348.091,257.455L347.93,254.32L348.491,253.948L347.154,250.569L348.035,250.313L347.739,247.199L347.294,245.228L346.258,245.352L345.569,244.889L345.444,243.721L346.263,243.588L346.457,242.498L349.517,241.8L349.117,239.776L350.056,239.627L350.497,237.496L350.053,235.29L350.577,235.166L350.53,233.836L349.025,233.229L347.93,233.588L347.292,233.088L347.027,231.717L347.346,230.284L347.986,230.309L347.711,229.42L346.986,229.139L345.01,229.941L345.263,231.069L344.543,231.539L342.928,233.518L342.545,232.477L341.756,233.216L339.174,233.667L338.035,229.04L339.985,228.425L340.251,227.078L338.737,227.648L337.563,226.917L337.096,225.24L338.15,225.381L340.754,225.1L340.634,224.179L341.425,223.295L340.815,220.961L341.154,220.251L340.284,219.519L340.098,218.148L341.06,217.673L340.858,216.261L341.22,215.48L342.014,215.748L343.454,215.43L343.558,214.699L345.11,212.902L345.83,212.667L345.776,211.374L347.029,212.138L347.95,210.391L346.639,209.742L345.5,209.837L344.12,208.251L342.555,208.726L342.571,209.391L341.251,209.152L339.796,210.164L338.776,209.404L338.717,207.685L336.645,206.211L335.626,206.438L335.083,207.698L333.664,206.719L332.929,207.4L332.245,205.686L333.304,206.479L333.319,204.843L332.638,203.906L332.112,203.993L331.834,202.886L330.885,202.762L331.591,201.271L333.518,200.932L333.403,200.403L335.797,199.924L335.7,199.251L337.581,198.743L336.933,195.289L335.756,194.253L336.77,194.063L336.315,191.948L338.513,191.456L338.028,187.793L338.505,187.834L337.821,186.058L337.14,186.413L337.372,187.507L336.632,187.247L334.853,187.425L334.253,187.053L334.047,185.508L333.398,185.57L332.796,183.303L331.336,182.576L331.635,180.866L332.252,180.75L332.099,179.891L333.329,178.193L333.1,177.908L335.044,177.032L335.277,175.81L335.874,175.694L333.738,173.468L333.291,171.448L334.529,170.589L335.246,170.708L334.376,169.738L334.669,169.25L333.661,169.097L335.532,167.957L335.05,168.957L335.22,169.965L336.308,170.039L335.953,168.969L336.645,168.474L336.014,166.19L337.357,165.438L338.194,165.884L338.393,166.689L340.34,165.925L340.1,164.83L340.912,164.653L338.643,161.989L339.123,161.497L338.742,160.75L340.182,159.862L339.996,159.308L341.348,159.275L341.045,158.474L343.349,157.177L343.076,153.587L345.056,153.657L345.684,152.906L347.44,152.65L349.331,151.679L350.822,151.993L353.736,151.175L353.463,150.142L354.18,149.845L353.603,148.61L354.851,148.292L354.606,146.788L355.655,145.818L355.665,144.099L358.58,144.029L359.032,144.793L359.568,144.095L362.043,143.992L362.385,145.743L361.579,144.971L360.864,146.846L360.782,148.882L362.158,150.997L361.032,151.373L361.073,152.794L363.296,153.905L362.888,155.756L363.34,157.61L364.585,159.436L365.904,158.143L366.65,159.13L366.502,161.097L366.966,161.2L369.388,159.948L372.111,159.213L372.764,158.218L374.247,156.879L377.511,157.705L378.966,158.37L382.011,159.197L386.058,160.824L387.878,161.902L390.257,162.84L390.698,163.934L392.408,164.12L392.461,164.86L395.169,165.934L394.802,164.727L396.864,165.665L397.617,164.963L399.082,164.558L400.263,163.72L399.533,163.087L400.419,162.418L400.975,161.142L403.772,161.105L403.806,160.019L404.724,159.589L404.684,158.94L403.066,158.321L403.101,157.433L402.116,157.445L402.012,155.723L401.154,155.128L401.287,153.756L402.236,153.794L402.514,152.261L403.262,152.166L402.81,148.866L403.308,148.283L402.92,143.665L403.372,143.633L403.081,142.352L402.167,142.769L402.032,141.794L403.091,141.361L402.548,140.237L401.493,140.576L401.146,139.944L400.08,140.105L400.475,138.515L400.184,136.784L401.455,136.747L401.43,136.123L402.512,136.367L401.713,133.897L403.818,132.98L406.011,132.971L406.424,132.021L407.532,132.22L407.932,131.034L409.208,131.018L409.989,130.051L407.422,127.131L405.237,125.499L404.883,122.348L402.82,121.29L400.891,122.009L400.825,119.555L401.675,119.489L400.672,116.928L401.19,115.859L401.835,116.846L402.713,116.507L402.706,115.4L407.1,114.756L407.955,114.97L407.407,113.112L408.854,112.744L409.007,113.231L410.263,112.645L410.467,113.525L411.225,113.302L412.661,113.711L412.766,114.553L413.812,113.632L415.908,112.909L419.639,113.917L418.7,112.74L419.325,110.766L420.152,110.588L417.801,106.263L416.362,106.412L415.816,107.552L414.68,107.279L414.106,108.291L412.649,107.366L411.36,107.436L411.064,106.639L408.716,105.957L407.447,106.003L406.2,104.946L405.14,105.231L405.317,104.264L404.717,103.855L404.291,104.846L402.946,104.884L402.647,104.33L403.961,103.322L403.339,102.232L402.895,103.33L402.234,103.384L401.897,102.459L400.94,101.93L400.171,102.694L399.886,102.244L401.062,99.34L399.316,97.634L399.587,96.217L400.906,95.598L401.141,94.466L398.497,93.888L398.074,92.116L396.984,91.909L397.117,91.418L399.457,90.782L398.804,88.601L399.618,87.89L400.429,88.353L400.771,87.399L398.908,85.135L399.676,85.726L401.105,84.276L402.211,83.958L402.565,83.148L402.277,81.244L403.693,81.261L404.357,82.231L405.059,80.641L404.862,77.775L406.646,77.403L407.215,76.659L407.169,75.519L408.527,73.983L408.08,71.232L408.443,69.6L407.606,68.084L407.769,66.907L406.587,65.854L406.684,64.21L406.401,61.921L406.758,60.471L405.761,59.183L405.454,57.712L405.886,56.837L407.381,57.105L407.445,55.928L409.356,56.25L410.63,56.048L412.24,56.391L413.187,55.837L412.59,54.738L411.722,54.11L411.329,52.702L410.719,52.008L411.722,51.306L410.954,49.91L410.998,48.476L413.473,48.964L413.465,47.997L414.259,47.58L414.336,46.791L415.647,45.581L416.066,44.755L417.408,44.391L418.141,43.59L419.32,44.379L420.234,44.164L421.443,44.651L422.025,45.874L422.86,46.217L423.291,45.354L423.059,44.333L424.937,42.4L427.134,43.007L427.127,42.417L428.242,41.269L429.11,38.555L430.266,37.819L431.169,38.175L432.055,37.634L433.494,38.852L433.433,39.36L436.904,38.666L437.34,37.828L438.272,37.584L438.374,36.568L437.177,36.626L438.07,35.696L437.402,35.213L439.076,33.635L438.458,31.843L437.289,30.021L437.782,29.525L439.499,29.901L439.714,28.786L440.62,29.695L441.219,28.823L442.159,28.877L442.947,29.827L442.83,28.732L445.198,29.224L444.902,28.559L446.709,27.08L447.37,27.175L447.924,26.126L446.048,24.792L444.287,25.94L443.488,26.043L443.542,24.213L443.008,24.329L442.636,23.313L443.159,21.925L443.366,22.47L445.19,22.214L443.787,21.107L442.424,20.512L442.266,18.468L445.298,17.716L444.601,16.163L446.017,14.391L447.043,14.82L447.485,15.618L448.651,14.283L449.366,13.974L448.855,12.334L449.514,11.004L451.504,11.21L452.112,11.59L452.903,11.202L453.781,10L455.93,10.128L457.492,11.185L458.027,11.144L460.171,12.416L460.409,12.929L461.723,12.776L462.282,14.358L463.206,15.039L465.125,15.428L466.217,16.349L467.968,16.225L469.79,15.754L470.377,15.915L474.042,14.944L474.846,16.146L475.517,15.742L477.357,15.898L478.34,16.782L478.745,18.311L478.281,19.628L477.395,20.339L477.306,21.76L478.296,22.024L478.967,22.97L478.858,24.3L479.478,25.044L479.031,25.502L479.639,28.315L480.254,28.472L481.088,29.996L481.938,30.847L484.299,30.132L485.95,32.871L486.545,33.437L487.571,33.478L487.545,35.023L488.122,36.196L489.809,35.882L490.153,37.617L491.021,38.584L490.845,39.753L493.504,40.715L493.195,41.153L494.066,44.999L494.895,45.391L493.522,46.353L493.157,47.985L492.512,48.575L493.397,49.786L494.941,49.426L495.505,48.274L496.049,48.518L496.878,47.415L498.088,49.571L498.157,52.033L498.986,51.165L500.665,51.855L501.168,49.071L502.21,48.89L503.616,49.55L504.356,49.117L505.083,51.12L507.01,52.582L508.613,52.421L509.24,53.198L511.252,52.896L512.581,52.066L513.321,52.669L513.862,54.206L512.911,54.197L513.081,55.341L513.814,56.006L515.621,55.977L515.891,57.055L517.188,57.733L516.591,59.488L515.491,60.418L513.832,61.314L511.879,60.55L511.693,63.747L511.096,64.524L511.292,65.346L511.172,67.675L513.37,69.65L513.862,69.014L513.755,67.75L514.276,67.13L515.537,67.551L516.098,66.42L518.372,66.428L518.694,68.444L519.025,67.803L520.158,68.377L520.123,69.142L521.12,69.712L520.347,70.819L521.008,73.016L520.077,73.735L519.166,76.796L519.27,78.708L518.27,80.455L516.438,79.514L515.858,79.749L514.819,78.894L513.485,80.744L512.67,80.521L510.698,78.741L509.251,79.286L508.084,78.964L507.378,77.118L506.528,77.134L504.991,75.92L504.131,75.631L502.064,75.697L500.803,76.122L500.178,77.233L499.507,77.143L498.124,78.382L495.959,78.394L494.885,79.03L491.228,79.014L490.069,79.877L487.836,79.398L486.223,78.266L487.012,77.407L486.958,76.486L486.129,76.465L484.646,75.205L484.008,73.735L482.671,73.508L482.053,72.971L481.188,73.64L480.111,73.71L479.524,73.078L478.549,73.4L477.806,74.412L476.956,73.95L477.125,73.264L474.124,72.463L473.606,73.561L472.324,72.843L472.365,74.66L473.978,76.758L474.175,77.882L472.598,79.373L472.097,81.637L471.748,81.624L471.464,83.855L470.405,83.888L469.849,85.288L468.963,84.85L468.088,85.28L467.371,86.655L467.621,88.469L470.071,89.464L469.423,90.645L469.405,91.666L467.981,91.467L465.931,92.066L466.153,92.876L467.838,92.636L467.672,94.144L467.976,95.049L466.674,94.503L466.016,95.528L466.628,95.701L467.172,98.237L468.44,97.907L468.813,98.857L469.231,103.735L470.88,106.28L471.694,108.49L472.266,108.275L473.685,110.294L473.876,109.452L474.404,110.063L474.32,111.439L473.378,111.868L473.611,113.128L472.284,112.604L472.957,115.842L474.458,115.317L476.26,118.39L476.826,121.199L478.105,121.393L476.63,122.43L475.55,122.339L475.591,123.967L475.262,124.999L474.417,125.85L473.95,127.044L475.586,128.201L474.746,130.27L473.947,130.096L472.638,130.886L473.419,130.84L474.445,131.774L475.701,130.369L476.523,132.083L477.982,131.778L479.1,132.236L479.378,132.922L480.583,133.698L483.304,134.384L482.482,135.144L483.592,136.718L482.836,137.057L482.183,136.387L481.79,138.122L481.068,137.92L480.963,138.981L479.869,139.076L479.971,139.973L481.287,140.262L480.325,140.906L481.903,140.898L482.635,141.567L482.857,143.034L484.534,144.347L486.876,144.198L488.015,144.938L489.176,144.768L490.557,145.425L491.013,146.445L492.083,145.334L492.905,145.747L493.282,146.921L492.34,148.424L493.458,149.225L493.624,150.076L494.872,149.857L494.079,150.981L495.393,151.898L494.796,153.319L496.079,154L496.919,153.699L496.771,155.045L496.028,155.979L496.809,157.499L496.358,158.804L496.572,159.601L495.73,161.208L494.076,160.518L493.757,161.572L494.025,162.753L493.642,163.257L492.31,162.827L491.968,163.141L492.463,164.294L491.616,165.264L491.848,166.941L490.118,166.722L489.776,168.581L488.681,169.42L487.841,168.495L487.657,169.292L488.199,172.105L489.059,171.468L490.128,169.502L490.998,169.172L491.059,170.638L491.478,171.754L493.665,171.497L494.561,172.96L494.548,173.654L493.606,175.14L494.538,176.194L495.508,176.078L497.544,174.455L497.948,172.753L499.423,172.518L500.219,172.955L501.671,174.698L503.976,175.81L504.486,176.466L504.425,177.701L503.639,178.519L502.365,178.664L500.768,177.582L500.181,178.751L500.918,179.949L502.079,180.485L503.567,180.44L504.461,181.031L504.511,182.704L504.226,183.877L504.537,185.174L505.872,187.123L507.291,185.897L509.067,185.657L510.024,184.604L511.31,182.604L509.656,179.63L509.6,177.97L509.968,176.405L511.93,176.314L512.862,175.925L513.242,174.678L511.874,172.658L515.603,170.316L517.052,170.287L519.668,170.758L520.531,169.816L522.039,169.643L524.938,171.175L526.666,172.315L529.07,172.604L530.517,172.237L531.334,172.695L531.73,171.952L532.452,172.018L534.506,170.845L537.482,172.485L539.077,172.146L540.437,172.633L543.262,174.236L546.123,175.405L546.861,176.38L546.323,177.838L545.131,179.023L543.842,181.142L543.689,182.679L542.972,184.182L542.316,184.228L542.316,185.198L541.484,185.901L541.466,187.115L542.428,187.631L542.247,188.809L542.857,189.234L542.78,190.519L542.173,191.531L540.205,192.092L539.914,197.061L539.041,197.611L539.817,197.933L540.42,200.085L540.131,201.151L538.276,201.965L537.898,202.547L536.349,202.444L535.599,205.434L534.894,205.426L535.18,215.988L530.522,216.834L530.722,218.326L532.835,217.999L533.422,219.49L533.044,222.531L534.024,224.084L532.582,225.248L531.523,223.477L530.941,223.898L528.999,224.323L525.62,224.414ZM515.197,218.64L509.884,216.232L502.825,216.95L503.312,221.494L497.835,222.043L497.386,217.516L497.064,215.876L496.059,215.785L494.415,216.43L494.658,216.975L492.249,217.376L491.942,218.759L490.809,219.164L490.674,217.71L490.028,217.751L489.898,216.723L486.731,217.07L486.764,216.107L486.2,215.633L486.159,214.637L484.335,214.059L484.411,214.806L483.538,215.141L482.316,217.471L479.473,217.776L478.648,217.677L478.715,218.722L478.189,219.47L476.617,219.652L476.729,220.494L475.369,220.606L476.158,222.304L475.216,223.039L473.544,223.361L473.761,224.162L472.595,224.315L471.919,225.121L472.281,227.632L471.699,227.942L470.808,226.909L470.198,227.165L470.643,228.202L469.201,229.201L470.78,231.589L471.6,231.213L472.087,233.865L478.388,232.754L483.189,231.172L483.607,232.155L485.381,231.696L485.81,232.622L487.208,232.316L487.333,233.857L490.712,232.469L491.991,232.328L492.001,233.567L491.133,234.369L492.075,235.418L492.81,237.586L493.627,237.735L493.627,239.416L496.074,239.012L497.105,237.244L497.412,229.053L500.533,228.718L501.408,229.024L504.039,230.589L511.259,229.842L518.773,224.393L518.357,220.106Z" stroke="#333" stroke-width="2" stroke-dasharray="none" fill="none"></path></g></svg>