<svg width="888" height="433"><g><path d="M511.443,133.823L511.679,134.38L510.877,135.021L510.401,136.602L510.786,138.928L513.667,144.387L514.052,145.391L511.994,146.837L508.317,146.205L507.272,148.224L506.534,150.017L506.804,150.281L506.729,152.602L507.25,154.894L508.06,156.336L508.841,155.985L511.23,155.828L510.912,157.281L511.312,162.832L512.256,164.418L513.108,163.695L516.304,164.022L515.917,166.719L514.402,170.671L512.058,174.264L510.078,175.363L507.106,176.594L506.9,178.171L507.389,183.875L507.552,184.552L507.44,186.671L502.697,186.398L497.558,184.837L497.152,186.175L493.907,184.99L488.64,184.767L489.332,183.619L485.685,181.05L484.351,179.637L483.381,178.196L480.845,176.519L479.685,176.346L477.208,174.483L476.096,172.513L474.792,171.642L473.269,170.147L473.296,169.548L471.038,169.25L470.148,168.854L470.158,168.424L469.282,167.755L468.523,166.491L468.697,165.178L468.175,164.881L469.065,163.225L471.321,163.101L472.547,162.774L473.523,162.952L474.544,161.663L474.49,157.88L472.807,157.678L472.724,156.121L470.278,156.038L469.755,155.373L470.925,153.655L469.765,152.581L469.306,151.413L468.582,150.876L467.726,151.52L467.157,149.909L466.647,149.455L466.615,148.319L467.208,148.34L467.211,145.949L465.033,145.709L465.834,146.721L465.134,146.725L464.132,144.288L462.804,143.644L462.531,143.095L462.964,141.257L463.996,140.431L464.284,139.456L463.459,137.891L463.427,137.086L462.034,136.722L460.661,135.855L460.768,135.128L459.186,134.934L458.208,134.248L457.264,134.451L456.412,135.727L456.174,135.636L456.043,133.224L454.704,132.567L454.803,131.845L453.779,131.539L453.277,132.084L452.379,131.799L452.636,131.13L452.286,130.391L452.844,130.131L452.229,129.73L452.248,129.036L450.728,130.667L450.533,131.473L449.44,132.58L447.139,131.593L446.54,132.794L444.512,132.266L443.435,135.537L441.377,134.137L443.755,128.177L443.526,127.706L440.081,126.12L438.764,125.633L437.59,124.097L434.45,123.605L435.493,120.318L434.878,119.194L433.726,117.827L433.288,116.472L432.558,115.407L431.994,113.16L433.09,110.913L432.516,109.026L432.777,106.168L433.67,106.127L434.285,105.524L433.178,102.265L434.135,100.08L433.921,98.499L435.233,97.148L435.343,95.851L434.771,92.506L435.129,91.738L435.944,91.506L436.158,90.367L435.602,89.834L435.407,88.925L434.841,88.396L434.408,86.406L434.557,85.278L436.07,83.738L436.064,82.424L436.994,81.466L437.769,80.141L437.088,77.807L438.657,76.362L438.825,75.754L438.28,73.867L438.774,72.417L438.125,71.69L438.085,70.439L438.959,70.266L440.289,69.089L441.078,68.981L441.048,68.358L441.893,66.937L443.277,65.851L443.814,64.843L444.295,64.694L445.525,63.521L446.382,61.733L448.531,62.245L450.137,62.414L451.286,63.583L454.063,65.173L456.022,65.371L456.286,66.441L457.048,67.494L457.74,67.713L459.91,67.816L461.668,68.312L461.687,68.845L462.566,69.047L464.37,67.936L465.295,69.564L466.588,69.398L468.427,70.687L468.528,71.393L469.931,70.761L470.853,70.625L470.813,71.794L471.513,72.322L472.694,71.876L474.188,72.397L476.444,72.293L475.837,73.954L477.638,74.206L477.582,76.878L478.215,77.468L479.055,77.634L479.674,77.287L480.805,77.559L481.043,78.15L480.578,78.889L480.848,80.194L482.336,79.463L482.673,78.728L483.905,78.703L485.348,79.711L487.718,79.756L488.897,80.71L491.457,81.4L493.37,81.309L493.338,82.734L492.643,84.035L493.988,84.254L496.802,85.332L497.077,85.745L496.965,87.661L498.621,89.536L497.737,100.572L497.528,102.579L496.668,104.285L493.814,110.695L492.678,111.694L484.351,118.075L484.976,119.417L487.013,120.115L488.296,121.408L489.447,123.085L490.131,123.704L493.09,125.137L495.869,126.847L498.076,127.215L499.525,128.028L501.919,128.854L503.816,129.713L505.877,131.927L507.844,132.972Z" fill="#eee" opacity="0.5"></path><path d="M498.621,89.536L496.965,87.661L497.077,85.745L496.802,85.332L493.988,84.254L492.643,84.035L493.338,82.734L493.37,81.309L491.457,81.4L488.897,80.71L487.718,79.756L485.348,79.711L483.905,78.703L482.673,78.728L482.336,79.463L480.848,80.194L480.578,78.889L481.043,78.15L480.805,77.559L479.674,77.287L479.055,77.634L478.215,77.468L477.582,76.878L477.638,74.206L475.837,73.954L476.444,72.293L474.188,72.397L472.694,71.876L471.513,72.322L470.813,71.794L470.853,70.625L469.931,70.761L468.528,71.393L468.427,70.687L466.588,69.398L465.295,69.564L464.37,67.936L462.566,69.047L461.687,68.845L461.668,68.312L459.91,67.816L457.74,67.713L457.048,67.494L456.286,66.441L456.022,65.371L454.063,65.173L451.286,63.583L450.137,62.414L448.531,62.245L446.382,61.733L445.017,61.75L443.943,60.122L443.654,58.685L444.56,57.454L446.797,55.554L448.002,53.584L449.071,52.837L450.185,52.812L450.936,52.226L451.088,51.267L451.732,50.008L452.187,49.855L452.98,48.451L453.157,47.224L452.302,46.221L452.914,45.333L452.529,45.048L452.74,43.511L453.616,41.45L453.921,40.083L455.057,38.725L455.511,37.184L456.617,35.078L457.694,33.372L458.574,32.662L459.656,32.339L461.147,34.285L463.403,34.929L465.084,35.082L466.241,35.507L468.071,34.549L468.819,33.888L469.541,31.864L468.934,29.915L468.811,28.511L469.023,26.578L468.48,23.827L468.306,22.233L468.672,21.399L470.035,20.874L472.069,20.821L473.266,20.259L475.77,19.553L478.05,19.214L480.738,19.66L482.686,20.135L483.533,20.689L486.246,21.42L486.866,20.965L486.973,20.036L487.582,18.797L487.75,17.492L488.397,17.5L489.017,16.687L490.177,16.075L491.55,14.014L492.261,13.469L492.686,12.478L493.873,10.64L496.147,11.594L497.13,12.437L499.666,12.718L501.013,11.726L502.865,10.756L504.233,10.785L505.655,10L506.016,10.83L508.05,10.995L508.798,12.04L509.362,13.432L508.982,14.679L510.054,16.447L509.664,18.983L510.027,20.676L508.996,23.142L508.806,24.348L509.461,25.294L509.193,27.127L511.537,29.23L512.202,32.224L513.298,34.941L513.768,37.122L515.075,39.125L515.97,39.807L517.908,40.765L520.024,41.215L520.698,41.752L521.131,42.776L521.756,42.764L522.771,43.424L523.124,46.34L523.097,47.282L522.176,54.229L521.745,55.009L517.814,59.09L515.725,61.043L512.478,64.55L511.211,66.107L509.714,68.267L508.381,70.761L506.94,72.942L506.029,74.61L502.349,77.621L501.815,78.703Z" fill="#eee" opacity="0.5"></path><path d="M434.45,123.605L437.59,124.097L438.764,125.633L440.081,126.12L443.526,127.706L443.755,128.177L441.377,134.137L443.435,135.537L444.512,132.266L446.54,132.794L447.139,131.593L449.44,132.58L450.533,131.473L450.728,130.667L452.248,129.036L452.229,129.73L452.844,130.131L452.286,130.391L452.636,131.13L452.379,131.799L453.277,132.084L453.779,131.539L454.803,131.845L454.704,132.567L456.043,133.224L456.174,135.636L456.412,135.727L457.264,134.451L458.208,134.248L459.186,134.934L460.768,135.128L460.661,135.855L462.034,136.722L463.427,137.086L463.459,137.891L464.284,139.456L463.996,140.431L462.964,141.257L462.531,143.095L462.804,143.644L464.132,144.288L465.134,146.725L465.834,146.721L465.033,145.709L467.211,145.949L467.208,148.34L466.615,148.319L466.647,149.455L467.157,149.909L467.726,151.52L468.582,150.876L469.306,151.413L469.765,152.581L470.925,153.655L469.755,155.373L470.278,156.038L472.724,156.121L472.807,157.678L474.49,157.88L474.544,161.663L473.523,162.952L472.547,162.774L471.321,163.101L469.065,163.225L468.175,164.881L468.697,165.178L468.523,166.491L469.282,167.755L470.158,168.424L470.148,168.854L471.038,169.25L473.296,169.548L473.269,170.147L474.792,171.642L476.096,172.513L477.208,174.483L479.685,176.346L480.845,176.519L483.381,178.196L484.351,179.637L485.685,181.05L489.332,183.619L488.64,184.767L493.907,184.99L497.152,186.175L497.558,184.837L502.697,186.398L507.44,186.671L507.552,184.552L507.389,183.875L506.9,178.171L507.106,176.594L510.078,175.363L512.058,174.264L514.402,170.671L515.917,166.719L516.304,164.022L513.108,163.695L512.256,164.418L511.312,162.832L510.912,157.281L511.23,155.828L508.841,155.985L508.06,156.336L507.25,154.894L506.729,152.602L506.804,150.281L506.534,150.017L507.272,148.224L508.317,146.205L511.994,146.837L514.052,145.391L513.667,144.387L510.786,138.928L510.401,136.602L510.877,135.021L511.679,134.38L511.443,133.823L514.567,134.669L515.313,135.136L517.443,135.652L518.253,136.103L521.013,137.015L526.547,138.159L526.753,137.54L527.718,137.399L529.418,137.932L530.358,136.652L531.016,136.321L532.24,137.143L532.587,136.66L534.813,136.772L535.326,136.478L535.537,135.235L536.374,134.087L537.376,134.674L539.19,134.979L540.452,134.769L542.17,136.875L543.378,137.255L543.985,138.515L544.746,139.241L547.17,139.956L548.191,140.538L549.749,140.608L551.654,141.567L552.68,143.343L553.771,144.416L553.843,145.036L555.329,146.514L556.823,148.951L559.436,149.538L560.273,150.727L558.447,154.143L557.982,155.39L558.6,156.237L560.914,156.972L561.676,156.129L564.396,155.815L566.619,158.235L569.773,160.965L575.775,163.08L577.509,164.447L577.608,165.934L576.857,168.325L576.566,169.837L576.055,170.824L574.551,172.769L573.648,172.546L572.851,171.249L571.932,171.253L571.734,170.51L571.096,171.146L571.526,171.687L572.226,171.646L570.639,172.699L569.155,172.682L566.841,173.075L564.922,173.802L564.26,175.838L564.383,177.101L563.805,179.732L562.247,181.26L559.482,181.963L557.622,181.087L556.021,181.273L555.852,181.835L556.235,183.268L558.808,183.879L558.637,185.366L557.034,185.002L554.604,187.782L554.19,188.03L553.995,189.062L553.004,189.566L551.125,189.76L550.136,189.38L551.553,191.986L552.477,192.205L554.599,191.631L554.858,192.387L554.225,195.001L553.693,196.575L552.758,198.503L551.619,199.59L549.623,201.068L548.447,201.535L547.894,202.192L547.747,203.592L547.838,206.297L547.098,210.348L546.053,213.277L546.277,215.362L545.804,216.651L546.272,219.199L547.007,221.219L548.621,222.619L549.824,225.221L549.781,226.517L548.455,226.187L546.962,226.716L546.788,227.397L549.201,229.537L550.524,230.268L551.513,232.213L552.028,233.708L552.135,234.868L551.601,236.5L551.585,237.272L549.695,240.192L548.763,238.887L547.413,237.433L547.026,237.71L547.36,239.994L547.964,240.605L547.149,240.469L545.152,239.606L543.995,240.403L541.745,237.838L540.342,236.727L539.746,235.905L538.846,236.256L537.349,236.397L535.992,236.785L534.984,237.503L534.233,237.582L532.958,238.689L532.245,237.652L531.566,237.338L530.262,237.83L528.945,237.26L527.801,236.178L527.411,236.979L527.849,238.59L527.547,239.16L526.296,238.652L525.976,238.879L524.944,238.077L524.498,238.416L525.385,239.341L524.156,239.486L522.266,238.854L521.596,237.375L519.223,235.546L517.889,235.124L516.751,236.136L517.571,236.909L518.501,237.012L518.726,237.958L518.039,237.982L518.378,239.213L517.595,239.321L516.82,240.44L515.137,238.66L514.177,238.87L512.739,237.677L511.647,237.07L510.981,236.07L509.773,235.744L507.988,234.406L508.079,235.137L507.325,235.215L506.914,237.028L507.395,237.949L506.077,240.019L506.727,240.688L506.422,242.117L505.754,241.543L505.455,240.204L504.493,240.147L503.72,239.337L503.846,238.102L502.285,238.119L501.46,238.408L500.62,237.26L499.728,238.821L499.086,239.031L498.485,237.644L496.852,238.346L496.51,237.396L495.006,236.739L494.081,237.491L495.313,240.655L495.995,241.79L496.395,241.885L497.272,243.707L497.146,244.285L497.774,246.796L498.956,248.498L498.21,249.398L496.962,248.968L497.355,250.327L496.796,252.764L497.085,253.821L495.465,254.197L494.207,253.912L493.234,253.383L492.868,254.552L492.961,256.08L492.074,256.63L491.168,255.502L492.117,255.378L489.739,252.78L488.942,251.711L489.041,253.111L490.099,254.812L489.634,255.853L490.703,256.836L492.018,257.022L492.737,257.914L493.825,258.286L494.458,259.678L493.712,260.929L494.418,262.222L495.097,261.222L495.81,260.826L496.695,261.648L496.117,262.263L496.735,263.002L495.759,263.849L497.034,264.737L496.89,266.616L498.223,267.942L498.277,268.859L496.973,269.776L497.17,270.812L496.684,271.271L496.799,272.807L496.345,274.57L495.848,274.703L496.198,276.404L497.264,277.581L496.216,277.569L494.955,276.148L494.565,276.883L493.258,274.967L492.611,275.446L491.615,275.248L491.508,276.512L490.008,276.132L489.776,276.71L488.378,276.867L487.692,277.916L486.879,278.329L487.673,279.477L488.173,280.869L487.248,281.108L486.601,280.551L485.033,281.282L485.292,283.103L485.351,285.168L485.054,286.907L483.247,287.733L481.358,287.287L480.417,286.25L480.233,286.82L478.624,287.303L478.21,287.716L476.901,287.382L476.281,287.564L476.521,288.348L474.939,288.885L471.516,290.31L470.42,290.087L469.72,288.844L469.111,288.679L468.095,289.129L467.849,288.435L466.46,287.861L465.901,289.1L464.445,288.513L463.288,288.732L462.871,289.265L462.841,291.016L461.577,290.76L460.557,290.979L459.386,291.818L458.234,291.004L457.756,289.282L458.165,287.51L456.588,285.461L455.565,284.916L455.519,283.652L454.589,282.294L454.546,280.803L452.243,277.85L451.473,275.752L451.807,274.046L450.717,272.98L449.854,271.622L448.47,270.407L448.651,268.921L448.381,267.57L446.484,265.823L445.367,265.955L444.854,265.497L444.255,265.786L443.822,265.109L444.886,264.006L444.576,263.49L444.627,262.213L443.381,261.222L443.253,260.247L442.369,259.859L442.684,258.897L441.075,257.67L440.944,256.82L440.268,256.687L440.094,257.423L438.932,258.294L437.28,258.352L438.852,260.603L438.868,261.061L438.029,261.829L438.189,262.234L436.826,264.072L436.177,264.535L436.006,265.46L435.118,265.794L434.787,266.463L433.432,267.087L433.154,269.363L432.382,269.635L432.096,267.793L430.979,267.186L429.458,267.946L427.668,267.967L427.187,267.438L425.968,268.491L425.319,266.005L425.388,263.874L426.179,263.547L426.07,261.648L427.083,260.219L425.682,258.682L426.393,258.624L427.764,259.273L427.732,258.682L428.972,257.902L429.1,257.303L432.002,255.337L432.799,254.197L432.924,252.69L434.127,252.128L433.625,251.455L429.092,242.369L428.563,241.687L426.193,241.666L425.632,241.241L423.218,238.569L422.093,238.222L421.033,237.512L420.41,236.351L419.878,234.199L420.159,232.651L419.571,231.098L417.136,231.23L415.747,230.499L413.349,230.486L412.51,230.036L412.358,229.491L411.353,228.529L412.315,228.591L413.275,228.087L414.857,228.008L416.813,226.171L418.331,224.382L419.803,223.445L420.482,222.643L420.698,224.159L421.316,224.812L421.896,226.423L421.866,227.191L421.102,228.669L422.927,230.577L423.363,231.54L425.284,231.478L427.85,230.982L428.742,230.334L428.293,229.685L428.935,228.995L428.018,228.682L427.657,227.381L428.058,226.943L426.842,225.898L426.735,224.696L425.11,221.442L426.73,220.686L428.307,220.203L429.597,219.228L429.811,218.476L433.256,218.803L440.233,219.575L441.457,218.241L441.655,217.126L440.452,215.738L439.506,215.185L438.641,215.168L437.331,214.305L436.369,214.07L433.699,212.236L434.247,210.716L436.952,211.067L437.056,210.538L436.27,208.795L437.08,207.891L439.237,207.226L440.092,207.874L440.944,207.573L441.121,205.789L444.822,205.198L443.985,203.943L442.817,203.476L442.983,202.881L444.186,202.964L444.731,202.65L445.701,203.026L446.438,202.91L447.085,201.907L447.393,200.506L448.657,199.557L449.13,198.45L449.99,198.689L450.599,197.979L452.088,197.624L450.899,195.831L449.247,195.385L448.491,194.522L448.849,194.419L446.283,191.094L446.265,190.082L446.781,189.335L447.764,189.438L448.077,189.05L447.908,187.757L448.066,186.01L447.05,185.527L446.559,184.874L445.338,184.928L444.37,184.424L442.283,184.622L440.912,183.437L440.632,184.932L439.028,187.447L438.552,189.004L436.842,188.872L437.727,187.505L437.117,186.039L436.556,185.663L436.666,184.37L437.264,182.438L437.339,178.968L438.384,177.692L438.296,176.544L436.823,176.788L434.493,176.391L433.798,177.506L432.256,176.854L431.527,176.957L429.009,176.503L427.174,177.535L425.68,177.618L423.734,177.209L422.056,177.783L420.672,177.874L418.534,178.824L418.317,179.348L415.217,179.683L415.712,178.122L415.744,174.983L416.171,172.587L417.088,172.22L420.014,172.823L420.557,173.17L421.989,172.872L424.298,171.621L425.856,171.113L427.155,170.37L428.045,169.226L428.748,166.871L429.213,165.954L430.578,164.146L430.958,162.795L430.867,161.717L430.244,159.318L430.116,157.339L430.257,156.299L431.198,154.138L432.125,152.738L433.435,149.48L432.582,147.712L431.014,145.164L429.776,143.5L428.74,141.74L427.737,138.035L428.315,131.465L428.937,129.862L430.495,128.086L431.938,127.405L433.627,126.013Z" fill="#eee" opacity="0.5"></path><path d="M451.77,402.49L451.925,402.416L451.992,401.958L451.65,401.644L451.863,400.471L451.516,398.724L453.127,398.517L453.999,397.604L453.616,396.754L452.342,396.63L452.056,398.228L451.722,398.36L451.516,397.266L448.587,398.1L447.745,398.162L447.013,396.63L447.502,396.386L447.395,395.403L446.489,395.663L445.859,395.015L444.082,394.474L443.194,394.536L442.029,394.086L439.245,393.706L438.416,392.962L436.954,393.305L436.96,394.172L435.701,393.677L435.185,396.101L434.726,396.456L433.991,398.492L433.17,398.075L432.967,395.857L433.2,395.374L433.018,393.578L432.096,393.879L432.467,392.896L431.933,392.206L432.19,391.748L431.575,390.257L430.129,391.166L428.496,389.113L429.146,388.609L428.558,387.833L427.272,387.544L426.281,386.185L426.944,386.123L427.411,384.863L427.024,384.471L426.337,385.52L425.674,385.26L425.84,383.93L425.244,383.686L424.432,384.07L423.512,383.248L423.916,380.217L422.679,379.453L421.591,379.639L421.628,378.214L422.684,377.784L423.283,377.062L424.01,375.538L424.603,378.107L425.327,378.33L426.831,376.388L426.709,375.092L426.032,374.972L425.11,375.69L424.552,374.968L422.967,374.373L422.526,374.835L421.639,374.522L421.567,373.63L421.083,373.501L420.741,374.406L419.883,373.192L416.129,375.211L414.25,375.839L414.082,376.554L412.051,376.483L412.449,378.144L411.596,379.279L411.26,378.197L411.872,376.686L411.351,375.674L410.201,375.364L409.501,375.942L408.892,375.455L407.241,376.231L405.055,375.434L404.651,374.881L404.33,373.134L403.646,372.932L402.839,373.427L403.112,371.081L402.339,370.189L401.53,370.272L401.089,369.524L400.856,366.464L399.937,366.844L399.87,366.204L399.253,366.134L398.152,367.364L397.297,369.045L396.588,367.889L397.478,366.592L396.629,366.695L396.88,365.882L396.276,363.986L397.414,363.065L397.879,363.73L398.448,362.92L397.845,361.814L396.923,361.26L396.236,361.359L395.234,360.562L394.63,360.884L393.382,359.868L392.796,358.072L393.839,357.63L393.44,355.54L392.633,354.445L393.165,353.5L393.47,350.691L393.277,348.684L393.94,348.3L393.737,347.061L394.13,345.43L395.87,345.351L395.437,344.414L396.832,342.712L397.882,342.278L397.89,341.415L398.571,340.936L399.205,341.316L401.049,338.541L401.896,338.995L402.724,338.859L403.325,338.243L403.975,338.842L405.429,339.057L405.811,338.842L406.524,336.662L406.27,335.939L406.922,336.154L407.575,334.022L406.663,333.283L405.573,330.603L405.6,330.004L406.254,329.851L407.818,328.781L409.429,327.361L413.48,325.453L414.707,326.113L415.097,327.712L415.856,328.224L416.428,329.591L417.232,330.099L418.058,331.363L420.249,333.469L421.318,333.804L422.093,333.523L422.895,332.313L424.373,331.615L425.931,331.858L427.043,331.181L427.788,331.619L428.667,333.56L426.874,335.365L427.524,335.687L428.256,335.105L429.058,335.328L430.271,334.89L430.998,335.146L431.262,336.302L431.738,336.86L433.429,334.898L434.79,333.965L435.167,332.474L436.361,330.603L437.008,330.053L436.837,328.236L437.115,327.547L438.411,327.505L442.387,327.964L444.68,329.521L446.401,329.735L446.054,326.638L445.57,324.585L443.579,320.117L443.892,319.419L444.645,319.047L444.514,318.163L444.902,317.428L447.23,318.006L448.189,316.556L449.138,316.627L450.773,316.082L452.056,316.846L452.326,316.156L452.908,316.193L453.344,316.924L454.48,317.787L456.206,316.829L457.342,316.854L458.702,316.16L461.762,315.194L462.28,314L464.129,312.212L465.599,311.192L467.547,311.187L468.392,308.329L469.004,308.78L470.115,308.296L471.102,308.28L471.225,305.88L472.042,304.129L471.201,304.439L470.84,301.631L472.293,300.97L472.857,299.586L473.68,299.685L474.378,298.591L475.54,298.054L477.954,298.636L478.683,297.703L479.474,298.174L480.455,297.831L482.085,299.826L482.79,299.656L483.926,300.144L484.453,301.494L485.03,301.346L485.327,300.16L485.947,301.065L487.176,301.494L487.585,302.721L487.309,303.919L486.011,305.356L485.778,306.223L486.524,306.793L486.11,308.024L485.164,307.206L485.142,309.54L486.112,309.329L486.863,310.308L487.879,310.432L487.721,311.163L488.202,311.534L487.732,312.15L486.558,311.547L486.345,312.707L486.246,316.528L485.538,317.948L486.518,318.952L486.566,320.67L485.709,319.679L485.514,319.01L484.175,317.721L483.429,318.039L483.424,318.683L484.028,319.476L484.477,320.728L485.933,322.153L487.237,322.206L489.006,323.838L489.359,323.301L490.198,323.173L490.618,321.855L490.465,320.067L491.906,320.678L492.264,320.377L492.614,321.484L493.215,322.215L493.611,321.839L493.683,320.009L494.386,320.253L494.431,321.694L496.679,322.652L497.136,320.79L497.528,323.346L498.02,323.441L498.165,322.603L498.694,322.958L499.263,322.388L500.428,321.925L501.759,325.254L502.277,325.188L502.903,325.989L503.119,325.502L503.942,325.973L504.45,325.469L504.861,326.316L506.577,327.642L507.368,327.852L507.617,326.832L508.239,327.39L508.653,326.551L510.171,328.063L510.356,327.332L511.23,327.072L511.74,327.613L512.224,326.27L512.59,326.993L512.79,328.496L514.1,328.806L514.712,329.735L514.835,330.553L515.428,331.4L515.73,331.16L516.542,332.432L517.17,332.123L517.849,333.287L518.434,333.688L517.999,335.377L518.897,336.071L519.843,335.166L519.474,337.364L520.054,337.541L520.647,336.339L521.112,336.748L520.66,338.14L520.933,338.983L521.449,338.999L522.002,339.771L521.817,340.606L522.101,341.382L521.238,341.147L521.366,342.088L520.66,342.382L520.829,343.67L520.775,345.562L519.888,345.9L519.693,347.631L520.048,348.015L521.499,348.304L520.946,350.291L520.201,350.584L518.84,352.546L518.832,353.975L518.274,353.628L518.052,352.339L517.328,352.62L516.793,352.062L517.181,353.632L517.641,354.272L518.942,354.574L519.201,353.785L520.481,353.334L520.989,354.594L520.65,355.499L520.171,355.263L519.431,355.969L518.464,355.383L517.825,356.102L517.87,357.295L516.328,356.824L515.276,357.956L514.41,357.65L514.466,358.989L513.488,359.753L513.707,360.161L515.308,360.657L515.917,360.409L516.141,361.57L515.377,361.004L515.692,363.152L517.432,365.646L518.333,365.258L518.963,366.431L518.803,367.05L519.522,367.17L518.995,367.963L517.256,367.484L517.763,367.93L517.86,368.909L518.576,369.157L518.146,371.465L517.603,370.759L517.25,372.238L516.294,372.052L516.275,371.061L515.537,370.598L514.982,370.838L514.829,374.303L513.816,373.782L512.368,373.799L512.248,374.361L511.719,373.654L510.952,374.224L511.358,375.046L510.898,375.282L510.813,376.36L510.011,377.136L508.127,375.761L507.037,375.851L506.695,375.331L506.104,375.827L505.674,375.529L505.246,378.251L505.829,378.148L505.928,378.928L504.562,379.106L502.681,377.669L501.013,376.607L500.121,375.178L499.6,375.339L498.611,377.338L497.782,376.566L497.512,377.152L496.299,376.624L495.578,375.41L495.332,373.799L494.944,374.055L494.739,375.174L494.143,373.791L493.635,373.811L493.782,374.988L493.472,375.348L492.235,375.108L491.019,374.29L488.151,373.997L488.199,375.567L487.686,374.224L485.278,374.501L484.813,375.604L483.034,376.322L481.679,378.648L480.588,379.197L480.816,381.766L481.401,381.671L481.754,383.182L482.577,383.624L482.08,384.256L482.125,384.991L483.004,385.817L483.039,387.358L483.483,387.738L484.073,390.245L482.617,389.836L481.852,392.359L482.157,393.9L481.048,394.978L481.275,395.684L481.935,395.998L481.74,396.634L482.836,397.406L483.015,399.418L483.397,399.632L484.68,399.211L484.96,399.475L484.429,402.379L485.546,404.535L486.019,405.831L485.343,407.157L485.206,408.02L485.58,408.599L485.433,409.615L485.922,410.887L486.481,411.304L485.249,411.969L484.792,413.389L484.982,414.137L483.544,415.975L482.347,416.219L481.23,417.317L480.236,417.689L479.495,419.114L478.686,418.973L476.815,419.944L475.939,419.345L475.297,419.585L475.885,422.001L474.934,423L474.295,422.88L474.049,421.91L472.74,421.765L471.377,420.204L471.537,419.176L470.725,418.122L469.907,418.155L468.761,416.867L468.876,416.049L467.938,414.182L466.863,414.067L466.219,413.377L466.062,412.46L465.249,411.324L465.907,410.519L465.487,409.482L464.939,406.377L463.686,406.121L462.569,406.389L461.34,406.108L460.973,404.762L460.436,404.911L460.292,403.758L459.643,404.068L459.351,405.253L458.392,405.786L456.414,407.921L455.928,409.875L455.076,410.057L455.3,410.969L454.562,410.49L454.236,409.243L454.418,408.38L453.932,408.173L454.06,407.104L453.037,407.07L452.561,406.021L452.783,405.324L452.31,404.436L452.157,402.746ZM450.444,402.276L449.434,402.044L448.857,400.562L447.489,401.094L446.764,402.123L446.898,403.188L446.438,403.502L445.706,402.325L445.519,403.663L444.175,404.109L443.392,404.803L442.983,404.097L442.109,404.415L441.904,405.088L440.626,404.787L440.225,405.286L437.716,405.798L437.387,403.457L438.005,402.288L439.37,402.094L440.217,402.354L441.238,401.487L442.938,401.09L443.771,400.471L444.357,400.537L445.207,399.946L447.943,399.298L448.381,398.835L449.231,398.955L450.42,398.567L450.781,398.914L450.257,400.029ZM451.906,405.278L451.211,404.787L451.153,403.61L452.037,404.312ZM451.992,401.958L451.925,402.416L451.77,402.49L451.65,401.644Z" fill="#eee" opacity="0.5"></path><path d="M478.683,297.703L477.954,298.636L475.54,298.054L474.378,298.591L473.68,299.685L472.857,299.586L472.293,300.97L470.84,301.631L471.201,304.439L472.042,304.129L471.225,305.88L471.102,308.28L470.115,308.296L469.004,308.78L468.392,308.329L467.547,311.187L465.599,311.192L464.129,312.212L462.28,314L461.762,315.194L458.702,316.16L457.342,316.854L456.206,316.829L454.48,317.787L453.344,316.924L452.908,316.193L452.326,316.156L452.056,316.846L450.773,316.082L449.138,316.627L448.189,316.556L447.23,318.006L444.902,317.428L444.514,318.163L444.645,319.047L443.892,319.419L443.579,320.117L445.57,324.585L446.054,326.638L446.401,329.735L444.68,329.521L442.387,327.964L438.411,327.505L437.115,327.547L436.837,328.236L437.008,330.053L436.361,330.603L435.167,332.474L434.79,333.965L433.429,334.898L431.738,336.86L431.262,336.302L430.998,335.146L430.271,334.89L429.058,335.328L428.256,335.105L427.524,335.687L426.874,335.365L428.667,333.56L427.788,331.619L427.043,331.181L425.931,331.858L424.373,331.615L422.895,332.313L422.093,333.523L421.318,333.804L420.249,333.469L418.058,331.363L417.232,330.099L416.428,329.591L415.856,328.224L415.097,327.712L414.707,326.113L413.48,325.453L409.429,327.361L407.818,328.781L406.254,329.851L405.6,330.004L404.843,327.865L403.366,326.787L403.122,325.56L403.785,324.024L403.307,322.789L403.844,321.802L404.368,321.707L404.672,320.158L403.978,318.948L403.376,318.514L402.869,317.065L401.348,316.813L400.605,316.333L400.151,314.702L399.002,313.595L398.702,312.422L399.627,312.459L400.116,311.695L399.688,311.031L398.748,310.931L398.342,308.697L398.537,306.632L397.369,305.476L396.233,305.868L395.667,305.211L396.27,303.394L395.848,302.543L396.003,300.982L395.514,299.793L393.502,297.715L392.243,296.063L390.963,297.182L389.675,297.005L389.154,297.389L388.462,296.551L387.487,296.295L387.241,295.254L386.605,295.006L386.85,294.374L388.742,293.387L388.617,291.974L387.909,290.797L388.307,290.426L387.569,289.488L386.687,289.608L386.011,288.398L386.014,287.196L385.405,287.2L384.472,286.147L384.737,283.38L383.403,281.827L382.799,279.655L383.932,277.123L384.828,276.532L385.888,276.532L385.899,275.776L388.449,275.975L388.737,274.703L390.493,275.095L391.209,275.706L392.203,275.636L393.013,274.814L393.304,273.683L393.903,273.476L393.499,271.729L393.24,269.383L392.823,269.482L390.934,267.95L390.538,266.752L390.049,266.451L390.45,265.674L388.962,264.77L389.138,264.254L388.636,262.973L386.685,260.945L385.942,260.396L384.811,261.425L383.334,260.326L382.078,260.888L381.987,261.437L381.06,260.842L381.46,259.843L380.963,257.162L381.46,257.183L381.599,255.936L381.102,255.374L380.961,254.222L380.244,253.412L379.977,250.67L379.288,250.463L377.12,250.525L375.675,250.129L374.074,249.212L372.895,248.861L371.594,247.899L370.776,248.2L370.033,249.443L367.746,248.448L367.962,246.994L367.225,246.643L364.122,247.011L363.272,246.164L363.219,242.484L362.7,241.902L361.452,241.576L360.245,240.65L360.413,239.23L359.737,238.044L358.815,237.479L358.729,236.116L358.019,234.402L356.169,232.993L355.661,231.895L355.496,229.124L353.59,228.091L352.89,227.368L351.885,227.277L351.396,226.827L350.525,227.389L349.854,226.15L349.157,225.65L348.283,226.398L347.094,226.798L346.856,227.443L345.589,228.339L344.467,229.446L343.572,229.483L341.765,229.995L340.485,229.813L340.229,229.462L339.411,229.941L338.184,230.102L337.241,229.71L337.123,229.045L336.057,227.984L335.231,226.047L335.464,224.077L336.258,222.515L336.998,222.536L337.177,221.764L336.723,221.202L337.113,220.488L337.751,220.45L338.689,221.215L339.43,221.181L340.306,220.38L340.408,219.257L341.362,218.41L342.054,218.451L343.47,217.336L344.093,217.452L344.534,216.527L344.499,215.309L343.329,215.804L340.587,214.751L340.052,213.421L340.05,212.698L340.659,211.517L340.851,210.352L341.509,209.584L339.777,209.122L338.211,208.428L337.188,208.771L336.271,208.49L335.787,207.862L333.628,207.643L332.393,207.333L330.761,208.052L329.718,207.073L328.917,206.896L327.212,208.259L326.025,208.131L324.545,208.407L323.505,208.102L322.319,205.797L319.713,206.545L318.265,207.61L317.385,207.854L316.594,208.568L314.978,208.329L311.279,208.969L310.405,208.242L310.392,207.59L311.661,206.206L313.182,205.541L314.328,205.971L315.924,205.405L317.225,204.182L318.665,204.302L319.927,203.918L320.159,202.233L320.886,199.205L321.744,199.292L321.966,198.859L330.782,198.508L337.046,198.132L344.365,197.215L351.426,196.463L353.623,194.91L356.281,193.729L359.36,193.7L361.07,193.147L368.791,192.403L370.082,191.742L373.839,189.008L375.664,187.009L377.561,186.551L379.985,185.242L381.733,184.61L383.539,183.218L384.854,182.533L386.423,182.322L388.954,181.649L391.818,180.174L392.51,180.257L395.383,179.864L396.401,179.563L397.641,179.642L398.865,179.377L400.298,179.658L402.331,180.695L403.913,180.881L409.17,180.777L413.17,180.401L414.338,180.443L415.217,179.683L418.317,179.348L418.534,178.824L420.672,177.874L422.056,177.783L423.734,177.209L425.68,177.618L427.174,177.535L429.009,176.503L431.527,176.957L432.256,176.854L433.798,177.506L434.493,176.391L436.823,176.788L438.296,176.544L438.384,177.692L437.339,178.968L437.264,182.438L436.666,184.37L436.556,185.663L437.117,186.039L437.727,187.505L436.842,188.872L438.552,189.004L439.028,187.447L440.632,184.932L440.912,183.437L442.283,184.622L444.37,184.424L445.338,184.928L446.559,184.874L447.05,185.527L448.066,186.01L447.908,187.757L448.077,189.05L447.764,189.438L446.781,189.335L446.265,190.082L446.283,191.094L448.849,194.419L448.491,194.522L449.247,195.385L450.899,195.831L452.088,197.624L450.599,197.979L449.99,198.689L449.13,198.45L448.657,199.557L447.393,200.506L447.085,201.907L446.438,202.91L445.701,203.026L444.731,202.65L444.186,202.964L442.983,202.881L442.817,203.476L443.985,203.943L444.822,205.198L441.121,205.789L440.944,207.573L440.092,207.874L439.237,207.226L437.08,207.891L436.27,208.795L437.056,210.538L436.952,211.067L434.247,210.716L433.699,212.236L436.369,214.07L437.331,214.305L438.641,215.168L439.506,215.185L440.452,215.738L441.655,217.126L441.457,218.241L440.233,219.575L433.256,218.803L429.811,218.476L429.597,219.228L428.307,220.203L426.73,220.686L425.11,221.442L426.735,224.696L426.842,225.898L428.058,226.943L427.657,227.381L428.018,228.682L428.935,228.995L428.293,229.685L428.742,230.334L427.85,230.982L425.284,231.478L423.363,231.54L422.927,230.577L421.102,228.669L421.866,227.191L421.896,226.423L421.316,224.812L420.698,224.159L420.482,222.643L419.803,223.445L418.331,224.382L416.813,226.171L414.857,228.008L413.275,228.087L412.315,228.591L411.353,228.529L412.358,229.491L412.51,230.036L413.349,230.486L415.747,230.499L417.136,231.23L419.571,231.098L420.159,232.651L419.878,234.199L420.41,236.351L421.033,237.512L422.093,238.222L423.218,238.569L425.632,241.241L426.193,241.666L428.563,241.687L429.092,242.369L433.625,251.455L434.127,252.128L432.924,252.69L432.799,254.197L432.002,255.337L429.1,257.303L428.972,257.902L427.732,258.682L427.764,259.273L426.393,258.624L425.682,258.682L427.083,260.219L426.07,261.648L426.179,263.547L425.388,263.874L425.319,266.005L425.968,268.491L427.187,267.438L427.668,267.967L429.458,267.946L430.979,267.186L432.096,267.793L432.382,269.635L433.154,269.363L433.432,267.087L434.787,266.463L435.118,265.794L436.006,265.46L436.177,264.535L436.826,264.072L438.189,262.234L438.029,261.829L438.868,261.061L438.852,260.603L437.28,258.352L438.932,258.294L440.094,257.423L440.268,256.687L440.944,256.82L441.075,257.67L442.684,258.897L442.369,259.859L443.253,260.247L443.381,261.222L444.627,262.213L444.576,263.49L444.886,264.006L443.822,265.109L444.255,265.786L444.854,265.497L445.367,265.955L446.484,265.823L448.381,267.57L448.651,268.921L448.47,270.407L449.854,271.622L450.717,272.98L451.807,274.046L451.473,275.752L452.243,277.85L454.546,280.803L454.589,282.294L455.519,283.652L455.565,284.916L456.588,285.461L458.165,287.51L457.756,289.282L458.234,291.004L459.386,291.818L460.557,290.979L461.577,290.76L462.841,291.016L462.871,289.265L463.288,288.732L464.445,288.513L465.901,289.1L466.46,287.861L467.849,288.435L468.095,289.129L469.111,288.679L469.72,288.844L470.42,290.087L471.516,290.31L474.939,288.885L476.521,288.348L476.281,287.564L476.901,287.382L478.21,287.716L478.624,287.303L480.233,286.82L480.417,286.25L481.358,287.287L481.545,288.249L481.329,289.666L482.513,290.475L483.496,291.595L481.762,291.954L482.505,292.838L482.248,293.705L481.374,293.969L479.274,293.428L478.402,292.449L477.622,292.28L477.229,294.027L475.03,291.929L474.83,292.606L475.554,293.924L475.58,294.791L476.559,295.126L477.94,295.047L478.362,295.981L479.268,296.869Z" fill="#eee" opacity="0.5"></path><path d="M511.443,133.823L511.679,134.38L510.877,135.021L510.401,136.602L510.786,138.928L513.667,144.387L514.052,145.391L511.994,146.837L508.317,146.205L507.272,148.224L506.534,150.017L506.804,150.281L506.729,152.602L507.25,154.894L508.06,156.336L508.841,155.985L511.23,155.828L510.912,157.281L511.312,162.832L512.256,164.418L513.108,163.695L516.304,164.022L515.917,166.719L514.402,170.671L512.058,174.264L510.078,175.363L507.106,176.594L506.9,178.171L507.389,183.875L507.552,184.552L507.44,186.671L502.697,186.398L497.558,184.837L497.152,186.175L493.907,184.99L488.64,184.767L489.332,183.619L485.685,181.05L484.351,179.637L483.381,178.196L480.845,176.519L479.685,176.346L477.208,174.483L476.096,172.513L474.792,171.642L473.269,170.147L473.296,169.548L471.038,169.25L470.148,168.854L470.158,168.424L469.282,167.755L468.523,166.491L468.697,165.178L468.175,164.881L469.065,163.225L471.321,163.101L472.547,162.774L473.523,162.952L474.544,161.663L474.49,157.88L472.807,157.678L472.724,156.121L470.278,156.038L469.755,155.373L470.925,153.655L469.765,152.581L469.306,151.413L468.582,150.876L467.726,151.52L467.157,149.909L466.647,149.455L466.615,148.319L467.208,148.34L467.211,145.949L465.033,145.709L465.834,146.721L465.134,146.725L464.132,144.288L462.804,143.644L462.531,143.095L462.964,141.257L463.996,140.431L464.284,139.456L463.459,137.891L463.427,137.086L462.034,136.722L460.661,135.855L460.768,135.128L459.186,134.934L458.208,134.248L457.264,134.451L456.412,135.727L456.174,135.636L456.043,133.224L454.704,132.567L454.803,131.845L453.779,131.539L453.277,132.084L452.379,131.799L452.636,131.13L452.286,130.391L452.844,130.131L452.229,129.73L452.248,129.036L450.728,130.667L450.533,131.473L449.44,132.58L447.139,131.593L446.54,132.794L444.512,132.266L443.435,135.537L441.377,134.137L443.755,128.177L443.526,127.706L440.081,126.12L438.764,125.633L437.59,124.097L434.45,123.605L435.493,120.318L434.878,119.194L433.726,117.827L433.288,116.472L432.558,115.407L431.994,113.16L433.09,110.913L432.516,109.026L432.777,106.168L433.67,106.127L434.285,105.524L433.178,102.265L434.135,100.08L433.921,98.499L435.233,97.148L435.343,95.851L434.771,92.506L435.129,91.738L435.944,91.506L436.158,90.367L435.602,89.834L435.407,88.925L434.841,88.396L434.408,86.406L434.557,85.278L436.07,83.738L436.064,82.424L436.994,81.466L437.769,80.141L437.088,77.807L438.657,76.362L438.825,75.754L438.28,73.867L438.774,72.417L438.125,71.69L438.085,70.439L438.959,70.266L440.289,69.089L441.078,68.981L441.048,68.358L441.893,66.937L443.277,65.851L443.814,64.843L444.295,64.694L445.525,63.521L446.382,61.733L448.531,62.245L450.137,62.414L451.286,63.583L454.063,65.173L456.022,65.371L456.286,66.441L457.048,67.494L457.74,67.713L459.91,67.816L461.668,68.312L461.687,68.845L462.566,69.047L464.37,67.936L465.295,69.564L466.588,69.398L468.427,70.687L468.528,71.393L469.931,70.761L470.853,70.625L470.813,71.794L471.513,72.322L472.694,71.876L474.188,72.397L476.444,72.293L475.837,73.954L477.638,74.206L477.582,76.878L478.215,77.468L479.055,77.634L479.674,77.287L480.805,77.559L481.043,78.15L480.578,78.889L480.848,80.194L482.336,79.463L482.673,78.728L483.905,78.703L485.348,79.711L487.718,79.756L488.897,80.71L491.457,81.4L493.37,81.309L493.338,82.734L492.643,84.035L493.988,84.254L496.802,85.332L497.077,85.745L496.965,87.661L498.621,89.536L497.737,100.572L497.528,102.579L496.668,104.285L493.814,110.695L492.678,111.694L484.351,118.075L484.976,119.417L487.013,120.115L488.296,121.408L489.447,123.085L490.131,123.704L493.09,125.137L495.869,126.847L498.076,127.215L499.525,128.028L501.919,128.854L503.816,129.713L505.877,131.927L507.844,132.972Z" stroke="#747569" stroke-width="1" stroke-dasharray="3,3" fill="none"></path><path d="M498.621,89.536L496.965,87.661L497.077,85.745L496.802,85.332L493.988,84.254L492.643,84.035L493.338,82.734L493.37,81.309L491.457,81.4L488.897,80.71L487.718,79.756L485.348,79.711L483.905,78.703L482.673,78.728L482.336,79.463L480.848,80.194L480.578,78.889L481.043,78.15L480.805,77.559L479.674,77.287L479.055,77.634L478.215,77.468L477.582,76.878L477.638,74.206L475.837,73.954L476.444,72.293L474.188,72.397L472.694,71.876L471.513,72.322L470.813,71.794L470.853,70.625L469.931,70.761L468.528,71.393L468.427,70.687L466.588,69.398L465.295,69.564L464.37,67.936L462.566,69.047L461.687,68.845L461.668,68.312L459.91,67.816L457.74,67.713L457.048,67.494L456.286,66.441L456.022,65.371L454.063,65.173L451.286,63.583L450.137,62.414L448.531,62.245L446.382,61.733L445.017,61.75L443.943,60.122L443.654,58.685L444.56,57.454L446.797,55.554L448.002,53.584L449.071,52.837L450.185,52.812L450.936,52.226L451.088,51.267L451.732,50.008L452.187,49.855L452.98,48.451L453.157,47.224L452.302,46.221L452.914,45.333L452.529,45.048L452.74,43.511L453.616,41.45L453.921,40.083L455.057,38.725L455.511,37.184L456.617,35.078L457.694,33.372L458.574,32.662L459.656,32.339L461.147,34.285L463.403,34.929L465.084,35.082L466.241,35.507L468.071,34.549L468.819,33.888L469.541,31.864L468.934,29.915L468.811,28.511L469.023,26.578L468.48,23.827L468.306,22.233L468.672,21.399L470.035,20.874L472.069,20.821L473.266,20.259L475.77,19.553L478.05,19.214L480.738,19.66L482.686,20.135L483.533,20.689L486.246,21.42L486.866,20.965L486.973,20.036L487.582,18.797L487.75,17.492L488.397,17.5L489.017,16.687L490.177,16.075L491.55,14.014L492.261,13.469L492.686,12.478L493.873,10.64L496.147,11.594L497.13,12.437L499.666,12.718L501.013,11.726L502.865,10.756L504.233,10.785L505.655,10L506.016,10.83L508.05,10.995L508.798,12.04L509.362,13.432L508.982,14.679L510.054,16.447L509.664,18.983L510.027,20.676L508.996,23.142L508.806,24.348L509.461,25.294L509.193,27.127L511.537,29.23L512.202,32.224L513.298,34.941L513.768,37.122L515.075,39.125L515.97,39.807L517.908,40.765L520.024,41.215L520.698,41.752L521.131,42.776L521.756,42.764L522.771,43.424L523.124,46.34L523.097,47.282L522.176,54.229L521.745,55.009L517.814,59.09L515.725,61.043L512.478,64.55L511.211,66.107L509.714,68.267L508.381,70.761L506.94,72.942L506.029,74.61L502.349,77.621L501.815,78.703Z" stroke="#747569" stroke-width="1" stroke-dasharray="3,3" fill="none"></path><path d="M434.45,123.605L437.59,124.097L438.764,125.633L440.081,126.12L443.526,127.706L443.755,128.177L441.377,134.137L443.435,135.537L444.512,132.266L446.54,132.794L447.139,131.593L449.44,132.58L450.533,131.473L450.728,130.667L452.248,129.036L452.229,129.73L452.844,130.131L452.286,130.391L452.636,131.13L452.379,131.799L453.277,132.084L453.779,131.539L454.803,131.845L454.704,132.567L456.043,133.224L456.174,135.636L456.412,135.727L457.264,134.451L458.208,134.248L459.186,134.934L460.768,135.128L460.661,135.855L462.034,136.722L463.427,137.086L463.459,137.891L464.284,139.456L463.996,140.431L462.964,141.257L462.531,143.095L462.804,143.644L464.132,144.288L465.134,146.725L465.834,146.721L465.033,145.709L467.211,145.949L467.208,148.34L466.615,148.319L466.647,149.455L467.157,149.909L467.726,151.52L468.582,150.876L469.306,151.413L469.765,152.581L470.925,153.655L469.755,155.373L470.278,156.038L472.724,156.121L472.807,157.678L474.49,157.88L474.544,161.663L473.523,162.952L472.547,162.774L471.321,163.101L469.065,163.225L468.175,164.881L468.697,165.178L468.523,166.491L469.282,167.755L470.158,168.424L470.148,168.854L471.038,169.25L473.296,169.548L473.269,170.147L474.792,171.642L476.096,172.513L477.208,174.483L479.685,176.346L480.845,176.519L483.381,178.196L484.351,179.637L485.685,181.05L489.332,183.619L488.64,184.767L493.907,184.99L497.152,186.175L497.558,184.837L502.697,186.398L507.44,186.671L507.552,184.552L507.389,183.875L506.9,178.171L507.106,176.594L510.078,175.363L512.058,174.264L514.402,170.671L515.917,166.719L516.304,164.022L513.108,163.695L512.256,164.418L511.312,162.832L510.912,157.281L511.23,155.828L508.841,155.985L508.06,156.336L507.25,154.894L506.729,152.602L506.804,150.281L506.534,150.017L507.272,148.224L508.317,146.205L511.994,146.837L514.052,145.391L513.667,144.387L510.786,138.928L510.401,136.602L510.877,135.021L511.679,134.38L511.443,133.823L514.567,134.669L515.313,135.136L517.443,135.652L518.253,136.103L521.013,137.015L526.547,138.159L526.753,137.54L527.718,137.399L529.418,137.932L530.358,136.652L531.016,136.321L532.24,137.143L532.587,136.66L534.813,136.772L535.326,136.478L535.537,135.235L536.374,134.087L537.376,134.674L539.19,134.979L540.452,134.769L542.17,136.875L543.378,137.255L543.985,138.515L544.746,139.241L547.17,139.956L548.191,140.538L549.749,140.608L551.654,141.567L552.68,143.343L553.771,144.416L553.843,145.036L555.329,146.514L556.823,148.951L559.436,149.538L560.273,150.727L558.447,154.143L557.982,155.39L558.6,156.237L560.914,156.972L561.676,156.129L564.396,155.815L566.619,158.235L569.773,160.965L575.775,163.08L577.509,164.447L577.608,165.934L576.857,168.325L576.566,169.837L576.055,170.824L574.551,172.769L573.648,172.546L572.851,171.249L571.932,171.253L571.734,170.51L571.096,171.146L571.526,171.687L572.226,171.646L570.639,172.699L569.155,172.682L566.841,173.075L564.922,173.802L564.26,175.838L564.383,177.101L563.805,179.732L562.247,181.26L559.482,181.963L557.622,181.087L556.021,181.273L555.852,181.835L556.235,183.268L558.808,183.879L558.637,185.366L557.034,185.002L554.604,187.782L554.19,188.03L553.995,189.062L553.004,189.566L551.125,189.76L550.136,189.38L551.553,191.986L552.477,192.205L554.599,191.631L554.858,192.387L554.225,195.001L553.693,196.575L552.758,198.503L551.619,199.59L549.623,201.068L548.447,201.535L547.894,202.192L547.747,203.592L547.838,206.297L547.098,210.348L546.053,213.277L546.277,215.362L545.804,216.651L546.272,219.199L547.007,221.219L548.621,222.619L549.824,225.221L549.781,226.517L548.455,226.187L546.962,226.716L546.788,227.397L549.201,229.537L550.524,230.268L551.513,232.213L552.028,233.708L552.135,234.868L551.601,236.5L551.585,237.272L549.695,240.192L548.763,238.887L547.413,237.433L547.026,237.71L547.36,239.994L547.964,240.605L547.149,240.469L545.152,239.606L543.995,240.403L541.745,237.838L540.342,236.727L539.746,235.905L538.846,236.256L537.349,236.397L535.992,236.785L534.984,237.503L534.233,237.582L532.958,238.689L532.245,237.652L531.566,237.338L530.262,237.83L528.945,237.26L527.801,236.178L527.411,236.979L527.849,238.59L527.547,239.16L526.296,238.652L525.976,238.879L524.944,238.077L524.498,238.416L525.385,239.341L524.156,239.486L522.266,238.854L521.596,237.375L519.223,235.546L517.889,235.124L516.751,236.136L517.571,236.909L518.501,237.012L518.726,237.958L518.039,237.982L518.378,239.213L517.595,239.321L516.82,240.44L515.137,238.66L514.177,238.87L512.739,237.677L511.647,237.07L510.981,236.07L509.773,235.744L507.988,234.406L508.079,235.137L507.325,235.215L506.914,237.028L507.395,237.949L506.077,240.019L506.727,240.688L506.422,242.117L505.754,241.543L505.455,240.204L504.493,240.147L503.72,239.337L503.846,238.102L502.285,238.119L501.46,238.408L500.62,237.26L499.728,238.821L499.086,239.031L498.485,237.644L496.852,238.346L496.51,237.396L495.006,236.739L494.081,237.491L495.313,240.655L495.995,241.79L496.395,241.885L497.272,243.707L497.146,244.285L497.774,246.796L498.956,248.498L498.21,249.398L496.962,248.968L497.355,250.327L496.796,252.764L497.085,253.821L495.465,254.197L494.207,253.912L493.234,253.383L492.868,254.552L492.961,256.08L492.074,256.63L491.168,255.502L492.117,255.378L489.739,252.78L488.942,251.711L489.041,253.111L490.099,254.812L489.634,255.853L490.703,256.836L492.018,257.022L492.737,257.914L493.825,258.286L494.458,259.678L493.712,260.929L494.418,262.222L495.097,261.222L495.81,260.826L496.695,261.648L496.117,262.263L496.735,263.002L495.759,263.849L497.034,264.737L496.89,266.616L498.223,267.942L498.277,268.859L496.973,269.776L497.17,270.812L496.684,271.271L496.799,272.807L496.345,274.57L495.848,274.703L496.198,276.404L497.264,277.581L496.216,277.569L494.955,276.148L494.565,276.883L493.258,274.967L492.611,275.446L491.615,275.248L491.508,276.512L490.008,276.132L489.776,276.71L488.378,276.867L487.692,277.916L486.879,278.329L487.673,279.477L488.173,280.869L487.248,281.108L486.601,280.551L485.033,281.282L485.292,283.103L485.351,285.168L485.054,286.907L483.247,287.733L481.358,287.287L480.417,286.25L480.233,286.82L478.624,287.303L478.21,287.716L476.901,287.382L476.281,287.564L476.521,288.348L474.939,288.885L471.516,290.31L470.42,290.087L469.72,288.844L469.111,288.679L468.095,289.129L467.849,288.435L466.46,287.861L465.901,289.1L464.445,288.513L463.288,288.732L462.871,289.265L462.841,291.016L461.577,290.76L460.557,290.979L459.386,291.818L458.234,291.004L457.756,289.282L458.165,287.51L456.588,285.461L455.565,284.916L455.519,283.652L454.589,282.294L454.546,280.803L452.243,277.85L451.473,275.752L451.807,274.046L450.717,272.98L449.854,271.622L448.47,270.407L448.651,268.921L448.381,267.57L446.484,265.823L445.367,265.955L444.854,265.497L444.255,265.786L443.822,265.109L444.886,264.006L444.576,263.49L444.627,262.213L443.381,261.222L443.253,260.247L442.369,259.859L442.684,258.897L441.075,257.67L440.944,256.82L440.268,256.687L440.094,257.423L438.932,258.294L437.28,258.352L438.852,260.603L438.868,261.061L438.029,261.829L438.189,262.234L436.826,264.072L436.177,264.535L436.006,265.46L435.118,265.794L434.787,266.463L433.432,267.087L433.154,269.363L432.382,269.635L432.096,267.793L430.979,267.186L429.458,267.946L427.668,267.967L427.187,267.438L425.968,268.491L425.319,266.005L425.388,263.874L426.179,263.547L426.07,261.648L427.083,260.219L425.682,258.682L426.393,258.624L427.764,259.273L427.732,258.682L428.972,257.902L429.1,257.303L432.002,255.337L432.799,254.197L432.924,252.69L434.127,252.128L433.625,251.455L429.092,242.369L428.563,241.687L426.193,241.666L425.632,241.241L423.218,238.569L422.093,238.222L421.033,237.512L420.41,236.351L419.878,234.199L420.159,232.651L419.571,231.098L417.136,231.23L415.747,230.499L413.349,230.486L412.51,230.036L412.358,229.491L411.353,228.529L412.315,228.591L413.275,228.087L414.857,228.008L416.813,226.171L418.331,224.382L419.803,223.445L420.482,222.643L420.698,224.159L421.316,224.812L421.896,226.423L421.866,227.191L421.102,228.669L422.927,230.577L423.363,231.54L425.284,231.478L427.85,230.982L428.742,230.334L428.293,229.685L428.935,228.995L428.018,228.682L427.657,227.381L428.058,226.943L426.842,225.898L426.735,224.696L425.11,221.442L426.73,220.686L428.307,220.203L429.597,219.228L429.811,218.476L433.256,218.803L440.233,219.575L441.457,218.241L441.655,217.126L440.452,215.738L439.506,215.185L438.641,215.168L437.331,214.305L436.369,214.07L433.699,212.236L434.247,210.716L436.952,211.067L437.056,210.538L436.27,208.795L437.08,207.891L439.237,207.226L440.092,207.874L440.944,207.573L441.121,205.789L444.822,205.198L443.985,203.943L442.817,203.476L442.983,202.881L444.186,202.964L444.731,202.65L445.701,203.026L446.438,202.91L447.085,201.907L447.393,200.506L448.657,199.557L449.13,198.45L449.99,198.689L450.599,197.979L452.088,197.624L450.899,195.831L449.247,195.385L448.491,194.522L448.849,194.419L446.283,191.094L446.265,190.082L446.781,189.335L447.764,189.438L448.077,189.05L447.908,187.757L448.066,186.01L447.05,185.527L446.559,184.874L445.338,184.928L444.37,184.424L442.283,184.622L440.912,183.437L440.632,184.932L439.028,187.447L438.552,189.004L436.842,188.872L437.727,187.505L437.117,186.039L436.556,185.663L436.666,184.37L437.264,182.438L437.339,178.968L438.384,177.692L438.296,176.544L436.823,176.788L434.493,176.391L433.798,177.506L432.256,176.854L431.527,176.957L429.009,176.503L427.174,177.535L425.68,177.618L423.734,177.209L422.056,177.783L420.672,177.874L418.534,178.824L418.317,179.348L415.217,179.683L415.712,178.122L415.744,174.983L416.171,172.587L417.088,172.22L420.014,172.823L420.557,173.17L421.989,172.872L424.298,171.621L425.856,171.113L427.155,170.37L428.045,169.226L428.748,166.871L429.213,165.954L430.578,164.146L430.958,162.795L430.867,161.717L430.244,159.318L430.116,157.339L430.257,156.299L431.198,154.138L432.125,152.738L433.435,149.48L432.582,147.712L431.014,145.164L429.776,143.5L428.74,141.74L427.737,138.035L428.315,131.465L428.937,129.862L430.495,128.086L431.938,127.405L433.627,126.013Z" stroke="#747569" stroke-width="1" stroke-dasharray="3,3" fill="none"></path><path d="M451.77,402.49L451.925,402.416L451.992,401.958L451.65,401.644L451.863,400.471L451.516,398.724L453.127,398.517L453.999,397.604L453.616,396.754L452.342,396.63L452.056,398.228L451.722,398.36L451.516,397.266L448.587,398.1L447.745,398.162L447.013,396.63L447.502,396.386L447.395,395.403L446.489,395.663L445.859,395.015L444.082,394.474L443.194,394.536L442.029,394.086L439.245,393.706L438.416,392.962L436.954,393.305L436.96,394.172L435.701,393.677L435.185,396.101L434.726,396.456L433.991,398.492L433.17,398.075L432.967,395.857L433.2,395.374L433.018,393.578L432.096,393.879L432.467,392.896L431.933,392.206L432.19,391.748L431.575,390.257L430.129,391.166L428.496,389.113L429.146,388.609L428.558,387.833L427.272,387.544L426.281,386.185L426.944,386.123L427.411,384.863L427.024,384.471L426.337,385.52L425.674,385.26L425.84,383.93L425.244,383.686L424.432,384.07L423.512,383.248L423.916,380.217L422.679,379.453L421.591,379.639L421.628,378.214L422.684,377.784L423.283,377.062L424.01,375.538L424.603,378.107L425.327,378.33L426.831,376.388L426.709,375.092L426.032,374.972L425.11,375.69L424.552,374.968L422.967,374.373L422.526,374.835L421.639,374.522L421.567,373.63L421.083,373.501L420.741,374.406L419.883,373.192L416.129,375.211L414.25,375.839L414.082,376.554L412.051,376.483L412.449,378.144L411.596,379.279L411.26,378.197L411.872,376.686L411.351,375.674L410.201,375.364L409.501,375.942L408.892,375.455L407.241,376.231L405.055,375.434L404.651,374.881L404.33,373.134L403.646,372.932L402.839,373.427L403.112,371.081L402.339,370.189L401.53,370.272L401.089,369.524L400.856,366.464L399.937,366.844L399.87,366.204L399.253,366.134L398.152,367.364L397.297,369.045L396.588,367.889L397.478,366.592L396.629,366.695L396.88,365.882L396.276,363.986L397.414,363.065L397.879,363.73L398.448,362.92L397.845,361.814L396.923,361.26L396.236,361.359L395.234,360.562L394.63,360.884L393.382,359.868L392.796,358.072L393.839,357.63L393.44,355.54L392.633,354.445L393.165,353.5L393.47,350.691L393.277,348.684L393.94,348.3L393.737,347.061L394.13,345.43L395.87,345.351L395.437,344.414L396.832,342.712L397.882,342.278L397.89,341.415L398.571,340.936L399.205,341.316L401.049,338.541L401.896,338.995L402.724,338.859L403.325,338.243L403.975,338.842L405.429,339.057L405.811,338.842L406.524,336.662L406.27,335.939L406.922,336.154L407.575,334.022L406.663,333.283L405.573,330.603L405.6,330.004L406.254,329.851L407.818,328.781L409.429,327.361L413.48,325.453L414.707,326.113L415.097,327.712L415.856,328.224L416.428,329.591L417.232,330.099L418.058,331.363L420.249,333.469L421.318,333.804L422.093,333.523L422.895,332.313L424.373,331.615L425.931,331.858L427.043,331.181L427.788,331.619L428.667,333.56L426.874,335.365L427.524,335.687L428.256,335.105L429.058,335.328L430.271,334.89L430.998,335.146L431.262,336.302L431.738,336.86L433.429,334.898L434.79,333.965L435.167,332.474L436.361,330.603L437.008,330.053L436.837,328.236L437.115,327.547L438.411,327.505L442.387,327.964L444.68,329.521L446.401,329.735L446.054,326.638L445.57,324.585L443.579,320.117L443.892,319.419L444.645,319.047L444.514,318.163L444.902,317.428L447.23,318.006L448.189,316.556L449.138,316.627L450.773,316.082L452.056,316.846L452.326,316.156L452.908,316.193L453.344,316.924L454.48,317.787L456.206,316.829L457.342,316.854L458.702,316.16L461.762,315.194L462.28,314L464.129,312.212L465.599,311.192L467.547,311.187L468.392,308.329L469.004,308.78L470.115,308.296L471.102,308.28L471.225,305.88L472.042,304.129L471.201,304.439L470.84,301.631L472.293,300.97L472.857,299.586L473.68,299.685L474.378,298.591L475.54,298.054L477.954,298.636L478.683,297.703L479.474,298.174L480.455,297.831L482.085,299.826L482.79,299.656L483.926,300.144L484.453,301.494L485.03,301.346L485.327,300.16L485.947,301.065L487.176,301.494L487.585,302.721L487.309,303.919L486.011,305.356L485.778,306.223L486.524,306.793L486.11,308.024L485.164,307.206L485.142,309.54L486.112,309.329L486.863,310.308L487.879,310.432L487.721,311.163L488.202,311.534L487.732,312.15L486.558,311.547L486.345,312.707L486.246,316.528L485.538,317.948L486.518,318.952L486.566,320.67L485.709,319.679L485.514,319.01L484.175,317.721L483.429,318.039L483.424,318.683L484.028,319.476L484.477,320.728L485.933,322.153L487.237,322.206L489.006,323.838L489.359,323.301L490.198,323.173L490.618,321.855L490.465,320.067L491.906,320.678L492.264,320.377L492.614,321.484L493.215,322.215L493.611,321.839L493.683,320.009L494.386,320.253L494.431,321.694L496.679,322.652L497.136,320.79L497.528,323.346L498.02,323.441L498.165,322.603L498.694,322.958L499.263,322.388L500.428,321.925L501.759,325.254L502.277,325.188L502.903,325.989L503.119,325.502L503.942,325.973L504.45,325.469L504.861,326.316L506.577,327.642L507.368,327.852L507.617,326.832L508.239,327.39L508.653,326.551L510.171,328.063L510.356,327.332L511.23,327.072L511.74,327.613L512.224,326.27L512.59,326.993L512.79,328.496L514.1,328.806L514.712,329.735L514.835,330.553L515.428,331.4L515.73,331.16L516.542,332.432L517.17,332.123L517.849,333.287L518.434,333.688L517.999,335.377L518.897,336.071L519.843,335.166L519.474,337.364L520.054,337.541L520.647,336.339L521.112,336.748L520.66,338.14L520.933,338.983L521.449,338.999L522.002,339.771L521.817,340.606L522.101,341.382L521.238,341.147L521.366,342.088L520.66,342.382L520.829,343.67L520.775,345.562L519.888,345.9L519.693,347.631L520.048,348.015L521.499,348.304L520.946,350.291L520.201,350.584L518.84,352.546L518.832,353.975L518.274,353.628L518.052,352.339L517.328,352.62L516.793,352.062L517.181,353.632L517.641,354.272L518.942,354.574L519.201,353.785L520.481,353.334L520.989,354.594L520.65,355.499L520.171,355.263L519.431,355.969L518.464,355.383L517.825,356.102L517.87,357.295L516.328,356.824L515.276,357.956L514.41,357.65L514.466,358.989L513.488,359.753L513.707,360.161L515.308,360.657L515.917,360.409L516.141,361.57L515.377,361.004L515.692,363.152L517.432,365.646L518.333,365.258L518.963,366.431L518.803,367.05L519.522,367.17L518.995,367.963L517.256,367.484L517.763,367.93L517.86,368.909L518.576,369.157L518.146,371.465L517.603,370.759L517.25,372.238L516.294,372.052L516.275,371.061L515.537,370.598L514.982,370.838L514.829,374.303L513.816,373.782L512.368,373.799L512.248,374.361L511.719,373.654L510.952,374.224L511.358,375.046L510.898,375.282L510.813,376.36L510.011,377.136L508.127,375.761L507.037,375.851L506.695,375.331L506.104,375.827L505.674,375.529L505.246,378.251L505.829,378.148L505.928,378.928L504.562,379.106L502.681,377.669L501.013,376.607L500.121,375.178L499.6,375.339L498.611,377.338L497.782,376.566L497.512,377.152L496.299,376.624L495.578,375.41L495.332,373.799L494.944,374.055L494.739,375.174L494.143,373.791L493.635,373.811L493.782,374.988L493.472,375.348L492.235,375.108L491.019,374.29L488.151,373.997L488.199,375.567L487.686,374.224L485.278,374.501L484.813,375.604L483.034,376.322L481.679,378.648L480.588,379.197L480.816,381.766L481.401,381.671L481.754,383.182L482.577,383.624L482.08,384.256L482.125,384.991L483.004,385.817L483.039,387.358L483.483,387.738L484.073,390.245L482.617,389.836L481.852,392.359L482.157,393.9L481.048,394.978L481.275,395.684L481.935,395.998L481.74,396.634L482.836,397.406L483.015,399.418L483.397,399.632L484.68,399.211L484.96,399.475L484.429,402.379L485.546,404.535L486.019,405.831L485.343,407.157L485.206,408.02L485.58,408.599L485.433,409.615L485.922,410.887L486.481,411.304L485.249,411.969L484.792,413.389L484.982,414.137L483.544,415.975L482.347,416.219L481.23,417.317L480.236,417.689L479.495,419.114L478.686,418.973L476.815,419.944L475.939,419.345L475.297,419.585L475.885,422.001L474.934,423L474.295,422.88L474.049,421.91L472.74,421.765L471.377,420.204L471.537,419.176L470.725,418.122L469.907,418.155L468.761,416.867L468.876,416.049L467.938,414.182L466.863,414.067L466.219,413.377L466.062,412.46L465.249,411.324L465.907,410.519L465.487,409.482L464.939,406.377L463.686,406.121L462.569,406.389L461.34,406.108L460.973,404.762L460.436,404.911L460.292,403.758L459.643,404.068L459.351,405.253L458.392,405.786L456.414,407.921L455.928,409.875L455.076,410.057L455.3,410.969L454.562,410.49L454.236,409.243L454.418,408.38L453.932,408.173L454.06,407.104L453.037,407.07L452.561,406.021L452.783,405.324L452.31,404.436L452.157,402.746ZM450.444,402.276L449.434,402.044L448.857,400.562L447.489,401.094L446.764,402.123L446.898,403.188L446.438,403.502L445.706,402.325L445.519,403.663L444.175,404.109L443.392,404.803L442.983,404.097L442.109,404.415L441.904,405.088L440.626,404.787L440.225,405.286L437.716,405.798L437.387,403.457L438.005,402.288L439.37,402.094L440.217,402.354L441.238,401.487L442.938,401.09L443.771,400.471L444.357,400.537L445.207,399.946L447.943,399.298L448.381,398.835L449.231,398.955L450.42,398.567L450.781,398.914L450.257,400.029ZM451.906,405.278L451.211,404.787L451.153,403.61L452.037,404.312ZM451.992,401.958L451.925,402.416L451.77,402.49L451.65,401.644Z" stroke="#747569" stroke-width="1" stroke-dasharray="3,3" fill="none"></path><path d="M478.683,297.703L477.954,298.636L475.54,298.054L474.378,298.591L473.68,299.685L472.857,299.586L472.293,300.97L470.84,301.631L471.201,304.439L472.042,304.129L471.225,305.88L471.102,308.28L470.115,308.296L469.004,308.78L468.392,308.329L467.547,311.187L465.599,311.192L464.129,312.212L462.28,314L461.762,315.194L458.702,316.16L457.342,316.854L456.206,316.829L454.48,317.787L453.344,316.924L452.908,316.193L452.326,316.156L452.056,316.846L450.773,316.082L449.138,316.627L448.189,316.556L447.23,318.006L444.902,317.428L444.514,318.163L444.645,319.047L443.892,319.419L443.579,320.117L445.57,324.585L446.054,326.638L446.401,329.735L444.68,329.521L442.387,327.964L438.411,327.505L437.115,327.547L436.837,328.236L437.008,330.053L436.361,330.603L435.167,332.474L434.79,333.965L433.429,334.898L431.738,336.86L431.262,336.302L430.998,335.146L430.271,334.89L429.058,335.328L428.256,335.105L427.524,335.687L426.874,335.365L428.667,333.56L427.788,331.619L427.043,331.181L425.931,331.858L424.373,331.615L422.895,332.313L422.093,333.523L421.318,333.804L420.249,333.469L418.058,331.363L417.232,330.099L416.428,329.591L415.856,328.224L415.097,327.712L414.707,326.113L413.48,325.453L409.429,327.361L407.818,328.781L406.254,329.851L405.6,330.004L404.843,327.865L403.366,326.787L403.122,325.56L403.785,324.024L403.307,322.789L403.844,321.802L404.368,321.707L404.672,320.158L403.978,318.948L403.376,318.514L402.869,317.065L401.348,316.813L400.605,316.333L400.151,314.702L399.002,313.595L398.702,312.422L399.627,312.459L400.116,311.695L399.688,311.031L398.748,310.931L398.342,308.697L398.537,306.632L397.369,305.476L396.233,305.868L395.667,305.211L396.27,303.394L395.848,302.543L396.003,300.982L395.514,299.793L393.502,297.715L392.243,296.063L390.963,297.182L389.675,297.005L389.154,297.389L388.462,296.551L387.487,296.295L387.241,295.254L386.605,295.006L386.85,294.374L388.742,293.387L388.617,291.974L387.909,290.797L388.307,290.426L387.569,289.488L386.687,289.608L386.011,288.398L386.014,287.196L385.405,287.2L384.472,286.147L384.737,283.38L383.403,281.827L382.799,279.655L383.932,277.123L384.828,276.532L385.888,276.532L385.899,275.776L388.449,275.975L388.737,274.703L390.493,275.095L391.209,275.706L392.203,275.636L393.013,274.814L393.304,273.683L393.903,273.476L393.499,271.729L393.24,269.383L392.823,269.482L390.934,267.95L390.538,266.752L390.049,266.451L390.45,265.674L388.962,264.77L389.138,264.254L388.636,262.973L386.685,260.945L385.942,260.396L384.811,261.425L383.334,260.326L382.078,260.888L381.987,261.437L381.06,260.842L381.46,259.843L380.963,257.162L381.46,257.183L381.599,255.936L381.102,255.374L380.961,254.222L380.244,253.412L379.977,250.67L379.288,250.463L377.12,250.525L375.675,250.129L374.074,249.212L372.895,248.861L371.594,247.899L370.776,248.2L370.033,249.443L367.746,248.448L367.962,246.994L367.225,246.643L364.122,247.011L363.272,246.164L363.219,242.484L362.7,241.902L361.452,241.576L360.245,240.65L360.413,239.23L359.737,238.044L358.815,237.479L358.729,236.116L358.019,234.402L356.169,232.993L355.661,231.895L355.496,229.124L353.59,228.091L352.89,227.368L351.885,227.277L351.396,226.827L350.525,227.389L349.854,226.15L349.157,225.65L348.283,226.398L347.094,226.798L346.856,227.443L345.589,228.339L344.467,229.446L343.572,229.483L341.765,229.995L340.485,229.813L340.229,229.462L339.411,229.941L338.184,230.102L337.241,229.71L337.123,229.045L336.057,227.984L335.231,226.047L335.464,224.077L336.258,222.515L336.998,222.536L337.177,221.764L336.723,221.202L337.113,220.488L337.751,220.45L338.689,221.215L339.43,221.181L340.306,220.38L340.408,219.257L341.362,218.41L342.054,218.451L343.47,217.336L344.093,217.452L344.534,216.527L344.499,215.309L343.329,215.804L340.587,214.751L340.052,213.421L340.05,212.698L340.659,211.517L340.851,210.352L341.509,209.584L339.777,209.122L338.211,208.428L337.188,208.771L336.271,208.49L335.787,207.862L333.628,207.643L332.393,207.333L330.761,208.052L329.718,207.073L328.917,206.896L327.212,208.259L326.025,208.131L324.545,208.407L323.505,208.102L322.319,205.797L319.713,206.545L318.265,207.61L317.385,207.854L316.594,208.568L314.978,208.329L311.279,208.969L310.405,208.242L310.392,207.59L311.661,206.206L313.182,205.541L314.328,205.971L315.924,205.405L317.225,204.182L318.665,204.302L319.927,203.918L320.159,202.233L320.886,199.205L321.744,199.292L321.966,198.859L330.782,198.508L337.046,198.132L344.365,197.215L351.426,196.463L353.623,194.91L356.281,193.729L359.36,193.7L361.07,193.147L368.791,192.403L370.082,191.742L373.839,189.008L375.664,187.009L377.561,186.551L379.985,185.242L381.733,184.61L383.539,183.218L384.854,182.533L386.423,182.322L388.954,181.649L391.818,180.174L392.51,180.257L395.383,179.864L396.401,179.563L397.641,179.642L398.865,179.377L400.298,179.658L402.331,180.695L403.913,180.881L409.17,180.777L413.17,180.401L414.338,180.443L415.217,179.683L418.317,179.348L418.534,178.824L420.672,177.874L422.056,177.783L423.734,177.209L425.68,177.618L427.174,177.535L429.009,176.503L431.527,176.957L432.256,176.854L433.798,177.506L434.493,176.391L436.823,176.788L438.296,176.544L438.384,177.692L437.339,178.968L437.264,182.438L436.666,184.37L436.556,185.663L437.117,186.039L437.727,187.505L436.842,188.872L438.552,189.004L439.028,187.447L440.632,184.932L440.912,183.437L442.283,184.622L444.37,184.424L445.338,184.928L446.559,184.874L447.05,185.527L448.066,186.01L447.908,187.757L448.077,189.05L447.764,189.438L446.781,189.335L446.265,190.082L446.283,191.094L448.849,194.419L448.491,194.522L449.247,195.385L450.899,195.831L452.088,197.624L450.599,197.979L449.99,198.689L449.13,198.45L448.657,199.557L447.393,200.506L447.085,201.907L446.438,202.91L445.701,203.026L444.731,202.65L444.186,202.964L442.983,202.881L442.817,203.476L443.985,203.943L444.822,205.198L441.121,205.789L440.944,207.573L440.092,207.874L439.237,207.226L437.08,207.891L436.27,208.795L437.056,210.538L436.952,211.067L434.247,210.716L433.699,212.236L436.369,214.07L437.331,214.305L438.641,215.168L439.506,215.185L440.452,215.738L441.655,217.126L441.457,218.241L440.233,219.575L433.256,218.803L429.811,218.476L429.597,219.228L428.307,220.203L426.73,220.686L425.11,221.442L426.735,224.696L426.842,225.898L428.058,226.943L427.657,227.381L428.018,228.682L428.935,228.995L428.293,229.685L428.742,230.334L427.85,230.982L425.284,231.478L423.363,231.54L422.927,230.577L421.102,228.669L421.866,227.191L421.896,226.423L421.316,224.812L420.698,224.159L420.482,222.643L419.803,223.445L418.331,224.382L416.813,226.171L414.857,228.008L413.275,228.087L412.315,228.591L411.353,228.529L412.358,229.491L412.51,230.036L413.349,230.486L415.747,230.499L417.136,231.23L419.571,231.098L420.159,232.651L419.878,234.199L420.41,236.351L421.033,237.512L422.093,238.222L423.218,238.569L425.632,241.241L426.193,241.666L428.563,241.687L429.092,242.369L433.625,251.455L434.127,252.128L432.924,252.69L432.799,254.197L432.002,255.337L429.1,257.303L428.972,257.902L427.732,258.682L427.764,259.273L426.393,258.624L425.682,258.682L427.083,260.219L426.07,261.648L426.179,263.547L425.388,263.874L425.319,266.005L425.968,268.491L427.187,267.438L427.668,267.967L429.458,267.946L430.979,267.186L432.096,267.793L432.382,269.635L433.154,269.363L433.432,267.087L434.787,266.463L435.118,265.794L436.006,265.46L436.177,264.535L436.826,264.072L438.189,262.234L438.029,261.829L438.868,261.061L438.852,260.603L437.28,258.352L438.932,258.294L440.094,257.423L440.268,256.687L440.944,256.82L441.075,257.67L442.684,258.897L442.369,259.859L443.253,260.247L443.381,261.222L444.627,262.213L444.576,263.49L444.886,264.006L443.822,265.109L444.255,265.786L444.854,265.497L445.367,265.955L446.484,265.823L448.381,267.57L448.651,268.921L448.47,270.407L449.854,271.622L450.717,272.98L451.807,274.046L451.473,275.752L452.243,277.85L454.546,280.803L454.589,282.294L455.519,283.652L455.565,284.916L456.588,285.461L458.165,287.51L457.756,289.282L458.234,291.004L459.386,291.818L460.557,290.979L461.577,290.76L462.841,291.016L462.871,289.265L463.288,288.732L464.445,288.513L465.901,289.1L466.46,287.861L467.849,288.435L468.095,289.129L469.111,288.679L469.72,288.844L470.42,290.087L471.516,290.31L474.939,288.885L476.521,288.348L476.281,287.564L476.901,287.382L478.21,287.716L478.624,287.303L480.233,286.82L480.417,286.25L481.358,287.287L481.545,288.249L481.329,289.666L482.513,290.475L483.496,291.595L481.762,291.954L482.505,292.838L482.248,293.705L481.374,293.969L479.274,293.428L478.402,292.449L477.622,292.28L477.229,294.027L475.03,291.929L474.83,292.606L475.554,293.924L475.58,294.791L476.559,295.126L477.94,295.047L478.362,295.981L479.268,296.869Z" stroke="#747569" stroke-width="1" stroke-dasharray="3,3" fill="none"></path><path d="M481.358,287.287L481.545,288.249L481.329,289.666L482.513,290.475L483.496,291.595L481.762,291.954L482.505,292.838L482.248,293.705L481.374,293.969L479.274,293.428L478.402,292.449L477.622,292.28L477.229,294.027L475.03,291.929L474.83,292.606L475.554,293.924L475.58,294.791L476.559,295.126L477.94,295.047L478.362,295.981L479.268,296.869L478.683,297.703L479.474,298.174L480.455,297.831L482.085,299.826L482.79,299.656L483.926,300.144L484.453,301.494L485.03,301.346L485.327,300.16L485.947,301.065L487.176,301.494L487.585,302.721L487.309,303.919L486.011,305.356L485.778,306.223L486.524,306.793L486.11,308.024L485.164,307.206L485.142,309.54L486.112,309.329L486.863,310.308L487.879,310.432L487.721,311.163L488.202,311.534L487.732,312.15L486.558,311.547L486.345,312.707L486.246,316.528L485.538,317.948L486.518,318.952L486.566,320.67L485.709,319.679L485.514,319.01L484.175,317.721L483.429,318.039L483.424,318.683L484.028,319.476L484.477,320.728L485.933,322.153L487.237,322.206L489.006,323.838L489.359,323.301L490.198,323.173L490.618,321.855L490.465,320.067L491.906,320.678L492.264,320.377L492.614,321.484L493.215,322.215L493.611,321.839L493.683,320.009L494.386,320.253L494.431,321.694L496.679,322.652L497.136,320.79L497.528,323.346L498.02,323.441L498.165,322.603L498.694,322.958L499.263,322.388L500.428,321.925L501.759,325.254L502.277,325.188L502.903,325.989L503.119,325.502L503.942,325.973L504.45,325.469L504.861,326.316L506.577,327.642L507.368,327.852L507.617,326.832L508.239,327.39L508.653,326.551L510.171,328.063L510.356,327.332L511.23,327.072L511.74,327.613L512.224,326.27L512.59,326.993L512.79,328.496L514.1,328.806L514.712,329.735L514.835,330.553L515.428,331.4L515.73,331.16L516.542,332.432L517.17,332.123L517.849,333.287L518.434,333.688L517.999,335.377L518.897,336.071L519.843,335.166L519.474,337.364L520.054,337.541L520.647,336.339L521.112,336.748L520.66,338.14L520.933,338.983L521.449,338.999L522.002,339.771L521.817,340.606L522.101,341.382L521.238,341.147L521.366,342.088L520.66,342.382L520.829,343.67L520.775,345.562L519.888,345.9L519.693,347.631L520.048,348.015L521.499,348.304L520.946,350.291L520.201,350.584L518.84,352.546L518.832,353.975L518.274,353.628L518.052,352.339L517.328,352.62L516.793,352.062L517.181,353.632L517.641,354.272L518.942,354.574L519.201,353.785L520.481,353.334L520.989,354.594L520.65,355.499L520.171,355.263L519.431,355.969L518.464,355.383L517.825,356.102L517.87,357.295L516.328,356.824L515.276,357.956L514.41,357.65L514.466,358.989L513.488,359.753L513.707,360.161L515.308,360.657L515.917,360.409L516.141,361.57L515.377,361.004L515.692,363.152L517.432,365.646L518.333,365.258L518.963,366.431L518.803,367.05L519.522,367.17L518.995,367.963L517.256,367.484L517.763,367.93L517.86,368.909L518.576,369.157L518.146,371.465L517.603,370.759L517.25,372.238L516.294,372.052L516.275,371.061L515.537,370.598L514.982,370.838L514.829,374.303L513.816,373.782L512.368,373.799L512.248,374.361L511.719,373.654L510.952,374.224L511.358,375.046L510.898,375.282L510.813,376.36L510.011,377.136L508.127,375.761L507.037,375.851L506.695,375.331L506.104,375.827L505.674,375.529L505.246,378.251L505.829,378.148L505.928,378.928L504.562,379.106L502.681,377.669L501.013,376.607L500.121,375.178L499.6,375.339L498.611,377.338L497.782,376.566L497.512,377.152L496.299,376.624L495.578,375.41L495.332,373.799L494.944,374.055L494.739,375.174L494.143,373.791L493.635,373.811L493.782,374.988L493.472,375.348L492.235,375.108L491.019,374.29L488.151,373.997L488.199,375.567L487.686,374.224L485.278,374.501L484.813,375.604L483.034,376.322L481.679,378.648L480.588,379.197L480.816,381.766L481.401,381.671L481.754,383.182L482.577,383.624L482.08,384.256L482.125,384.991L483.004,385.817L483.039,387.358L483.483,387.738L484.073,390.245L482.617,389.836L481.852,392.359L482.157,393.9L481.048,394.978L481.275,395.684L481.935,395.998L481.74,396.634L482.836,397.406L483.015,399.418L483.397,399.632L484.68,399.211L484.96,399.475L484.429,402.379L485.546,404.535L486.019,405.831L485.343,407.157L485.206,408.02L485.58,408.599L485.433,409.615L485.922,410.887L486.481,411.304L485.249,411.969L484.792,413.389L484.982,414.137L483.544,415.975L482.347,416.219L481.23,417.317L480.236,417.689L479.495,419.114L478.686,418.973L476.815,419.944L475.939,419.345L475.297,419.585L475.885,422.001L474.934,423L474.295,422.88L474.049,421.91L472.74,421.765L471.377,420.204L471.537,419.176L470.725,418.122L469.907,418.155L468.761,416.867L468.876,416.049L467.938,414.182L466.863,414.067L466.219,413.377L466.062,412.46L465.249,411.324L465.907,410.519L465.487,409.482L464.939,406.377L463.686,406.121L462.569,406.389L461.34,406.108L460.973,404.762L460.436,404.911L460.292,403.758L459.643,404.068L459.351,405.253L458.392,405.786L456.414,407.921L455.928,409.875L455.076,410.057L455.3,410.969L454.562,410.49L454.236,409.243L454.418,408.38L453.932,408.173L454.06,407.104L453.037,407.07L452.561,406.021L452.783,405.324L452.31,404.436L452.157,402.746L451.77,402.49L451.925,402.416L451.992,401.958L451.65,401.644L451.863,400.471L451.516,398.724L453.127,398.517L453.999,397.604L453.616,396.754L452.342,396.63L452.056,398.228L451.722,398.36L451.516,397.266L448.587,398.1L447.745,398.162L447.013,396.63L447.502,396.386L447.395,395.403L446.489,395.663L445.859,395.015L444.082,394.474L443.194,394.536L442.029,394.086L439.245,393.706L438.416,392.962L436.954,393.305L436.96,394.172L435.701,393.677L435.185,396.101L434.726,396.456L433.991,398.492L433.17,398.075L432.967,395.857L433.2,395.374L433.018,393.578L432.096,393.879L432.467,392.896L431.933,392.206L432.19,391.748L431.575,390.257L430.129,391.166L428.496,389.113L429.146,388.609L428.558,387.833L427.272,387.544L426.281,386.185L426.944,386.123L427.411,384.863L427.024,384.471L426.337,385.52L425.674,385.26L425.84,383.93L425.244,383.686L424.432,384.07L423.512,383.248L423.916,380.217L422.679,379.453L421.591,379.639L421.628,378.214L422.684,377.784L423.283,377.062L424.01,375.538L424.603,378.107L425.327,378.33L426.831,376.388L426.709,375.092L426.032,374.972L425.11,375.69L424.552,374.968L422.967,374.373L422.526,374.835L421.639,374.522L421.567,373.63L421.083,373.501L420.741,374.406L419.883,373.192L416.129,375.211L414.25,375.839L414.082,376.554L412.051,376.483L412.449,378.144L411.596,379.279L411.26,378.197L411.872,376.686L411.351,375.674L410.201,375.364L409.501,375.942L408.892,375.455L407.241,376.231L405.055,375.434L404.651,374.881L404.33,373.134L403.646,372.932L402.839,373.427L403.112,371.081L402.339,370.189L401.53,370.272L401.089,369.524L400.856,366.464L399.937,366.844L399.87,366.204L399.253,366.134L398.152,367.364L397.297,369.045L396.588,367.889L397.478,366.592L396.629,366.695L396.88,365.882L396.276,363.986L397.414,363.065L397.879,363.73L398.448,362.92L397.845,361.814L396.923,361.26L396.236,361.359L395.234,360.562L394.63,360.884L393.382,359.868L392.796,358.072L393.839,357.63L393.44,355.54L392.633,354.445L393.165,353.5L393.47,350.691L393.277,348.684L393.94,348.3L393.737,347.061L394.13,345.43L395.87,345.351L395.437,344.414L396.832,342.712L397.882,342.278L397.89,341.415L398.571,340.936L399.205,341.316L401.049,338.541L401.896,338.995L402.724,338.859L403.325,338.243L403.975,338.842L405.429,339.057L405.811,338.842L406.524,336.662L406.27,335.939L406.922,336.154L407.575,334.022L406.663,333.283L405.573,330.603L405.6,330.004L404.843,327.865L403.366,326.787L403.122,325.56L403.785,324.024L403.307,322.789L403.844,321.802L404.368,321.707L404.672,320.158L403.978,318.948L403.376,318.514L402.869,317.065L401.348,316.813L400.605,316.333L400.151,314.702L399.002,313.595L398.702,312.422L399.627,312.459L400.116,311.695L399.688,311.031L398.748,310.931L398.342,308.697L398.537,306.632L397.369,305.476L396.233,305.868L395.667,305.211L396.27,303.394L395.848,302.543L396.003,300.982L395.514,299.793L393.502,297.715L392.243,296.063L390.963,297.182L389.675,297.005L389.154,297.389L388.462,296.551L387.487,296.295L387.241,295.254L386.605,295.006L386.85,294.374L388.742,293.387L388.617,291.974L387.909,290.797L388.307,290.426L387.569,289.488L386.687,289.608L386.011,288.398L386.014,287.196L385.405,287.2L384.472,286.147L384.737,283.38L383.403,281.827L382.799,279.655L383.932,277.123L384.828,276.532L385.888,276.532L385.899,275.776L388.449,275.975L388.737,274.703L390.493,275.095L391.209,275.706L392.203,275.636L393.013,274.814L393.304,273.683L393.903,273.476L393.499,271.729L393.24,269.383L392.823,269.482L390.934,267.95L390.538,266.752L390.049,266.451L390.45,265.674L388.962,264.77L389.138,264.254L388.636,262.973L386.685,260.945L385.942,260.396L384.811,261.425L383.334,260.326L382.078,260.888L381.987,261.437L381.06,260.842L381.46,259.843L380.963,257.162L381.46,257.183L381.599,255.936L381.102,255.374L380.961,254.222L380.244,253.412L379.977,250.67L379.288,250.463L377.12,250.525L375.675,250.129L374.074,249.212L372.895,248.861L371.594,247.899L370.776,248.2L370.033,249.443L367.746,248.448L367.962,246.994L367.225,246.643L364.122,247.011L363.272,246.164L363.219,242.484L362.7,241.902L361.452,241.576L360.245,240.65L360.413,239.23L359.737,238.044L358.815,237.479L358.729,236.116L358.019,234.402L356.169,232.993L355.661,231.895L355.496,229.124L353.59,228.091L352.89,227.368L351.885,227.277L351.396,226.827L350.525,227.389L349.854,226.15L349.157,225.65L348.283,226.398L347.094,226.798L346.856,227.443L345.589,228.339L344.467,229.446L343.572,229.483L341.765,229.995L340.485,229.813L340.229,229.462L339.411,229.941L338.184,230.102L337.241,229.71L337.123,229.045L336.057,227.984L335.231,226.047L335.464,224.077L336.258,222.515L336.998,222.536L337.177,221.764L336.723,221.202L337.113,220.488L337.751,220.45L338.689,221.215L339.43,221.181L340.306,220.38L340.408,219.257L341.362,218.41L342.054,218.451L343.47,217.336L344.093,217.452L344.534,216.527L344.499,215.309L343.329,215.804L340.587,214.751L340.052,213.421L340.05,212.698L340.659,211.517L340.851,210.352L341.509,209.584L339.777,209.122L338.211,208.428L337.188,208.771L336.271,208.49L335.787,207.862L333.628,207.643L332.393,207.333L330.761,208.052L329.718,207.073L328.917,206.896L327.212,208.259L326.025,208.131L324.545,208.407L323.505,208.102L322.319,205.797L319.713,206.545L318.265,207.61L317.385,207.854L316.594,208.568L314.978,208.329L311.279,208.969L310.405,208.242L310.392,207.59L311.661,206.206L313.182,205.541L314.328,205.971L315.924,205.405L317.225,204.182L318.665,204.302L319.927,203.918L320.159,202.233L320.886,199.205L321.744,199.292L321.966,198.859L330.782,198.508L337.046,198.132L344.365,197.215L351.426,196.463L353.623,194.91L356.281,193.729L359.36,193.7L361.07,193.147L368.791,192.403L370.082,191.742L373.839,189.008L375.664,187.009L377.561,186.551L379.985,185.242L381.733,184.61L383.539,183.218L384.854,182.533L386.423,182.322L388.954,181.649L391.818,180.174L392.51,180.257L395.383,179.864L396.401,179.563L397.641,179.642L398.865,179.377L400.298,179.658L402.331,180.695L403.913,180.881L409.17,180.777L413.17,180.401L414.338,180.443L415.217,179.683L415.712,178.122L415.744,174.983L416.171,172.587L417.088,172.22L420.014,172.823L420.557,173.17L421.989,172.872L424.298,171.621L425.856,171.113L427.155,170.37L428.045,169.226L428.748,166.871L429.213,165.954L430.578,164.146L430.958,162.795L430.867,161.717L430.244,159.318L430.116,157.339L430.257,156.299L431.198,154.138L432.125,152.738L433.435,149.48L432.582,147.712L431.014,145.164L429.776,143.5L428.74,141.74L427.737,138.035L428.315,131.465L428.937,129.862L430.495,128.086L431.938,127.405L433.627,126.013L434.45,123.605L435.493,120.318L434.878,119.194L433.726,117.827L433.288,116.472L432.558,115.407L431.994,113.16L433.09,110.913L432.516,109.026L432.777,106.168L433.67,106.127L434.285,105.524L433.178,102.265L434.135,100.08L433.921,98.499L435.233,97.148L435.343,95.851L434.771,92.506L435.129,91.738L435.944,91.506L436.158,90.367L435.602,89.834L435.407,88.925L434.841,88.396L434.408,86.406L434.557,85.278L436.07,83.738L436.064,82.424L436.994,81.466L437.769,80.141L437.088,77.807L438.657,76.362L438.825,75.754L438.28,73.867L438.774,72.417L438.125,71.69L438.085,70.439L438.959,70.266L440.289,69.089L441.078,68.981L441.048,68.358L441.893,66.937L443.277,65.851L443.814,64.843L444.295,64.694L445.525,63.521L446.382,61.733L445.017,61.75L443.943,60.122L443.654,58.685L444.56,57.454L446.797,55.554L448.002,53.584L449.071,52.837L450.185,52.812L450.936,52.226L451.088,51.267L451.732,50.008L452.187,49.855L452.98,48.451L453.157,47.224L452.302,46.221L452.914,45.333L452.529,45.048L452.74,43.511L453.616,41.45L453.921,40.083L455.057,38.725L455.511,37.184L456.617,35.078L457.694,33.372L458.574,32.662L459.656,32.339L461.147,34.285L463.403,34.929L465.084,35.082L466.241,35.507L468.071,34.549L468.819,33.888L469.541,31.864L468.934,29.915L468.811,28.511L469.023,26.578L468.48,23.827L468.306,22.233L468.672,21.399L470.035,20.874L472.069,20.821L473.266,20.259L475.77,19.553L478.05,19.214L480.738,19.66L482.686,20.135L483.533,20.689L486.246,21.42L486.866,20.965L486.973,20.036L487.582,18.797L487.75,17.492L488.397,17.5L489.017,16.687L490.177,16.075L491.55,14.014L492.261,13.469L492.686,12.478L493.873,10.64L496.147,11.594L497.13,12.437L499.666,12.718L501.013,11.726L502.865,10.756L504.233,10.785L505.655,10L506.016,10.83L508.05,10.995L508.798,12.04L509.362,13.432L508.982,14.679L510.054,16.447L509.664,18.983L510.027,20.676L508.996,23.142L508.806,24.348L509.461,25.294L509.193,27.127L511.537,29.23L512.202,32.224L513.298,34.941L513.768,37.122L515.075,39.125L515.97,39.807L517.908,40.765L520.024,41.215L520.698,41.752L521.131,42.776L521.756,42.764L522.771,43.424L523.124,46.34L523.097,47.282L522.176,54.229L521.745,55.009L517.814,59.09L515.725,61.043L512.478,64.55L511.211,66.107L509.714,68.267L508.381,70.761L506.94,72.942L506.029,74.61L502.349,77.621L501.815,78.703L498.621,89.536L497.737,100.572L497.528,102.579L496.668,104.285L493.814,110.695L492.678,111.694L484.351,118.075L484.976,119.417L487.013,120.115L488.296,121.408L489.447,123.085L490.131,123.704L493.09,125.137L495.869,126.847L498.076,127.215L499.525,128.028L501.919,128.854L503.816,129.713L505.877,131.927L507.844,132.972L511.443,133.823L514.567,134.669L515.313,135.136L517.443,135.652L518.253,136.103L521.013,137.015L526.547,138.159L526.753,137.54L527.718,137.399L529.418,137.932L530.358,136.652L531.016,136.321L532.24,137.143L532.587,136.66L534.813,136.772L535.326,136.478L535.537,135.235L536.374,134.087L537.376,134.674L539.19,134.979L540.452,134.769L542.17,136.875L543.378,137.255L543.985,138.515L544.746,139.241L547.17,139.956L548.191,140.538L549.749,140.608L551.654,141.567L552.68,143.343L553.771,144.416L553.843,145.036L555.329,146.514L556.823,148.951L559.436,149.538L560.273,150.727L558.447,154.143L557.982,155.39L558.6,156.237L560.914,156.972L561.676,156.129L564.396,155.815L566.619,158.235L569.773,160.965L575.775,163.08L577.509,164.447L577.608,165.934L576.857,168.325L576.566,169.837L576.055,170.824L574.551,172.769L573.648,172.546L572.851,171.249L571.932,171.253L571.734,170.51L571.096,171.146L571.526,171.687L572.226,171.646L570.639,172.699L569.155,172.682L566.841,173.075L564.922,173.802L564.26,175.838L564.383,177.101L563.805,179.732L562.247,181.26L559.482,181.963L557.622,181.087L556.021,181.273L555.852,181.835L556.235,183.268L558.808,183.879L558.637,185.366L557.034,185.002L554.604,187.782L554.19,188.03L553.995,189.062L553.004,189.566L551.125,189.76L550.136,189.38L551.553,191.986L552.477,192.205L554.599,191.631L554.858,192.387L554.225,195.001L553.693,196.575L552.758,198.503L551.619,199.59L549.623,201.068L548.447,201.535L547.894,202.192L547.747,203.592L547.838,206.297L547.098,210.348L546.053,213.277L546.277,215.362L545.804,216.651L546.272,219.199L547.007,221.219L548.621,222.619L549.824,225.221L549.781,226.517L548.455,226.187L546.962,226.716L546.788,227.397L549.201,229.537L550.524,230.268L551.513,232.213L552.028,233.708L552.135,234.868L551.601,236.5L551.585,237.272L549.695,240.192L548.763,238.887L547.413,237.433L547.026,237.71L547.36,239.994L547.964,240.605L547.149,240.469L545.152,239.606L543.995,240.403L541.745,237.838L540.342,236.727L539.746,235.905L538.846,236.256L537.349,236.397L535.992,236.785L534.984,237.503L534.233,237.582L532.958,238.689L532.245,237.652L531.566,237.338L530.262,237.83L528.945,237.26L527.801,236.178L527.411,236.979L527.849,238.59L527.547,239.16L526.296,238.652L525.976,238.879L524.944,238.077L524.498,238.416L525.385,239.341L524.156,239.486L522.266,238.854L521.596,237.375L519.223,235.546L517.889,235.124L516.751,236.136L517.571,236.909L518.501,237.012L518.726,237.958L518.039,237.982L518.378,239.213L517.595,239.321L516.82,240.44L515.137,238.66L514.177,238.87L512.739,237.677L511.647,237.07L510.981,236.07L509.773,235.744L507.988,234.406L508.079,235.137L507.325,235.215L506.914,237.028L507.395,237.949L506.077,240.019L506.727,240.688L506.422,242.117L505.754,241.543L505.455,240.204L504.493,240.147L503.72,239.337L503.846,238.102L502.285,238.119L501.46,238.408L500.62,237.26L499.728,238.821L499.086,239.031L498.485,237.644L496.852,238.346L496.51,237.396L495.006,236.739L494.081,237.491L495.313,240.655L495.995,241.79L496.395,241.885L497.272,243.707L497.146,244.285L497.774,246.796L498.956,248.498L498.21,249.398L496.962,248.968L497.355,250.327L496.796,252.764L497.085,253.821L495.465,254.197L494.207,253.912L493.234,253.383L492.868,254.552L492.961,256.08L492.074,256.63L491.168,255.502L492.117,255.378L489.739,252.78L488.942,251.711L489.041,253.111L490.099,254.812L489.634,255.853L490.703,256.836L492.018,257.022L492.737,257.914L493.825,258.286L494.458,259.678L493.712,260.929L494.418,262.222L495.097,261.222L495.81,260.826L496.695,261.648L496.117,262.263L496.735,263.002L495.759,263.849L497.034,264.737L496.89,266.616L498.223,267.942L498.277,268.859L496.973,269.776L497.17,270.812L496.684,271.271L496.799,272.807L496.345,274.57L495.848,274.703L496.198,276.404L497.264,277.581L496.216,277.569L494.955,276.148L494.565,276.883L493.258,274.967L492.611,275.446L491.615,275.248L491.508,276.512L490.008,276.132L489.776,276.71L488.378,276.867L487.692,277.916L486.879,278.329L487.673,279.477L488.173,280.869L487.248,281.108L486.601,280.551L485.033,281.282L485.292,283.103L485.351,285.168L485.054,286.907L483.247,287.733ZM450.444,402.276L449.434,402.044L448.857,400.562L447.489,401.094L446.764,402.123L446.898,403.188L446.438,403.502L445.706,402.325L445.519,403.663L444.175,404.109L443.392,404.803L442.983,404.097L442.109,404.415L441.904,405.088L440.626,404.787L440.225,405.286L437.716,405.798L437.387,403.457L438.005,402.288L439.37,402.094L440.217,402.354L441.238,401.487L442.938,401.09L443.771,400.471L444.357,400.537L445.207,399.946L447.943,399.298L448.381,398.835L449.231,398.955L450.42,398.567L450.781,398.914L450.257,400.029ZM451.906,405.278L451.211,404.787L451.153,403.61L452.037,404.312ZM451.992,401.958L451.925,402.416L451.77,402.49L451.65,401.644Z" stroke="#333" stroke-width="2" stroke-dasharray="none" fill="none"></path></g></svg>