<svg width="888" height="433"><g><path d="M479.415,194.261L478.589,194.88L477.157,194.67L476.326,195.372L477.081,196.285L475.295,197.908L474.162,196.83L472.625,198.701L471.665,198.288L470.479,198.631L469.535,198.305L468.624,198.759L466.625,197.784L466.195,199.185L464.979,200.123L463.573,202.138L464.098,203.2L463.439,203.791L464.404,206.769L463.044,206.03L461.95,206.459L461.296,208.054L460.253,208.071L458.633,210.719L459.109,211.598L457.459,213.16L458.237,215.523L457.507,216.155L457.328,217.547L456.075,217.708L456.103,219.278L454.936,220.447L455.684,222.042L453.543,222.649L453.571,224.624L454.551,224.971L455.131,226.739L455.007,228.127L455.91,229.878L454.328,230.209L454.153,231.155L451.715,230.382L449.862,231.105L449.782,233.039L447.443,233.695L446.271,233.022L445.778,234.361L443.766,234.092L443.522,232.675L441.863,232.613L441.513,234.071L440.332,234.356L439.66,233.187L438.223,232.46L439.448,231.911L438.506,230.176L437.341,230.002L438.421,228.35L438.228,227.135L436.384,227.482L435.221,226.925L434.862,225.433L432.056,222.542L432.153,219.927L429.114,218.316L428.271,217.134L426.846,217.027L424.657,217.465L424.056,216.614L422.62,216.738L421.492,217.337L419.374,215.486L418.649,214.333L418.166,211.983L413.262,211.772L412.659,210.359L410.502,209.339L410.507,208.727L409.39,207.781L409.406,206.773L407.231,206.203L406.027,207.22L404.439,207.703L403.856,207.377L400.021,207.992L399.816,206.406L398.794,205.782L400.544,204.609L400.136,202.642L398.713,201.027L398.313,198.573L397.189,196.739L397.781,195.525L397.139,194.612L397.576,193.612L398.757,193.017L398.817,192.315L399.885,191.629L402.926,191.204L403.891,190.241L406.361,188.989L407.786,187.382L407.77,186.271L409.247,185.689L410.424,185.978L410.797,185.408L412.551,184.887L413.145,183.615L414.841,183.569L414.738,182.57L415.877,183.227L416.075,185.028L417.415,184.714L418.317,185.883L420.237,186.746L423.442,185.647L425.283,186.482L428.198,186.783L429.968,188.564L431.326,187.952L434.211,189.142L434.075,188.382L435.35,188.444L436.16,187.948L437.024,185.763L436.16,183.26L434.538,181.165L435.235,180.422L437.141,179.996L435.976,178.385L437.355,176.885L439.01,177.373L439.782,177.084L440.889,177.621L442.116,179.31L444.383,180.07L445.797,179.133L446.529,179.443L447.153,181.206L449.323,182.062L450.656,181.206L450.668,180L452.661,181.938L452.397,182.999L453.007,183.863L455.751,184.14L457.215,182.718L456.77,181.446L458.983,182.161L459.63,181.781L462.553,181.744L465.053,181.136L466.46,178.682L467.956,177.414L471.149,176.394L472.958,175.535L474.395,173.94L474.715,174.969L476.052,174.894L477.521,173.254L477.954,172.3L479.549,171.866L480.32,171.114L480.408,169.995L482.307,169.619L483.598,170.272L483.38,171.445L483.916,172.701L483.423,173.729L484.178,174.766L483.842,175.919L481.651,177.352L479.938,177.348L478.621,179.471L477.747,179.798L477.265,180.835L475.91,181.302L473.635,183.408L473.677,184.135L472.496,186.023L472.634,187.006L471.619,187.473L472.742,188.849L473.819,188.634L474.326,190.51L476.513,192.344L478.067,192.567Z" fill="#eee" opacity="0.5"></path><path d="M506.494,100.275L506.121,99.255L503.377,97.322L502.73,95.814L503.007,94.62L501.605,92.596L501.015,92.269L500.205,90.605L498.782,90.398L498.649,88.746L496.197,85.755L496.78,84.768L496.354,83.458L497.65,81.231L496.727,79.24L493.902,76.972L493.336,75.246L494.139,74.952L495.668,72.969L496.92,72.755L499.19,71.751L496.091,68.024L494.577,67.987L493.122,66.186L492.051,66.062L491.038,65.091L488.364,64.41L484.805,67.285L482.383,67.868L478.624,67.306L477.095,67.591L472.657,67.574L473.062,69.351L474.109,70.644L473.433,71.689L472.618,71.131L472.383,72.465L471.188,73.337L470.111,73.552L468.527,75.369L466.92,75.493L466.188,76.125L466.363,76.956L462.756,77.133L462.691,78.257L461.78,78.575L459.62,77.489L458.322,79.067L457.215,79.447L455.764,78.088L455.73,74.704L454.65,74.246L454.178,72.87L454.855,69.784L454.466,67.029L455.571,65.075L456.911,59.134L455.21,56.024L455.834,55.371L454.1,54.52L454.422,53.57L453.693,52.62L453.612,50.819L454.107,50.327L455.82,50.17L455.82,48.807L454.818,47.448L455.164,46.37L456.034,46.051L455.939,45.093L458.782,47.572L461.057,49.142L461.563,49.869L462.645,49.873L467.648,47.382L468.184,46.374L470.058,40.342L470.191,38.864L475.329,36.707L477.627,35.906L481.989,35.055L484.927,34.022L487.507,33.543L489.013,32.836L490.403,34.431L491.317,36.174L491.929,38.289L492.631,39.301L496.432,39.372L500.148,38.583L502.401,38.302L505.571,37.318L506.858,35.745L510.235,32.659L511.305,32.085L512.408,30.382L516.37,28.586L517.816,26.594L518.034,25.516L520.044,27.673L521.013,29.519L521.674,29.804L523.09,29.11L525.253,27.231L526.149,25.599L527.332,25.219L529.524,25.661L532.203,24.756L533.172,23.438L532.997,21.476L531.471,20.076L531.137,19.183L532.657,15.573L532.776,14.255L532.318,12.297L532.753,11.289L533.865,10.562L536.322,10L537.532,11.847L538.64,14.775L539.533,15.441L540.401,17.341L540.023,17.708L541.446,19.299L542.618,19.043L543.93,20.431L543.472,23.079L544.487,23.182L544.643,24.26L543.094,28.569L543.532,29.697L544.765,30.564L544.148,32.109L545.599,35.86L547.192,35.86L549.266,36.943L550.336,36.959L552.608,35.629L553.895,37.244L555.408,36.943L557.067,37.562L556.846,39.062L556.025,40.495L553.849,42.924L550.479,44.444L548.154,44.172L546.699,44.498L544.468,45.56L542.459,45.139L541.66,46.126L541.432,47.77L538.472,48.241L536.616,49.224L535.495,49.17L535.465,48.439L534.105,48.101L532.528,49.059L533.647,53.103L534.289,53.987L533.755,56.305L531.243,57.581L529.977,54.421L527.85,53.739L527.532,54.793L527.912,56.449L527.622,57.986L526.524,59.386L524.807,59.68L524.39,61.113L525.313,60.869L526.821,61.46L530.046,62.092L530.481,62.534L530.419,64.34L531.432,67.326L532.514,66.901L533.69,67.739L534.376,67.554L538.159,68.607L540.624,67.454L540.999,68.727L539.768,69.466L539.639,70.359L540.668,71.127L541.943,71.077L544.135,70.445L544.043,71.23L549.897,70.71L550.495,73.044L549.646,74.068L551.029,76.997L550.682,77.997L550.516,82.917L550.571,85.565L551.819,88.176L554.105,88.196L555.221,88.58L556.259,91.551L558.467,90.423L559.1,90.935L558.485,92.538L558.485,93.823L557.385,95.136L557.028,97.041L555.567,97.599L555.274,100.247L553.9,102.291L553.824,105.968L554.367,106.249L553.674,107.72L552.187,108.422L551.469,110.772L552.137,112.466L550.985,113.668L552.067,114.577L554.109,115.288L553.619,117.39L552.958,117.109L552.452,118.373L551.094,118.547L549.512,118.179L548.057,121.121L548.529,122.93L547.44,125.033L545.937,125.462L544.841,124.863L540.928,125.735L539.369,126.834L538.515,126.925L537.258,126.098L535.638,126.801L534.687,126.706L534.054,124.558L532.381,123.888L531.614,120.993L529.264,121.881L528.944,123.393L528.09,123.76L526.89,123.389L526.4,121.567L525.741,116.13L526.722,115.036L527.178,111.02L526.101,110.041L525.852,109.153L523.518,106.662L523.591,104.745L520.463,104.89L517.848,104.373L516.865,103.531L516.533,102.535L515.085,101.461L512.915,101.602L510.325,100.515L507.654,101.242L506.964,100.061Z" fill="#eee" opacity="0.5"></path><path d="M505.341,162.861L505.431,164.017L504.864,164.761L506.823,166.595L506.276,167.731L504.411,169.838L503.743,172.213L504.215,173.415L505.433,174.886L504.837,178.294L504.772,179.819L505.91,181.045L506.126,182.053L507.641,182.747L509.086,182.384L510.341,182.57L511.895,184.218L513.626,183.656L513.803,185.003L515.046,185.288L514.098,186.292L514.655,186.717L516.006,186.494L518.142,187.089L519.66,186.664L520.09,188.126L519.503,187.924L518.842,190.481L519.593,190.873L521.213,192.868L521.278,193.624L522.355,194.356L522.466,195.884L522.148,198.714L523.681,199.086L525.553,203.233L526.757,204.365L527.408,206.889L527.337,209.227L527.993,210.648L529.273,210.603L529.917,211.855L531.246,213.024L531.103,214.408L528.962,215.849L528.755,217.919L528.548,219.274L527.85,219.881L523.893,217.807L522.728,217.857L520.256,219.844L518.251,220.092L516.846,220.703L516.149,219.332L513.313,219.208L512.721,220.179L511.462,220.695L510.15,220.604L508.433,219.505L507.1,219.786L504.144,219.637L503.313,218.398L501.379,218.208L499.413,215.275L499.314,213.833L497.984,212.334L496.759,209.979L495.633,208.922L495.481,206.992L493.52,205.514L493.168,204.601L493.999,200.614L493.656,199.358L491.874,198.941L490.974,196.124L489.94,195.81L489.413,194.145L490.003,193.265L489.335,191.984L488.014,191.869L487.111,192.534L486.375,194.141L484.581,194.368L482.898,192.509L481.165,193.678L481.025,194.277L479.415,194.261L478.067,192.567L476.513,192.344L474.326,190.51L473.819,188.634L472.742,188.849L471.619,187.473L472.634,187.006L472.496,186.023L473.677,184.135L473.635,183.408L475.91,181.302L477.265,180.835L477.747,179.798L478.621,179.471L479.938,177.348L481.651,177.352L483.842,175.919L484.178,174.766L483.423,173.729L483.916,172.701L483.38,171.445L483.598,170.272L486.639,170.02L486.934,169.677L490.981,167.57L491.492,166.455L493.548,165.248L495.401,164.563L497.974,163.075L498.95,162.885L500.171,163.604L501.591,163.707L503.32,162.943Z" fill="#eee" opacity="0.5"></path><path d="M422.629,285.672L422.687,282.789L423.232,281.739L422.051,280.149L422.199,277.497L423.225,276.923L424.351,272.436L425.543,272.87L426.881,272.659L427.277,271.965L426.448,271.019L427.387,268.97L426.149,267.429L426.075,266.562L428.168,266.438L431.529,265.017L432.176,264.108L434.27,263.794L436.011,266L437.622,266.347L439.74,268.223L440.426,269.309L441.646,267.88L444.305,268.301L445.23,269.032L446.612,268.979L448.412,267.458L449.899,268.185L451.614,267.574L452.051,266.661L451.395,265.463L450.044,265.285L449.607,262.67L448.61,261.646L448.582,258.63L446.81,257.978L446.503,257.164L448.403,257.032L449.245,256.61L450.479,256.937L451.522,258.862L454.319,259.634L455.415,258.081L456.637,257.837L457.376,256.891L459.026,258.275L460.847,258.593L462.056,260.208L462.012,261.634L463.083,261.65L464.959,264.451L467.014,264.513L468.087,265.781L469.029,265.955L469.482,266.917L469.079,268.404L469.604,269.14L469.395,271.969L470.438,273.229L472.081,273.271L474.169,271.151L476.338,269.549L478.004,269.846L479.466,269.681L480.629,270.325L481.667,269.763L484.151,270.115L484.038,268.214L485.221,268.26L485.461,269.553L487.067,269.722L487.256,268.475L487.951,269.499L489.367,268.413L490.735,267.871L491.476,266.434L492.417,266.492L493.437,268.413L495.652,271.098L495.019,272.99L495.939,272.969L497.038,274.023L498.046,274.27L500.366,276.468L502.146,277.724L502.949,280.203L503.555,281.219L504.703,281.888L504.314,282.681L502.36,282.136L501.211,283.074L500.557,284.309L501.202,285.003L502.767,284.499L502.5,286.044L501.177,287.783L501.697,289.105L504.275,289.502L504.795,290.319L504.503,291.823L506.091,292.364L507.07,293.897L506.685,295.326L505.946,295.124L505.548,295.991L505.281,298.387L506.75,299.164L507.021,300.61L509.25,301.027L511.423,302.977L513.449,303.093L514.574,305.844L514.528,308.492L514.936,309.595L514.241,310.9L513.485,311.239L513.865,313.68L513.034,314.358L513.212,315.312L511.8,316.316L512.921,316.857L513.29,317.754L512.282,318.092L512.894,318.989L510.44,319.625L511.904,320.431L512.015,321.038L513.368,321.257L513.734,322.203L512.643,322.777L510.645,322.719L511.614,323.607L512.249,327.255L510.958,328.114L511.423,328.994L512.747,329.172L511.982,329.957L512.788,330.936L512.286,331.82L510.293,331.312L509.655,332.51L510.235,333.084L510.587,336.356L509.683,339.454L510.035,340.437L510.788,340.499L510.937,341.59L509.885,342.556L508.962,341.966L508.021,342.474L506.918,342.342L506.14,342.3L503.792,340.536L502.643,340.706L501.068,339.958L499.487,339.78L498.03,341.821L496.543,341.875L495.877,339.904L494.643,338.694L492.935,338.421L490.548,339.888L489.846,339.644L488.578,337.996L486.697,338.21L486.474,337.624L483.334,339.351L482.348,338.326L479.353,338.07L477.974,336.513L474.144,335.534L471.114,336.005L469.528,335.72L469.167,332.497L466.566,331.77L465.102,332.402L462.044,331.295L460.721,329.969L459.3,330.601L457.733,328.069L456.236,326.842L451.05,328.416L450.518,328.891L449.521,328.792L448.842,326.421L449.245,325.516L452.781,323.417L453.078,322.265L452.581,320.265L452.91,318.559L452.578,316.167L453.292,313.635L452.82,313.019L451.503,314.143L449.712,313.904L447.871,313.139L447.818,312.069L446.934,310.9L447.277,310.322L446.356,308.409L443.757,308.219L441.646,308.38L440.366,306.93L438.248,305.753L436.462,303.944L434.109,303.997L433.578,303.452L432.42,300.759L431.402,297.185L429.864,296.417L428.446,295.087L427.44,292.748L425.026,291.299L424.894,288.998L424.015,287.82L423.847,286.259Z" fill="#eee" opacity="0.5"></path><path d="M425.939,377.935L426.485,375.609L425.622,373.936L423.994,373.118L424.558,370.763L422.954,369.995L421.444,368.078L421.292,366.421L420.007,363.187L420.967,361.952L421.055,359.266L420.081,358.63L419.752,355.334L420.569,354.474L420.933,352.859L422.254,352.491L424.273,350.492L424.784,349.063L424.153,347.158L425.67,345.791L425.392,344.659L424.45,343.308L424.708,340.367L425.226,339.826L426.315,341.044L429.692,342.713L432.726,342.895L434.146,342.065L433.948,340.887L432.551,339.214L431.271,339.462L430.468,336.802L431.474,337.017L432.954,336.36L435.571,337.682L437.574,337.231L440.184,337.81L441.248,337.426L443.078,337.756L444.676,337.12L445.553,336.079L447.399,334.815L450.244,333.373L451.059,331.919L450.518,328.891L451.05,328.416L456.236,326.842L457.733,328.069L459.3,330.601L460.721,329.969L462.044,331.295L465.102,332.402L466.566,331.77L469.167,332.497L469.528,335.72L471.114,336.005L474.144,335.534L477.974,336.513L479.353,338.07L482.348,338.326L483.334,339.351L486.474,337.624L486.697,338.21L488.578,337.996L489.846,339.644L490.548,339.888L492.935,338.421L494.643,338.694L495.877,339.904L496.543,341.875L498.03,341.821L499.487,339.78L501.068,339.958L502.643,340.706L503.792,340.536L506.14,342.3L506.918,342.342L506.964,343.626L507.963,344.019L506.823,344.403L507.652,345.655L506.998,347.687L507.804,350.145L507.334,351.124L508.49,351.674L509.024,353.673L509.017,355.003L506.561,354.904L505.58,353.148L504.94,353.334L505.401,355.8L504.62,357.341L502.751,359.312L502.316,361.501L502.744,362.538L501.621,362.261L499.169,363.121L497.972,362.559L496.653,363.166L495.539,364.909L494.34,365.674L493.159,365.616L492.438,364.835L491.501,365.744L492.125,366.165L491.644,367.615L492.017,368.367L489.947,367.871L488.073,366.657L485.951,366.929L485.695,369.536L484.862,369.416L484.874,370.999L484.073,371.37L483.769,373.3L482.583,374.535L481.577,373.977L480.329,373.994L479.429,373.147L477.898,372.688L476.941,372.986L475.845,372.577L475.09,374.15L475.421,376.476L474.957,377.455L473.997,377.075L472.477,377.641L472.136,379.43L470.939,380.149L468.923,380.281L466.437,379.351L465.166,380.616L463.522,382.859L461.83,382.45L461.032,382.706L460.626,383.97L460.118,383.024L460.348,382.024L459.036,380.934L457.567,380.252L457.378,379.277L456.727,380.017L456.596,378.955L455.622,379.616L456.623,381.458L455.656,381.822L453.324,381.752L452.945,382.363L451.494,381.636L450.06,381.921L448.803,381.182L447.102,381.413L445.311,380.653L443.548,380.603L442.305,381.814L438.126,381.987L438.969,379.756L437.823,380.397L435.695,380.863L434.314,380.512L434.344,379.665L427.802,377.98Z" fill="#eee" opacity="0.5"></path><path d="M455.939,45.093L456.034,46.051L455.164,46.37L454.818,47.448L455.82,48.807L455.82,50.17L454.107,50.327L453.612,50.819L453.693,52.62L454.422,53.57L454.1,54.52L455.834,55.371L455.21,56.024L456.911,59.134L455.571,65.075L454.466,67.029L454.855,69.784L454.178,72.87L454.65,74.246L455.73,74.704L455.764,78.088L457.215,79.447L458.322,79.067L459.62,77.489L461.78,78.575L462.691,78.257L462.756,77.133L466.363,76.956L466.188,76.125L466.92,75.493L468.527,75.369L470.111,73.552L471.188,73.337L472.383,72.465L472.618,71.131L473.433,71.689L474.109,70.644L473.062,69.351L472.657,67.574L477.095,67.591L478.624,67.306L482.383,67.868L484.805,67.285L488.364,64.41L491.038,65.091L492.051,66.062L493.122,66.186L494.577,67.987L496.091,68.024L499.19,71.751L496.92,72.755L495.668,72.969L494.139,74.952L493.336,75.246L493.902,76.972L496.727,79.24L497.65,81.231L496.354,83.458L496.78,84.768L496.197,85.755L498.649,88.746L498.782,90.398L500.205,90.605L501.015,92.269L501.605,92.596L503.007,94.62L502.73,95.814L503.377,97.322L506.121,99.255L506.494,100.275L505.622,101.052L505.636,102.597L504.192,103.931L503.193,106.534L499.894,107.071L499.701,108.269L498.292,107.546L496.061,109.636L495.095,108.773L489.59,108.744L487.811,110L487.125,110.074L484.607,109.269L482.77,108.013L483.078,106.749L481.648,105.509L480.571,105.551L478.748,106.348L477.779,108.302L474.137,109.942L471.683,110.636L470.472,113.416L469.839,113.937L469.128,115.746L467.047,116.176L466.308,118.32L465.668,118.431L464.247,117.105L462.661,117.741L462.461,119.419L461.331,120.708L459.238,121.641L458.49,121.24L457.583,122.145L457.3,124.145L456.681,124.454L454.084,124.235L453.46,122.521L452.41,122.153L451.794,120.84L449.63,120.679L447.09,122.62L446.041,123.145L444.312,122.443L442.201,122.893L440.403,121.753L439.402,122.389L439.48,123.397L438.437,123.508L438.179,122.612L438.983,122.137L438.674,121.414L437.36,121.6L436.798,118.283L436.096,117.787L434.42,118.27L434.475,116.358L433.529,115.825L433.018,114.552L433.131,113.201L432.519,112.041L429.97,111.181L428.548,111.801L428.159,112.784L427.351,112.966L426.43,110.967L425.394,109.954L426.225,109.417L423.863,105.84L424.05,105.03L423.2,104.059L423.469,102.7L422.806,101.986L422.146,99.569L421.296,99.701L420.249,98.768L418.304,98.549L417.291,96.202L417.834,94.814L419.839,94.269L422.157,94.228L422.938,93.468L421.319,91.41L419.782,90.154L419.121,88.357L419.524,86.069L418.785,84.615L420.504,83.099L421.167,81.537L420.937,80.513L421.276,77.699L421.094,76.551L421.556,75.485L423.131,73.915L424.683,71.598L425.076,69.4L426.909,67L427.848,64.604L429.906,61.407L430.373,59.63L432.466,57.263L432.576,55.648L433.955,54.057L434.664,52.595L435.168,49.761L437.965,47.778L438.734,46.828L438.232,46.027L439.282,43.734L441.151,43.73L445.003,41.032L447.019,40.698L449.957,42.846L452.749,43.627Z" fill="#eee" opacity="0.5"></path><path d="M504.703,281.888L503.555,281.219L502.949,280.203L502.146,277.724L500.366,276.468L498.046,274.27L497.038,274.023L495.939,272.969L495.019,272.99L495.652,271.098L493.437,268.413L492.417,266.492L491.476,266.434L490.735,267.871L489.367,268.413L487.951,269.499L487.256,268.475L487.067,269.722L485.461,269.553L485.221,268.26L484.038,268.214L484.151,270.115L481.667,269.763L480.629,270.325L479.466,269.681L478.004,269.846L476.338,269.549L474.169,271.151L472.081,273.271L470.438,273.229L469.395,271.969L469.604,269.14L469.079,268.404L469.482,266.917L469.029,265.955L468.087,265.781L467.014,264.513L464.959,264.451L463.083,261.65L462.012,261.634L462.056,260.208L460.847,258.593L459.026,258.275L457.376,256.891L456.637,257.837L455.415,258.081L454.319,259.634L451.522,258.862L450.479,256.937L449.245,256.61L448.403,257.032L446.503,257.164L446.81,257.978L448.582,258.63L448.61,261.646L449.607,262.67L450.044,265.285L451.395,265.463L452.051,266.661L451.614,267.574L449.899,268.185L448.412,267.458L446.612,268.979L445.23,269.032L444.305,268.301L441.646,267.88L440.426,269.309L439.74,268.223L437.622,266.347L436.011,266L434.27,263.794L432.176,264.108L431.529,265.017L428.168,266.438L426.075,266.562L426.149,267.429L427.387,268.97L426.448,271.019L427.277,271.965L426.881,272.659L425.543,272.87L424.351,272.436L423.225,276.923L422.199,277.497L422.051,280.149L423.232,281.739L422.687,282.789L422.629,285.672L421.856,286.341L419.432,284.495L416.149,284.449L414.181,285.052L414.475,284.049L413.191,283.974L411.501,284.61L410.062,283.677L407.873,284.073L405.431,285.127L406.144,287.353L405.677,288.031L404.694,287.672L402.818,285.631L400.125,283.73L398.759,281.81L398.322,280.298L399.031,279.608L398.541,278.98L397.3,278.91L397.107,279.591L396.248,277.939L395.783,279.579L394.275,280.062L392.834,279.145L391.768,277.935L391.738,276.018L392.081,275.266L393.927,274.993L394.425,273.874L395.649,273.539L396.566,272.465L398.594,272.069L400.79,270.325L400.023,269.656L398.492,269.458L398.423,267.958L396.948,266.694L396.223,265.513L397.735,264.996L398.472,266.417L399.096,266.112L400.557,267.124L403.578,268.706L404.119,267.289L405.808,266.909L405.88,265.727L408.78,265.095L410.06,263.906L411.766,263.435L413.61,261.989L414.641,262.662L416.455,261.134L417.857,258.387L418.753,257.87L419.333,255.028L420.233,253L419.977,251.004L420.638,250.149L420.516,248.947L419.747,247.939L421.352,248.03L421.782,246.882L423.605,247.055L425.233,246.299L425.456,245.06L426.494,243.8L427.859,243.936L428.262,245.052L429.059,245.225L429.275,246.667L430.226,247.2L432.229,244.428L434.344,242.416L436.593,238.686L436.817,236.868L438.041,235.786L440.18,235.063L440.332,234.356L441.513,234.071L441.863,232.613L443.522,232.675L443.766,234.092L445.778,234.361L446.271,233.022L447.443,233.695L449.782,233.039L449.862,231.105L451.715,230.382L454.153,231.155L454.328,230.209L455.91,229.878L455.007,228.127L455.131,226.739L454.551,224.971L453.571,224.624L453.543,222.649L455.684,222.042L454.936,220.447L456.103,219.278L456.075,217.708L457.328,217.547L457.507,216.155L458.237,215.523L457.459,213.16L459.109,211.598L458.633,210.719L460.253,208.071L461.296,208.054L461.95,206.459L463.044,206.03L464.404,206.769L463.439,203.791L464.098,203.2L463.573,202.138L464.979,200.123L466.195,199.185L466.625,197.784L468.624,198.759L469.535,198.305L470.479,198.631L471.665,198.288L472.625,198.701L474.162,196.83L475.295,197.908L477.081,196.285L476.326,195.372L477.157,194.67L478.589,194.88L479.415,194.261L481.025,194.277L481.165,193.678L482.898,192.509L484.581,194.368L486.375,194.141L487.111,192.534L488.014,191.869L489.335,191.984L490.003,193.265L489.413,194.145L489.94,195.81L490.974,196.124L491.874,198.941L493.656,199.358L493.999,200.614L493.168,204.601L493.52,205.514L495.481,206.992L495.633,208.922L496.759,209.979L497.984,212.334L499.314,213.833L499.413,215.275L501.379,218.208L503.313,218.398L504.144,219.637L507.1,219.786L508.433,219.505L510.15,220.604L511.462,220.695L512.721,220.179L513.313,219.208L516.149,219.332L516.846,220.703L518.251,220.092L520.256,219.844L522.728,217.857L523.893,217.807L527.85,219.881L528.548,219.274L528.755,217.919L531.425,216.861L532.528,216.775L533.601,217.63L535.723,218.34L536.331,219.836L535.875,221.686L535.039,223.587L535.458,224.822L532.081,230.548L530.87,231.998L530.421,233.311L530.263,235.534L529.689,236.649L528.672,236.88L527.532,238.083L526.789,241.697L524.738,242.92L523.729,244.3L523.561,246.332L522.917,247.638L522.894,249.022L521.126,250.624L520.249,252.33L520.003,253.793L516.886,254.834L516.577,255.317L516.904,257.825L516.089,259.907L516.653,260.778L517.684,260.96L517.788,262.08L516.817,263.815L518.041,265.265L517.113,267.02L516.276,267.851L517.928,271.92L517.615,273.556L516.842,273.486L515.235,274.812L514.699,274.283L514.68,272.99L513.561,272.411L512.841,272.746L511.745,274.514L512.162,276.559L511.619,277.703L511.994,278.856L510.656,279.149L507.696,281.322L506.064,280.975Z" fill="#eee" opacity="0.5"></path><path d="M347.341,348.154L349.439,346.481L350.007,345.047L351.529,344.8L352.562,346.093L353.686,346.295L352.781,347.782L353.046,348.662L356.326,347.666L357.015,348.443L359.257,349.046L361.573,349.315L363.092,349.93L364.395,351.161L365.127,351.19L367.321,349.319L367.086,347.303L367.208,344.94L368.515,343.515L369.91,348.336L372.795,347.881L373.048,346.919L375.134,343.213L376.503,342.738L377.454,343.275L378.598,345.593L379.521,346.328L379.77,348.571L380.168,349.298L382.288,350.327L383.179,351.851L383.838,351.884L385.23,350.261L386.853,349.707L387.636,349.934L388.209,352.475L386.391,352.041L385.247,352.553L385.792,353.822L385.168,355.148L383.994,355.14L383.895,357.222L384.835,358.924L384.162,359.77L385.486,361.253L388.967,360.274L391.538,358.907L392.213,359.733L395.387,359.242L396.644,358.738L399.34,359.225L400.051,360.068L400.815,359.783L400.898,358.333L401.579,357.275L401.817,354.929L402.27,353.83L404.422,354.272L405.608,353.437L406.025,354.487L408.115,354.165L410.334,356.35L413.449,357.135L415.419,357.114L414.328,358.097L414.535,360.138L417.984,360.931L417.661,362.092L415.035,362.865L414.62,364.773L414.013,365.405L414.273,366.335L412.965,368.148L414.234,367.838L414.782,368.532L414.931,370.168L417.079,370.912L420.131,370.54L421.368,368.801L421.444,368.078L422.954,369.995L424.558,370.763L423.994,373.118L425.622,373.936L426.485,375.609L425.939,377.935L427.044,380.372L426.994,381.867L425.051,383.107L425.021,383.788L426.179,385.734L426.386,387.262L425.804,389.712L426.117,392.48L424.885,393.145L423.944,391.687L421.648,391.74L420.863,390.956L419.02,390.778L418.49,391.46L417.519,390.918L416.75,391.559L415.857,391.187L413.186,391.658L412.763,391.992L412.714,393.707L411.22,394.149L410.544,395.099L409.51,395.029L408.992,395.818L407.528,395.859L406.22,396.838L405.293,396.859L405.926,399.185L404.093,400.064L402.744,401.51L402.537,402.903L401.167,403.753L401.038,405.03L400.051,406.232L399.183,405.654L397.77,405.79L396.434,407.096L394.418,407.29L393.078,406.563L390.755,408.062L388.621,407.542L387.823,407.005L385.373,408.533L383.311,407.765L382.493,409.446L381.625,409.71L380.88,408.967L379.201,408.773L378.297,408.087L377.648,408.546L376.041,411.834L373.292,412.156L371.646,412.846L368.513,415.068L367.862,415.072L366.349,413.515L365.514,413.536L364.662,417.497L363.601,419.092L361.98,419.658L360.449,420.914L358.727,418.728L356.462,418.567L354.195,421.678L351.391,421.418L349.132,421.463L345.758,422.992L345.005,423L342.634,421.24L338.35,422.628L335.329,421.509L332.397,421.224L330.995,420.034L329.273,417.394L328.9,415.961L329.62,413.821L329.816,409.748L329.119,406.612L329.39,405.666L328.974,403.811L330.212,401.324L330.629,399.697L331.292,399.507L332.717,396.83L333.741,395.76L333.727,393.599L334.393,393.174L335.099,390.629L336.545,387.395L336.068,387.002L336.048,383.255L336.791,382.421L336.605,379.752L338.152,377.505L340.594,374.824L342.056,369.222L342.498,368.636L343.939,364.711L344.924,362.865L346.826,361.039L347.537,359.498L347.97,356.953L349.045,354.995L348.782,353.338L348.145,352.962L348.14,351.719L347.362,350.467Z" fill="#eee" opacity="0.5"></path><path d="M419.121,88.357L419.782,90.154L421.319,91.41L422.938,93.468L422.157,94.228L419.839,94.269L417.834,94.814L417.291,96.202L418.304,98.549L420.249,98.768L421.296,99.701L422.146,99.569L422.806,101.986L423.469,102.7L423.2,104.059L424.05,105.03L423.863,105.84L426.225,109.417L425.394,109.954L426.43,110.967L427.351,112.966L428.159,112.784L428.548,111.801L429.97,111.181L432.519,112.041L433.131,113.201L433.018,114.552L433.529,115.825L434.475,116.358L434.42,118.27L436.096,117.787L436.798,118.283L437.36,121.6L438.674,121.414L438.983,122.137L438.179,122.612L438.437,123.508L439.48,123.397L439.402,122.389L440.403,121.753L442.201,122.893L444.312,122.443L446.041,123.145L447.09,122.62L449.63,120.679L451.794,120.84L452.41,122.153L453.46,122.521L454.084,124.235L456.681,124.454L457.3,124.145L457.583,122.145L458.49,121.24L459.238,121.641L461.331,120.708L462.461,119.419L462.661,117.741L464.247,117.105L465.668,118.431L466.308,118.32L467.047,116.176L469.128,115.746L469.839,113.937L470.472,113.416L471.683,110.636L474.137,109.942L477.779,108.302L478.748,106.348L480.571,105.551L481.648,105.509L483.078,106.749L482.77,108.013L484.607,109.269L487.125,110.074L487.811,110L489.59,108.744L495.095,108.773L496.061,109.636L498.292,107.546L499.701,108.269L499.894,107.071L503.193,106.534L504.192,103.931L505.636,102.597L505.622,101.052L506.494,100.275L506.964,100.061L507.654,101.242L510.325,100.515L512.915,101.602L515.085,101.461L516.533,102.535L516.865,103.531L517.848,104.373L520.463,104.89L523.591,104.745L523.518,106.662L525.852,109.153L526.101,110.041L527.178,111.02L526.722,115.036L525.741,116.13L526.4,121.567L526.89,123.389L525.889,124.302L525.221,125.942L523.509,125.657L522.788,126.747L519.929,129.469L518.67,130.977L517.074,131.167L516.586,133.03L516.989,135.798L517.047,138.074L518.38,140.173L520.198,141.012L521.255,141.937L521.156,143.218L520.249,144.184L520.408,146.741L518.465,146.407L517.27,148.786L517.017,150.042L515.412,150.608L514.544,149.897L513.534,150.827L513.736,153.177L513.117,153.995L511.257,154.313L509.429,153.9L508.382,154.38L507.924,156.412L507.848,158.395L505.686,160.332L505.341,162.861L503.32,162.943L501.591,163.707L500.171,163.604L498.95,162.885L497.974,163.075L495.401,164.563L493.548,165.248L491.492,166.455L490.981,167.57L486.934,169.677L486.639,170.02L483.598,170.272L482.307,169.619L480.408,169.995L480.32,171.114L479.549,171.866L477.954,172.3L477.521,173.254L476.052,174.894L474.715,174.969L474.395,173.94L472.958,175.535L471.149,176.394L467.956,177.414L466.46,178.682L465.053,181.136L462.553,181.744L459.63,181.781L458.983,182.161L456.77,181.446L457.215,182.718L455.751,184.14L453.007,183.863L452.397,182.999L452.661,181.938L450.668,180L450.656,181.206L449.323,182.062L447.153,181.206L446.529,179.443L445.797,179.133L444.383,180.07L442.116,179.31L440.889,177.621L439.782,177.084L439.01,177.373L437.355,176.885L435.976,178.385L437.141,179.996L435.235,180.422L434.538,181.165L436.16,183.26L437.024,185.763L436.16,187.948L435.35,188.444L434.075,188.382L434.211,189.142L431.326,187.952L429.968,188.564L428.198,186.783L425.283,186.482L423.442,185.647L420.237,186.746L418.317,185.883L417.415,184.714L416.075,185.028L415.877,183.227L414.738,182.57L414.841,183.569L413.145,183.615L412.224,182.19L411.105,181.339L411.004,178.319L414.457,177.551L414.392,176.406L413.352,175.34L413.446,173.155L411.619,171.887L411.879,170.887L411.299,169.64L411.876,169.049L411.867,167.62L408.43,164.286L408.251,163.327L410.567,161.77L409.544,158.734L407.926,157.346L407.24,157.618L406.075,159.771L402.107,161.427L399.775,163.48L399.04,163.823L397.484,162.609L396.605,163.001L396.487,165.38L394.618,163.583L393.683,162.233L393.446,159.973L392.728,159.523L389.59,159.333L388.281,158.399L388.175,157.271L384.422,157.891L383.034,155.057L382.928,153.603L381.84,152.93L381.423,149.91L380.509,148.716L377.82,149.088L376.329,150.269L373.552,151.641L371.101,153.475L369.933,153.211L369.024,151.777L367.09,151.674L367.383,150.067L366.867,148.708L367.915,146.923L367.452,145.494L368.663,144.746L369.584,142.201L370.306,141.078L369.558,139.277L370.424,138.574L370.603,137.356L370.295,134.873L368.884,131.618L369.685,130.378L371.798,128.904L374.765,128.214L377.109,125.884L377.585,123.409L378.391,122.868L379.008,121.042L378.421,119.857L381.388,113.478L381.098,112.689L381.821,110.826L382.899,109.595L381.112,109.665L379.742,108.773L379.289,107.918L380.115,106.67L379.512,106.261L378.656,107.199L378.014,107.1L377.995,105.072L376.432,105.195L376.114,104.456L377.48,102.246L378.905,101.288L380.346,101.465L383.672,101.23L385.115,101.713L387.659,101.457L388.467,101.056L389.084,99.709L389.089,98.272L390.387,96.562L392.394,95.789L392.793,94.414L392.183,93.125L392.751,91.77L393.048,89.043L392.526,88.2L393.29,87.754L393.746,88.585L394.328,87.457L393.258,87.064L393.011,86.18L394.254,85.949L396.398,84.796L399.351,85.408L399.936,86.143L401.048,86.048L402.482,86.85L404.068,86.094L407.321,87.668L408.108,88.729L411.554,89.853L414.466,87.758L416.395,88.737L417.622,87.961Z" fill="#eee" opacity="0.5"></path><path d="M338.499,271.606L339.678,272.539L341.218,272.42L341.642,273.114L343.23,272.924L345.102,273.564L345.327,274.196L346.333,273.407L347.187,274.126L348.806,273.234L350.159,273.436L351.05,272.064L351.135,270.02L351.826,269.334L354.8,269.408L355.198,270.854L357.344,271.56L357.915,273.118L358.704,273.928L361.225,274.295L364.211,273.167L364.291,272.502L365.891,271.874L366.451,271.147L368.235,271.825L369.434,271.04L369.215,269.697L369.936,270.011L369.729,271.643L370.518,271.585L370.85,270.412L372.008,269.639L374.056,269.507L374.793,270.726L374.236,271.036L373.368,274.547L374.883,275.774L375.847,275.848L376.945,275.15L379.588,275.526L379.376,276.381L380.408,277.786L380.997,281.582L381.934,282.095L382.707,280.975L384.478,280.946L384.342,282.272L387.024,282.177L386.925,281.26L388.704,281.211L389.169,279.641L391.768,277.935L392.834,279.145L394.275,280.062L395.783,279.579L396.248,277.939L397.107,279.591L397.3,278.91L398.541,278.98L399.031,279.608L398.322,280.298L398.759,281.81L400.125,283.73L402.818,285.631L404.694,287.672L405.677,288.031L406.144,287.353L405.431,285.127L407.873,284.073L410.062,283.677L411.501,284.61L413.191,283.974L414.475,284.049L414.181,285.052L416.149,284.449L419.432,284.495L421.856,286.341L422.629,285.672L423.847,286.259L424.015,287.82L424.894,288.998L425.026,291.299L427.44,292.748L428.446,295.087L429.864,296.417L431.402,297.185L432.42,300.759L433.578,303.452L434.109,303.997L436.462,303.944L438.248,305.753L440.366,306.93L441.646,308.38L443.757,308.219L446.356,308.409L447.277,310.322L446.934,310.9L447.818,312.069L447.871,313.139L449.712,313.904L451.503,314.143L452.82,313.019L453.292,313.635L452.578,316.167L452.91,318.559L452.581,320.265L453.078,322.265L452.781,323.417L449.245,325.516L448.842,326.421L449.521,328.792L450.518,328.891L451.059,331.919L450.244,333.373L447.399,334.815L445.553,336.079L444.676,337.12L443.078,337.756L441.248,337.426L440.184,337.81L437.574,337.231L435.571,337.682L432.954,336.36L431.474,337.017L430.468,336.802L431.271,339.462L432.551,339.214L433.948,340.887L434.146,342.065L432.726,342.895L429.692,342.713L426.315,341.044L425.226,339.826L424.708,340.367L424.45,343.308L425.392,344.659L425.67,345.791L424.153,347.158L424.784,349.063L424.273,350.492L422.254,352.491L420.933,352.859L420.569,354.474L419.752,355.334L420.081,358.63L421.055,359.266L420.967,361.952L420.007,363.187L421.292,366.421L421.444,368.078L421.368,368.801L420.131,370.54L417.079,370.912L414.931,370.168L414.782,368.532L414.234,367.838L412.965,368.148L414.273,366.335L414.013,365.405L414.62,364.773L415.035,362.865L417.661,362.092L417.984,360.931L414.535,360.138L414.328,358.097L415.419,357.114L413.449,357.135L410.334,356.35L408.115,354.165L406.025,354.487L405.608,353.437L404.422,354.272L402.27,353.83L401.817,354.929L401.579,357.275L400.898,358.333L400.815,359.783L400.051,360.068L399.34,359.225L396.644,358.738L395.387,359.242L392.213,359.733L391.538,358.907L388.967,360.274L385.486,361.253L384.162,359.77L384.835,358.924L383.895,357.222L383.994,355.14L385.168,355.148L385.792,353.822L385.247,352.553L386.391,352.041L388.209,352.475L387.636,349.934L386.853,349.707L385.23,350.261L383.838,351.884L383.179,351.851L382.288,350.327L380.168,349.298L379.77,348.571L379.521,346.328L378.598,345.593L377.454,343.275L376.503,342.738L375.134,343.213L373.048,346.919L372.795,347.881L369.91,348.336L368.515,343.515L367.208,344.94L367.086,347.303L367.321,349.319L365.127,351.19L364.395,351.161L363.092,349.93L361.573,349.315L359.257,349.046L357.015,348.443L356.326,347.666L353.046,348.662L352.781,347.782L353.686,346.295L352.562,346.093L351.529,344.8L350.007,345.047L349.439,346.481L347.341,348.154L347.171,346.002L346.63,344.833L347.026,343.982L346.568,342.275L345.937,341.536L345.962,339.095L343.865,338.81L344.13,336.058L343.416,334.65L344.068,333.6L344.001,332.522L342.871,331.196L343.228,330.399L342.832,328.655L341.545,326.032L341.676,324.723L340.617,322.248L340.438,320.141L341.096,318.154L340.813,316.242L341.863,314.631L341.842,310.528L341.121,309.384L341.614,306.612L342.556,305.038L342.827,303.105L341.817,301.436L343.426,298.817L343.313,295.653L342.707,294.69L343.076,292.608L341.734,291.716L340.456,290.039L339.125,287.349L337.645,286.354L338.096,285.003L339.003,285.883L339.963,285.751L339.89,284.077L340.689,283.065L340.06,282.363L339.066,283.396L338.824,282.71L339.567,281.351L338.64,280.645L337.33,280.525L338.115,279.992L338.978,278.311L339.155,276.931L338.324,276.551L338.976,275.882L339.241,274.518L338.686,273.845L336.757,273.349L336.669,272.746L338.057,272.461Z" fill="#eee" opacity="0.5"></path><path d="M440.332,234.356L440.18,235.063L438.041,235.786L436.817,236.868L436.593,238.686L434.344,242.416L432.229,244.428L430.226,247.2L429.275,246.667L429.059,245.225L428.262,245.052L427.859,243.936L426.494,243.8L425.456,245.06L425.233,246.299L423.605,247.055L421.782,246.882L421.352,248.03L419.747,247.939L420.516,248.947L420.638,250.149L419.977,251.004L420.233,253L419.333,255.028L418.753,257.87L417.857,258.387L416.455,261.134L414.641,262.662L413.61,261.989L411.766,263.435L410.06,263.906L408.78,265.095L405.88,265.727L405.808,266.909L404.119,267.289L403.578,268.706L400.557,267.124L399.096,266.112L398.472,266.417L397.735,264.996L396.223,265.513L396.948,266.694L398.423,267.958L398.492,269.458L400.023,269.656L400.79,270.325L398.594,272.069L396.566,272.465L395.649,273.539L394.425,273.874L393.927,274.993L392.081,275.266L391.738,276.018L391.768,277.935L389.169,279.641L388.704,281.211L386.925,281.26L387.024,282.177L384.342,282.272L384.478,280.946L382.707,280.975L381.934,282.095L380.997,281.582L380.408,277.786L379.376,276.381L379.588,275.526L376.945,275.15L375.847,275.848L374.883,275.774L373.368,274.547L374.236,271.036L374.793,270.726L374.056,269.507L372.008,269.639L370.85,270.412L370.518,271.585L369.729,271.643L369.936,270.011L369.215,269.697L369.434,271.04L368.235,271.825L366.451,271.147L365.891,271.874L364.291,272.502L364.211,273.167L361.225,274.295L358.704,273.928L357.915,273.118L357.344,271.56L355.198,270.854L354.8,269.408L351.826,269.334L351.135,270.02L351.05,272.064L350.159,273.436L348.806,273.234L347.187,274.126L346.333,273.407L345.327,274.196L345.102,273.564L343.23,272.924L341.642,273.114L341.218,272.42L339.678,272.539L338.499,271.606L339.227,267.343L338.235,265.5L336.727,264.253L337.049,263.484L338.621,263.654L340.127,264.525L340.61,263.84L339.218,263.344L339.319,262.22L341.149,261.96L343.172,258.965L345.131,257.279L345.382,255.317L347.73,252.917L351.276,247.861L351.835,246.167L353.327,245.828L352.726,243.771L353.534,243.238L353.591,241.656L350.751,240.958L350.125,239.384L351.105,235.744L356.241,234.902L356.95,233.538L357.012,231.378L357.636,230.263L357.627,229.044L358.891,227.185L357.689,225.409L357.233,222.269L358.805,221.517L358.955,220.695L357.855,219.501L355.928,218.927L354.204,217.861L354.04,216.969L354.738,216.296L356.545,215.796L356.81,214.527L355.751,213.499L352.813,212.177L351.773,210.971L351.234,208.822L348.934,205.047L347.912,203.002L345.771,202.081L344.439,201.097L344.208,199.652L344.68,198.863L343.677,197.198L343.32,195.438L343.711,193.893L343.345,191.456L344.369,189.679L343.808,188.142L343.663,185.598L344.515,183.871L346.333,183.871L346.812,183.396L346.851,181.492L347.355,178.013L348.619,177.274L350.61,177.505L352.189,176.902L353.941,174.221L356.524,173.126L356.982,171.032L357.972,168.293L358.992,167.442L360.488,167.715L361.319,168.355L363.099,167.425L362.928,163.596L364.871,162.856L364.966,160.002L365.521,158.721L364.287,158.3L363.446,155.677L364.275,153.578L365.325,152.479L365.281,150.422L366.867,148.708L367.383,150.067L367.09,151.674L369.024,151.777L369.933,153.211L371.101,153.475L373.552,151.641L376.329,150.269L377.82,149.088L380.509,148.716L381.423,149.91L381.84,152.93L382.928,153.603L383.034,155.057L384.422,157.891L388.175,157.271L388.281,158.399L389.59,159.333L392.728,159.523L393.446,159.973L393.683,162.233L394.618,163.583L396.487,165.38L396.605,163.001L397.484,162.609L399.04,163.823L399.775,163.48L402.107,161.427L406.075,159.771L407.24,157.618L407.926,157.346L409.544,158.734L410.567,161.77L408.251,163.327L408.43,164.286L411.867,167.62L411.876,169.049L411.299,169.64L411.879,170.887L411.619,171.887L413.446,173.155L413.352,175.34L414.392,176.406L414.457,177.551L411.004,178.319L411.105,181.339L412.224,182.19L413.145,183.615L412.551,184.887L410.797,185.408L410.424,185.978L409.247,185.689L407.77,186.271L407.786,187.382L406.361,188.989L403.891,190.241L402.926,191.204L399.885,191.629L398.817,192.315L398.757,193.017L397.576,193.612L397.139,194.612L397.781,195.525L397.189,196.739L398.313,198.573L398.713,201.027L400.136,202.642L400.544,204.609L398.794,205.782L399.816,206.406L400.021,207.992L403.856,207.377L404.439,207.703L406.027,207.22L407.231,206.203L409.406,206.773L409.39,207.781L410.507,208.727L410.502,209.339L412.659,210.359L413.262,211.772L418.166,211.983L418.649,214.333L419.374,215.486L421.492,217.337L422.62,216.738L424.056,216.614L424.657,217.465L426.846,217.027L428.271,217.134L429.114,218.316L432.153,219.927L432.056,222.542L434.862,225.433L435.221,226.925L436.384,227.482L438.228,227.135L438.421,228.35L437.341,230.002L438.506,230.176L439.448,231.911L438.223,232.46L439.66,233.187Z" fill="#eee" opacity="0.5"></path><path d="M479.415,194.261L478.589,194.88L477.157,194.67L476.326,195.372L477.081,196.285L475.295,197.908L474.162,196.83L472.625,198.701L471.665,198.288L470.479,198.631L469.535,198.305L468.624,198.759L466.625,197.784L466.195,199.185L464.979,200.123L463.573,202.138L464.098,203.2L463.439,203.791L464.404,206.769L463.044,206.03L461.95,206.459L461.296,208.054L460.253,208.071L458.633,210.719L459.109,211.598L457.459,213.16L458.237,215.523L457.507,216.155L457.328,217.547L456.075,217.708L456.103,219.278L454.936,220.447L455.684,222.042L453.543,222.649L453.571,224.624L454.551,224.971L455.131,226.739L455.007,228.127L455.91,229.878L454.328,230.209L454.153,231.155L451.715,230.382L449.862,231.105L449.782,233.039L447.443,233.695L446.271,233.022L445.778,234.361L443.766,234.092L443.522,232.675L441.863,232.613L441.513,234.071L440.332,234.356L439.66,233.187L438.223,232.46L439.448,231.911L438.506,230.176L437.341,230.002L438.421,228.35L438.228,227.135L436.384,227.482L435.221,226.925L434.862,225.433L432.056,222.542L432.153,219.927L429.114,218.316L428.271,217.134L426.846,217.027L424.657,217.465L424.056,216.614L422.62,216.738L421.492,217.337L419.374,215.486L418.649,214.333L418.166,211.983L413.262,211.772L412.659,210.359L410.502,209.339L410.507,208.727L409.39,207.781L409.406,206.773L407.231,206.203L406.027,207.22L404.439,207.703L403.856,207.377L400.021,207.992L399.816,206.406L398.794,205.782L400.544,204.609L400.136,202.642L398.713,201.027L398.313,198.573L397.189,196.739L397.781,195.525L397.139,194.612L397.576,193.612L398.757,193.017L398.817,192.315L399.885,191.629L402.926,191.204L403.891,190.241L406.361,188.989L407.786,187.382L407.77,186.271L409.247,185.689L410.424,185.978L410.797,185.408L412.551,184.887L413.145,183.615L414.841,183.569L414.738,182.57L415.877,183.227L416.075,185.028L417.415,184.714L418.317,185.883L420.237,186.746L423.442,185.647L425.283,186.482L428.198,186.783L429.968,188.564L431.326,187.952L434.211,189.142L434.075,188.382L435.35,188.444L436.16,187.948L437.024,185.763L436.16,183.26L434.538,181.165L435.235,180.422L437.141,179.996L435.976,178.385L437.355,176.885L439.01,177.373L439.782,177.084L440.889,177.621L442.116,179.31L444.383,180.07L445.797,179.133L446.529,179.443L447.153,181.206L449.323,182.062L450.656,181.206L450.668,180L452.661,181.938L452.397,182.999L453.007,183.863L455.751,184.14L457.215,182.718L456.77,181.446L458.983,182.161L459.63,181.781L462.553,181.744L465.053,181.136L466.46,178.682L467.956,177.414L471.149,176.394L472.958,175.535L474.395,173.94L474.715,174.969L476.052,174.894L477.521,173.254L477.954,172.3L479.549,171.866L480.32,171.114L480.408,169.995L482.307,169.619L483.598,170.272L483.38,171.445L483.916,172.701L483.423,173.729L484.178,174.766L483.842,175.919L481.651,177.352L479.938,177.348L478.621,179.471L477.747,179.798L477.265,180.835L475.91,181.302L473.635,183.408L473.677,184.135L472.496,186.023L472.634,187.006L471.619,187.473L472.742,188.849L473.819,188.634L474.326,190.51L476.513,192.344L478.067,192.567Z" stroke="#747569" stroke-width="1" stroke-dasharray="3,3" fill="none"></path><path d="M506.494,100.275L506.121,99.255L503.377,97.322L502.73,95.814L503.007,94.62L501.605,92.596L501.015,92.269L500.205,90.605L498.782,90.398L498.649,88.746L496.197,85.755L496.78,84.768L496.354,83.458L497.65,81.231L496.727,79.24L493.902,76.972L493.336,75.246L494.139,74.952L495.668,72.969L496.92,72.755L499.19,71.751L496.091,68.024L494.577,67.987L493.122,66.186L492.051,66.062L491.038,65.091L488.364,64.41L484.805,67.285L482.383,67.868L478.624,67.306L477.095,67.591L472.657,67.574L473.062,69.351L474.109,70.644L473.433,71.689L472.618,71.131L472.383,72.465L471.188,73.337L470.111,73.552L468.527,75.369L466.92,75.493L466.188,76.125L466.363,76.956L462.756,77.133L462.691,78.257L461.78,78.575L459.62,77.489L458.322,79.067L457.215,79.447L455.764,78.088L455.73,74.704L454.65,74.246L454.178,72.87L454.855,69.784L454.466,67.029L455.571,65.075L456.911,59.134L455.21,56.024L455.834,55.371L454.1,54.52L454.422,53.57L453.693,52.62L453.612,50.819L454.107,50.327L455.82,50.17L455.82,48.807L454.818,47.448L455.164,46.37L456.034,46.051L455.939,45.093L458.782,47.572L461.057,49.142L461.563,49.869L462.645,49.873L467.648,47.382L468.184,46.374L470.058,40.342L470.191,38.864L475.329,36.707L477.627,35.906L481.989,35.055L484.927,34.022L487.507,33.543L489.013,32.836L490.403,34.431L491.317,36.174L491.929,38.289L492.631,39.301L496.432,39.372L500.148,38.583L502.401,38.302L505.571,37.318L506.858,35.745L510.235,32.659L511.305,32.085L512.408,30.382L516.37,28.586L517.816,26.594L518.034,25.516L520.044,27.673L521.013,29.519L521.674,29.804L523.09,29.11L525.253,27.231L526.149,25.599L527.332,25.219L529.524,25.661L532.203,24.756L533.172,23.438L532.997,21.476L531.471,20.076L531.137,19.183L532.657,15.573L532.776,14.255L532.318,12.297L532.753,11.289L533.865,10.562L536.322,10L537.532,11.847L538.64,14.775L539.533,15.441L540.401,17.341L540.023,17.708L541.446,19.299L542.618,19.043L543.93,20.431L543.472,23.079L544.487,23.182L544.643,24.26L543.094,28.569L543.532,29.697L544.765,30.564L544.148,32.109L545.599,35.86L547.192,35.86L549.266,36.943L550.336,36.959L552.608,35.629L553.895,37.244L555.408,36.943L557.067,37.562L556.846,39.062L556.025,40.495L553.849,42.924L550.479,44.444L548.154,44.172L546.699,44.498L544.468,45.56L542.459,45.139L541.66,46.126L541.432,47.77L538.472,48.241L536.616,49.224L535.495,49.17L535.465,48.439L534.105,48.101L532.528,49.059L533.647,53.103L534.289,53.987L533.755,56.305L531.243,57.581L529.977,54.421L527.85,53.739L527.532,54.793L527.912,56.449L527.622,57.986L526.524,59.386L524.807,59.68L524.39,61.113L525.313,60.869L526.821,61.46L530.046,62.092L530.481,62.534L530.419,64.34L531.432,67.326L532.514,66.901L533.69,67.739L534.376,67.554L538.159,68.607L540.624,67.454L540.999,68.727L539.768,69.466L539.639,70.359L540.668,71.127L541.943,71.077L544.135,70.445L544.043,71.23L549.897,70.71L550.495,73.044L549.646,74.068L551.029,76.997L550.682,77.997L550.516,82.917L550.571,85.565L551.819,88.176L554.105,88.196L555.221,88.58L556.259,91.551L558.467,90.423L559.1,90.935L558.485,92.538L558.485,93.823L557.385,95.136L557.028,97.041L555.567,97.599L555.274,100.247L553.9,102.291L553.824,105.968L554.367,106.249L553.674,107.72L552.187,108.422L551.469,110.772L552.137,112.466L550.985,113.668L552.067,114.577L554.109,115.288L553.619,117.39L552.958,117.109L552.452,118.373L551.094,118.547L549.512,118.179L548.057,121.121L548.529,122.93L547.44,125.033L545.937,125.462L544.841,124.863L540.928,125.735L539.369,126.834L538.515,126.925L537.258,126.098L535.638,126.801L534.687,126.706L534.054,124.558L532.381,123.888L531.614,120.993L529.264,121.881L528.944,123.393L528.09,123.76L526.89,123.389L526.4,121.567L525.741,116.13L526.722,115.036L527.178,111.02L526.101,110.041L525.852,109.153L523.518,106.662L523.591,104.745L520.463,104.89L517.848,104.373L516.865,103.531L516.533,102.535L515.085,101.461L512.915,101.602L510.325,100.515L507.654,101.242L506.964,100.061Z" stroke="#747569" stroke-width="1" stroke-dasharray="3,3" fill="none"></path><path d="M505.341,162.861L505.431,164.017L504.864,164.761L506.823,166.595L506.276,167.731L504.411,169.838L503.743,172.213L504.215,173.415L505.433,174.886L504.837,178.294L504.772,179.819L505.91,181.045L506.126,182.053L507.641,182.747L509.086,182.384L510.341,182.57L511.895,184.218L513.626,183.656L513.803,185.003L515.046,185.288L514.098,186.292L514.655,186.717L516.006,186.494L518.142,187.089L519.66,186.664L520.09,188.126L519.503,187.924L518.842,190.481L519.593,190.873L521.213,192.868L521.278,193.624L522.355,194.356L522.466,195.884L522.148,198.714L523.681,199.086L525.553,203.233L526.757,204.365L527.408,206.889L527.337,209.227L527.993,210.648L529.273,210.603L529.917,211.855L531.246,213.024L531.103,214.408L528.962,215.849L528.755,217.919L528.548,219.274L527.85,219.881L523.893,217.807L522.728,217.857L520.256,219.844L518.251,220.092L516.846,220.703L516.149,219.332L513.313,219.208L512.721,220.179L511.462,220.695L510.15,220.604L508.433,219.505L507.1,219.786L504.144,219.637L503.313,218.398L501.379,218.208L499.413,215.275L499.314,213.833L497.984,212.334L496.759,209.979L495.633,208.922L495.481,206.992L493.52,205.514L493.168,204.601L493.999,200.614L493.656,199.358L491.874,198.941L490.974,196.124L489.94,195.81L489.413,194.145L490.003,193.265L489.335,191.984L488.014,191.869L487.111,192.534L486.375,194.141L484.581,194.368L482.898,192.509L481.165,193.678L481.025,194.277L479.415,194.261L478.067,192.567L476.513,192.344L474.326,190.51L473.819,188.634L472.742,188.849L471.619,187.473L472.634,187.006L472.496,186.023L473.677,184.135L473.635,183.408L475.91,181.302L477.265,180.835L477.747,179.798L478.621,179.471L479.938,177.348L481.651,177.352L483.842,175.919L484.178,174.766L483.423,173.729L483.916,172.701L483.38,171.445L483.598,170.272L486.639,170.02L486.934,169.677L490.981,167.57L491.492,166.455L493.548,165.248L495.401,164.563L497.974,163.075L498.95,162.885L500.171,163.604L501.591,163.707L503.32,162.943Z" stroke="#747569" stroke-width="1" stroke-dasharray="3,3" fill="none"></path><path d="M422.629,285.672L422.687,282.789L423.232,281.739L422.051,280.149L422.199,277.497L423.225,276.923L424.351,272.436L425.543,272.87L426.881,272.659L427.277,271.965L426.448,271.019L427.387,268.97L426.149,267.429L426.075,266.562L428.168,266.438L431.529,265.017L432.176,264.108L434.27,263.794L436.011,266L437.622,266.347L439.74,268.223L440.426,269.309L441.646,267.88L444.305,268.301L445.23,269.032L446.612,268.979L448.412,267.458L449.899,268.185L451.614,267.574L452.051,266.661L451.395,265.463L450.044,265.285L449.607,262.67L448.61,261.646L448.582,258.63L446.81,257.978L446.503,257.164L448.403,257.032L449.245,256.61L450.479,256.937L451.522,258.862L454.319,259.634L455.415,258.081L456.637,257.837L457.376,256.891L459.026,258.275L460.847,258.593L462.056,260.208L462.012,261.634L463.083,261.65L464.959,264.451L467.014,264.513L468.087,265.781L469.029,265.955L469.482,266.917L469.079,268.404L469.604,269.14L469.395,271.969L470.438,273.229L472.081,273.271L474.169,271.151L476.338,269.549L478.004,269.846L479.466,269.681L480.629,270.325L481.667,269.763L484.151,270.115L484.038,268.214L485.221,268.26L485.461,269.553L487.067,269.722L487.256,268.475L487.951,269.499L489.367,268.413L490.735,267.871L491.476,266.434L492.417,266.492L493.437,268.413L495.652,271.098L495.019,272.99L495.939,272.969L497.038,274.023L498.046,274.27L500.366,276.468L502.146,277.724L502.949,280.203L503.555,281.219L504.703,281.888L504.314,282.681L502.36,282.136L501.211,283.074L500.557,284.309L501.202,285.003L502.767,284.499L502.5,286.044L501.177,287.783L501.697,289.105L504.275,289.502L504.795,290.319L504.503,291.823L506.091,292.364L507.07,293.897L506.685,295.326L505.946,295.124L505.548,295.991L505.281,298.387L506.75,299.164L507.021,300.61L509.25,301.027L511.423,302.977L513.449,303.093L514.574,305.844L514.528,308.492L514.936,309.595L514.241,310.9L513.485,311.239L513.865,313.68L513.034,314.358L513.212,315.312L511.8,316.316L512.921,316.857L513.29,317.754L512.282,318.092L512.894,318.989L510.44,319.625L511.904,320.431L512.015,321.038L513.368,321.257L513.734,322.203L512.643,322.777L510.645,322.719L511.614,323.607L512.249,327.255L510.958,328.114L511.423,328.994L512.747,329.172L511.982,329.957L512.788,330.936L512.286,331.82L510.293,331.312L509.655,332.51L510.235,333.084L510.587,336.356L509.683,339.454L510.035,340.437L510.788,340.499L510.937,341.59L509.885,342.556L508.962,341.966L508.021,342.474L506.918,342.342L506.14,342.3L503.792,340.536L502.643,340.706L501.068,339.958L499.487,339.78L498.03,341.821L496.543,341.875L495.877,339.904L494.643,338.694L492.935,338.421L490.548,339.888L489.846,339.644L488.578,337.996L486.697,338.21L486.474,337.624L483.334,339.351L482.348,338.326L479.353,338.07L477.974,336.513L474.144,335.534L471.114,336.005L469.528,335.72L469.167,332.497L466.566,331.77L465.102,332.402L462.044,331.295L460.721,329.969L459.3,330.601L457.733,328.069L456.236,326.842L451.05,328.416L450.518,328.891L449.521,328.792L448.842,326.421L449.245,325.516L452.781,323.417L453.078,322.265L452.581,320.265L452.91,318.559L452.578,316.167L453.292,313.635L452.82,313.019L451.503,314.143L449.712,313.904L447.871,313.139L447.818,312.069L446.934,310.9L447.277,310.322L446.356,308.409L443.757,308.219L441.646,308.38L440.366,306.93L438.248,305.753L436.462,303.944L434.109,303.997L433.578,303.452L432.42,300.759L431.402,297.185L429.864,296.417L428.446,295.087L427.44,292.748L425.026,291.299L424.894,288.998L424.015,287.82L423.847,286.259Z" stroke="#747569" stroke-width="1" stroke-dasharray="3,3" fill="none"></path><path d="M425.939,377.935L426.485,375.609L425.622,373.936L423.994,373.118L424.558,370.763L422.954,369.995L421.444,368.078L421.292,366.421L420.007,363.187L420.967,361.952L421.055,359.266L420.081,358.63L419.752,355.334L420.569,354.474L420.933,352.859L422.254,352.491L424.273,350.492L424.784,349.063L424.153,347.158L425.67,345.791L425.392,344.659L424.45,343.308L424.708,340.367L425.226,339.826L426.315,341.044L429.692,342.713L432.726,342.895L434.146,342.065L433.948,340.887L432.551,339.214L431.271,339.462L430.468,336.802L431.474,337.017L432.954,336.36L435.571,337.682L437.574,337.231L440.184,337.81L441.248,337.426L443.078,337.756L444.676,337.12L445.553,336.079L447.399,334.815L450.244,333.373L451.059,331.919L450.518,328.891L451.05,328.416L456.236,326.842L457.733,328.069L459.3,330.601L460.721,329.969L462.044,331.295L465.102,332.402L466.566,331.77L469.167,332.497L469.528,335.72L471.114,336.005L474.144,335.534L477.974,336.513L479.353,338.07L482.348,338.326L483.334,339.351L486.474,337.624L486.697,338.21L488.578,337.996L489.846,339.644L490.548,339.888L492.935,338.421L494.643,338.694L495.877,339.904L496.543,341.875L498.03,341.821L499.487,339.78L501.068,339.958L502.643,340.706L503.792,340.536L506.14,342.3L506.918,342.342L506.964,343.626L507.963,344.019L506.823,344.403L507.652,345.655L506.998,347.687L507.804,350.145L507.334,351.124L508.49,351.674L509.024,353.673L509.017,355.003L506.561,354.904L505.58,353.148L504.94,353.334L505.401,355.8L504.62,357.341L502.751,359.312L502.316,361.501L502.744,362.538L501.621,362.261L499.169,363.121L497.972,362.559L496.653,363.166L495.539,364.909L494.34,365.674L493.159,365.616L492.438,364.835L491.501,365.744L492.125,366.165L491.644,367.615L492.017,368.367L489.947,367.871L488.073,366.657L485.951,366.929L485.695,369.536L484.862,369.416L484.874,370.999L484.073,371.37L483.769,373.3L482.583,374.535L481.577,373.977L480.329,373.994L479.429,373.147L477.898,372.688L476.941,372.986L475.845,372.577L475.09,374.15L475.421,376.476L474.957,377.455L473.997,377.075L472.477,377.641L472.136,379.43L470.939,380.149L468.923,380.281L466.437,379.351L465.166,380.616L463.522,382.859L461.83,382.45L461.032,382.706L460.626,383.97L460.118,383.024L460.348,382.024L459.036,380.934L457.567,380.252L457.378,379.277L456.727,380.017L456.596,378.955L455.622,379.616L456.623,381.458L455.656,381.822L453.324,381.752L452.945,382.363L451.494,381.636L450.06,381.921L448.803,381.182L447.102,381.413L445.311,380.653L443.548,380.603L442.305,381.814L438.126,381.987L438.969,379.756L437.823,380.397L435.695,380.863L434.314,380.512L434.344,379.665L427.802,377.98Z" stroke="#747569" stroke-width="1" stroke-dasharray="3,3" fill="none"></path><path d="M455.939,45.093L456.034,46.051L455.164,46.37L454.818,47.448L455.82,48.807L455.82,50.17L454.107,50.327L453.612,50.819L453.693,52.62L454.422,53.57L454.1,54.52L455.834,55.371L455.21,56.024L456.911,59.134L455.571,65.075L454.466,67.029L454.855,69.784L454.178,72.87L454.65,74.246L455.73,74.704L455.764,78.088L457.215,79.447L458.322,79.067L459.62,77.489L461.78,78.575L462.691,78.257L462.756,77.133L466.363,76.956L466.188,76.125L466.92,75.493L468.527,75.369L470.111,73.552L471.188,73.337L472.383,72.465L472.618,71.131L473.433,71.689L474.109,70.644L473.062,69.351L472.657,67.574L477.095,67.591L478.624,67.306L482.383,67.868L484.805,67.285L488.364,64.41L491.038,65.091L492.051,66.062L493.122,66.186L494.577,67.987L496.091,68.024L499.19,71.751L496.92,72.755L495.668,72.969L494.139,74.952L493.336,75.246L493.902,76.972L496.727,79.24L497.65,81.231L496.354,83.458L496.78,84.768L496.197,85.755L498.649,88.746L498.782,90.398L500.205,90.605L501.015,92.269L501.605,92.596L503.007,94.62L502.73,95.814L503.377,97.322L506.121,99.255L506.494,100.275L505.622,101.052L505.636,102.597L504.192,103.931L503.193,106.534L499.894,107.071L499.701,108.269L498.292,107.546L496.061,109.636L495.095,108.773L489.59,108.744L487.811,110L487.125,110.074L484.607,109.269L482.77,108.013L483.078,106.749L481.648,105.509L480.571,105.551L478.748,106.348L477.779,108.302L474.137,109.942L471.683,110.636L470.472,113.416L469.839,113.937L469.128,115.746L467.047,116.176L466.308,118.32L465.668,118.431L464.247,117.105L462.661,117.741L462.461,119.419L461.331,120.708L459.238,121.641L458.49,121.24L457.583,122.145L457.3,124.145L456.681,124.454L454.084,124.235L453.46,122.521L452.41,122.153L451.794,120.84L449.63,120.679L447.09,122.62L446.041,123.145L444.312,122.443L442.201,122.893L440.403,121.753L439.402,122.389L439.48,123.397L438.437,123.508L438.179,122.612L438.983,122.137L438.674,121.414L437.36,121.6L436.798,118.283L436.096,117.787L434.42,118.27L434.475,116.358L433.529,115.825L433.018,114.552L433.131,113.201L432.519,112.041L429.97,111.181L428.548,111.801L428.159,112.784L427.351,112.966L426.43,110.967L425.394,109.954L426.225,109.417L423.863,105.84L424.05,105.03L423.2,104.059L423.469,102.7L422.806,101.986L422.146,99.569L421.296,99.701L420.249,98.768L418.304,98.549L417.291,96.202L417.834,94.814L419.839,94.269L422.157,94.228L422.938,93.468L421.319,91.41L419.782,90.154L419.121,88.357L419.524,86.069L418.785,84.615L420.504,83.099L421.167,81.537L420.937,80.513L421.276,77.699L421.094,76.551L421.556,75.485L423.131,73.915L424.683,71.598L425.076,69.4L426.909,67L427.848,64.604L429.906,61.407L430.373,59.63L432.466,57.263L432.576,55.648L433.955,54.057L434.664,52.595L435.168,49.761L437.965,47.778L438.734,46.828L438.232,46.027L439.282,43.734L441.151,43.73L445.003,41.032L447.019,40.698L449.957,42.846L452.749,43.627Z" stroke="#747569" stroke-width="1" stroke-dasharray="3,3" fill="none"></path><path d="M504.703,281.888L503.555,281.219L502.949,280.203L502.146,277.724L500.366,276.468L498.046,274.27L497.038,274.023L495.939,272.969L495.019,272.99L495.652,271.098L493.437,268.413L492.417,266.492L491.476,266.434L490.735,267.871L489.367,268.413L487.951,269.499L487.256,268.475L487.067,269.722L485.461,269.553L485.221,268.26L484.038,268.214L484.151,270.115L481.667,269.763L480.629,270.325L479.466,269.681L478.004,269.846L476.338,269.549L474.169,271.151L472.081,273.271L470.438,273.229L469.395,271.969L469.604,269.14L469.079,268.404L469.482,266.917L469.029,265.955L468.087,265.781L467.014,264.513L464.959,264.451L463.083,261.65L462.012,261.634L462.056,260.208L460.847,258.593L459.026,258.275L457.376,256.891L456.637,257.837L455.415,258.081L454.319,259.634L451.522,258.862L450.479,256.937L449.245,256.61L448.403,257.032L446.503,257.164L446.81,257.978L448.582,258.63L448.61,261.646L449.607,262.67L450.044,265.285L451.395,265.463L452.051,266.661L451.614,267.574L449.899,268.185L448.412,267.458L446.612,268.979L445.23,269.032L444.305,268.301L441.646,267.88L440.426,269.309L439.74,268.223L437.622,266.347L436.011,266L434.27,263.794L432.176,264.108L431.529,265.017L428.168,266.438L426.075,266.562L426.149,267.429L427.387,268.97L426.448,271.019L427.277,271.965L426.881,272.659L425.543,272.87L424.351,272.436L423.225,276.923L422.199,277.497L422.051,280.149L423.232,281.739L422.687,282.789L422.629,285.672L421.856,286.341L419.432,284.495L416.149,284.449L414.181,285.052L414.475,284.049L413.191,283.974L411.501,284.61L410.062,283.677L407.873,284.073L405.431,285.127L406.144,287.353L405.677,288.031L404.694,287.672L402.818,285.631L400.125,283.73L398.759,281.81L398.322,280.298L399.031,279.608L398.541,278.98L397.3,278.91L397.107,279.591L396.248,277.939L395.783,279.579L394.275,280.062L392.834,279.145L391.768,277.935L391.738,276.018L392.081,275.266L393.927,274.993L394.425,273.874L395.649,273.539L396.566,272.465L398.594,272.069L400.79,270.325L400.023,269.656L398.492,269.458L398.423,267.958L396.948,266.694L396.223,265.513L397.735,264.996L398.472,266.417L399.096,266.112L400.557,267.124L403.578,268.706L404.119,267.289L405.808,266.909L405.88,265.727L408.78,265.095L410.06,263.906L411.766,263.435L413.61,261.989L414.641,262.662L416.455,261.134L417.857,258.387L418.753,257.87L419.333,255.028L420.233,253L419.977,251.004L420.638,250.149L420.516,248.947L419.747,247.939L421.352,248.03L421.782,246.882L423.605,247.055L425.233,246.299L425.456,245.06L426.494,243.8L427.859,243.936L428.262,245.052L429.059,245.225L429.275,246.667L430.226,247.2L432.229,244.428L434.344,242.416L436.593,238.686L436.817,236.868L438.041,235.786L440.18,235.063L440.332,234.356L441.513,234.071L441.863,232.613L443.522,232.675L443.766,234.092L445.778,234.361L446.271,233.022L447.443,233.695L449.782,233.039L449.862,231.105L451.715,230.382L454.153,231.155L454.328,230.209L455.91,229.878L455.007,228.127L455.131,226.739L454.551,224.971L453.571,224.624L453.543,222.649L455.684,222.042L454.936,220.447L456.103,219.278L456.075,217.708L457.328,217.547L457.507,216.155L458.237,215.523L457.459,213.16L459.109,211.598L458.633,210.719L460.253,208.071L461.296,208.054L461.95,206.459L463.044,206.03L464.404,206.769L463.439,203.791L464.098,203.2L463.573,202.138L464.979,200.123L466.195,199.185L466.625,197.784L468.624,198.759L469.535,198.305L470.479,198.631L471.665,198.288L472.625,198.701L474.162,196.83L475.295,197.908L477.081,196.285L476.326,195.372L477.157,194.67L478.589,194.88L479.415,194.261L481.025,194.277L481.165,193.678L482.898,192.509L484.581,194.368L486.375,194.141L487.111,192.534L488.014,191.869L489.335,191.984L490.003,193.265L489.413,194.145L489.94,195.81L490.974,196.124L491.874,198.941L493.656,199.358L493.999,200.614L493.168,204.601L493.52,205.514L495.481,206.992L495.633,208.922L496.759,209.979L497.984,212.334L499.314,213.833L499.413,215.275L501.379,218.208L503.313,218.398L504.144,219.637L507.1,219.786L508.433,219.505L510.15,220.604L511.462,220.695L512.721,220.179L513.313,219.208L516.149,219.332L516.846,220.703L518.251,220.092L520.256,219.844L522.728,217.857L523.893,217.807L527.85,219.881L528.548,219.274L528.755,217.919L531.425,216.861L532.528,216.775L533.601,217.63L535.723,218.34L536.331,219.836L535.875,221.686L535.039,223.587L535.458,224.822L532.081,230.548L530.87,231.998L530.421,233.311L530.263,235.534L529.689,236.649L528.672,236.88L527.532,238.083L526.789,241.697L524.738,242.92L523.729,244.3L523.561,246.332L522.917,247.638L522.894,249.022L521.126,250.624L520.249,252.33L520.003,253.793L516.886,254.834L516.577,255.317L516.904,257.825L516.089,259.907L516.653,260.778L517.684,260.96L517.788,262.08L516.817,263.815L518.041,265.265L517.113,267.02L516.276,267.851L517.928,271.92L517.615,273.556L516.842,273.486L515.235,274.812L514.699,274.283L514.68,272.99L513.561,272.411L512.841,272.746L511.745,274.514L512.162,276.559L511.619,277.703L511.994,278.856L510.656,279.149L507.696,281.322L506.064,280.975Z" stroke="#747569" stroke-width="1" stroke-dasharray="3,3" fill="none"></path><path d="M347.341,348.154L349.439,346.481L350.007,345.047L351.529,344.8L352.562,346.093L353.686,346.295L352.781,347.782L353.046,348.662L356.326,347.666L357.015,348.443L359.257,349.046L361.573,349.315L363.092,349.93L364.395,351.161L365.127,351.19L367.321,349.319L367.086,347.303L367.208,344.94L368.515,343.515L369.91,348.336L372.795,347.881L373.048,346.919L375.134,343.213L376.503,342.738L377.454,343.275L378.598,345.593L379.521,346.328L379.77,348.571L380.168,349.298L382.288,350.327L383.179,351.851L383.838,351.884L385.23,350.261L386.853,349.707L387.636,349.934L388.209,352.475L386.391,352.041L385.247,352.553L385.792,353.822L385.168,355.148L383.994,355.14L383.895,357.222L384.835,358.924L384.162,359.77L385.486,361.253L388.967,360.274L391.538,358.907L392.213,359.733L395.387,359.242L396.644,358.738L399.34,359.225L400.051,360.068L400.815,359.783L400.898,358.333L401.579,357.275L401.817,354.929L402.27,353.83L404.422,354.272L405.608,353.437L406.025,354.487L408.115,354.165L410.334,356.35L413.449,357.135L415.419,357.114L414.328,358.097L414.535,360.138L417.984,360.931L417.661,362.092L415.035,362.865L414.62,364.773L414.013,365.405L414.273,366.335L412.965,368.148L414.234,367.838L414.782,368.532L414.931,370.168L417.079,370.912L420.131,370.54L421.368,368.801L421.444,368.078L422.954,369.995L424.558,370.763L423.994,373.118L425.622,373.936L426.485,375.609L425.939,377.935L427.044,380.372L426.994,381.867L425.051,383.107L425.021,383.788L426.179,385.734L426.386,387.262L425.804,389.712L426.117,392.48L424.885,393.145L423.944,391.687L421.648,391.74L420.863,390.956L419.02,390.778L418.49,391.46L417.519,390.918L416.75,391.559L415.857,391.187L413.186,391.658L412.763,391.992L412.714,393.707L411.22,394.149L410.544,395.099L409.51,395.029L408.992,395.818L407.528,395.859L406.22,396.838L405.293,396.859L405.926,399.185L404.093,400.064L402.744,401.51L402.537,402.903L401.167,403.753L401.038,405.03L400.051,406.232L399.183,405.654L397.77,405.79L396.434,407.096L394.418,407.29L393.078,406.563L390.755,408.062L388.621,407.542L387.823,407.005L385.373,408.533L383.311,407.765L382.493,409.446L381.625,409.71L380.88,408.967L379.201,408.773L378.297,408.087L377.648,408.546L376.041,411.834L373.292,412.156L371.646,412.846L368.513,415.068L367.862,415.072L366.349,413.515L365.514,413.536L364.662,417.497L363.601,419.092L361.98,419.658L360.449,420.914L358.727,418.728L356.462,418.567L354.195,421.678L351.391,421.418L349.132,421.463L345.758,422.992L345.005,423L342.634,421.24L338.35,422.628L335.329,421.509L332.397,421.224L330.995,420.034L329.273,417.394L328.9,415.961L329.62,413.821L329.816,409.748L329.119,406.612L329.39,405.666L328.974,403.811L330.212,401.324L330.629,399.697L331.292,399.507L332.717,396.83L333.741,395.76L333.727,393.599L334.393,393.174L335.099,390.629L336.545,387.395L336.068,387.002L336.048,383.255L336.791,382.421L336.605,379.752L338.152,377.505L340.594,374.824L342.056,369.222L342.498,368.636L343.939,364.711L344.924,362.865L346.826,361.039L347.537,359.498L347.97,356.953L349.045,354.995L348.782,353.338L348.145,352.962L348.14,351.719L347.362,350.467Z" stroke="#747569" stroke-width="1" stroke-dasharray="3,3" fill="none"></path><path d="M419.121,88.357L419.782,90.154L421.319,91.41L422.938,93.468L422.157,94.228L419.839,94.269L417.834,94.814L417.291,96.202L418.304,98.549L420.249,98.768L421.296,99.701L422.146,99.569L422.806,101.986L423.469,102.7L423.2,104.059L424.05,105.03L423.863,105.84L426.225,109.417L425.394,109.954L426.43,110.967L427.351,112.966L428.159,112.784L428.548,111.801L429.97,111.181L432.519,112.041L433.131,113.201L433.018,114.552L433.529,115.825L434.475,116.358L434.42,118.27L436.096,117.787L436.798,118.283L437.36,121.6L438.674,121.414L438.983,122.137L438.179,122.612L438.437,123.508L439.48,123.397L439.402,122.389L440.403,121.753L442.201,122.893L444.312,122.443L446.041,123.145L447.09,122.62L449.63,120.679L451.794,120.84L452.41,122.153L453.46,122.521L454.084,124.235L456.681,124.454L457.3,124.145L457.583,122.145L458.49,121.24L459.238,121.641L461.331,120.708L462.461,119.419L462.661,117.741L464.247,117.105L465.668,118.431L466.308,118.32L467.047,116.176L469.128,115.746L469.839,113.937L470.472,113.416L471.683,110.636L474.137,109.942L477.779,108.302L478.748,106.348L480.571,105.551L481.648,105.509L483.078,106.749L482.77,108.013L484.607,109.269L487.125,110.074L487.811,110L489.59,108.744L495.095,108.773L496.061,109.636L498.292,107.546L499.701,108.269L499.894,107.071L503.193,106.534L504.192,103.931L505.636,102.597L505.622,101.052L506.494,100.275L506.964,100.061L507.654,101.242L510.325,100.515L512.915,101.602L515.085,101.461L516.533,102.535L516.865,103.531L517.848,104.373L520.463,104.89L523.591,104.745L523.518,106.662L525.852,109.153L526.101,110.041L527.178,111.02L526.722,115.036L525.741,116.13L526.4,121.567L526.89,123.389L525.889,124.302L525.221,125.942L523.509,125.657L522.788,126.747L519.929,129.469L518.67,130.977L517.074,131.167L516.586,133.03L516.989,135.798L517.047,138.074L518.38,140.173L520.198,141.012L521.255,141.937L521.156,143.218L520.249,144.184L520.408,146.741L518.465,146.407L517.27,148.786L517.017,150.042L515.412,150.608L514.544,149.897L513.534,150.827L513.736,153.177L513.117,153.995L511.257,154.313L509.429,153.9L508.382,154.38L507.924,156.412L507.848,158.395L505.686,160.332L505.341,162.861L503.32,162.943L501.591,163.707L500.171,163.604L498.95,162.885L497.974,163.075L495.401,164.563L493.548,165.248L491.492,166.455L490.981,167.57L486.934,169.677L486.639,170.02L483.598,170.272L482.307,169.619L480.408,169.995L480.32,171.114L479.549,171.866L477.954,172.3L477.521,173.254L476.052,174.894L474.715,174.969L474.395,173.94L472.958,175.535L471.149,176.394L467.956,177.414L466.46,178.682L465.053,181.136L462.553,181.744L459.63,181.781L458.983,182.161L456.77,181.446L457.215,182.718L455.751,184.14L453.007,183.863L452.397,182.999L452.661,181.938L450.668,180L450.656,181.206L449.323,182.062L447.153,181.206L446.529,179.443L445.797,179.133L444.383,180.07L442.116,179.31L440.889,177.621L439.782,177.084L439.01,177.373L437.355,176.885L435.976,178.385L437.141,179.996L435.235,180.422L434.538,181.165L436.16,183.26L437.024,185.763L436.16,187.948L435.35,188.444L434.075,188.382L434.211,189.142L431.326,187.952L429.968,188.564L428.198,186.783L425.283,186.482L423.442,185.647L420.237,186.746L418.317,185.883L417.415,184.714L416.075,185.028L415.877,183.227L414.738,182.57L414.841,183.569L413.145,183.615L412.224,182.19L411.105,181.339L411.004,178.319L414.457,177.551L414.392,176.406L413.352,175.34L413.446,173.155L411.619,171.887L411.879,170.887L411.299,169.64L411.876,169.049L411.867,167.62L408.43,164.286L408.251,163.327L410.567,161.77L409.544,158.734L407.926,157.346L407.24,157.618L406.075,159.771L402.107,161.427L399.775,163.48L399.04,163.823L397.484,162.609L396.605,163.001L396.487,165.38L394.618,163.583L393.683,162.233L393.446,159.973L392.728,159.523L389.59,159.333L388.281,158.399L388.175,157.271L384.422,157.891L383.034,155.057L382.928,153.603L381.84,152.93L381.423,149.91L380.509,148.716L377.82,149.088L376.329,150.269L373.552,151.641L371.101,153.475L369.933,153.211L369.024,151.777L367.09,151.674L367.383,150.067L366.867,148.708L367.915,146.923L367.452,145.494L368.663,144.746L369.584,142.201L370.306,141.078L369.558,139.277L370.424,138.574L370.603,137.356L370.295,134.873L368.884,131.618L369.685,130.378L371.798,128.904L374.765,128.214L377.109,125.884L377.585,123.409L378.391,122.868L379.008,121.042L378.421,119.857L381.388,113.478L381.098,112.689L381.821,110.826L382.899,109.595L381.112,109.665L379.742,108.773L379.289,107.918L380.115,106.67L379.512,106.261L378.656,107.199L378.014,107.1L377.995,105.072L376.432,105.195L376.114,104.456L377.48,102.246L378.905,101.288L380.346,101.465L383.672,101.23L385.115,101.713L387.659,101.457L388.467,101.056L389.084,99.709L389.089,98.272L390.387,96.562L392.394,95.789L392.793,94.414L392.183,93.125L392.751,91.77L393.048,89.043L392.526,88.2L393.29,87.754L393.746,88.585L394.328,87.457L393.258,87.064L393.011,86.18L394.254,85.949L396.398,84.796L399.351,85.408L399.936,86.143L401.048,86.048L402.482,86.85L404.068,86.094L407.321,87.668L408.108,88.729L411.554,89.853L414.466,87.758L416.395,88.737L417.622,87.961Z" stroke="#747569" stroke-width="1" stroke-dasharray="3,3" fill="none"></path><path d="M338.499,271.606L339.678,272.539L341.218,272.42L341.642,273.114L343.23,272.924L345.102,273.564L345.327,274.196L346.333,273.407L347.187,274.126L348.806,273.234L350.159,273.436L351.05,272.064L351.135,270.02L351.826,269.334L354.8,269.408L355.198,270.854L357.344,271.56L357.915,273.118L358.704,273.928L361.225,274.295L364.211,273.167L364.291,272.502L365.891,271.874L366.451,271.147L368.235,271.825L369.434,271.04L369.215,269.697L369.936,270.011L369.729,271.643L370.518,271.585L370.85,270.412L372.008,269.639L374.056,269.507L374.793,270.726L374.236,271.036L373.368,274.547L374.883,275.774L375.847,275.848L376.945,275.15L379.588,275.526L379.376,276.381L380.408,277.786L380.997,281.582L381.934,282.095L382.707,280.975L384.478,280.946L384.342,282.272L387.024,282.177L386.925,281.26L388.704,281.211L389.169,279.641L391.768,277.935L392.834,279.145L394.275,280.062L395.783,279.579L396.248,277.939L397.107,279.591L397.3,278.91L398.541,278.98L399.031,279.608L398.322,280.298L398.759,281.81L400.125,283.73L402.818,285.631L404.694,287.672L405.677,288.031L406.144,287.353L405.431,285.127L407.873,284.073L410.062,283.677L411.501,284.61L413.191,283.974L414.475,284.049L414.181,285.052L416.149,284.449L419.432,284.495L421.856,286.341L422.629,285.672L423.847,286.259L424.015,287.82L424.894,288.998L425.026,291.299L427.44,292.748L428.446,295.087L429.864,296.417L431.402,297.185L432.42,300.759L433.578,303.452L434.109,303.997L436.462,303.944L438.248,305.753L440.366,306.93L441.646,308.38L443.757,308.219L446.356,308.409L447.277,310.322L446.934,310.9L447.818,312.069L447.871,313.139L449.712,313.904L451.503,314.143L452.82,313.019L453.292,313.635L452.578,316.167L452.91,318.559L452.581,320.265L453.078,322.265L452.781,323.417L449.245,325.516L448.842,326.421L449.521,328.792L450.518,328.891L451.059,331.919L450.244,333.373L447.399,334.815L445.553,336.079L444.676,337.12L443.078,337.756L441.248,337.426L440.184,337.81L437.574,337.231L435.571,337.682L432.954,336.36L431.474,337.017L430.468,336.802L431.271,339.462L432.551,339.214L433.948,340.887L434.146,342.065L432.726,342.895L429.692,342.713L426.315,341.044L425.226,339.826L424.708,340.367L424.45,343.308L425.392,344.659L425.67,345.791L424.153,347.158L424.784,349.063L424.273,350.492L422.254,352.491L420.933,352.859L420.569,354.474L419.752,355.334L420.081,358.63L421.055,359.266L420.967,361.952L420.007,363.187L421.292,366.421L421.444,368.078L421.368,368.801L420.131,370.54L417.079,370.912L414.931,370.168L414.782,368.532L414.234,367.838L412.965,368.148L414.273,366.335L414.013,365.405L414.62,364.773L415.035,362.865L417.661,362.092L417.984,360.931L414.535,360.138L414.328,358.097L415.419,357.114L413.449,357.135L410.334,356.35L408.115,354.165L406.025,354.487L405.608,353.437L404.422,354.272L402.27,353.83L401.817,354.929L401.579,357.275L400.898,358.333L400.815,359.783L400.051,360.068L399.34,359.225L396.644,358.738L395.387,359.242L392.213,359.733L391.538,358.907L388.967,360.274L385.486,361.253L384.162,359.77L384.835,358.924L383.895,357.222L383.994,355.14L385.168,355.148L385.792,353.822L385.247,352.553L386.391,352.041L388.209,352.475L387.636,349.934L386.853,349.707L385.23,350.261L383.838,351.884L383.179,351.851L382.288,350.327L380.168,349.298L379.77,348.571L379.521,346.328L378.598,345.593L377.454,343.275L376.503,342.738L375.134,343.213L373.048,346.919L372.795,347.881L369.91,348.336L368.515,343.515L367.208,344.94L367.086,347.303L367.321,349.319L365.127,351.19L364.395,351.161L363.092,349.93L361.573,349.315L359.257,349.046L357.015,348.443L356.326,347.666L353.046,348.662L352.781,347.782L353.686,346.295L352.562,346.093L351.529,344.8L350.007,345.047L349.439,346.481L347.341,348.154L347.171,346.002L346.63,344.833L347.026,343.982L346.568,342.275L345.937,341.536L345.962,339.095L343.865,338.81L344.13,336.058L343.416,334.65L344.068,333.6L344.001,332.522L342.871,331.196L343.228,330.399L342.832,328.655L341.545,326.032L341.676,324.723L340.617,322.248L340.438,320.141L341.096,318.154L340.813,316.242L341.863,314.631L341.842,310.528L341.121,309.384L341.614,306.612L342.556,305.038L342.827,303.105L341.817,301.436L343.426,298.817L343.313,295.653L342.707,294.69L343.076,292.608L341.734,291.716L340.456,290.039L339.125,287.349L337.645,286.354L338.096,285.003L339.003,285.883L339.963,285.751L339.89,284.077L340.689,283.065L340.06,282.363L339.066,283.396L338.824,282.71L339.567,281.351L338.64,280.645L337.33,280.525L338.115,279.992L338.978,278.311L339.155,276.931L338.324,276.551L338.976,275.882L339.241,274.518L338.686,273.845L336.757,273.349L336.669,272.746L338.057,272.461Z" stroke="#747569" stroke-width="1" stroke-dasharray="3,3" fill="none"></path><path d="M440.332,234.356L440.18,235.063L438.041,235.786L436.817,236.868L436.593,238.686L434.344,242.416L432.229,244.428L430.226,247.2L429.275,246.667L429.059,245.225L428.262,245.052L427.859,243.936L426.494,243.8L425.456,245.06L425.233,246.299L423.605,247.055L421.782,246.882L421.352,248.03L419.747,247.939L420.516,248.947L420.638,250.149L419.977,251.004L420.233,253L419.333,255.028L418.753,257.87L417.857,258.387L416.455,261.134L414.641,262.662L413.61,261.989L411.766,263.435L410.06,263.906L408.78,265.095L405.88,265.727L405.808,266.909L404.119,267.289L403.578,268.706L400.557,267.124L399.096,266.112L398.472,266.417L397.735,264.996L396.223,265.513L396.948,266.694L398.423,267.958L398.492,269.458L400.023,269.656L400.79,270.325L398.594,272.069L396.566,272.465L395.649,273.539L394.425,273.874L393.927,274.993L392.081,275.266L391.738,276.018L391.768,277.935L389.169,279.641L388.704,281.211L386.925,281.26L387.024,282.177L384.342,282.272L384.478,280.946L382.707,280.975L381.934,282.095L380.997,281.582L380.408,277.786L379.376,276.381L379.588,275.526L376.945,275.15L375.847,275.848L374.883,275.774L373.368,274.547L374.236,271.036L374.793,270.726L374.056,269.507L372.008,269.639L370.85,270.412L370.518,271.585L369.729,271.643L369.936,270.011L369.215,269.697L369.434,271.04L368.235,271.825L366.451,271.147L365.891,271.874L364.291,272.502L364.211,273.167L361.225,274.295L358.704,273.928L357.915,273.118L357.344,271.56L355.198,270.854L354.8,269.408L351.826,269.334L351.135,270.02L351.05,272.064L350.159,273.436L348.806,273.234L347.187,274.126L346.333,273.407L345.327,274.196L345.102,273.564L343.23,272.924L341.642,273.114L341.218,272.42L339.678,272.539L338.499,271.606L339.227,267.343L338.235,265.5L336.727,264.253L337.049,263.484L338.621,263.654L340.127,264.525L340.61,263.84L339.218,263.344L339.319,262.22L341.149,261.96L343.172,258.965L345.131,257.279L345.382,255.317L347.73,252.917L351.276,247.861L351.835,246.167L353.327,245.828L352.726,243.771L353.534,243.238L353.591,241.656L350.751,240.958L350.125,239.384L351.105,235.744L356.241,234.902L356.95,233.538L357.012,231.378L357.636,230.263L357.627,229.044L358.891,227.185L357.689,225.409L357.233,222.269L358.805,221.517L358.955,220.695L357.855,219.501L355.928,218.927L354.204,217.861L354.04,216.969L354.738,216.296L356.545,215.796L356.81,214.527L355.751,213.499L352.813,212.177L351.773,210.971L351.234,208.822L348.934,205.047L347.912,203.002L345.771,202.081L344.439,201.097L344.208,199.652L344.68,198.863L343.677,197.198L343.32,195.438L343.711,193.893L343.345,191.456L344.369,189.679L343.808,188.142L343.663,185.598L344.515,183.871L346.333,183.871L346.812,183.396L346.851,181.492L347.355,178.013L348.619,177.274L350.61,177.505L352.189,176.902L353.941,174.221L356.524,173.126L356.982,171.032L357.972,168.293L358.992,167.442L360.488,167.715L361.319,168.355L363.099,167.425L362.928,163.596L364.871,162.856L364.966,160.002L365.521,158.721L364.287,158.3L363.446,155.677L364.275,153.578L365.325,152.479L365.281,150.422L366.867,148.708L367.383,150.067L367.09,151.674L369.024,151.777L369.933,153.211L371.101,153.475L373.552,151.641L376.329,150.269L377.82,149.088L380.509,148.716L381.423,149.91L381.84,152.93L382.928,153.603L383.034,155.057L384.422,157.891L388.175,157.271L388.281,158.399L389.59,159.333L392.728,159.523L393.446,159.973L393.683,162.233L394.618,163.583L396.487,165.38L396.605,163.001L397.484,162.609L399.04,163.823L399.775,163.48L402.107,161.427L406.075,159.771L407.24,157.618L407.926,157.346L409.544,158.734L410.567,161.77L408.251,163.327L408.43,164.286L411.867,167.62L411.876,169.049L411.299,169.64L411.879,170.887L411.619,171.887L413.446,173.155L413.352,175.34L414.392,176.406L414.457,177.551L411.004,178.319L411.105,181.339L412.224,182.19L413.145,183.615L412.551,184.887L410.797,185.408L410.424,185.978L409.247,185.689L407.77,186.271L407.786,187.382L406.361,188.989L403.891,190.241L402.926,191.204L399.885,191.629L398.817,192.315L398.757,193.017L397.576,193.612L397.139,194.612L397.781,195.525L397.189,196.739L398.313,198.573L398.713,201.027L400.136,202.642L400.544,204.609L398.794,205.782L399.816,206.406L400.021,207.992L403.856,207.377L404.439,207.703L406.027,207.22L407.231,206.203L409.406,206.773L409.39,207.781L410.507,208.727L410.502,209.339L412.659,210.359L413.262,211.772L418.166,211.983L418.649,214.333L419.374,215.486L421.492,217.337L422.62,216.738L424.056,216.614L424.657,217.465L426.846,217.027L428.271,217.134L429.114,218.316L432.153,219.927L432.056,222.542L434.862,225.433L435.221,226.925L436.384,227.482L438.228,227.135L438.421,228.35L437.341,230.002L438.506,230.176L439.448,231.911L438.223,232.46L439.66,233.187Z" stroke="#747569" stroke-width="1" stroke-dasharray="3,3" fill="none"></path><path d="M347.341,348.154L347.171,346.002L346.63,344.833L347.026,343.982L346.568,342.275L345.937,341.536L345.962,339.095L343.865,338.81L344.13,336.058L343.416,334.65L344.068,333.6L344.001,332.522L342.871,331.196L343.228,330.399L342.832,328.655L341.545,326.032L341.676,324.723L340.617,322.248L340.438,320.141L341.096,318.154L340.813,316.242L341.863,314.631L341.842,310.528L341.121,309.384L341.614,306.612L342.556,305.038L342.827,303.105L341.817,301.436L343.426,298.817L343.313,295.653L342.707,294.69L343.076,292.608L341.734,291.716L340.456,290.039L339.125,287.349L337.645,286.354L338.096,285.003L339.003,285.883L339.963,285.751L339.89,284.077L340.689,283.065L340.06,282.363L339.066,283.396L338.824,282.71L339.567,281.351L338.64,280.645L337.33,280.525L338.115,279.992L338.978,278.311L339.155,276.931L338.324,276.551L338.976,275.882L339.241,274.518L338.686,273.845L336.757,273.349L336.669,272.746L338.057,272.461L338.499,271.606L339.227,267.343L338.235,265.5L336.727,264.253L337.049,263.484L338.621,263.654L340.127,264.525L340.61,263.84L339.218,263.344L339.319,262.22L341.149,261.96L343.172,258.965L345.131,257.279L345.382,255.317L347.73,252.917L351.276,247.861L351.835,246.167L353.327,245.828L352.726,243.771L353.534,243.238L353.591,241.656L350.751,240.958L350.125,239.384L351.105,235.744L356.241,234.902L356.95,233.538L357.012,231.378L357.636,230.263L357.627,229.044L358.891,227.185L357.689,225.409L357.233,222.269L358.805,221.517L358.955,220.695L357.855,219.501L355.928,218.927L354.204,217.861L354.04,216.969L354.738,216.296L356.545,215.796L356.81,214.527L355.751,213.499L352.813,212.177L351.773,210.971L351.234,208.822L348.934,205.047L347.912,203.002L345.771,202.081L344.439,201.097L344.208,199.652L344.68,198.863L343.677,197.198L343.32,195.438L343.711,193.893L343.345,191.456L344.369,189.679L343.808,188.142L343.663,185.598L344.515,183.871L346.333,183.871L346.812,183.396L346.851,181.492L347.355,178.013L348.619,177.274L350.61,177.505L352.189,176.902L353.941,174.221L356.524,173.126L356.982,171.032L357.972,168.293L358.992,167.442L360.488,167.715L361.319,168.355L363.099,167.425L362.928,163.596L364.871,162.856L364.966,160.002L365.521,158.721L364.287,158.3L363.446,155.677L364.275,153.578L365.325,152.479L365.281,150.422L366.867,148.708L367.915,146.923L367.452,145.494L368.663,144.746L369.584,142.201L370.306,141.078L369.558,139.277L370.424,138.574L370.603,137.356L370.295,134.873L368.884,131.618L369.685,130.378L371.798,128.904L374.765,128.214L377.109,125.884L377.585,123.409L378.391,122.868L379.008,121.042L378.421,119.857L381.388,113.478L381.098,112.689L381.821,110.826L382.899,109.595L381.112,109.665L379.742,108.773L379.289,107.918L380.115,106.67L379.512,106.261L378.656,107.199L378.014,107.1L377.995,105.072L376.432,105.195L376.114,104.456L377.48,102.246L378.905,101.288L380.346,101.465L383.672,101.23L385.115,101.713L387.659,101.457L388.467,101.056L389.084,99.709L389.089,98.272L390.387,96.562L392.394,95.789L392.793,94.414L392.183,93.125L392.751,91.77L393.048,89.043L392.526,88.2L393.29,87.754L393.746,88.585L394.328,87.457L393.258,87.064L393.011,86.18L394.254,85.949L396.398,84.796L399.351,85.408L399.936,86.143L401.048,86.048L402.482,86.85L404.068,86.094L407.321,87.668L408.108,88.729L411.554,89.853L414.466,87.758L416.395,88.737L417.622,87.961L419.121,88.357L419.524,86.069L418.785,84.615L420.504,83.099L421.167,81.537L420.937,80.513L421.276,77.699L421.094,76.551L421.556,75.485L423.131,73.915L424.683,71.598L425.076,69.4L426.909,67L427.848,64.604L429.906,61.407L430.373,59.63L432.466,57.263L432.576,55.648L433.955,54.057L434.664,52.595L435.168,49.761L437.965,47.778L438.734,46.828L438.232,46.027L439.282,43.734L441.151,43.73L445.003,41.032L447.019,40.698L449.957,42.846L452.749,43.627L455.939,45.093L458.782,47.572L461.057,49.142L461.563,49.869L462.645,49.873L467.648,47.382L468.184,46.374L470.058,40.342L470.191,38.864L475.329,36.707L477.627,35.906L481.989,35.055L484.927,34.022L487.507,33.543L489.013,32.836L490.403,34.431L491.317,36.174L491.929,38.289L492.631,39.301L496.432,39.372L500.148,38.583L502.401,38.302L505.571,37.318L506.858,35.745L510.235,32.659L511.305,32.085L512.408,30.382L516.37,28.586L517.816,26.594L518.034,25.516L520.044,27.673L521.013,29.519L521.674,29.804L523.09,29.11L525.253,27.231L526.149,25.599L527.332,25.219L529.524,25.661L532.203,24.756L533.172,23.438L532.997,21.476L531.471,20.076L531.137,19.183L532.657,15.573L532.776,14.255L532.318,12.297L532.753,11.289L533.865,10.562L536.322,10L537.532,11.847L538.64,14.775L539.533,15.441L540.401,17.341L540.023,17.708L541.446,19.299L542.618,19.043L543.93,20.431L543.472,23.079L544.487,23.182L544.643,24.26L543.094,28.569L543.532,29.697L544.765,30.564L544.148,32.109L545.599,35.86L547.192,35.86L549.266,36.943L550.336,36.959L552.608,35.629L553.895,37.244L555.408,36.943L557.067,37.562L556.846,39.062L556.025,40.495L553.849,42.924L550.479,44.444L548.154,44.172L546.699,44.498L544.468,45.56L542.459,45.139L541.66,46.126L541.432,47.77L538.472,48.241L536.616,49.224L535.495,49.17L535.465,48.439L534.105,48.101L532.528,49.059L533.647,53.103L534.289,53.987L533.755,56.305L531.243,57.581L529.977,54.421L527.85,53.739L527.532,54.793L527.912,56.449L527.622,57.986L526.524,59.386L524.807,59.68L524.39,61.113L525.313,60.869L526.821,61.46L530.046,62.092L530.481,62.534L530.419,64.34L531.432,67.326L532.514,66.901L533.69,67.739L534.376,67.554L538.159,68.607L540.624,67.454L540.999,68.727L539.768,69.466L539.639,70.359L540.668,71.127L541.943,71.077L544.135,70.445L544.043,71.23L549.897,70.71L550.495,73.044L549.646,74.068L551.029,76.997L550.682,77.997L550.516,82.917L550.571,85.565L551.819,88.176L554.105,88.196L555.221,88.58L556.259,91.551L558.467,90.423L559.1,90.935L558.485,92.538L558.485,93.823L557.385,95.136L557.028,97.041L555.567,97.599L555.274,100.247L553.9,102.291L553.824,105.968L554.367,106.249L553.674,107.72L552.187,108.422L551.469,110.772L552.137,112.466L550.985,113.668L552.067,114.577L554.109,115.288L553.619,117.39L552.958,117.109L552.452,118.373L551.094,118.547L549.512,118.179L548.057,121.121L548.529,122.93L547.44,125.033L545.937,125.462L544.841,124.863L540.928,125.735L539.369,126.834L538.515,126.925L537.258,126.098L535.638,126.801L534.687,126.706L534.054,124.558L532.381,123.888L531.614,120.993L529.264,121.881L528.944,123.393L528.09,123.76L526.89,123.389L525.889,124.302L525.221,125.942L523.509,125.657L522.788,126.747L519.929,129.469L518.67,130.977L517.074,131.167L516.586,133.03L516.989,135.798L517.047,138.074L518.38,140.173L520.198,141.012L521.255,141.937L521.156,143.218L520.249,144.184L520.408,146.741L518.465,146.407L517.27,148.786L517.017,150.042L515.412,150.608L514.544,149.897L513.534,150.827L513.736,153.177L513.117,153.995L511.257,154.313L509.429,153.9L508.382,154.38L507.924,156.412L507.848,158.395L505.686,160.332L505.341,162.861L505.431,164.017L504.864,164.761L506.823,166.595L506.276,167.731L504.411,169.838L503.743,172.213L504.215,173.415L505.433,174.886L504.837,178.294L504.772,179.819L505.91,181.045L506.126,182.053L507.641,182.747L509.086,182.384L510.341,182.57L511.895,184.218L513.626,183.656L513.803,185.003L515.046,185.288L514.098,186.292L514.655,186.717L516.006,186.494L518.142,187.089L519.66,186.664L520.09,188.126L519.503,187.924L518.842,190.481L519.593,190.873L521.213,192.868L521.278,193.624L522.355,194.356L522.466,195.884L522.148,198.714L523.681,199.086L525.553,203.233L526.757,204.365L527.408,206.889L527.337,209.227L527.993,210.648L529.273,210.603L529.917,211.855L531.246,213.024L531.103,214.408L528.962,215.849L528.755,217.919L531.425,216.861L532.528,216.775L533.601,217.63L535.723,218.34L536.331,219.836L535.875,221.686L535.039,223.587L535.458,224.822L532.081,230.548L530.87,231.998L530.421,233.311L530.263,235.534L529.689,236.649L528.672,236.88L527.532,238.083L526.789,241.697L524.738,242.92L523.729,244.3L523.561,246.332L522.917,247.638L522.894,249.022L521.126,250.624L520.249,252.33L520.003,253.793L516.886,254.834L516.577,255.317L516.904,257.825L516.089,259.907L516.653,260.778L517.684,260.96L517.788,262.08L516.817,263.815L518.041,265.265L517.113,267.02L516.276,267.851L517.928,271.92L517.615,273.556L516.842,273.486L515.235,274.812L514.699,274.283L514.68,272.99L513.561,272.411L512.841,272.746L511.745,274.514L512.162,276.559L511.619,277.703L511.994,278.856L510.656,279.149L507.696,281.322L506.064,280.975L504.703,281.888L504.314,282.681L502.36,282.136L501.211,283.074L500.557,284.309L501.202,285.003L502.767,284.499L502.5,286.044L501.177,287.783L501.697,289.105L504.275,289.502L504.795,290.319L504.503,291.823L506.091,292.364L507.07,293.897L506.685,295.326L505.946,295.124L505.548,295.991L505.281,298.387L506.75,299.164L507.021,300.61L509.25,301.027L511.423,302.977L513.449,303.093L514.574,305.844L514.528,308.492L514.936,309.595L514.241,310.9L513.485,311.239L513.865,313.68L513.034,314.358L513.212,315.312L511.8,316.316L512.921,316.857L513.29,317.754L512.282,318.092L512.894,318.989L510.44,319.625L511.904,320.431L512.015,321.038L513.368,321.257L513.734,322.203L512.643,322.777L510.645,322.719L511.614,323.607L512.249,327.255L510.958,328.114L511.423,328.994L512.747,329.172L511.982,329.957L512.788,330.936L512.286,331.82L510.293,331.312L509.655,332.51L510.235,333.084L510.587,336.356L509.683,339.454L510.035,340.437L510.788,340.499L510.937,341.59L509.885,342.556L508.962,341.966L508.021,342.474L506.918,342.342L506.964,343.626L507.963,344.019L506.823,344.403L507.652,345.655L506.998,347.687L507.804,350.145L507.334,351.124L508.49,351.674L509.024,353.673L509.017,355.003L506.561,354.904L505.58,353.148L504.94,353.334L505.401,355.8L504.62,357.341L502.751,359.312L502.316,361.501L502.744,362.538L501.621,362.261L499.169,363.121L497.972,362.559L496.653,363.166L495.539,364.909L494.34,365.674L493.159,365.616L492.438,364.835L491.501,365.744L492.125,366.165L491.644,367.615L492.017,368.367L489.947,367.871L488.073,366.657L485.951,366.929L485.695,369.536L484.862,369.416L484.874,370.999L484.073,371.37L483.769,373.3L482.583,374.535L481.577,373.977L480.329,373.994L479.429,373.147L477.898,372.688L476.941,372.986L475.845,372.577L475.09,374.15L475.421,376.476L474.957,377.455L473.997,377.075L472.477,377.641L472.136,379.43L470.939,380.149L468.923,380.281L466.437,379.351L465.166,380.616L463.522,382.859L461.83,382.45L461.032,382.706L460.626,383.97L460.118,383.024L460.348,382.024L459.036,380.934L457.567,380.252L457.378,379.277L456.727,380.017L456.596,378.955L455.622,379.616L456.623,381.458L455.656,381.822L453.324,381.752L452.945,382.363L451.494,381.636L450.06,381.921L448.803,381.182L447.102,381.413L445.311,380.653L443.548,380.603L442.305,381.814L438.126,381.987L438.969,379.756L437.823,380.397L435.695,380.863L434.314,380.512L434.344,379.665L427.802,377.98L425.939,377.935L427.044,380.372L426.994,381.867L425.051,383.107L425.021,383.788L426.179,385.734L426.386,387.262L425.804,389.712L426.117,392.48L424.885,393.145L423.944,391.687L421.648,391.74L420.863,390.956L419.02,390.778L418.49,391.46L417.519,390.918L416.75,391.559L415.857,391.187L413.186,391.658L412.763,391.992L412.714,393.707L411.22,394.149L410.544,395.099L409.51,395.029L408.992,395.818L407.528,395.859L406.22,396.838L405.293,396.859L405.926,399.185L404.093,400.064L402.744,401.51L402.537,402.903L401.167,403.753L401.038,405.03L400.051,406.232L399.183,405.654L397.77,405.79L396.434,407.096L394.418,407.29L393.078,406.563L390.755,408.062L388.621,407.542L387.823,407.005L385.373,408.533L383.311,407.765L382.493,409.446L381.625,409.71L380.88,408.967L379.201,408.773L378.297,408.087L377.648,408.546L376.041,411.834L373.292,412.156L371.646,412.846L368.513,415.068L367.862,415.072L366.349,413.515L365.514,413.536L364.662,417.497L363.601,419.092L361.98,419.658L360.449,420.914L358.727,418.728L356.462,418.567L354.195,421.678L351.391,421.418L349.132,421.463L345.758,422.992L345.005,423L342.634,421.24L338.35,422.628L335.329,421.509L332.397,421.224L330.995,420.034L329.273,417.394L328.9,415.961L329.62,413.821L329.816,409.748L329.119,406.612L329.39,405.666L328.974,403.811L330.212,401.324L330.629,399.697L331.292,399.507L332.717,396.83L333.741,395.76L333.727,393.599L334.393,393.174L335.099,390.629L336.545,387.395L336.068,387.002L336.048,383.255L336.791,382.421L336.605,379.752L338.152,377.505L340.594,374.824L342.056,369.222L342.498,368.636L343.939,364.711L344.924,362.865L346.826,361.039L347.537,359.498L347.97,356.953L349.045,354.995L348.782,353.338L348.145,352.962L348.14,351.719L347.362,350.467Z" stroke="#333" stroke-width="2" stroke-dasharray="none" fill="none"></path></g></svg>