<svg width="888" height="433"><g><path d="M367.445,13.586L368.378,12.338L370.813,12.256L372.047,12.727L372.667,11.429L374.365,11.314L377.018,12.264L377.796,12.318L379.555,14.735L380.459,15.197L381.46,16.705L381.481,17.957L382.058,17.92L382.183,19.374L381.337,19.197L380.171,21.221L380.183,23.088L381.399,23.53L380.495,24.923L380.623,26.096L379.888,26.678L378.132,26.451L377.616,25.724L376.813,24.939L376.049,25.431L374.705,24.592L374.002,23.353L374.513,22.2L373.199,21.609L372.563,22.217L371.287,22.481L370.299,22.679L369.957,21.713L370.445,20.742L369.41,17.85L368.367,17.197L368.81,14.875Z" fill="#eee" opacity="0.5"></path><path d="M338.514,57.718L340.556,55.45L341.968,54.681L344.989,54.235L344.74,53.256L345.197,52.049L346.255,51.909L347.9,52.987L348.382,51.479L350.163,50.232L350.613,51.5L352.652,52.107L353.369,52.624L353.412,53.681L352.885,55.284L353.483,56.123L356.588,56.259L357.697,55.35L358.05,53.619L359.428,53.153L360.138,54.495L359.524,55.346L360.026,57.4L359.483,57.66L358.657,61.403L358.073,61.804L355.899,61.965L354.021,62.692L353.175,62.031L351.594,61.82L351.055,61.25L348.95,60.841L347.28,59.544L344.485,59.668L343.597,59.469L342.849,58.015L340.344,58.036L339.108,58.441Z" fill="#eee" opacity="0.5"></path><path d="M445.295,316.509L445.988,315.261L447.348,313.894L447.464,312.08L448.258,312.448L448.258,313.716L447.359,315.356L445.886,316.616L447.188,314.827ZM400.871,90.248L400.599,89.848L402.814,89.154L403.236,89.988L401.626,90.736L402.723,89.823L402.358,89.571ZM554.751,138.859L554.922,137.834L555.744,137.652L555.059,138.532L555.169,140.168L557.69,140.668L555.21,140.825ZM407.557,112.884L409.018,112.157L408.801,111.455L406.337,111.356L408.742,110.926L409.716,111.831L409.184,112.612ZM460.84,329.42L461.445,328.626L464.096,327.858L465.723,326.59L468.597,324.945L469.989,322.863L473.596,320.822L475.024,320.417L476.703,321.004L477.057,322.355L476.696,323.082L474.816,324.251L473.731,325.474L473.329,327.709L472.457,328.635L470.53,329.168L467.263,330.556L464.833,331.142L463.065,331.18L461.395,330.419ZM405.463,111.389L406.243,111.224L404.215,112.86L404.407,113.388L406.481,112.537L404.516,113.938L403.462,113.773L403.697,112.603ZM462.814,297.909L463.254,297.806L464.86,299.314L464.249,300.124L463.713,298.802ZM462.291,298.715L462.828,298.69L463.672,299.756L462.768,299.901ZM413.469,109.641L414.171,108.947L415.946,108.976L415.495,109.918L413.993,110.071ZM407.669,106.171L408.329,105.233L407.804,103.783L408.844,104.597L407.991,106.253ZM468.166,300.607L468.851,300.103L469.524,301.454L468.561,301.909ZM419.834,92.343L421.326,93.078L419.583,93.264ZM508.655,277.013L509.476,275.286L510.827,275.216L510.22,277.979L509.389,278.5L509.241,277.397ZM478.592,270.617L480.278,270.274L479.943,271.559L479.199,271.82ZM480.374,261.099L480.714,260.388L481.743,260.38L481.266,261.764ZM351.614,335.943L353.385,333.357L356.271,330.601L357.98,330.196L360.298,330.275L362.474,330.799L363.558,331.51L363.32,331.969L359.693,331.473L357.66,331.812L356.298,332.592L354.263,335.224L352.828,336.546L351.697,336.807ZM457.699,328.68L459.23,328.486L459.289,329.192L457.804,329.552ZM519.398,297.736L520.199,296.798L520.842,297.203L519.907,298.273ZM425.843,117.912L425.152,117.813L425.49,116.817L428.59,116.132L429.186,116.937L428.143,117.66ZM427.344,298.566L428.841,298.252L429.865,299.26L428.163,299.339ZM492.457,310.271L494.608,310.518L494.494,311.101L492.808,310.803ZM474.944,248.808L477.048,247.176L477.851,246.973L478.001,248.291L477.306,248.795L476.026,248.489L475.088,249.349ZM424.187,110.372L427.137,109.782L427.376,110.534L425.825,110.538L423.55,111.129ZM422.697,94.52L421.586,93.273L422.33,93.215ZM401.779,106.348L403.029,106.311L402.915,106.795ZM500.341,272.299L500.779,271.411L502.342,271.824L501.534,273.03ZM524.7,259.838L526.023,259.235L525.348,261.008L528.378,260.615L528.547,261.367L526.619,262.131L524.166,262.02L524.041,261.012ZM460.786,319.525L461.901,319.194L462.656,321.025L461.041,320.554ZM475.893,316.658L478.065,315.712L478.768,315.931L478.058,316.645L476.213,317.079ZM479.888,314.414L481.284,314.406L481.652,314.935L480.411,315.042ZM498.664,285.627L499.26,284.325L499.602,285.771ZM454.464,295.315L456.462,294.237L456.745,294.637L454.868,295.683ZM523.927,290.378L524.746,290.146L524.534,291.32ZM428.481,394.791L428.8,394.287L429.904,394.386L429.644,395.357L428.964,395.543ZM461.883,297.851L461.707,298.686L460.758,298.161L461.212,297.5ZM414.37,422.479L415.011,421.761L415.463,422.719ZM363.252,323.421L363.658,322.421L365.634,321.029L366.74,320.905L366.861,322.219L366.058,323.466L364.532,324.309L363.539,324.235ZM480.559,244.581L480.887,243.693L482.268,241.925L483.08,242.057L482.927,242.776L480.881,244.639ZM485.818,248.13L486.395,247.13L487.038,247.151L486.317,248.663ZM403.579,105.886L404.058,105.353L404.594,106.646ZM478.652,233.84L478.652,231.733L479.687,231.563L479.459,233.711ZM426.605,105.989L426.411,105.278L428.275,104.159L428.556,104.456ZM482.888,315.641L483.386,316.901L482.528,316.811ZM530.57,232.088L530.849,231.757L531.686,233.501L531.51,233.885ZM406.474,102.862L407.126,102.692L407.391,103.585ZM459.586,269.283L459.846,266.697L460.238,266.676L460.062,269.671ZM408.228,116.363L409.901,116.128L409.873,116.681L408.598,117.185ZM429.22,393.109L430.429,393.427L430.285,394.109ZM512.1,286.693L512.643,287.403L511.253,288.002L510.845,286.965ZM455.009,288.969L455.919,289.101L455.422,289.675ZM480.707,113.578L480.741,112.835L483.164,112.438L483.491,112.855ZM494.984,264.953L496.235,264.738L495.185,265.465ZM479.785,329.845L480.084,329.337L481.225,329.424L480.331,330.477ZM494.373,306.957L495.315,306.924L494.635,307.75ZM376.149,316.753L376.195,316.455L378.821,315.352L379.598,315.745L378.478,317.319L376.432,317.852ZM444.211,317.806L445.172,316.749L445.726,316.889ZM469.355,263.697L469.909,262.859L471.08,262.222L471.419,262.627L469.861,263.751ZM475.528,251.786L476.667,249.873L477.246,250.258ZM480.351,232.906L481.134,232.336L481.382,233.918ZM528.387,257.128L529.888,256.794L530.116,257.413ZM556.293,250.373L557.051,248.721L557.82,248.795L557.895,249.617L556.98,250.882ZM425.503,393.316L426.398,393.204L426.58,393.927ZM419.569,421.719L420.094,421.075L420.669,421.918ZM420.231,420.125L420.486,419.422L421.121,420.063ZM500.574,307.432L500.688,306.718L501.79,306.627L501.678,308.168L500.88,308.188ZM376.17,324.627L376.772,323.933L377.427,324.478L376.838,325.036ZM379.827,319.376L380.634,318.876L380.655,319.921ZM402.744,330.981L403.344,329.531L404.548,329.787L403.839,331.006ZM412.264,317.885L412.98,317.005L414.425,317.327L414.561,318.017L413.243,318.467ZM422.626,296.579L423.587,296.054L423.776,296.74ZM543.654,261.727L544.067,260.785L544.674,261.892ZM468.629,116.904L470.931,116.47L470.963,117.074ZM465.02,246.754L465.873,246.027L466.088,246.742ZM405.678,302.896L406.645,302.739L407.149,303.466L405.865,304.139ZM514.65,249.588L515.061,248.96L515.41,249.935ZM484.426,338.434L484.807,339.566L483.582,339.711ZM453.517,345.441L453.725,346.482L452.944,346.42ZM427.098,374.394L427.944,373.741L427.972,375.266ZM484.775,320.054L485.907,319.459L486.05,320.326L485.154,320.773ZM405.981,328.321L406.492,326.817L407.361,326.358L407.932,327.011L406.891,328.383ZM478.134,298.574L478.588,297.699L479.774,297.232L480.189,297.699L479.286,298.608ZM513.781,267.362L514.395,266.523L515.027,267.411L514.39,268.151ZM543.873,252.427L544.519,251.332L546.399,251.154L547.613,252.154L547.273,252.951ZM426.991,377.819L427.125,377.051L427.938,377.298L428.042,378.451L427.529,378.802ZM428.469,380.157L429.284,379.98L429.854,382.178L429.238,382.537ZM430.141,391.411L430.819,391.056L431.814,392.18L430.919,392.849L430.189,392.564ZM405.201,321.958L405.52,321.326L407.044,321.454L406.891,322.479ZM436.08,323.524L437.063,322.946L437.006,323.933ZM420.119,297.864L421.207,297.587L421.036,298.356ZM545.879,267.49L546.511,267.085L546.791,268.159ZM529.781,109.083L530.353,108.365L531.084,108.699L531.081,109.695L530.242,110.335ZM474.429,117.074L474.848,116.218L476.233,116.499ZM438.571,28.104L438.583,26.699L439.457,26.625L439.696,27.889ZM459.243,36.301L458.44,35.239L458.618,34.611L460.323,34.251L461.418,34.603L461.278,35.941L460.275,36.482ZM427.828,391.345L428.925,391.093L429.151,391.787L428.127,392.279ZM436.454,394.233L436.548,393.109L437.572,392.866L437.353,394.262ZM496.935,170.265L498.452,169.542L498.826,170.402L497.818,170.873ZM419.681,98.445L419.295,97.503L420.559,97.962ZM419.857,125.733L419.118,125.266L420.304,124.531ZM429.176,384.954L430.002,383.921L431.127,383.991L430.981,384.855L429.874,385.446ZM486.767,331.857L488.361,331.436L488.318,332.46L487.561,332.667ZM403.104,324.429L404.341,323.094L404.729,323.615L403.88,325.334ZM486.201,117.008L485.827,117.896L485.446,117.02ZM531.127,293.323L530.908,294.022L529.89,293.514ZM461.867,122.168L462.656,122.064L462.72,122.928ZM430.025,108.051L430.36,106.997L430.899,107.662ZM506.702,258.207L507.781,258.145L507.147,258.868ZM426.717,281.132L428.077,280.904L428.113,281.83L426.626,281.611ZM478.414,126.927L478.435,127.799L477.702,127.538ZM544.676,242.743L544.802,244.007L543.812,243.115ZM554.32,243.466L554.309,244.275L553.398,243.532ZM467.491,285.135L468.164,284.962L467.698,286.193Z" fill="#eee" opacity="0.5"></path><path d="M338.423,26.745L340.018,25.113L341.378,24.241L342.489,22.415L343.819,22.018L344.357,21.188L344.102,19.775L345.566,18.069L346.479,17.771L346.7,16.78L347.772,16.445L348.795,16.945L350.303,17.036L352.468,17.61L354.092,18.093L354.206,19.585L354.95,21.345L353.914,22.217L354.544,23.782L356.547,23.989L356.428,24.476L357.658,25.352L359.139,25.328L358.908,26.625L358.123,27.484L358.71,29.55L358.358,29.798L356.109,29.93L356.129,31.103L357.434,31.314L357.758,32.347L357.361,33.355L357.596,34.652L357.108,35.763L356.766,35.016L355.803,35.148L355.26,33.842L354.653,34.086L353.526,32.293L351.722,32.574L352.657,31.05L352.103,29.835L351.448,30.008L350.638,31.173L349.643,31.157L348.039,30.041L346.778,30.599L344.576,30.013L343.397,27.914L343.077,28.228L341.448,27.699L341.284,29.199L340.116,29.17L339.756,27.976L338.692,27.451Z" fill="#eee" opacity="0.5"></path><path d="M357.808,44.762L357.163,44.857L356.974,46.001L357.503,47.674L355.995,47.641L355.454,48.806L354.391,47.856L353.33,48.389L353.483,49.294L352.219,49.628L351.227,49.401L350.234,50.12L349.99,48.992L348.968,47.963L348.888,45.303L349.411,44.233L348.635,43.63L348.222,42.349L348.767,41.828L349.242,42.093L350.647,40.68L351.425,40.543L351.722,39.589L353.093,39.622L353.821,41.828L355.002,42.766L356.85,42.361L358.18,42.679L357.407,43.312Z" fill="#eee" opacity="0.5"></path><path d="M379.865,38.23L377.678,37.747L376.587,37.904L376.279,38.49L370.979,41.048L370.477,40.366L368.727,40.444L367.879,39.193L367.66,36.957L368.538,34.995L369.024,35.441L370.361,34.648L372.218,34.801L373.306,34.474L373.674,32.64L372.887,32.206L373.906,30.207L375.266,29.641L375.916,28.752L376.765,28.864L377.26,28.207L378.28,28.207L379.147,29.484L379.213,30.835L379.717,31.289L380.431,30.219L382.808,30.545L382.229,32.078L381.494,32.962L380.08,36.466Z" fill="#eee" opacity="0.5"></path><path d="M382.808,30.545L380.431,30.219L379.717,31.289L379.213,30.835L379.147,29.484L378.28,28.207L377.648,27.121L376.79,27.319L376.398,26.559L377.616,25.724L378.132,26.451L379.888,26.678L380.623,26.096L380.495,24.923L381.399,23.53L380.183,23.088L380.171,21.221L381.337,19.197L382.183,19.374L382.058,17.92L381.481,17.957L381.46,16.705L380.459,15.197L379.555,14.735L377.796,12.318L378.675,11.413L380.976,10.764L381.75,10L382.494,10.388L383.169,12.351L383.999,12.5L384.748,13.355L386.295,13.987L388.006,13.541L388.711,14.024L389.797,18.209L390.545,20.486L391.218,24.01L389.68,24.662L387.508,26.005L385.617,28.682L384.066,30.103Z" fill="#eee" opacity="0.5"></path><path d="M368.727,40.444L370.477,40.366L370.979,41.048L376.279,38.49L376.587,37.904L377.678,37.747L379.865,38.23L379.256,43.093L379.373,44.621L379.06,46.038L377.16,46.869L377.025,49.542L373.877,50.004L372.937,49.736L370.888,50.591L370.092,51.393L368.21,50.682L367.676,51.029L365.333,49.31L365.189,47.385L366.232,46.72L367.181,45.34L365.937,43.431L367.229,42.729L367.489,41.874Z" fill="#eee" opacity="0.5"></path><path d="M343.267,43.597L342.521,44.154L341.932,45.443L340.554,45.406L339.86,45.989L338.421,45.894L336.347,46.918L335.535,47.72L334.305,47.406L331.798,47.802L330.158,45.394L330.217,43.762L331.257,42.394L331.075,40.349L330.283,38.974L330.105,36.738L330.466,33.528L331.428,31.318L332.891,33.578L334.853,34.049L336.071,33.652L338.115,34.731L339.069,34.722L339.981,37.032L340.746,37.639L340.397,39.126L342.616,39.692L342.981,41.213L342.393,42.779Z" fill="#eee" opacity="0.5"></path><path d="M370.361,34.648L370.441,32.553L369.46,32.442L368.903,31L368.873,29.31L369.601,28.533L370.432,28.67L370.808,26.918L369.658,26.455L369.556,25.047L368.203,25.803L368.057,23.51L368.782,22.894L369.416,23.803L370.281,23.985L371.287,22.481L372.563,22.217L373.199,21.609L374.513,22.2L374.002,23.353L374.705,24.592L376.049,25.431L376.813,24.939L377.616,25.724L376.398,26.559L376.79,27.319L377.648,27.121L378.28,28.207L377.26,28.207L376.765,28.864L375.916,28.752L375.266,29.641L373.906,30.207L372.887,32.206L373.674,32.64L373.306,34.474L372.218,34.801Z" fill="#eee" opacity="0.5"></path><path d="M367.66,36.957L366.232,36.92L365.474,35.85L363.777,35.511L362.937,34.181L360.453,32.876L360.544,31.479L361.776,30.335L362.675,30.211L362.716,29.364L363.514,28.215L363.3,27.753L365.326,27.761L365.949,28.529L366.597,27.587L367.765,27.294L367.329,26.092L368.203,25.803L369.556,25.047L369.658,26.455L370.808,26.918L370.432,28.67L369.601,28.533L368.873,29.31L368.903,31L369.46,32.442L370.441,32.553L370.361,34.648L369.024,35.441L368.538,34.995Z" fill="#eee" opacity="0.5"></path><path d="M368.203,25.803L367.329,26.092L367.765,27.294L366.597,27.587L365.949,28.529L365.326,27.761L363.3,27.753L363.514,28.215L362.716,29.364L362.675,30.211L361.776,30.335L361.304,29.67L359.732,30.517L358.358,29.798L358.71,29.55L358.123,27.484L358.908,26.625L359.139,25.328L359.558,24.555L361.192,23.39L362.285,20.072L361.723,19.544L361.965,18.135L360.934,17.66L361.851,17.296L361.249,14.706L363.964,14.458L364.762,14.817L367.445,13.586L368.81,14.875L368.367,17.197L369.41,17.85L370.445,20.742L369.957,21.713L370.299,22.679L371.287,22.481L370.281,23.985L369.416,23.803L368.782,22.894L368.057,23.51Z" fill="#eee" opacity="0.5"></path><path d="M361.249,14.706L361.851,17.296L360.934,17.66L361.965,18.135L361.723,19.544L362.285,20.072L361.192,23.39L359.558,24.555L359.139,25.328L357.658,25.352L356.428,24.476L356.547,23.989L354.544,23.782L353.914,22.217L354.95,21.345L354.206,19.585L354.092,18.093L352.468,17.61L353.157,15.772L354.603,14.598L357.731,13.834L358.949,14.78L360.245,14.474Z" fill="#eee" opacity="0.5"></path><path d="M347.528,41.448L346.862,38.672L344.544,38.255L344.213,36.722L343.143,35.111L343.7,33.499L342.217,31.851L341.257,31.487L341.284,29.199L341.448,27.699L343.077,28.228L343.397,27.914L344.576,30.013L346.778,30.599L348.039,30.041L349.643,31.157L350.638,31.173L351.448,30.008L352.103,29.835L352.657,31.05L351.722,32.574L353.526,32.293L354.653,34.086L355.26,33.842L355.803,35.148L356.766,35.016L357.108,35.763L357.126,37.333L355.299,38.176L355,39.036L354.012,38.536L353.093,39.622L351.722,39.589L351.425,40.543L350.647,40.68L349.242,42.093L348.767,41.828Z" fill="#eee" opacity="0.5"></path><path d="M341.284,29.199L341.257,31.487L342.217,31.851L343.7,33.499L343.143,35.111L344.213,36.722L344.544,38.255L346.862,38.672L347.528,41.448L346.723,42.882L345.274,43.171L343.675,42.919L343.267,43.597L342.393,42.779L342.981,41.213L342.616,39.692L340.397,39.126L340.746,37.639L339.981,37.032L339.069,34.722L338.115,34.731L336.071,33.652L334.853,34.049L332.891,33.578L331.428,31.318L332.644,30.331L333.963,30.211L335.409,28.67L337.396,27.649L338.423,26.745L338.692,27.451L339.756,27.976L340.116,29.17Z" fill="#eee" opacity="0.5"></path><path d="M350.163,50.232L348.382,51.479L347.9,52.987L346.255,51.909L345.197,52.049L344.74,53.256L344.989,54.235L341.968,54.681L340.556,55.45L338.514,57.718L337.255,55.607L334.679,54.946L333.034,54.892L331.761,54.408L331.433,53.785L331.337,51.744L331.905,48.934L331.798,47.802L334.305,47.406L335.535,47.72L336.347,46.918L338.421,45.894L339.86,45.989L340.554,45.406L341.932,45.443L342.521,44.154L343.267,43.597L343.675,42.919L345.274,43.171L346.723,42.882L347.528,41.448L348.767,41.828L348.222,42.349L348.635,43.63L349.411,44.233L348.888,45.303L348.968,47.963L349.99,48.992L350.234,50.12Z" fill="#eee" opacity="0.5"></path><path d="M365.189,47.385L365.333,49.31L367.676,51.029L368.21,50.682L370.092,51.393L367.694,53.268L367.051,56.057L366.565,56.656L364.815,57.081L362.841,56.672L360.026,57.4L359.524,55.346L360.138,54.495L359.428,53.153L360.601,53.148L361.041,51.591L360.008,50.988L360.87,48.798L359.946,47.583L359.202,47.625L358.812,45.927L359.239,45.394L360.649,47.497L362.136,46.823L362.415,47.216L363.444,46.369L364.338,46.493Z" fill="#eee" opacity="0.5"></path><path d="M357.808,44.762L359.239,45.394L358.812,45.927L359.202,47.625L359.946,47.583L360.87,48.798L360.008,50.988L361.041,51.591L360.601,53.148L359.428,53.153L358.05,53.619L357.697,55.35L356.588,56.259L353.483,56.123L352.885,55.284L353.412,53.681L353.369,52.624L352.652,52.107L350.613,51.5L350.163,50.232L350.234,50.12L351.227,49.401L352.219,49.628L353.483,49.294L353.33,48.389L354.391,47.856L355.454,48.806L355.995,47.641L357.503,47.674L356.974,46.001L357.163,44.857Z" fill="#eee" opacity="0.5"></path><path d="M361.776,30.335L360.544,31.479L360.453,32.876L362.937,34.181L363.777,35.511L365.474,35.85L366.232,36.92L367.66,36.957L367.879,39.193L368.727,40.444L367.489,41.874L367.229,42.729L365.937,43.431L367.181,45.34L366.232,46.72L365.189,47.385L364.338,46.493L363.444,46.369L362.415,47.216L362.136,46.823L360.649,47.497L359.239,45.394L357.808,44.762L357.407,43.312L358.18,42.679L356.85,42.361L355.002,42.766L353.821,41.828L353.093,39.622L354.012,38.536L355,39.036L355.299,38.176L357.126,37.333L357.108,35.763L357.596,34.652L357.361,33.355L357.758,32.347L357.434,31.314L356.129,31.103L356.109,29.93L358.358,29.798L359.732,30.517L361.304,29.67Z" fill="#eee" opacity="0.5"></path><path d="M367.445,13.586L368.378,12.338L370.813,12.256L372.047,12.727L372.667,11.429L374.365,11.314L377.018,12.264L377.796,12.318L379.555,14.735L380.459,15.197L381.46,16.705L381.481,17.957L382.058,17.92L382.183,19.374L381.337,19.197L380.171,21.221L380.183,23.088L381.399,23.53L380.495,24.923L380.623,26.096L379.888,26.678L378.132,26.451L377.616,25.724L376.813,24.939L376.049,25.431L374.705,24.592L374.002,23.353L374.513,22.2L373.199,21.609L372.563,22.217L371.287,22.481L370.299,22.679L369.957,21.713L370.445,20.742L369.41,17.85L368.367,17.197L368.81,14.875Z" stroke="#747569" stroke-width="1" stroke-dasharray="3,3" fill="none"></path><path d="M338.514,57.718L340.556,55.45L341.968,54.681L344.989,54.235L344.74,53.256L345.197,52.049L346.255,51.909L347.9,52.987L348.382,51.479L350.163,50.232L350.613,51.5L352.652,52.107L353.369,52.624L353.412,53.681L352.885,55.284L353.483,56.123L356.588,56.259L357.697,55.35L358.05,53.619L359.428,53.153L360.138,54.495L359.524,55.346L360.026,57.4L359.483,57.66L358.657,61.403L358.073,61.804L355.899,61.965L354.021,62.692L353.175,62.031L351.594,61.82L351.055,61.25L348.95,60.841L347.28,59.544L344.485,59.668L343.597,59.469L342.849,58.015L340.344,58.036L339.108,58.441Z" stroke="#747569" stroke-width="1" stroke-dasharray="3,3" fill="none"></path><path d="M445.295,316.509L445.988,315.261L447.348,313.894L447.464,312.08L448.258,312.448L448.258,313.716L447.359,315.356L445.886,316.616L447.188,314.827ZM400.871,90.248L400.599,89.848L402.814,89.154L403.236,89.988L401.626,90.736L402.723,89.823L402.358,89.571ZM554.751,138.859L554.922,137.834L555.744,137.652L555.059,138.532L555.169,140.168L557.69,140.668L555.21,140.825ZM407.557,112.884L409.018,112.157L408.801,111.455L406.337,111.356L408.742,110.926L409.716,111.831L409.184,112.612ZM460.84,329.42L461.445,328.626L464.096,327.858L465.723,326.59L468.597,324.945L469.989,322.863L473.596,320.822L475.024,320.417L476.703,321.004L477.057,322.355L476.696,323.082L474.816,324.251L473.731,325.474L473.329,327.709L472.457,328.635L470.53,329.168L467.263,330.556L464.833,331.142L463.065,331.18L461.395,330.419ZM405.463,111.389L406.243,111.224L404.215,112.86L404.407,113.388L406.481,112.537L404.516,113.938L403.462,113.773L403.697,112.603ZM462.814,297.909L463.254,297.806L464.86,299.314L464.249,300.124L463.713,298.802ZM462.291,298.715L462.828,298.69L463.672,299.756L462.768,299.901ZM413.469,109.641L414.171,108.947L415.946,108.976L415.495,109.918L413.993,110.071ZM407.669,106.171L408.329,105.233L407.804,103.783L408.844,104.597L407.991,106.253ZM468.166,300.607L468.851,300.103L469.524,301.454L468.561,301.909ZM419.834,92.343L421.326,93.078L419.583,93.264ZM508.655,277.013L509.476,275.286L510.827,275.216L510.22,277.979L509.389,278.5L509.241,277.397ZM478.592,270.617L480.278,270.274L479.943,271.559L479.199,271.82ZM480.374,261.099L480.714,260.388L481.743,260.38L481.266,261.764ZM351.614,335.943L353.385,333.357L356.271,330.601L357.98,330.196L360.298,330.275L362.474,330.799L363.558,331.51L363.32,331.969L359.693,331.473L357.66,331.812L356.298,332.592L354.263,335.224L352.828,336.546L351.697,336.807ZM457.699,328.68L459.23,328.486L459.289,329.192L457.804,329.552ZM519.398,297.736L520.199,296.798L520.842,297.203L519.907,298.273ZM425.843,117.912L425.152,117.813L425.49,116.817L428.59,116.132L429.186,116.937L428.143,117.66ZM427.344,298.566L428.841,298.252L429.865,299.26L428.163,299.339ZM492.457,310.271L494.608,310.518L494.494,311.101L492.808,310.803ZM474.944,248.808L477.048,247.176L477.851,246.973L478.001,248.291L477.306,248.795L476.026,248.489L475.088,249.349ZM424.187,110.372L427.137,109.782L427.376,110.534L425.825,110.538L423.55,111.129ZM422.697,94.52L421.586,93.273L422.33,93.215ZM401.779,106.348L403.029,106.311L402.915,106.795ZM500.341,272.299L500.779,271.411L502.342,271.824L501.534,273.03ZM524.7,259.838L526.023,259.235L525.348,261.008L528.378,260.615L528.547,261.367L526.619,262.131L524.166,262.02L524.041,261.012ZM460.786,319.525L461.901,319.194L462.656,321.025L461.041,320.554ZM475.893,316.658L478.065,315.712L478.768,315.931L478.058,316.645L476.213,317.079ZM479.888,314.414L481.284,314.406L481.652,314.935L480.411,315.042ZM498.664,285.627L499.26,284.325L499.602,285.771ZM454.464,295.315L456.462,294.237L456.745,294.637L454.868,295.683ZM523.927,290.378L524.746,290.146L524.534,291.32ZM428.481,394.791L428.8,394.287L429.904,394.386L429.644,395.357L428.964,395.543ZM461.883,297.851L461.707,298.686L460.758,298.161L461.212,297.5ZM414.37,422.479L415.011,421.761L415.463,422.719ZM363.252,323.421L363.658,322.421L365.634,321.029L366.74,320.905L366.861,322.219L366.058,323.466L364.532,324.309L363.539,324.235ZM480.559,244.581L480.887,243.693L482.268,241.925L483.08,242.057L482.927,242.776L480.881,244.639ZM485.818,248.13L486.395,247.13L487.038,247.151L486.317,248.663ZM403.579,105.886L404.058,105.353L404.594,106.646ZM478.652,233.84L478.652,231.733L479.687,231.563L479.459,233.711ZM426.605,105.989L426.411,105.278L428.275,104.159L428.556,104.456ZM482.888,315.641L483.386,316.901L482.528,316.811ZM530.57,232.088L530.849,231.757L531.686,233.501L531.51,233.885ZM406.474,102.862L407.126,102.692L407.391,103.585ZM459.586,269.283L459.846,266.697L460.238,266.676L460.062,269.671ZM408.228,116.363L409.901,116.128L409.873,116.681L408.598,117.185ZM429.22,393.109L430.429,393.427L430.285,394.109ZM512.1,286.693L512.643,287.403L511.253,288.002L510.845,286.965ZM455.009,288.969L455.919,289.101L455.422,289.675ZM480.707,113.578L480.741,112.835L483.164,112.438L483.491,112.855ZM494.984,264.953L496.235,264.738L495.185,265.465ZM479.785,329.845L480.084,329.337L481.225,329.424L480.331,330.477ZM494.373,306.957L495.315,306.924L494.635,307.75ZM376.149,316.753L376.195,316.455L378.821,315.352L379.598,315.745L378.478,317.319L376.432,317.852ZM444.211,317.806L445.172,316.749L445.726,316.889ZM469.355,263.697L469.909,262.859L471.08,262.222L471.419,262.627L469.861,263.751ZM475.528,251.786L476.667,249.873L477.246,250.258ZM480.351,232.906L481.134,232.336L481.382,233.918ZM528.387,257.128L529.888,256.794L530.116,257.413ZM556.293,250.373L557.051,248.721L557.82,248.795L557.895,249.617L556.98,250.882ZM425.503,393.316L426.398,393.204L426.58,393.927ZM419.569,421.719L420.094,421.075L420.669,421.918ZM420.231,420.125L420.486,419.422L421.121,420.063ZM500.574,307.432L500.688,306.718L501.79,306.627L501.678,308.168L500.88,308.188ZM376.17,324.627L376.772,323.933L377.427,324.478L376.838,325.036ZM379.827,319.376L380.634,318.876L380.655,319.921ZM402.744,330.981L403.344,329.531L404.548,329.787L403.839,331.006ZM412.264,317.885L412.98,317.005L414.425,317.327L414.561,318.017L413.243,318.467ZM422.626,296.579L423.587,296.054L423.776,296.74ZM543.654,261.727L544.067,260.785L544.674,261.892ZM468.629,116.904L470.931,116.47L470.963,117.074ZM465.02,246.754L465.873,246.027L466.088,246.742ZM405.678,302.896L406.645,302.739L407.149,303.466L405.865,304.139ZM514.65,249.588L515.061,248.96L515.41,249.935ZM484.426,338.434L484.807,339.566L483.582,339.711ZM453.517,345.441L453.725,346.482L452.944,346.42ZM427.098,374.394L427.944,373.741L427.972,375.266ZM484.775,320.054L485.907,319.459L486.05,320.326L485.154,320.773ZM405.981,328.321L406.492,326.817L407.361,326.358L407.932,327.011L406.891,328.383ZM478.134,298.574L478.588,297.699L479.774,297.232L480.189,297.699L479.286,298.608ZM513.781,267.362L514.395,266.523L515.027,267.411L514.39,268.151ZM543.873,252.427L544.519,251.332L546.399,251.154L547.613,252.154L547.273,252.951ZM426.991,377.819L427.125,377.051L427.938,377.298L428.042,378.451L427.529,378.802ZM428.469,380.157L429.284,379.98L429.854,382.178L429.238,382.537ZM430.141,391.411L430.819,391.056L431.814,392.18L430.919,392.849L430.189,392.564ZM405.201,321.958L405.52,321.326L407.044,321.454L406.891,322.479ZM436.08,323.524L437.063,322.946L437.006,323.933ZM420.119,297.864L421.207,297.587L421.036,298.356ZM545.879,267.49L546.511,267.085L546.791,268.159ZM529.781,109.083L530.353,108.365L531.084,108.699L531.081,109.695L530.242,110.335ZM474.429,117.074L474.848,116.218L476.233,116.499ZM438.571,28.104L438.583,26.699L439.457,26.625L439.696,27.889ZM459.243,36.301L458.44,35.239L458.618,34.611L460.323,34.251L461.418,34.603L461.278,35.941L460.275,36.482ZM427.828,391.345L428.925,391.093L429.151,391.787L428.127,392.279ZM436.454,394.233L436.548,393.109L437.572,392.866L437.353,394.262ZM496.935,170.265L498.452,169.542L498.826,170.402L497.818,170.873ZM419.681,98.445L419.295,97.503L420.559,97.962ZM419.857,125.733L419.118,125.266L420.304,124.531ZM429.176,384.954L430.002,383.921L431.127,383.991L430.981,384.855L429.874,385.446ZM486.767,331.857L488.361,331.436L488.318,332.46L487.561,332.667ZM403.104,324.429L404.341,323.094L404.729,323.615L403.88,325.334ZM486.201,117.008L485.827,117.896L485.446,117.02ZM531.127,293.323L530.908,294.022L529.89,293.514ZM461.867,122.168L462.656,122.064L462.72,122.928ZM430.025,108.051L430.36,106.997L430.899,107.662ZM506.702,258.207L507.781,258.145L507.147,258.868ZM426.717,281.132L428.077,280.904L428.113,281.83L426.626,281.611ZM478.414,126.927L478.435,127.799L477.702,127.538ZM544.676,242.743L544.802,244.007L543.812,243.115ZM554.32,243.466L554.309,244.275L553.398,243.532ZM467.491,285.135L468.164,284.962L467.698,286.193Z" stroke="#747569" stroke-width="1" stroke-dasharray="3,3" fill="none"></path><path d="M338.423,26.745L340.018,25.113L341.378,24.241L342.489,22.415L343.819,22.018L344.357,21.188L344.102,19.775L345.566,18.069L346.479,17.771L346.7,16.78L347.772,16.445L348.795,16.945L350.303,17.036L352.468,17.61L354.092,18.093L354.206,19.585L354.95,21.345L353.914,22.217L354.544,23.782L356.547,23.989L356.428,24.476L357.658,25.352L359.139,25.328L358.908,26.625L358.123,27.484L358.71,29.55L358.358,29.798L356.109,29.93L356.129,31.103L357.434,31.314L357.758,32.347L357.361,33.355L357.596,34.652L357.108,35.763L356.766,35.016L355.803,35.148L355.26,33.842L354.653,34.086L353.526,32.293L351.722,32.574L352.657,31.05L352.103,29.835L351.448,30.008L350.638,31.173L349.643,31.157L348.039,30.041L346.778,30.599L344.576,30.013L343.397,27.914L343.077,28.228L341.448,27.699L341.284,29.199L340.116,29.17L339.756,27.976L338.692,27.451Z" stroke="#747569" stroke-width="1" stroke-dasharray="3,3" fill="none"></path><path d="M357.808,44.762L357.163,44.857L356.974,46.001L357.503,47.674L355.995,47.641L355.454,48.806L354.391,47.856L353.33,48.389L353.483,49.294L352.219,49.628L351.227,49.401L350.234,50.12L349.99,48.992L348.968,47.963L348.888,45.303L349.411,44.233L348.635,43.63L348.222,42.349L348.767,41.828L349.242,42.093L350.647,40.68L351.425,40.543L351.722,39.589L353.093,39.622L353.821,41.828L355.002,42.766L356.85,42.361L358.18,42.679L357.407,43.312Z" stroke="#747569" stroke-width="1" stroke-dasharray="3,3" fill="none"></path><path d="M379.865,38.23L377.678,37.747L376.587,37.904L376.279,38.49L370.979,41.048L370.477,40.366L368.727,40.444L367.879,39.193L367.66,36.957L368.538,34.995L369.024,35.441L370.361,34.648L372.218,34.801L373.306,34.474L373.674,32.64L372.887,32.206L373.906,30.207L375.266,29.641L375.916,28.752L376.765,28.864L377.26,28.207L378.28,28.207L379.147,29.484L379.213,30.835L379.717,31.289L380.431,30.219L382.808,30.545L382.229,32.078L381.494,32.962L380.08,36.466Z" stroke="#747569" stroke-width="1" stroke-dasharray="3,3" fill="none"></path><path d="M382.808,30.545L380.431,30.219L379.717,31.289L379.213,30.835L379.147,29.484L378.28,28.207L377.648,27.121L376.79,27.319L376.398,26.559L377.616,25.724L378.132,26.451L379.888,26.678L380.623,26.096L380.495,24.923L381.399,23.53L380.183,23.088L380.171,21.221L381.337,19.197L382.183,19.374L382.058,17.92L381.481,17.957L381.46,16.705L380.459,15.197L379.555,14.735L377.796,12.318L378.675,11.413L380.976,10.764L381.75,10L382.494,10.388L383.169,12.351L383.999,12.5L384.748,13.355L386.295,13.987L388.006,13.541L388.711,14.024L389.797,18.209L390.545,20.486L391.218,24.01L389.68,24.662L387.508,26.005L385.617,28.682L384.066,30.103Z" stroke="#747569" stroke-width="1" stroke-dasharray="3,3" fill="none"></path><path d="M368.727,40.444L370.477,40.366L370.979,41.048L376.279,38.49L376.587,37.904L377.678,37.747L379.865,38.23L379.256,43.093L379.373,44.621L379.06,46.038L377.16,46.869L377.025,49.542L373.877,50.004L372.937,49.736L370.888,50.591L370.092,51.393L368.21,50.682L367.676,51.029L365.333,49.31L365.189,47.385L366.232,46.72L367.181,45.34L365.937,43.431L367.229,42.729L367.489,41.874Z" stroke="#747569" stroke-width="1" stroke-dasharray="3,3" fill="none"></path><path d="M343.267,43.597L342.521,44.154L341.932,45.443L340.554,45.406L339.86,45.989L338.421,45.894L336.347,46.918L335.535,47.72L334.305,47.406L331.798,47.802L330.158,45.394L330.217,43.762L331.257,42.394L331.075,40.349L330.283,38.974L330.105,36.738L330.466,33.528L331.428,31.318L332.891,33.578L334.853,34.049L336.071,33.652L338.115,34.731L339.069,34.722L339.981,37.032L340.746,37.639L340.397,39.126L342.616,39.692L342.981,41.213L342.393,42.779Z" stroke="#747569" stroke-width="1" stroke-dasharray="3,3" fill="none"></path><path d="M370.361,34.648L370.441,32.553L369.46,32.442L368.903,31L368.873,29.31L369.601,28.533L370.432,28.67L370.808,26.918L369.658,26.455L369.556,25.047L368.203,25.803L368.057,23.51L368.782,22.894L369.416,23.803L370.281,23.985L371.287,22.481L372.563,22.217L373.199,21.609L374.513,22.2L374.002,23.353L374.705,24.592L376.049,25.431L376.813,24.939L377.616,25.724L376.398,26.559L376.79,27.319L377.648,27.121L378.28,28.207L377.26,28.207L376.765,28.864L375.916,28.752L375.266,29.641L373.906,30.207L372.887,32.206L373.674,32.64L373.306,34.474L372.218,34.801Z" stroke="#747569" stroke-width="1" stroke-dasharray="3,3" fill="none"></path><path d="M367.66,36.957L366.232,36.92L365.474,35.85L363.777,35.511L362.937,34.181L360.453,32.876L360.544,31.479L361.776,30.335L362.675,30.211L362.716,29.364L363.514,28.215L363.3,27.753L365.326,27.761L365.949,28.529L366.597,27.587L367.765,27.294L367.329,26.092L368.203,25.803L369.556,25.047L369.658,26.455L370.808,26.918L370.432,28.67L369.601,28.533L368.873,29.31L368.903,31L369.46,32.442L370.441,32.553L370.361,34.648L369.024,35.441L368.538,34.995Z" stroke="#747569" stroke-width="1" stroke-dasharray="3,3" fill="none"></path><path d="M368.203,25.803L367.329,26.092L367.765,27.294L366.597,27.587L365.949,28.529L365.326,27.761L363.3,27.753L363.514,28.215L362.716,29.364L362.675,30.211L361.776,30.335L361.304,29.67L359.732,30.517L358.358,29.798L358.71,29.55L358.123,27.484L358.908,26.625L359.139,25.328L359.558,24.555L361.192,23.39L362.285,20.072L361.723,19.544L361.965,18.135L360.934,17.66L361.851,17.296L361.249,14.706L363.964,14.458L364.762,14.817L367.445,13.586L368.81,14.875L368.367,17.197L369.41,17.85L370.445,20.742L369.957,21.713L370.299,22.679L371.287,22.481L370.281,23.985L369.416,23.803L368.782,22.894L368.057,23.51Z" stroke="#747569" stroke-width="1" stroke-dasharray="3,3" fill="none"></path><path d="M361.249,14.706L361.851,17.296L360.934,17.66L361.965,18.135L361.723,19.544L362.285,20.072L361.192,23.39L359.558,24.555L359.139,25.328L357.658,25.352L356.428,24.476L356.547,23.989L354.544,23.782L353.914,22.217L354.95,21.345L354.206,19.585L354.092,18.093L352.468,17.61L353.157,15.772L354.603,14.598L357.731,13.834L358.949,14.78L360.245,14.474Z" stroke="#747569" stroke-width="1" stroke-dasharray="3,3" fill="none"></path><path d="M347.528,41.448L346.862,38.672L344.544,38.255L344.213,36.722L343.143,35.111L343.7,33.499L342.217,31.851L341.257,31.487L341.284,29.199L341.448,27.699L343.077,28.228L343.397,27.914L344.576,30.013L346.778,30.599L348.039,30.041L349.643,31.157L350.638,31.173L351.448,30.008L352.103,29.835L352.657,31.05L351.722,32.574L353.526,32.293L354.653,34.086L355.26,33.842L355.803,35.148L356.766,35.016L357.108,35.763L357.126,37.333L355.299,38.176L355,39.036L354.012,38.536L353.093,39.622L351.722,39.589L351.425,40.543L350.647,40.68L349.242,42.093L348.767,41.828Z" stroke="#747569" stroke-width="1" stroke-dasharray="3,3" fill="none"></path><path d="M341.284,29.199L341.257,31.487L342.217,31.851L343.7,33.499L343.143,35.111L344.213,36.722L344.544,38.255L346.862,38.672L347.528,41.448L346.723,42.882L345.274,43.171L343.675,42.919L343.267,43.597L342.393,42.779L342.981,41.213L342.616,39.692L340.397,39.126L340.746,37.639L339.981,37.032L339.069,34.722L338.115,34.731L336.071,33.652L334.853,34.049L332.891,33.578L331.428,31.318L332.644,30.331L333.963,30.211L335.409,28.67L337.396,27.649L338.423,26.745L338.692,27.451L339.756,27.976L340.116,29.17Z" stroke="#747569" stroke-width="1" stroke-dasharray="3,3" fill="none"></path><path d="M350.163,50.232L348.382,51.479L347.9,52.987L346.255,51.909L345.197,52.049L344.74,53.256L344.989,54.235L341.968,54.681L340.556,55.45L338.514,57.718L337.255,55.607L334.679,54.946L333.034,54.892L331.761,54.408L331.433,53.785L331.337,51.744L331.905,48.934L331.798,47.802L334.305,47.406L335.535,47.72L336.347,46.918L338.421,45.894L339.86,45.989L340.554,45.406L341.932,45.443L342.521,44.154L343.267,43.597L343.675,42.919L345.274,43.171L346.723,42.882L347.528,41.448L348.767,41.828L348.222,42.349L348.635,43.63L349.411,44.233L348.888,45.303L348.968,47.963L349.99,48.992L350.234,50.12Z" stroke="#747569" stroke-width="1" stroke-dasharray="3,3" fill="none"></path><path d="M365.189,47.385L365.333,49.31L367.676,51.029L368.21,50.682L370.092,51.393L367.694,53.268L367.051,56.057L366.565,56.656L364.815,57.081L362.841,56.672L360.026,57.4L359.524,55.346L360.138,54.495L359.428,53.153L360.601,53.148L361.041,51.591L360.008,50.988L360.87,48.798L359.946,47.583L359.202,47.625L358.812,45.927L359.239,45.394L360.649,47.497L362.136,46.823L362.415,47.216L363.444,46.369L364.338,46.493Z" stroke="#747569" stroke-width="1" stroke-dasharray="3,3" fill="none"></path><path d="M357.808,44.762L359.239,45.394L358.812,45.927L359.202,47.625L359.946,47.583L360.87,48.798L360.008,50.988L361.041,51.591L360.601,53.148L359.428,53.153L358.05,53.619L357.697,55.35L356.588,56.259L353.483,56.123L352.885,55.284L353.412,53.681L353.369,52.624L352.652,52.107L350.613,51.5L350.163,50.232L350.234,50.12L351.227,49.401L352.219,49.628L353.483,49.294L353.33,48.389L354.391,47.856L355.454,48.806L355.995,47.641L357.503,47.674L356.974,46.001L357.163,44.857Z" stroke="#747569" stroke-width="1" stroke-dasharray="3,3" fill="none"></path><path d="M361.776,30.335L360.544,31.479L360.453,32.876L362.937,34.181L363.777,35.511L365.474,35.85L366.232,36.92L367.66,36.957L367.879,39.193L368.727,40.444L367.489,41.874L367.229,42.729L365.937,43.431L367.181,45.34L366.232,46.72L365.189,47.385L364.338,46.493L363.444,46.369L362.415,47.216L362.136,46.823L360.649,47.497L359.239,45.394L357.808,44.762L357.407,43.312L358.18,42.679L356.85,42.361L355.002,42.766L353.821,41.828L353.093,39.622L354.012,38.536L355,39.036L355.299,38.176L357.126,37.333L357.108,35.763L357.596,34.652L357.361,33.355L357.758,32.347L357.434,31.314L356.129,31.103L356.109,29.93L358.358,29.798L359.732,30.517L361.304,29.67Z" stroke="#747569" stroke-width="1" stroke-dasharray="3,3" fill="none"></path><path d="M367.445,13.586L368.378,12.338L370.813,12.256L372.047,12.727L372.667,11.429L374.365,11.314L377.018,12.264L377.796,12.318L378.675,11.413L380.976,10.764L381.75,10L382.494,10.388L383.169,12.351L383.999,12.5L384.748,13.355L386.295,13.987L388.006,13.541L388.711,14.024L389.797,18.209L390.545,20.486L391.218,24.01L389.68,24.662L387.508,26.005L385.617,28.682L384.066,30.103L382.808,30.545L382.229,32.078L381.494,32.962L380.08,36.466L379.865,38.23L379.256,43.093L379.373,44.621L379.06,46.038L377.16,46.869L377.025,49.542L373.877,50.004L372.937,49.736L370.888,50.591L370.092,51.393L367.694,53.268L367.051,56.057L366.565,56.656L364.815,57.081L362.841,56.672L360.026,57.4L359.483,57.66L358.657,61.403L358.073,61.804L355.899,61.965L354.021,62.692L353.175,62.031L351.594,61.82L351.055,61.25L348.95,60.841L347.28,59.544L344.485,59.668L343.597,59.469L342.849,58.015L340.344,58.036L339.108,58.441L338.514,57.718L337.255,55.607L334.679,54.946L333.034,54.892L331.761,54.408L331.433,53.785L331.337,51.744L331.905,48.934L331.798,47.802L330.158,45.394L330.217,43.762L331.257,42.394L331.075,40.349L330.283,38.974L330.105,36.738L330.466,33.528L331.428,31.318L332.644,30.331L333.963,30.211L335.409,28.67L337.396,27.649L338.423,26.745L340.018,25.113L341.378,24.241L342.489,22.415L343.819,22.018L344.357,21.188L344.102,19.775L345.566,18.069L346.479,17.771L346.7,16.78L347.772,16.445L348.795,16.945L350.303,17.036L352.468,17.61L353.157,15.772L354.603,14.598L357.731,13.834L358.949,14.78L360.245,14.474L361.249,14.706L363.964,14.458L364.762,14.817ZM419.241,421.831L419.464,421.083L420.685,420.889L420.908,422.174L419.658,422.401ZM445.295,316.509L445.988,315.261L447.348,313.894L447.464,312.08L448.258,312.448L448.258,313.716L447.359,315.356L445.886,316.616L447.188,314.827ZM414.041,422.521L414.24,421.761L415.536,421.521L415.686,422.963L414.228,423ZM400.871,90.248L400.599,89.848L402.814,89.154L403.236,89.988L401.626,90.736L402.723,89.823L402.358,89.571ZM554.751,138.859L554.922,137.834L555.744,137.652L555.059,138.532L555.169,140.168L557.69,140.668L555.21,140.825ZM420.064,420.199L420.37,419.282L421.292,420.12ZM407.557,112.884L409.018,112.157L408.801,111.455L406.337,111.356L408.742,110.926L409.716,111.831L409.184,112.612ZM405.463,111.389L406.243,111.224L404.215,112.86L404.407,113.388L406.481,112.537L404.516,113.938L403.462,113.773L403.697,112.603ZM460.84,329.42L461.445,328.626L464.096,327.858L465.723,326.59L468.597,324.945L469.989,322.863L473.596,320.822L475.024,320.417L476.703,321.004L477.057,322.355L476.696,323.082L474.816,324.251L473.731,325.474L473.329,327.709L472.457,328.635L470.53,329.168L467.263,330.556L464.833,331.142L463.065,331.18L461.395,330.419ZM462.814,297.909L463.254,297.806L464.86,299.314L464.249,300.124L463.713,298.802ZM462.291,298.715L462.828,298.69L463.672,299.756L462.768,299.901ZM413.469,109.641L414.171,108.947L415.946,108.976L415.495,109.918L413.993,110.071ZM407.669,106.171L408.329,105.233L407.804,103.783L408.844,104.597L407.991,106.253ZM468.166,300.607L468.851,300.103L469.524,301.454L468.561,301.909ZM419.834,92.343L421.326,93.078L419.583,93.264ZM480.374,261.099L480.714,260.388L481.743,260.38L481.266,261.764ZM508.655,277.013L509.476,275.286L510.827,275.216L510.22,277.979L509.389,278.5L509.241,277.397ZM478.592,270.617L480.278,270.274L479.943,271.559L479.199,271.82ZM457.699,328.68L459.23,328.486L459.289,329.192L457.804,329.552ZM351.614,335.943L353.385,333.357L356.271,330.601L357.98,330.196L360.298,330.275L362.474,330.799L363.558,331.51L363.32,331.969L359.693,331.473L357.66,331.812L356.298,332.592L354.263,335.224L352.828,336.546L351.697,336.807ZM519.398,297.736L520.199,296.798L520.842,297.203L519.907,298.273ZM425.843,117.912L425.152,117.813L425.49,116.817L428.59,116.132L429.186,116.937L428.143,117.66ZM427.344,298.566L428.841,298.252L429.865,299.26L428.163,299.339ZM474.944,248.808L477.048,247.176L477.851,246.973L478.001,248.291L477.306,248.795L476.026,248.489L475.088,249.349ZM424.187,110.372L427.137,109.782L427.376,110.534L425.825,110.538L423.55,111.129ZM524.7,259.838L526.023,259.235L525.348,261.008L528.378,260.615L528.547,261.367L526.619,262.131L524.166,262.02L524.041,261.012ZM422.697,94.52L421.586,93.273L422.33,93.215ZM401.779,106.348L403.029,106.311L402.915,106.795ZM500.341,272.299L500.779,271.411L502.342,271.824L501.534,273.03ZM479.888,314.414L481.284,314.406L481.652,314.935L480.411,315.042ZM475.893,316.658L478.065,315.712L478.768,315.931L478.058,316.645L476.213,317.079ZM492.144,310.031L493.013,309.8L495.4,310.427L495.799,310.783L495.041,311.807L492.477,311.039ZM460.786,319.525L461.901,319.194L462.656,321.025L461.041,320.554ZM498.664,285.627L499.26,284.325L499.602,285.771ZM523.927,290.378L524.746,290.146L524.534,291.32ZM454.464,295.315L456.462,294.237L456.745,294.637L454.868,295.683ZM480.559,244.581L480.887,243.693L482.268,241.925L483.08,242.057L482.927,242.776L480.881,244.639ZM478.652,233.84L478.652,231.733L479.687,231.563L479.459,233.711ZM485.818,248.13L486.395,247.13L487.038,247.151L486.317,248.663ZM403.579,105.886L404.058,105.353L404.594,106.646ZM461.883,297.851L461.707,298.686L460.758,298.161L461.212,297.5ZM363.252,323.421L363.658,322.421L365.634,321.029L366.74,320.905L366.861,322.219L366.058,323.466L364.532,324.309L363.539,324.235ZM530.57,232.088L530.849,231.757L531.686,233.501L531.51,233.885ZM406.474,102.862L407.126,102.692L407.391,103.585ZM426.605,105.989L426.411,105.278L428.275,104.159L428.556,104.456ZM408.228,116.363L409.901,116.128L409.873,116.681L408.598,117.185ZM459.586,269.283L459.846,266.697L460.238,266.676L460.062,269.671ZM482.888,315.641L483.386,316.901L482.528,316.811ZM494.984,264.953L496.235,264.738L495.185,265.465ZM480.707,113.578L480.741,112.835L483.164,112.438L483.491,112.855ZM512.1,286.693L512.643,287.403L511.253,288.002L510.845,286.965ZM455.009,288.969L455.919,289.101L455.422,289.675ZM479.785,329.845L480.084,329.337L481.225,329.424L480.331,330.477ZM475.528,251.786L476.667,249.873L477.246,250.258ZM556.293,250.373L557.051,248.721L557.82,248.795L557.895,249.617L556.98,250.882ZM469.355,263.697L469.909,262.859L471.08,262.222L471.419,262.627L469.861,263.751ZM480.351,232.906L481.134,232.336L481.382,233.918ZM528.387,257.128L529.888,256.794L530.116,257.413ZM376.149,316.753L376.195,316.455L378.821,315.352L379.598,315.745L378.478,317.319L376.432,317.852ZM494.373,306.957L495.315,306.924L494.635,307.75ZM444.211,317.806L445.172,316.749L445.726,316.889ZM465.02,246.754L465.873,246.027L466.088,246.742ZM543.654,261.727L544.067,260.785L544.674,261.892ZM468.629,116.904L470.931,116.47L470.963,117.074ZM379.827,319.376L380.634,318.876L380.655,319.921ZM500.574,307.432L500.688,306.718L501.79,306.627L501.678,308.168L500.88,308.188ZM402.744,330.981L403.344,329.531L404.548,329.787L403.839,331.006ZM405.678,302.896L406.645,302.739L407.149,303.466L405.865,304.139ZM376.17,324.627L376.772,323.933L377.427,324.478L376.838,325.036ZM422.626,296.579L423.587,296.054L423.776,296.74ZM412.264,317.885L412.98,317.005L414.425,317.327L414.561,318.017L413.243,318.467ZM513.781,267.362L514.395,266.523L515.027,267.411L514.39,268.151ZM543.873,252.427L544.519,251.332L546.399,251.154L547.613,252.154L547.273,252.951ZM484.426,338.434L484.807,339.566L483.582,339.711ZM405.981,328.321L406.492,326.817L407.361,326.358L407.932,327.011L406.891,328.383ZM427.098,374.394L427.944,373.741L427.972,375.266ZM478.134,298.574L478.588,297.699L479.774,297.232L480.189,297.699L479.286,298.608ZM484.775,320.054L485.907,319.459L486.05,320.326L485.154,320.773ZM453.517,345.441L453.725,346.482L452.944,346.42ZM529.781,109.083L530.353,108.365L531.084,108.699L531.081,109.695L530.242,110.335ZM545.879,267.49L546.511,267.085L546.791,268.159ZM438.571,28.104L438.583,26.699L439.457,26.625L439.696,27.889ZM474.429,117.074L474.848,116.218L476.233,116.499ZM459.243,36.301L458.44,35.239L458.618,34.611L460.323,34.251L461.418,34.603L461.278,35.941L460.275,36.482ZM430.141,391.411L430.819,391.056L431.814,392.18L430.919,392.849L430.189,392.564ZM405.201,321.958L405.52,321.326L407.044,321.454L406.891,322.479ZM420.119,297.864L421.207,297.587L421.036,298.356ZM436.08,323.524L437.063,322.946L437.006,323.933ZM428.469,380.157L429.284,379.98L429.854,382.178L429.238,382.537ZM426.991,377.819L427.125,377.051L427.938,377.298L428.042,378.451L427.529,378.802ZM496.935,170.265L498.452,169.542L498.826,170.402L497.818,170.873ZM436.454,394.233L436.548,393.109L437.572,392.866L437.353,394.262ZM427.828,391.345L428.925,391.093L429.151,391.787L428.127,392.279ZM419.681,98.445L419.295,97.503L420.559,97.962ZM419.857,125.733L419.118,125.266L420.304,124.531ZM429.176,384.954L430.002,383.921L431.127,383.991L430.981,384.855L429.874,385.446ZM486.767,331.857L488.361,331.436L488.318,332.46L487.561,332.667ZM403.104,324.429L404.341,323.094L404.729,323.615L403.88,325.334ZM461.867,122.168L462.656,122.064L462.72,122.928ZM486.201,117.008L485.827,117.896L485.446,117.02ZM531.127,293.323L530.908,294.022L529.89,293.514ZM430.025,108.051L430.36,106.997L430.899,107.662ZM506.702,258.207L507.781,258.145L507.147,258.868ZM426.717,281.132L428.077,280.904L428.113,281.83L426.626,281.611ZM478.414,126.927L478.435,127.799L477.702,127.538ZM544.676,242.743L544.802,244.007L543.812,243.115ZM554.32,243.466L554.309,244.275L553.398,243.532ZM467.491,285.135L468.164,284.962L467.698,286.193Z" stroke="#333" stroke-width="2" stroke-dasharray="none" fill="none"></path></g></svg>