<svg width="888" height="433"><g><path d="M391.951,350.267L394.511,284.367L379.284,263.612L374.798,258.313L359.049,239.747L346.095,211.076L332.931,181.939L332.343,177.26L327.435,169.054L323.31,163.084L318.892,143.297L319.58,134.366L322.427,126.504L326.059,121.307L322.623,118.955L338.141,96.134L340.971,84.345L345.311,66.271L344.815,56.742L344.428,49.464L341.829,46.883L339.41,38.153L336.279,27.957L342.861,23.303L344.609,23.502L345.552,23.184L347.772,22.893L354.166,22.89L363.918,25.245L364.911,25.287L365.439,25.046L366.163,24.134L366.805,24.479L367.649,22.805L367.858,22.721L369.251,20.461L369.447,19.89L372.73,12.704L376.138,10.264L379.082,10.387L380.106,10.816L385.624,10.946L387.717,11.8L388.021,11.421L390.217,11.141L391.692,11.59L393.273,11.601L394.873,11.153L396.11,10.383L399.1,10L398.657,15.252L398.859,15.796L399.369,16.171L403.277,13.976L439.541,28.513L440.58,29.045L462.098,42.509L468.393,64.747L469.194,85.873L491.609,130.372L507.965,162.85L530.873,208.342L562.275,300.89L569.108,320.986L568.427,322.873L546.735,350.65L485.138,409.68L480.737,412.608L471.428,415.601L417.232,423L412.26,422.992L393.834,418.797L390.082,398.312ZM507.504,59.852L507.496,80.71L506.411,83.855L498.532,89.611L473.815,89.064L471.506,87.489L470.424,84.992L470.424,63.64L470.8,59.932Z" fill="#eee" opacity="0.5"></path><path d="M391.951,350.267L394.511,284.367L379.284,263.612L374.798,258.313L359.049,239.747L346.095,211.076L332.931,181.939L332.343,177.26L327.435,169.054L323.31,163.084L318.892,143.297L319.58,134.366L322.427,126.504L326.059,121.307L322.623,118.955L338.141,96.134L340.971,84.345L345.311,66.271L344.815,56.742L344.428,49.464L341.829,46.883L339.41,38.153L336.279,27.957L342.861,23.303L344.609,23.502L345.552,23.184L347.772,22.893L354.166,22.89L363.918,25.245L364.911,25.287L365.439,25.046L366.163,24.134L366.805,24.479L367.649,22.805L367.858,22.721L369.251,20.461L369.447,19.89L372.73,12.704L376.138,10.264L379.082,10.387L380.106,10.816L385.624,10.946L387.717,11.8L388.021,11.421L390.217,11.141L391.692,11.59L393.273,11.601L394.873,11.153L396.11,10.383L399.1,10L398.657,15.252L398.859,15.796L399.369,16.171L403.277,13.976L439.541,28.513L440.58,29.045L462.098,42.509L468.393,64.747L469.194,85.873L491.609,130.372L507.965,162.85L530.873,208.342L562.275,300.89L569.108,320.986L568.427,322.873L546.735,350.65L485.138,409.68L480.737,412.608L471.428,415.601L417.232,423L412.26,422.992L393.834,418.797L390.082,398.312ZM507.504,59.852L507.496,80.71L506.411,83.855L498.532,89.611L473.815,89.064L471.506,87.489L470.424,84.992L470.424,63.64L470.8,59.932Z" stroke="#747569" stroke-width="1" stroke-dasharray="3,3" fill="none"></path><path d="M391.951,350.267L394.511,284.367L379.284,263.612L374.798,258.313L359.049,239.747L346.095,211.076L332.931,181.939L332.343,177.26L327.435,169.054L323.31,163.084L318.892,143.297L319.58,134.366L322.427,126.504L326.059,121.307L322.623,118.955L338.141,96.134L340.971,84.345L345.311,66.271L344.815,56.742L344.428,49.464L341.829,46.883L339.41,38.153L336.279,27.957L342.861,23.303L344.609,23.502L345.552,23.184L347.772,22.893L354.166,22.89L363.918,25.245L364.911,25.287L365.439,25.046L366.163,24.134L366.805,24.479L367.649,22.805L367.858,22.721L369.251,20.461L369.447,19.89L372.73,12.704L376.138,10.264L379.082,10.387L380.106,10.816L385.624,10.946L387.717,11.8L388.021,11.421L390.217,11.141L391.692,11.59L393.273,11.601L394.873,11.153L396.11,10.383L399.1,10L398.657,15.252L398.859,15.796L399.369,16.171L403.277,13.976L439.541,28.513L440.58,29.045L462.098,42.509L468.393,64.747L469.194,85.873L491.609,130.372L507.965,162.85L530.873,208.342L562.275,300.89L569.108,320.986L568.427,322.873L546.735,350.65L485.138,409.68L480.737,412.608L471.428,415.601L417.232,423L412.26,422.992L393.834,418.797L390.082,398.312ZM507.504,59.852L507.496,80.71L506.411,83.855L498.532,89.611L473.815,89.064L471.506,87.489L470.424,84.992L470.424,63.64L470.8,59.932Z" stroke="#333" stroke-width="2" stroke-dasharray="none" fill="none"></path></g></svg>